<svg width="750" height="820" viewBox="0 0 750 820" fill="none" xmlns="http://www.w3.org/2000/svg">
<path fill-rule="evenodd" clip-rule="evenodd" d="M433.464 0.55237C546.724 -5.86181 667.693 43.5266 727.478 151.802C782.316 251.118 722.579 369.518 700.217 483.663C677.467 599.789 693.687 748.486 599.825 803.404C504.915 858.935 403.817 761.135 305.049 714.871C193.718 662.723 37.5804 655.651 5.48402 525.01C-26.9936 392.818 91.9223 284.202 174.407 183.124C246.884 94.3082 326.357 6.61814 433.464 0.55237Z" fill="#C4E8FA"/>
<path d="M139.706 530.997H110.049V595.762H139.706V530.997Z" fill="#703C14"/>
<g style="mix-blend-mode:multiply" opacity="0.18">
<path d="M139.706 530.997H110.049V564.132H139.706V530.997Z" fill="#000001"/>
</g>
<path d="M124.854 623.632C136.924 623.632 146.709 613.595 146.709 601.213C146.709 588.832 136.924 578.795 124.854 578.795C112.783 578.795 102.998 588.832 102.998 601.213C102.998 613.595 112.783 623.632 124.854 623.632Z" fill="#262C38"/>
<path d="M124.853 607.606C128.279 607.606 131.057 604.744 131.057 601.214C131.057 597.683 128.279 594.822 124.853 594.822C121.426 594.822 118.648 597.683 118.648 601.214C118.648 604.744 121.426 607.606 124.853 607.606Z" fill="#52565F"/>
<path d="M699.203 530.997H669.545V595.762H699.203V530.997Z" fill="#703C14"/>
<g style="mix-blend-mode:multiply" opacity="0.18">
<path d="M699.203 530.997H669.545V564.132H699.203V530.997Z" fill="#000001"/>
</g>
<path d="M684.399 623.632C696.47 623.632 706.255 613.595 706.255 601.213C706.255 588.832 696.47 578.795 684.399 578.795C672.329 578.795 662.544 588.832 662.544 601.213C662.544 613.595 672.329 623.632 684.399 623.632Z" fill="#262C38"/>
<path d="M684.4 607.606C687.826 607.606 690.604 604.744 690.604 601.214C690.604 597.683 687.826 594.822 684.4 594.822C680.973 594.822 678.195 597.683 678.195 601.214C678.195 604.744 680.973 607.606 684.4 607.606Z" fill="#52565F"/>
<path d="M739.391 171.457L721.766 493.916V496.36L720.262 523.572C720.044 528.134 718.173 532.461 714.998 535.744C713.746 537.004 712.322 538.08 710.768 538.94C708.222 540.351 705.36 541.095 702.449 541.102H114.563C111.668 541.089 108.823 540.346 106.291 538.94C104.728 538.095 103.302 537.018 102.061 535.744C98.8903 532.454 97.0057 528.134 96.7501 523.572L95.2931 496.36V493.916L77.6678 171.598C77.4888 169.124 77.8148 166.64 78.6266 164.296C79.4383 161.952 80.7186 159.798 82.3894 157.964C84.0602 156.131 86.0867 154.657 88.3454 153.631C90.6042 152.606 93.048 152.051 95.5281 152H721.766C724.216 152.077 726.624 152.646 728.849 153.674C731.073 154.702 733.067 156.168 734.713 157.984C736.358 159.801 737.62 161.93 738.424 164.245C739.228 166.559 739.557 169.013 739.391 171.457Z" fill="#9A441E"/>
<path d="M700.004 196.555L684.165 495.561C684.186 495.78 684.186 496 684.165 496.219C683.889 498.859 682.657 501.306 680.699 503.099C678.742 504.891 676.196 505.905 673.543 505.948H143.045C140.388 505.915 137.837 504.905 135.877 503.11C133.918 501.316 132.688 498.863 132.423 496.219C132.403 496 132.403 495.78 132.423 495.561L116.63 196.555C116.535 195.081 116.74 193.603 117.233 192.21C117.726 190.817 118.497 189.539 119.499 188.453C120.501 187.368 121.714 186.497 123.063 185.894C124.412 185.291 125.869 184.969 127.347 184.947H689.288C690.765 184.969 692.223 185.291 693.572 185.894C694.921 186.497 696.133 187.368 697.135 188.453C698.138 189.539 698.908 190.817 699.402 192.21C699.895 193.603 700.1 195.081 700.004 196.555Z" fill="#00704F"/>
<g style="mix-blend-mode:multiply" opacity="0.07">
<path d="M125.748 207.788L141.54 505.854C139.053 505.454 136.782 504.206 135.111 502.321C133.44 500.436 132.473 498.031 132.375 495.514L116.536 196.602C116.433 195.124 116.633 193.641 117.124 192.242C117.614 190.844 118.384 189.56 119.387 188.47C120.39 187.379 121.604 186.504 122.957 185.898C124.309 185.292 125.771 184.969 127.252 184.947H689.288C690.74 184.971 692.173 185.284 693.502 185.87C694.832 186.455 696.031 187.3 697.029 188.355C698.027 189.411 698.805 190.654 699.315 192.014C699.826 193.374 700.06 194.822 700.004 196.273H698.547H136.464C134.995 196.296 133.546 196.616 132.204 197.213C130.861 197.81 129.653 198.672 128.653 199.748C127.652 200.823 126.879 202.09 126.379 203.471C125.88 204.853 125.666 206.321 125.748 207.788Z" fill="#000001"/>
</g>
<g style="mix-blend-mode:multiply" opacity="0.07">
<path d="M684.162 496.219C683.887 498.858 682.654 501.306 680.697 503.098C678.74 504.891 676.194 505.904 673.54 505.947H143.042C140.385 505.915 137.834 504.904 135.875 503.11C133.915 501.315 132.685 498.862 132.42 496.219H684.162Z" fill="#000001"/>
</g>
<path d="M733.046 551.536L82.5548 548.387C81.6783 548.375 80.8128 548.19 80.0077 547.843C79.2026 547.497 78.4738 546.995 77.8628 546.366C77.2517 545.738 76.7705 544.995 76.4465 544.181C76.1225 543.366 75.9622 542.496 75.9746 541.619L74.0947 514.501C74.4249 512.357 75.4183 510.37 76.9356 508.819C78.4529 507.268 80.4181 506.231 82.5548 505.853H732.2C733.962 505.878 735.643 506.599 736.875 507.858C738.108 509.117 738.793 510.812 738.78 512.574V541.619C738.78 545.614 736.665 551.536 733.046 551.536Z" fill="#AA6241"/>
<path d="M736.147 507.217C735.865 514.313 730.225 519.624 725.524 524.465C715.845 534.162 705.478 543.146 694.504 551.348H733.045C736.664 551.348 738.779 545.192 738.779 541.432V512.715C738.804 511.656 738.579 510.606 738.122 509.65C737.665 508.695 736.988 507.861 736.147 507.217Z" fill="#8D2C01"/>
<path d="M729.99 509.707H80.674C76.988 509.707 74 512.695 74 516.381V545.567C74 549.253 76.988 552.241 80.674 552.241H729.99C733.676 552.241 736.664 549.253 736.664 545.567V516.381C736.664 512.695 733.676 509.707 729.99 509.707Z" fill="#9A441E"/>
<path d="M190.091 315.32C190.091 314.991 190.091 314.662 190.091 314.38L190.373 313.581L202.406 278.802C202.488 278.55 202.634 278.324 202.829 278.144C202.931 278.02 203.06 277.921 203.207 277.856C203.354 277.791 203.514 277.761 203.675 277.768H207.717C207.87 277.755 208.023 277.773 208.169 277.822C208.314 277.87 208.448 277.948 208.563 278.05L208.986 278.567L209.879 280.541L224.308 313.722C224.29 313.799 224.29 313.88 224.308 313.957C224.308 313.957 224.308 313.957 224.308 314.286C224.308 314.615 223.932 315.085 223.227 315.085L218.856 315.32C218.706 315.339 218.554 315.329 218.409 315.288C218.264 315.248 218.128 315.179 218.01 315.085C217.777 314.921 217.597 314.692 217.493 314.427L216.976 313.252L215.942 310.855L214.908 308.411L199.586 309.022L198.504 312.453C198.128 313.487 197.799 314.427 197.564 315.226C196.979 316.233 196.041 316.986 194.932 317.341C194.264 317.459 193.58 317.459 192.911 317.341H191.783C191.4 317.331 191.026 317.218 190.702 317.012C190.412 316.852 190.191 316.593 190.078 316.281C189.966 315.97 189.97 315.628 190.091 315.32ZM206.307 287.403C205.508 289.8 204.709 292.103 203.957 294.829C203.205 297.555 202.359 299.81 201.56 302.207L212.135 301.737L206.307 287.403Z" fill="white"/>
<path d="M229.058 282.421L229.716 282.186H230.374H232.865C233.063 282.146 233.267 282.161 233.457 282.227C233.647 282.293 233.816 282.409 233.947 282.562C234.186 282.88 234.347 283.251 234.416 283.643L235.074 286.745C235.631 286.038 236.228 285.363 236.861 284.724C237.484 284.07 238.177 283.487 238.929 282.985C239.76 282.485 240.642 282.075 241.561 281.763C242.591 281.414 243.669 281.224 244.757 281.199C246.21 281.146 247.665 281.289 249.081 281.622C250.442 281.971 251.753 282.492 252.982 283.173C254.183 283.837 255.29 284.659 256.272 285.617C257.289 286.594 258.173 287.7 258.904 288.907C259.633 290.152 260.217 291.476 260.643 292.855C261.068 294.291 261.305 295.776 261.348 297.273C261.456 298.849 261.329 300.433 260.972 301.972C260.659 303.384 260.185 304.756 259.562 306.061C258.905 307.301 258.117 308.467 257.212 309.539C256.305 310.583 255.262 311.5 254.11 312.265C252.93 313.058 251.65 313.691 250.303 314.145C248.934 314.589 247.51 314.842 246.073 314.897C245.074 315.021 244.064 315.021 243.065 314.897C242.18 314.723 241.325 314.422 240.526 314.004C239.738 313.641 238.996 313.183 238.318 312.641C237.642 312.116 236.999 311.551 236.39 310.949L236.908 323.404C236.922 323.776 236.805 324.142 236.579 324.438C236.445 324.605 236.272 324.735 236.075 324.817C235.878 324.9 235.663 324.931 235.451 324.908H231.361C230.976 324.909 230.6 324.794 230.28 324.579C230.115 324.452 229.981 324.288 229.892 324.101C229.802 323.913 229.758 323.706 229.763 323.498L228.259 283.69C228.173 283.415 228.173 283.119 228.259 282.844C228.467 282.613 228.75 282.463 229.058 282.421ZM254.298 297.461C254.262 296.149 253.975 294.857 253.452 293.654C252.958 292.488 252.258 291.421 251.384 290.505C250.522 289.642 249.5 288.956 248.376 288.484C247.221 287.985 245.966 287.76 244.71 287.826C243.434 287.871 242.183 288.191 241.043 288.766C239.923 289.324 238.918 290.09 238.083 291.022C237.232 291.955 236.562 293.039 236.108 294.218C235.628 295.427 235.404 296.724 235.451 298.024C235.595 300.659 236.698 303.15 238.553 305.027C239.477 305.891 240.542 306.591 241.701 307.095C242.897 307.569 244.176 307.793 245.462 307.753C246.73 307.722 247.972 307.383 249.081 306.766C250.177 306.212 251.139 305.427 251.901 304.463C252.71 303.489 253.331 302.374 253.734 301.173C254.14 299.963 254.331 298.69 254.298 297.414V297.461Z" fill="white"/>
<path d="M267.361 280.824C267.579 280.784 267.802 280.784 268.019 280.824H268.677H271.168C271.369 280.799 271.573 280.825 271.762 280.899C271.951 280.972 272.118 281.092 272.249 281.247C272.497 281.56 272.659 281.933 272.719 282.328L273.377 285.43C273.922 284.713 274.519 284.037 275.163 283.409C275.793 282.743 276.503 282.159 277.278 281.67C278.067 281.123 278.94 280.71 279.863 280.448C280.895 280.103 281.972 279.913 283.059 279.884C284.514 279.808 285.971 279.95 287.383 280.307C290.108 280.937 292.6 282.322 294.574 284.302C295.591 285.279 296.476 286.385 297.207 287.591C297.954 288.827 298.539 290.154 298.946 291.539C299.367 292.978 299.619 294.46 299.698 295.957C299.764 297.536 299.622 299.116 299.275 300.657C298.975 302.058 298.502 303.416 297.865 304.699C297.225 305.964 296.436 307.147 295.515 308.224C294.595 309.255 293.554 310.171 292.413 310.95C291.253 311.737 289.987 312.355 288.652 312.783C287.268 313.238 285.83 313.507 284.375 313.582C283.376 313.704 282.366 313.704 281.367 313.582C280.496 313.362 279.646 313.063 278.829 312.689C278.05 312.308 277.31 311.851 276.62 311.326C275.95 310.812 275.321 310.246 274.74 309.634L275.21 322.042C275.224 322.428 275.108 322.809 274.881 323.123C274.74 323.28 274.566 323.405 274.371 323.486C274.175 323.567 273.964 323.604 273.753 323.593H269.664C269.275 323.574 268.9 323.443 268.583 323.217C268.415 323.093 268.279 322.929 268.189 322.741C268.099 322.552 268.056 322.344 268.066 322.136L266.515 282.798C266.487 282.482 266.57 282.166 266.75 281.905C266.741 281.685 266.793 281.468 266.901 281.277C267.009 281.086 267.168 280.929 267.361 280.824ZM292.601 295.816C292.555 294.506 292.268 293.216 291.755 292.009C291.249 290.864 290.55 289.814 289.686 288.907C288.829 288.028 287.807 287.326 286.678 286.84C285.519 286.357 284.268 286.132 283.012 286.182C281.739 286.243 280.492 286.563 279.346 287.122C278.246 287.711 277.246 288.473 276.385 289.377C275.549 290.34 274.882 291.436 274.411 292.62C273.958 293.838 273.735 295.128 273.753 296.427C273.781 297.745 274.085 299.042 274.646 300.234C275.172 301.405 275.905 302.471 276.808 303.383C277.716 304.267 278.785 304.969 279.957 305.451C281.136 305.933 282.405 306.157 283.677 306.108C284.95 306.06 286.198 305.74 287.336 305.169C288.439 304.584 289.413 303.785 290.203 302.819C290.991 301.838 291.595 300.724 291.989 299.529C292.41 298.337 292.616 297.08 292.601 295.816Z" fill="white"/>
<path d="M304.447 271.047C304.428 270.652 304.526 270.26 304.729 269.919C304.862 269.765 305.029 269.643 305.216 269.562C305.403 269.48 305.606 269.442 305.809 269.449H310.133C310.31 269.453 310.485 269.492 310.646 269.565C310.808 269.638 310.953 269.742 311.073 269.872C311.228 269.998 311.354 270.156 311.443 270.334C311.532 270.512 311.582 270.707 311.59 270.906L313.094 309.915C313.121 310.12 313.101 310.327 313.036 310.522C312.971 310.718 312.862 310.896 312.718 311.043C312.428 311.328 312.043 311.496 311.637 311.513H307.501C307.293 311.55 307.08 311.539 306.877 311.482C306.673 311.426 306.485 311.324 306.326 311.184C306.076 310.862 305.943 310.464 305.951 310.056L304.447 271.047Z" fill="white"/>
<path d="M345.76 306.344C344.37 307.648 342.784 308.726 341.06 309.539C339.268 310.345 337.336 310.792 335.372 310.855C333.193 310.964 331.015 310.612 328.98 309.821C326.983 309.062 325.149 307.93 323.575 306.485C322.01 305.001 320.721 303.25 319.768 301.315C318.819 299.263 318.291 297.041 318.217 294.782C318.128 293.299 318.254 291.811 318.593 290.364C318.877 288.965 319.335 287.607 319.956 286.322C320.596 285.072 321.385 283.904 322.306 282.844C323.19 281.764 324.236 280.828 325.408 280.071C326.566 279.269 327.832 278.636 329.168 278.191C330.584 277.743 332.055 277.49 333.54 277.439C334.802 277.386 336.066 277.496 337.3 277.768C338.517 278.018 339.701 278.412 340.825 278.943C341.963 279.476 343.035 280.138 344.021 280.917C344.99 281.715 345.873 282.613 346.653 283.596C347.697 285.018 348.492 286.608 349.003 288.296C349.558 290.062 349.859 291.897 349.896 293.748C349.943 294.154 349.943 294.564 349.896 294.97C349.903 295.276 349.803 295.575 349.614 295.816C349.437 296.046 349.189 296.211 348.909 296.286C348.441 296.351 347.966 296.351 347.499 296.286L325.502 297.179C325.718 298.323 326.166 299.411 326.818 300.375C327.447 301.268 328.208 302.06 329.074 302.725C329.913 303.336 330.851 303.797 331.847 304.088C332.808 304.37 333.808 304.497 334.808 304.464C335.523 304.43 336.232 304.32 336.924 304.135C337.585 303.957 338.23 303.721 338.851 303.43C339.415 303.173 339.95 302.858 340.449 302.49C340.921 302.192 341.348 301.828 341.718 301.409L342.282 300.939C342.468 300.905 342.659 300.905 342.846 300.939H343.363C343.584 301.071 343.776 301.247 343.927 301.456L345.102 302.772L345.948 303.712C346.111 303.916 346.253 304.136 346.371 304.37C346.436 304.536 346.436 304.72 346.371 304.887C346.372 305.158 346.319 305.427 346.214 305.677C346.109 305.928 345.954 306.154 345.76 306.344ZM333.822 283.737C332.845 283.788 331.887 284.027 331.001 284.442C330.092 284.84 329.251 285.379 328.511 286.04C327.759 286.709 327.109 287.485 326.583 288.343C326.062 289.201 325.681 290.137 325.455 291.116L343.034 290.411C342.739 289.425 342.295 288.49 341.718 287.638C341.157 286.82 340.475 286.091 339.697 285.476C338.895 284.872 337.986 284.426 337.018 284.16C335.987 283.826 334.904 283.683 333.822 283.737Z" fill="white"/>
<path d="M358.119 332.475C358.918 333.227 358.824 335.577 357.508 335.953C356.43 336.069 355.343 336.069 354.265 335.953C353.513 335.953 352.761 336.752 351.915 336.611H351.351C350.646 336.611 349.941 337.034 349.377 336.611H349.048C348.766 336.611 348.108 336.611 348.014 336.611C348.014 336.611 347.591 336.611 347.309 336.611H345.993H345.288C345.053 336.611 344.912 336.611 344.959 336.893C345.006 337.175 344.959 336.893 345.241 337.222C344.945 337.175 344.644 337.175 344.348 337.222C344.07 337.291 343.78 337.291 343.502 337.222C343.22 337.222 343.032 336.94 343.173 336.799H342.797H342.233C342.182 336.824 342.126 336.836 342.069 336.836C342.012 336.836 341.955 336.824 341.904 336.799H339.93C339.366 336.799 339.366 336.799 339.084 336.423C338.714 336.166 338.321 335.945 337.909 335.765C337.675 335.596 337.398 335.498 337.11 335.483C336.704 335.504 336.306 335.6 335.935 335.765C335.559 335.765 334.948 335.765 334.807 335.765C334.666 335.765 334.807 336.047 335.183 336.235C335.559 336.423 334.619 336.893 334.055 336.799C333.539 336.577 333.004 336.404 332.457 336.282C332.457 336.564 331.799 336.705 331.282 336.564C330.765 336.423 329.919 336.564 329.872 336.564L328.65 336.047L328.039 336.799C326.39 336.516 324.705 336.516 323.057 336.799C322.526 336.867 321.989 336.867 321.459 336.799C320.783 336.636 320.122 336.416 319.484 336.141V336.611C318.943 336.876 318.348 337.014 317.745 337.014C317.143 337.014 316.548 336.876 316.006 336.611C316.006 337.081 315.019 337.41 314.267 337.41C313.57 337.381 312.885 337.222 312.246 336.94C311.977 337.21 311.654 337.421 311.297 337.559C310.941 337.696 310.56 337.758 310.178 337.739L309.426 337.504C307.452 336.987 304.726 339.196 302.987 338.256C302.987 338.256 302.658 338.256 302.752 337.88C302.846 337.504 303.269 337.598 303.598 337.551C304.223 337.625 304.854 337.625 305.478 337.551C305.658 337.386 305.788 337.174 305.854 336.94C304.961 337.316 303.833 336.658 302.893 336.94C301.953 337.222 302.047 337.786 301.483 338.115C300.881 338.258 300.253 338.258 299.65 338.115C299.885 337.786 299.65 337.457 299.133 337.363C298.661 337.201 298.149 337.201 297.676 337.363C297.676 337.645 297.676 337.88 297.676 338.162C297.676 338.444 295.514 339.901 295.185 339.666C294.856 339.431 295.514 339.102 295.185 338.867C294.856 338.632 293.963 338.867 294.01 338.867C294.057 338.867 293.164 339.947 292.318 340.088C291.459 340.182 290.592 340.182 289.733 340.088C288.386 339.872 287.004 340.086 285.785 340.699C285.785 340.699 285.55 340.699 285.362 340.981H284.892C284.492 340.981 284.101 340.866 283.764 340.652C283.012 340.934 282.589 341.733 281.79 341.733H281.132C280.427 341.733 279.863 342.485 279.252 342.344C278.641 342.203 279.252 342.344 278.876 342.344C278.5 342.344 277.936 342.344 277.889 342.673C277.842 343.002 277.889 342.673 277.889 342.673C277.889 342.673 277.513 342.908 277.231 342.955H275.915H274.975C274.933 342.955 274.893 342.963 274.855 342.98C274.817 342.997 274.784 343.022 274.757 343.054C274.73 343.085 274.71 343.122 274.699 343.162C274.688 343.202 274.686 343.244 274.693 343.284C274.8 343.314 274.914 343.314 275.022 343.284C274.758 343.237 274.487 343.237 274.223 343.284C273.942 343.326 273.657 343.326 273.377 343.284C273.095 343.284 272.86 343.284 273.001 342.908C273.142 342.532 273.001 342.908 273.001 342.908H272.625C272.625 342.908 272.108 342.908 272.108 343.237C272.108 343.566 272.108 343.237 272.108 343.237C272.108 343.237 272.108 343.237 271.779 343.237L269.899 343.66C269.763 343.739 269.609 343.78 269.452 343.78C269.296 343.78 269.141 343.739 269.006 343.66C268.579 343.485 268.139 343.343 267.69 343.237C267.426 343.189 267.155 343.189 266.891 343.237C266.503 343.368 266.139 343.559 265.81 343.801C265.434 343.801 264.87 344.177 264.635 343.801C264.4 343.425 264.917 344.083 265.152 344.224C265.387 344.365 264.776 344.976 264.212 345.023C263.664 344.977 263.114 344.977 262.567 345.023C262.849 345.023 262.003 345.634 261.486 345.634C260.969 345.634 260.122 345.634 260.169 346.104H258.854L258.43 346.997C256.809 347.153 255.222 347.565 253.73 348.219C253.259 348.49 252.753 348.696 252.226 348.83C251.538 348.878 250.847 348.878 250.158 348.83V349.253C249.722 349.658 249.198 349.957 248.628 350.128C248.058 350.299 247.456 350.338 246.868 350.24C246.868 350.71 246.163 351.274 245.458 351.462C244.76 351.601 244.042 351.601 243.343 351.462C243.181 351.81 242.939 352.115 242.637 352.351C242.334 352.588 241.981 352.751 241.604 352.825C241.339 352.848 241.071 352.848 240.805 352.825C240.084 353.002 239.4 353.305 238.784 353.718C237.811 354.305 236.648 354.491 235.541 354.235C235.541 354.799 234.695 355.316 233.99 355.739L233.473 356.021C232.49 356.689 231.434 357.241 230.324 357.666L229.901 357.29C230.794 356.961 231.546 356.162 231.358 355.598C231.17 355.034 229.619 355.269 229.337 355.974C229.055 356.679 229.337 356.679 229.337 357.055C229.337 357.431 229.008 358.183 228.632 358.794C228.256 359.405 228.115 359.358 227.88 359.264C227.645 359.17 227.88 358.653 227.504 358.559C227.128 358.465 226.282 358.559 226.376 358.935C226.47 359.311 225.859 360.204 225.107 360.58C224.336 360.965 223.512 361.234 222.663 361.379C221.295 361.534 220.02 362.147 219.044 363.118C218.96 363.264 218.848 363.392 218.715 363.494H218.292C218.039 363.602 217.768 363.659 217.493 363.659C217.218 363.659 216.946 363.602 216.694 363.494C216.352 363.24 216.064 362.92 215.848 362.554C215.848 362.554 215.566 363.071 215.237 363.165C215.141 363.254 215.015 363.304 214.884 363.304C214.754 363.304 214.628 363.254 214.532 363.165C214.485 362.932 214.485 362.693 214.532 362.46C214.413 362.397 214.287 362.349 214.156 362.319C214.156 362.319 213.733 361.99 214.156 361.708L214.532 361.426L215.989 360.486C215.66 360.486 215.707 359.781 215.989 359.452C216.192 359.299 216.439 359.217 216.694 359.217C216.948 359.217 217.195 359.299 217.399 359.452C217.399 358.794 219.091 358.747 219.608 358.136C220.125 357.525 219.608 357.713 219.937 357.525C220.356 357.166 220.889 356.967 221.441 356.961C222.44 356.864 223.404 356.542 224.261 356.021C225.012 355.823 225.726 355.506 226.376 355.081C226.88 354.604 227.28 354.028 227.551 353.389C227.754 353.071 228.032 352.807 228.359 352.619C228.686 352.431 229.054 352.324 229.431 352.308C230.042 352.308 229.901 353.154 229.431 353.671C229.757 353.712 230.088 353.668 230.392 353.545C230.696 353.421 230.964 353.222 231.17 352.966C231.5 352.526 231.71 352.008 231.781 351.462C231.804 351.336 231.853 351.216 231.926 351.111C231.999 351.005 232.094 350.917 232.204 350.851C232.721 350.522 233.285 350.851 233.849 350.616C234.413 350.381 234.366 350.24 234.695 350.099C235.024 349.958 236.246 350.099 237.139 350.099C238.032 350.099 239.019 349.3 239.066 348.689C239.146 348.622 239.242 348.577 239.344 348.558C239.447 348.538 239.553 348.545 239.652 348.578C239.751 348.611 239.839 348.669 239.91 348.746C239.98 348.823 240.029 348.917 240.053 349.018C240.083 349.116 240.134 349.206 240.203 349.282C240.271 349.357 240.355 349.418 240.449 349.458C240.543 349.498 240.644 349.517 240.746 349.515C240.848 349.512 240.949 349.487 241.04 349.441C241.149 349.386 241.24 349.302 241.304 349.199C241.368 349.095 241.402 348.976 241.402 348.854C241.402 348.732 241.368 348.613 241.304 348.509C241.24 348.405 241.149 348.321 241.04 348.266C240.664 347.984 240.241 347.561 240.711 347.138C240.895 346.959 241.121 346.829 241.369 346.762C242.121 346.48 242.967 346.339 243.719 346.01C244.471 345.681 244.659 345.352 245.082 345.211C245.364 345.059 245.679 344.979 245.999 344.979C246.319 344.979 246.634 345.059 246.915 345.211L247.526 344.553C250.816 344.788 254.67 342.109 257.913 341.169C259.606 340.746 261.344 340.464 263.083 340.182C263.612 340.091 264.153 340.091 264.682 340.182L264.353 340.746C264.647 340.886 264.978 340.93 265.299 340.871C265.619 340.812 265.913 340.653 266.139 340.417C265.849 340.394 265.58 340.259 265.387 340.042C266.154 339.814 266.97 339.814 267.737 340.042C267.079 340.042 268.442 339.525 268.348 339.572C268.254 339.619 269.476 339.572 270.134 339.149C270.655 338.765 271.274 338.537 271.92 338.491H272.625C273.214 338.388 273.784 338.198 274.317 337.927C274.881 337.927 275.774 337.927 275.586 337.927C275.398 337.927 276.197 337.927 276.385 337.504C276.929 337.044 277.602 336.764 278.312 336.705L282.683 335.953H283.2C283.314 335.781 283.478 335.65 283.67 335.577C284.14 335.577 284.845 335.577 285.033 335.812C285.456 335.248 286.913 335.812 287.571 335.201C288.229 334.59 287.853 334.872 288.088 334.731C288.341 334.625 288.613 334.57 288.887 334.57C289.161 334.57 289.433 334.625 289.686 334.731C290.662 334.942 291.671 334.942 292.647 334.731C293.424 334.736 294.198 334.641 294.95 334.449C295.582 334.167 296.143 333.75 296.595 333.227C296.866 332.969 297.199 332.786 297.561 332.696C297.923 332.605 298.303 332.61 298.663 332.71C299.227 333.039 298.663 333.65 298.287 334.026C298.575 334.186 298.898 334.27 299.227 334.27C299.556 334.27 299.88 334.186 300.167 334.026C300.612 333.707 300.955 333.266 301.154 332.757C301.293 332.53 301.511 332.363 301.765 332.287C302.329 332.287 302.799 332.569 303.363 332.287C303.676 332.308 303.99 332.308 304.303 332.287C305.243 332.287 305.807 332.757 306.653 332.945C307.499 333.133 308.721 332.945 308.909 332.099C309.009 332.071 309.113 332.065 309.215 332.082C309.317 332.098 309.414 332.137 309.499 332.195C309.584 332.254 309.655 332.33 309.708 332.419C309.76 332.508 309.792 332.607 309.802 332.71C309.792 332.813 309.807 332.918 309.845 333.014C309.883 333.111 309.944 333.197 310.022 333.266C310.1 333.335 310.193 333.384 310.294 333.41C310.395 333.436 310.5 333.437 310.601 333.415C310.728 333.432 310.856 333.409 310.969 333.349C311.081 333.29 311.172 333.196 311.229 333.082C311.286 332.968 311.306 332.84 311.286 332.714C311.266 332.588 311.208 332.471 311.118 332.381C310.883 331.958 310.554 331.441 311.118 331.159C311.367 331.109 311.622 331.109 311.87 331.159C312.622 331.159 313.515 331.159 314.314 331.159C315.113 331.159 315.396 330.783 315.866 330.736C316.182 330.719 316.499 330.773 316.792 330.895C317.085 331.017 317.346 331.204 317.558 331.441L318.309 330.971C321.411 332.099 325.783 330.454 329.167 330.36C330.91 330.376 332.652 330.486 334.384 330.689C334.918 330.692 335.445 330.804 335.935 331.018L335.465 331.488C335.731 331.682 336.052 331.787 336.381 331.787C336.711 331.787 337.032 331.682 337.298 331.488C336.969 331.488 336.734 331.159 336.687 330.924C337.48 330.816 338.287 330.964 338.99 331.347C338.379 331.018 339.789 330.971 339.695 331.018C339.601 331.065 340.776 331.018 341.528 331.018C342.103 330.764 342.736 330.667 343.361 330.736L344.019 331.018C344.609 331.132 345.215 331.132 345.805 331.018C346.416 331.018 347.262 331.018 347.027 331.582C346.792 332.146 347.638 331.582 347.873 331.3C348.479 331.027 349.136 330.887 349.8 330.887C350.464 330.887 351.121 331.027 351.727 331.3C351.856 331.452 351.997 331.594 352.15 331.723C352.761 332.052 354.218 331.723 355.017 331.723C356.089 331.778 357.141 332.033 358.119 332.475ZM257.961 343.519C257.466 343.402 256.951 343.402 256.456 343.519C256.138 343.6 255.847 343.762 255.611 343.989C255.046 344.412 255.61 344.365 256.362 343.989C256.914 343.908 257.452 343.749 257.961 343.519ZM272.672 342.861C272.568 342.905 272.456 342.928 272.343 342.928C272.23 342.928 272.118 342.905 272.014 342.861C271.714 342.64 271.352 342.521 270.98 342.521C270.608 342.521 270.245 342.64 269.946 342.861C269.429 343.237 269.946 343.237 270.651 343.284H271.309C271.404 343.29 271.496 343.324 271.572 343.383C271.647 343.442 271.703 343.522 271.732 343.613H272.39C272.39 343.613 272.907 342.767 272.672 342.814V342.861ZM328.744 332.193C328.289 331.974 327.791 331.862 327.287 331.864C326.977 331.793 326.656 331.793 326.347 331.864C325.689 332.193 326.347 332.287 327.052 332.24C327.617 332.301 328.189 332.269 328.744 332.146V332.193ZM343.173 335.06C342.96 335.135 342.728 335.135 342.515 335.06C342.3 334.754 341.989 334.528 341.632 334.418C341.275 334.307 340.891 334.318 340.541 334.449C339.977 334.684 340.541 334.872 341.152 335.013H341.481C341.572 335.041 341.653 335.097 341.712 335.173C341.77 335.248 341.805 335.34 341.81 335.436H342.656C342.656 335.436 343.408 334.966 343.173 335.013V335.06Z" fill="#FEFEFE"/>
<path d="M370.245 410.164L370.668 407.72C370.339 407.72 370.151 405.981 370.104 404.947C370.057 403.913 369.493 402.127 369.305 402.597C369.244 401.147 369.087 399.703 368.835 398.273C368.305 396.958 367.594 395.724 366.72 394.608C366.062 393.527 364.934 392.822 364.229 391.741C363.524 390.66 363.524 390.002 363.007 389.203C362.114 388.068 361.106 387.028 359.999 386.101C359.999 386.101 359.482 385.678 359.341 385.678C359.341 385.678 358.683 385.349 358.307 385.067L357.743 384.597V384.268C358.119 384.268 357.743 383.939 357.743 383.563C357.285 383.181 356.798 382.835 356.286 382.529C355.758 382.26 355.255 381.946 354.782 381.589C354.959 381.762 355.06 381.999 355.064 382.247C353.278 381.777 352.009 380.273 350.364 379.474C348.719 378.675 348.155 379.474 347.074 378.534C346.904 378.371 346.714 378.229 346.51 378.111C345.429 377.5 343.972 377.735 342.609 377.218L341.434 376.795C339.878 376.532 338.29 376.532 336.734 376.795C334.58 376.64 332.416 376.767 330.295 377.171C329.976 377.251 329.677 377.397 329.418 377.599C329.159 377.801 328.945 378.056 328.791 378.346H328.462C327.992 378.11 327.482 377.966 326.958 377.923C327.05 377.707 327.097 377.476 327.097 377.241C327.097 377.007 327.05 376.775 326.958 376.56C326.417 375.775 325.668 375.157 324.796 374.774C324.535 374.616 324.249 374.505 323.95 374.445C323.638 374.399 323.321 374.399 323.01 374.445C320.393 374.009 317.816 373.364 315.302 372.518C313.702 372.017 312.042 371.733 310.366 371.672C308.627 371.672 306.795 372.142 306.701 372.659C305.922 372.778 305.129 372.778 304.351 372.659C303.504 372.659 304.821 372.095 304.351 371.86C303.721 371.796 303.086 371.91 302.517 372.189C301.953 372.518 300.919 372.847 300.543 373.411C300.375 373.884 300.249 374.372 300.167 374.868C298.381 376.372 299.18 373.27 299.65 373.693C300.12 374.116 299.227 373.27 299.086 373.317C296.758 373.811 294.522 374.668 292.459 375.855L291.425 376.466C290.015 377.265 288.511 378.393 288.37 379.098C286.245 379.658 284.343 380.855 282.918 382.529C281.837 383.61 280.991 385.067 280.004 385.96C279.582 386.251 279.189 386.581 278.829 386.947C277.896 388.103 277.324 389.509 277.184 390.989C276.278 392.022 275.548 393.197 275.022 394.466C274.364 395.876 274.176 397.662 274.599 398.085C273.447 400.124 273.001 402.487 273.33 404.806H273.8C273.387 406.013 273.088 407.256 272.907 408.519C272.789 409.581 272.789 410.653 272.907 411.715C272.945 414.997 273.451 418.258 274.411 421.397L274.928 422.29C275.085 422.651 275.195 423.029 275.257 423.418C275.837 427.228 277.302 430.85 279.534 433.992L279.816 433.71C281.143 434.841 282.175 436.276 282.824 437.893C283.482 439.366 284.236 440.795 285.08 442.17C285.785 443.204 288.464 446.353 289.78 446.259C289.498 446.259 289.357 446.635 289.451 446.917C289.577 447.159 289.774 447.356 290.015 447.481L292.459 449.173C292.41 449.133 292.371 449.083 292.344 449.026C292.316 448.969 292.302 448.907 292.302 448.844C292.302 448.781 292.316 448.719 292.344 448.662C292.371 448.605 292.41 448.555 292.459 448.515C294.292 450.959 296.69 451.194 299.181 452.604C301.57 453.964 304.089 455.082 306.701 455.941C310.127 457.184 313.798 457.602 317.417 457.163C318.146 457.023 318.896 457.023 319.626 457.163C320.113 457.343 320.585 457.563 321.036 457.821C324.372 459.142 328.087 459.142 331.423 457.821C333.068 457.257 334.666 457.351 336.358 456.928C338.233 456.383 340.058 455.675 341.81 454.813C345.243 453.319 348.416 451.289 351.21 448.797C352.787 447.144 354.45 445.575 356.192 444.097C356.615 443.815 357.038 443.674 357.461 443.345C358.548 442.374 359.345 441.122 359.764 439.726C360.839 438.95 361.79 438.015 362.584 436.953C363.404 436.017 363.855 434.814 363.853 433.569C365.476 431.952 366.545 429.863 366.908 427.601H366.391C367.152 426.569 367.813 425.467 368.365 424.311C368.768 423.317 369.037 422.274 369.164 421.209C369.775 417.966 370.292 414.582 370.621 411.386L370.245 410.164ZM278.5 419.94C278.305 419.95 278.112 419.895 277.951 419.785C277.789 419.675 277.669 419.514 277.607 419.329C277.607 418.859 277.607 417.825 278.265 417.825C278.923 417.825 279.393 419.658 278.5 419.94ZM364.182 417.167C363.965 420.171 362.978 423.068 361.315 425.58C361.338 426.034 361.338 426.489 361.315 426.943C360.482 427.446 359.812 428.181 359.388 429.058C359.012 429.763 358.777 430.797 358.354 431.501C357.657 432.672 356.871 433.788 356.004 434.838C355.753 435.145 355.532 435.476 355.346 435.825C354.923 436.765 355.628 436.765 356.192 436.718C356.756 436.671 357.085 437.376 356.192 438.222C355.299 439.068 355.017 438.88 354.782 438.645C354.547 438.41 353.842 438.645 353.325 439.209C353.11 439.897 352.739 440.526 352.242 441.047C351.745 441.569 351.135 441.969 350.458 442.217C349.227 442.618 348.033 443.121 346.886 443.721C346.494 444.102 346.069 444.448 345.617 444.755C344.724 445.225 343.925 445.131 343.126 445.695C342.327 446.259 342.515 446.682 342.092 447.105C341.303 447.796 340.396 448.337 339.413 448.703C335.982 450.387 332.269 451.423 328.462 451.758C326.784 452.065 325.064 452.065 323.386 451.758C322.489 451.548 321.556 451.548 320.66 451.758L319.673 452.087C318.357 452.087 316.148 451.429 314.973 451.758C314.373 451.226 313.611 450.912 312.811 450.865C312.5 450.809 312.181 450.809 311.87 450.865L311.025 450.583C308.574 449.965 306.184 449.131 303.881 448.092C302.835 447.542 301.708 447.161 300.543 446.964C300.019 446.974 299.506 446.809 299.086 446.494C299.65 446.494 298.475 445.46 297.582 444.99C296.641 444.57 295.757 444.033 294.95 443.392C294.668 443.11 294.48 442.828 294.245 442.546C293.451 441.811 292.566 441.179 291.613 440.666C290.485 440.008 290.015 438.974 289.404 438.457C288.793 437.94 287.9 436.859 288.323 437.799C287.782 436.577 287.07 435.437 286.208 434.415C286.113 434.605 286.064 434.814 286.064 435.026C286.064 435.239 286.113 435.448 286.208 435.637C285.318 435.01 284.697 434.07 284.469 433.005L285.362 433.428C285.08 432.723 284.657 431.83 284.281 430.985C282.994 428.334 281.925 425.584 281.085 422.76C280.009 419.813 279.13 416.799 278.453 413.736C277.788 410.786 277.869 407.717 278.688 404.806C278.556 404.379 278.477 403.937 278.453 403.49C279.11 402.789 279.537 401.903 279.675 400.952C279.675 400.247 279.675 399.213 280.004 398.414C280.396 397.165 280.899 395.954 281.508 394.796C281.677 394.447 281.819 394.085 281.931 393.715C281.931 392.775 281.461 392.869 280.897 393.01C280.333 393.151 279.91 392.587 280.568 391.553C281.226 390.519 281.555 390.707 281.837 390.895C282.119 391.083 282.777 390.895 283.153 390.143C284.234 387.699 285.597 387.464 287.524 385.913C288.44 385.034 289.414 384.218 290.438 383.469C291.942 382.538 293.513 381.721 295.138 381.025C296.77 380.661 298.349 380.093 299.838 379.333C302.868 377.549 306.422 376.868 309.897 377.406C311.643 377.428 313.386 377.569 315.114 377.829C316.606 378.12 318.068 378.545 319.485 379.098C319.485 379.474 320.566 380.038 321.459 380.226C322.352 380.414 323.01 380.226 322.728 379.803C323.706 380.101 324.663 380.462 325.595 380.884C326.864 381.401 328.65 380.884 329.966 380.884C331.282 380.884 332.692 381.307 334.055 381.401C335.704 381.226 337.371 381.322 338.99 381.683C339.237 381.817 339.459 381.992 339.648 382.2C340.597 382.728 341.607 383.139 342.656 383.422C343.674 383.799 344.73 384.067 345.805 384.221C346.309 384.122 346.832 384.223 347.262 384.503C346.745 384.503 347.92 385.537 348.86 385.96C349.811 386.278 350.7 386.755 351.492 387.37C351.821 387.37 352.009 387.934 352.291 388.169C353.1 388.859 353.983 389.458 354.923 389.955C355.734 390.577 356.475 391.287 357.132 392.07C357.132 392.07 358.542 393.715 358.166 392.728C358.702 393.922 359.364 395.057 360.14 396.111C360.292 395.718 360.292 395.283 360.14 394.889C360.584 395.201 360.954 395.607 361.222 396.078C361.49 396.55 361.65 397.075 361.691 397.615C361.427 397.416 361.143 397.243 360.845 397.098C360.845 397.098 361.268 398.555 361.362 398.743C361.549 399.251 361.785 399.739 362.067 400.2C362.332 400.544 362.51 400.948 362.584 401.375C362.584 401.845 362.114 402.268 362.349 402.738C362.584 403.208 362.913 403.114 363.101 403.396C363.289 403.678 363.101 404.195 363.101 404.571C363.008 404.938 362.993 405.32 363.058 405.692C363.122 406.065 363.266 406.42 363.477 406.733C363.615 406.877 363.713 407.056 363.759 407.25C363.759 407.767 363.43 408.19 363.242 408.707C363.141 408.97 363.119 409.256 363.177 409.531C363.236 409.806 363.372 410.059 363.571 410.258C363.571 410.258 364.088 410.728 364.041 411.01C363.994 411.292 363.571 411.48 363.524 411.809C363.477 412.138 363.524 412.185 363.853 412.373C364.182 412.561 363.853 413.971 363.853 414.441C363.853 414.911 364.276 416.368 364.182 417.167Z" fill="white"/>
<path d="M336.359 359.922C337.284 359.422 338.315 359.148 339.367 359.123C340.636 359.123 341.247 361.567 341.858 362.366C341.749 362.501 341.601 362.599 341.435 362.648C341.905 363.353 341.106 364.199 341.012 365.045C340.918 365.891 342.563 368.006 341.012 368.57C343.127 367.818 340.119 377.029 340.26 377.17C340.26 377.17 339.931 377.17 339.696 377.17C339.461 377.17 338.004 384.784 336.171 385.254C336.97 385.254 335.56 387.651 335.419 387.886C335.012 388.793 334.352 389.564 333.519 390.106C332.685 390.648 331.713 390.938 330.719 390.941C329.497 390.941 328.51 390.941 327.758 390.189C326.207 388.215 328.839 386.241 330.202 385.066C331.119 384.176 331.811 383.08 332.223 381.87C333.21 379.52 333.539 376.888 334.573 374.539C335.048 373.561 335.365 372.514 335.513 371.437C335.513 369.886 334.996 368.429 335.09 366.737C335.096 366.227 335.203 365.724 335.404 365.256C335.606 364.788 335.898 364.365 336.265 364.011H335.748L335.325 362.084L335.701 361.802C335.419 362.648 335.513 360.345 336.359 359.922ZM333.868 381.682C333.788 381.641 333.699 381.62 333.609 381.62C333.519 381.62 333.431 381.641 333.351 381.682C333.351 381.682 333.351 381.682 333.351 381.964C333.351 382.246 333.68 381.964 333.774 381.964C333.826 381.88 333.843 381.779 333.821 381.682H333.868ZM338.098 379.849H337.863C337.393 379.849 336.876 379.849 337.111 379.849C337.346 379.849 337.487 379.849 337.675 379.849H338.004C338.004 379.849 338.239 379.849 338.38 379.849C338.38 379.849 338.051 379.802 338.051 379.849H338.098ZM337.017 366.361C337.017 366.361 336.641 366.361 336.641 366.69C336.641 367.019 336.641 366.69 336.641 366.69H337.064C337.08 366.632 337.08 366.57 337.063 366.512C337.046 366.454 337.014 366.402 336.97 366.361H337.017ZM339.837 362.742C339.367 362.742 338.897 363.165 339.273 363.259C339.649 363.353 339.649 363.259 339.79 363.259H340.213C340.213 363.259 339.79 362.695 339.79 362.742H339.837Z" fill="white"/>
<path d="M343.081 354.235C342.817 354.284 342.546 354.284 342.282 354.235C341.757 354.202 341.262 353.979 340.89 353.607C340.518 353.234 340.294 352.74 340.261 352.214C340.333 351.684 340.544 351.181 340.872 350.758C341.987 349.322 343.418 348.164 345.055 347.374C347.658 345.776 350.709 345.067 353.75 345.353C354.834 345.597 355.933 345.77 357.04 345.87C357.979 345.94 358.921 345.94 359.86 345.87C361.757 345.809 363.649 346.079 365.453 346.669C369.422 347.964 373.13 349.953 376.404 352.543C378.725 354.534 380.821 356.771 382.655 359.217C383.36 359.969 384.253 360.439 384.864 361.238C386.242 363.214 387.01 365.551 387.073 367.959C387.307 369.94 387.401 371.934 387.355 373.928C386.838 375.842 385.655 377.509 384.018 378.628H383.595C383.219 378.628 382.655 378.957 382.702 379.286C382.749 379.615 382.702 379.286 382.702 379.286C382.702 379.286 382.373 379.615 382.091 379.756C381.649 379.91 381.192 380.02 380.728 380.085H379.788C379.745 380.129 379.721 380.188 379.721 380.249C379.721 380.311 379.745 380.37 379.788 380.414C379.896 380.444 380.01 380.444 380.117 380.414C379.852 380.378 379.583 380.378 379.318 380.414C379.054 380.462 378.783 380.462 378.519 380.414C378.237 380.414 378.049 380.414 378.143 380.038C378.237 379.662 378.143 380.038 378.143 380.038C378.143 380.038 377.908 380.038 377.814 380.038C377.72 380.038 377.344 380.038 377.297 380.038C377.25 380.038 377.297 380.038 377.297 380.038C377.297 380.038 377.297 380.038 377.015 380.038C374.932 380.321 372.814 380.226 370.764 379.756C367.662 379.004 364.654 378.252 361.646 377.359C361.136 377.285 360.649 377.094 360.225 376.8C359.801 376.506 359.451 376.119 359.202 375.667C358.826 376.184 357.98 375.949 357.369 375.667C354.032 373.889 351.001 371.589 348.392 368.852C347.542 368.607 346.752 368.188 346.072 367.621C345.393 367.055 344.838 366.354 344.444 365.562C344.805 365.875 345.243 366.086 345.713 366.173C345.827 366.193 345.945 366.189 346.058 366.161C346.172 366.134 346.278 366.083 346.37 366.013C346.463 365.942 346.54 365.853 346.597 365.751C346.653 365.649 346.689 365.537 346.7 365.421C346.7 364.575 345.431 364.669 344.632 364.998C343.833 365.327 342.611 364.998 342.705 364.434C343.128 364.434 343.269 363.776 342.705 363.447C342.141 363.118 341.906 363.165 341.483 362.93C340.913 362.531 340.524 361.923 340.402 361.238L338.945 356.914C338.711 356.197 338.711 355.423 338.945 354.705C338.99 354.527 339.074 354.361 339.191 354.219C339.307 354.076 339.453 353.961 339.618 353.88C339.784 353.8 339.965 353.756 340.149 353.753C340.333 353.749 340.515 353.786 340.684 353.859C340.64 353.611 340.652 353.357 340.717 353.113C340.781 352.87 340.899 352.643 341.06 352.449C347.593 356.538 350.46 365.233 357.745 368.147C358.967 368.664 360.424 369.134 360.847 370.356C363.519 371.658 366.398 372.485 369.354 372.8C370.811 372.8 372.644 373.317 372.832 374.727C374.201 374.283 375.624 374.03 377.062 373.975C378.275 373.67 379.37 373.011 380.207 372.082C381.044 371.153 381.585 369.996 381.762 368.758C381.843 367.91 381.747 367.054 381.48 366.245C381.213 365.436 380.781 364.692 380.211 364.058C379.882 363.682 378.378 362.93 378.284 362.648C378.19 362.366 378.613 361.144 379.036 361.849C379.506 361.849 379.036 360.815 378.66 360.674C378.284 360.533 377.579 360.674 377.062 360.674C376.545 360.674 375.887 359.217 375.652 358.277C375.417 357.337 373.96 357.619 373.396 357.619C372.487 357.194 371.634 356.657 370.858 356.021C369.693 355.249 368.467 354.573 367.192 354C366.126 353.488 364.983 353.154 363.808 353.013L356.993 351.697C356.993 351.321 356.993 350.805 356.993 350.57C356.993 350.335 356.1 350.899 356.429 351.134L349.191 351.885C348.941 352.244 348.601 352.528 348.204 352.71C347.807 352.892 347.369 352.964 346.935 352.919C346.639 352.87 346.337 352.87 346.042 352.919C345.74 353.029 345.466 353.206 345.243 353.436C344.61 353.898 343.861 354.174 343.081 354.235Z" fill="white"/>
<path d="M469.04 488.84C448.51 489.233 428.16 484.942 409.537 476.291C386.037 465.481 366.861 447.763 364.699 423.464C362.866 402.268 387.118 395.265 403.051 402.268C409.634 405.115 415.308 409.716 419.454 415.569L444.036 425.438C451.95 425.862 459.669 428.048 466.63 431.838C473.59 435.627 479.617 440.923 484.268 447.34C500.859 469.523 476.701 488.511 469.04 488.84Z" fill="white" stroke="#7BAFDE" stroke-width="1.11" stroke-linecap="round" stroke-linejoin="round"/>
<path d="M452.167 621.564L453.483 634.301C454.564 644.359 468.241 648.025 494.75 645.252C540.717 640.552 546.968 623.914 546.451 618.509L545.182 605.679" fill="white"/>
<path d="M452.167 621.564L453.483 634.301C454.564 644.359 468.241 648.025 494.75 645.252C540.717 640.552 546.968 623.914 546.451 618.509L545.182 605.679" stroke="#FFC132" stroke-width="1.11" stroke-linecap="round" stroke-linejoin="round"/>
<path d="M458.936 558.116C460.158 570.289 462.179 589.37 462.837 595.715C463.495 602.06 450.805 607.935 452.074 620.766C453.061 630.635 463.589 634.489 490.238 633.126C535.735 630.823 545.84 612.447 545.323 607.089L539.683 553.604C539.683 553.604 522.387 553.98 458.936 558.116Z" fill="#FFE72C"/>
<path d="M461.379 582.038C478.988 585.111 497.016 584.872 514.538 581.333C524.045 579.548 533.296 576.596 542.081 572.544" stroke="white" stroke-width="1.39" stroke-miterlimit="10"/>
<path d="M458.936 558.116C460.158 570.289 462.179 589.37 462.837 595.715C463.495 602.06 450.805 607.935 452.074 620.766C453.061 630.635 463.589 634.489 490.238 633.126C535.735 630.823 545.84 612.447 545.323 607.089L539.683 553.604C539.683 553.604 522.387 553.98 458.936 558.116Z" stroke="#FFC132" stroke-width="1.11" stroke-linecap="round" stroke-linejoin="round"/>
<path d="M506.642 636.933L507.958 649.67C509.039 659.728 522.716 663.393 549.224 660.621C595.238 655.921 601.442 639.236 600.925 633.878L599.562 620.813" fill="white"/>
<path d="M506.642 636.933L507.958 649.67C509.039 659.728 522.716 663.393 549.224 660.621C595.238 655.921 601.442 639.236 600.925 633.878L599.562 620.813" stroke="#FFC132" stroke-width="1.11" stroke-linecap="round" stroke-linejoin="round"/>
<path d="M513.41 573.484C514.632 585.61 516.653 604.692 517.311 611.083C517.969 617.475 505.279 623.303 506.548 636.134C507.535 646.003 518.063 649.857 544.713 648.494C590.21 646.191 600.315 627.815 599.798 622.41L594.158 569.114C594.158 569.114 576.862 569.349 513.41 573.484Z" fill="#FFE72C"/>
<path d="M515.9 597.313C533.493 600.387 551.506 600.148 569.011 596.608C578.519 594.823 587.77 591.871 596.554 587.819" stroke="white" stroke-width="1.39" stroke-miterlimit="10"/>
<path d="M513.41 573.484C514.632 585.61 516.653 604.692 517.311 611.083C517.969 617.475 505.279 623.303 506.548 636.134C507.535 646.003 518.063 649.857 544.713 648.494C590.21 646.191 600.315 627.815 599.798 622.41L594.158 569.114C594.158 569.114 576.862 569.349 513.41 573.484Z" stroke="#FFC132" stroke-width="1.11" stroke-linecap="round" stroke-linejoin="round"/>
<path d="M660.666 513.091C658.481 522.743 653.482 531.53 646.3 538.339C639.118 545.148 630.078 549.673 620.323 551.342C610.568 553.01 600.537 551.747 591.501 547.712C582.464 543.677 574.828 537.051 569.559 528.674C564.29 520.297 561.626 510.545 561.902 500.652C562.179 490.76 565.385 481.172 571.114 473.103C576.843 465.033 584.838 458.845 594.086 455.322C603.334 451.798 613.419 451.097 623.066 453.309C635.97 456.267 647.175 464.221 654.224 475.428C661.272 486.635 663.589 500.179 660.666 513.091Z" fill="white" stroke="#7BAFDE" stroke-width="1.11" stroke-linecap="round" stroke-linejoin="round"/>
<path d="M451.417 463.366C450.242 468.066 449.396 471.215 449.161 472.061C441.735 497.816 432.617 517.18 446.811 542.559C463.027 571.51 501.849 586.503 532.917 586.268C574.465 585.892 619.304 567.468 625.32 533.629C629.503 510.13 626.683 489.168 621.325 466.327C619.21 457.303 614.228 436.107 611.925 427.271C601.867 427.976 591.432 428.587 580.669 428.963" fill="white"/>
<path d="M451.417 463.367C450.242 468.066 449.396 471.215 449.161 472.061C441.735 497.817 432.617 517.18 446.811 542.559C463.027 571.511 501.896 584.858 532.917 584.2C582.409 583.166 621.279 566.2 627.342 532.502C631.525 509.002 626.684 489.075 621.326 466.234C619.211 457.21 614.229 436.013 611.925 427.178C613.382 422.696 613.837 417.949 613.261 413.272C612.684 408.595 611.089 404.101 608.588 400.106C604.929 394.835 599.698 390.855 593.642 388.733C548.004 366.596 497.948 374.069 471.44 404.054C452.545 425.721 451.323 452.792 451.417 463.367Z" fill="white"/>
<path d="M451.414 463.366C450.239 468.066 449.393 471.215 449.158 472.061C441.732 497.816 433.131 520.517 447.325 545.849C458.276 565.4 479.709 575.458 500.577 580.769C545.416 592.19 614.695 580.346 625.27 532.313C630.393 508.814 626.68 489.122 621.322 466.515C619.207 457.491 614.225 436.295 611.922 427.459C601.864 428.164 591.429 428.775 580.666 429.151" fill="white"/>
<path d="M451.414 463.366C450.239 468.066 449.393 471.215 449.158 472.061C441.732 497.816 433.131 520.517 447.325 545.849C458.276 565.4 479.709 575.458 500.577 580.769C545.416 592.19 614.695 580.346 625.27 532.313C630.393 508.814 626.68 489.122 621.322 466.515C619.207 457.491 614.225 436.295 611.922 427.459C601.864 428.164 591.429 428.775 580.666 429.151" stroke="#7BAFDE" stroke-width="1.11" stroke-linecap="round" stroke-linejoin="round"/>
<path d="M516.043 279.742C511.03 274.162 504.461 270.209 497.183 268.391C489.904 266.574 482.248 266.975 475.2 269.543C446.999 279.742 438.586 313.769 449.114 334.073" fill="white"/>
<path d="M516.043 279.742C511.03 274.162 504.461 270.209 497.183 268.391C489.904 266.574 482.248 266.975 475.2 269.543C446.999 279.742 438.586 313.769 449.114 334.073" stroke="#7BAFDE" stroke-width="1.11" stroke-linecap="round" stroke-linejoin="round"/>
<path d="M503.4 293.889C504.077 293.632 504.674 293.203 505.132 292.644C505.591 292.085 505.895 291.415 506.014 290.702C506.133 289.988 506.062 289.256 505.81 288.578C505.558 287.901 505.132 287.301 504.575 286.839C499.556 282.906 493.335 280.82 486.959 280.931C480.583 281.043 474.44 283.344 469.56 287.45C464.843 291.139 461.251 296.073 459.191 301.696C457.131 307.319 456.685 313.405 457.904 319.268C458.515 322.793 462.181 325.566 464.108 323.216C478.208 306.203 488.266 299.623 503.4 293.889Z" fill="#F7ACBC"/>
<path d="M458.561 442.546C451.559 438.545 445.541 433.028 440.946 426.401C436.351 419.773 433.296 412.202 432.005 404.242C430.595 393.527 434.731 378.299 438.914 374.351C440.888 355.552 446.622 317.248 470.828 295.816C481.297 287.184 493.467 280.852 506.544 277.233C519.622 273.613 533.316 272.787 546.734 274.808C599.986 282.422 639.89 319.316 636.036 388.545C634.673 413.83 626.636 440.243 599.704 454.061C582.455 462.991 559.377 464.965 540.389 463.79C511.342 461.957 484.035 458.15 458.561 442.546Z" fill="white"/>
<path d="M449.96 436.154C436.33 428.4 432.194 411.292 431.16 404.524C429.75 393.856 433.181 381.025 439.009 375.197C441.03 356.398 446.67 317.248 470.875 295.816C481.345 287.184 493.514 280.852 506.592 277.233C519.67 273.613 533.363 272.787 546.781 274.808C600.033 282.422 639.937 319.316 636.083 388.545C635.049 407.955 629.879 428.118 615.449 442.64" fill="white"/>
<path d="M449.96 436.154C436.33 428.4 432.194 411.292 431.16 404.524C429.75 393.856 433.181 381.025 439.009 375.197C441.03 356.398 446.67 317.248 470.875 295.816C481.345 287.184 493.514 280.852 506.592 277.233C519.67 273.613 533.363 272.787 546.781 274.808C600.033 282.422 639.937 319.316 636.083 388.545C635.049 407.955 629.879 428.118 615.449 442.64" stroke="#7BAFDE" stroke-width="1.11" stroke-linecap="round" stroke-linejoin="round"/>
<path d="M578.365 290.834C588.141 281.435 631.241 276.265 648.867 311.42C665.881 345.494 641.675 379.38 627.951 384.785" fill="white"/>
<path d="M578.365 290.834C588.141 281.435 631.241 276.265 648.867 311.42C665.881 345.494 641.675 379.38 627.951 384.785" stroke="#7BAFDE" stroke-width="1.11" stroke-linecap="round" stroke-linejoin="round"/>
<path d="M618.833 359.593C618.981 360.294 619.321 360.939 619.815 361.458C620.31 361.976 620.939 362.346 621.632 362.526C622.325 362.707 623.055 362.691 623.739 362.48C624.424 362.269 625.036 361.871 625.507 361.332C630.433 355.613 633.474 348.513 634.215 341.001C634.955 333.49 633.358 325.932 629.643 319.362C626.271 313.742 621.149 309.384 615.061 306.955C608.974 304.527 602.257 304.164 595.943 305.92C595.277 306.071 594.661 306.393 594.158 306.856C593.656 307.319 593.283 307.906 593.078 308.558C592.874 309.21 592.844 309.904 592.992 310.571C593.14 311.239 593.461 311.855 593.922 312.359C599.746 317.809 604.805 324.023 608.963 330.83C614.159 339.654 617.517 349.438 618.833 359.593Z" fill="#F7ACBC"/>
<path d="M502.365 413.313C502.365 413.313 495.785 421.491 488.264 420.504C480.743 419.517 479.662 409.318 479.662 409.318C481.159 409.317 482.637 408.979 483.986 408.331C485.314 407.64 486.495 406.698 487.465 405.558C488.565 404.399 489.513 403.103 490.285 401.704C490.532 404.267 491.585 406.686 493.293 408.613C494.696 410.046 496.397 411.154 498.276 411.856C499.577 412.501 500.95 412.99 502.365 413.313Z" fill="#F7ACBC"/>
<path d="M502.365 413.313C502.365 413.313 495.785 421.491 488.264 420.504C480.743 419.517 479.662 409.318 479.662 409.318" stroke="#7BAFDE" stroke-width="1.11" stroke-linecap="round" stroke-linejoin="round"/>
<path d="M514.961 411.01C512.706 412.446 510.147 413.337 507.488 413.614C504.829 413.892 502.142 413.547 499.639 412.608C497.198 412.096 494.979 410.832 493.293 408.995C491.607 407.157 490.539 404.838 490.238 402.362" fill="white"/>
<path d="M514.961 411.01C512.706 412.446 510.147 413.337 507.488 413.614C504.829 413.892 502.142 413.547 499.639 412.608C497.198 412.096 494.979 410.832 493.293 408.995C491.607 407.157 490.539 404.838 490.238 402.362" stroke="#7BAFDE" stroke-width="1.11" stroke-linecap="round" stroke-linejoin="round"/>
<path d="M471.532 404.618C472.413 406.154 473.71 407.41 475.273 408.242C476.836 409.073 478.603 409.446 480.369 409.318C482.372 409.052 484.278 408.294 485.918 407.113C487.558 405.933 488.881 404.365 489.769 402.55" fill="white"/>
<path d="M471.532 404.618C472.413 406.154 473.71 407.41 475.273 408.242C476.836 409.073 478.603 409.446 480.369 409.318C482.372 409.052 484.278 408.294 485.918 407.113C487.558 405.933 488.881 404.365 489.769 402.55" stroke="#7BAFDE" stroke-width="1.11" stroke-linecap="round" stroke-linejoin="round"/>
<path d="M489.486 386.946C488.347 386.656 487.152 386.664 486.016 386.968C484.88 387.273 483.842 387.864 483 388.685C482.628 389.505 482.435 390.394 482.435 391.294C482.435 392.194 482.628 393.083 483 393.903C483.418 395.65 484.245 397.273 485.413 398.638C486.582 400.003 488.059 401.07 489.721 401.752C491.673 402.158 493.695 402.065 495.601 401.482C497.507 400.898 499.236 399.843 500.626 398.415C501.942 397.193 503.54 394.702 502.741 392.822C501.378 389.719 495.644 387.557 489.486 386.946Z" fill="#F7ACBC"/>
<path d="M556.778 390.44C557.294 380.434 549.768 371.913 539.969 371.408C530.17 370.904 521.809 378.606 521.293 388.612C520.777 398.618 528.303 407.139 538.102 407.644C547.901 408.148 556.263 400.446 556.778 390.44Z" fill="#2992D0"/>
<path d="M535.308 385.198C535.446 382.528 533.435 380.254 530.816 380.119C528.198 379.984 525.964 382.039 525.826 384.709C525.689 387.38 527.7 389.654 530.318 389.788C532.937 389.923 535.171 387.868 535.308 385.198Z" fill="white"/>
<path d="M449.16 376.419C448.419 380.507 449.329 384.721 451.69 388.139C454.051 391.557 457.671 393.9 461.756 394.654C465.998 394.706 470.092 393.099 473.165 390.175C476.238 387.252 478.048 383.243 478.207 379.004C478.591 376.965 478.564 374.869 478.126 372.84C477.688 370.812 476.849 368.892 475.658 367.192C474.466 365.493 472.947 364.049 471.189 362.946C469.431 361.843 467.471 361.102 465.422 360.768C461.217 360.777 457.177 362.41 454.146 365.326C451.116 368.243 449.329 372.217 449.16 376.419Z" fill="#2992D0"/>
<path d="M453.86 372.8C453.759 373.356 453.769 373.926 453.889 374.478C454.009 375.03 454.238 375.553 454.561 376.016C454.884 376.479 455.296 376.874 455.773 377.177C456.25 377.48 456.782 377.686 457.338 377.782C458.515 377.787 459.651 377.35 460.521 376.558C461.391 375.766 461.933 374.677 462.039 373.505C462.147 372.949 462.142 372.376 462.024 371.822C461.907 371.267 461.679 370.742 461.355 370.278C461.03 369.813 460.616 369.418 460.136 369.117C459.656 368.815 459.12 368.613 458.561 368.523C457.384 368.518 456.248 368.955 455.378 369.747C454.508 370.539 453.966 371.628 453.86 372.8Z" fill="white"/>
<path d="M600.926 513.561C591.066 521.27 579.69 526.812 567.541 529.825C555.393 532.837 542.746 533.253 530.425 531.044C523.302 532.76 515.814 532.116 509.087 529.211C503.65 526.319 499.566 521.408 497.713 515.535C493.013 499.649 499.311 477.936 545.513 479.017C552.66 471.065 561.058 464.334 570.376 459.089" fill="white"/>
<path d="M600.926 513.561C591.066 521.27 579.69 526.812 567.541 529.825C555.393 532.837 542.746 533.253 530.425 531.044C523.302 532.76 515.814 532.116 509.087 529.211C503.65 526.319 499.566 521.408 497.713 515.535C493.013 499.649 499.311 477.936 545.513 479.017C552.66 471.065 561.058 464.334 570.376 459.089" stroke="#7BAFDE" stroke-width="1.11" stroke-linecap="round" stroke-linejoin="round"/>
<path d="M409.116 440.196C412.171 445.131 397.319 456.74 394.311 452.792L358.966 411.574L373.959 398.931L409.116 440.196Z" fill="white" stroke="#E7DAC8" stroke-width="0.83" stroke-linecap="round" stroke-linejoin="round"/>
<path d="M390.268 447.998C393.726 447.552 396.974 446.09 399.601 443.798C402.228 441.505 404.116 438.486 405.027 435.12L382.842 409.318C383.077 411.668 369.306 422.336 367.708 421.913L390.268 447.998Z" fill="#FFE72C" stroke="#FFC132" stroke-width="0.83" stroke-linecap="round" stroke-linejoin="round"/>
<path d="M358.967 411.574L356.193 398.226C356.054 397.571 356.095 396.89 356.311 396.256C356.528 395.622 356.911 395.058 357.422 394.625C357.933 394.191 358.552 393.904 359.212 393.793C359.873 393.682 360.552 393.753 361.176 393.996L373.961 398.931C375.512 400.999 360.283 413.125 358.967 411.574Z" fill="white" stroke="#E7DAC8" stroke-width="0.83" stroke-linecap="round" stroke-linejoin="round"/>
<path d="M392.102 412.749C390.239 413.492 388.745 414.941 387.944 416.781C387.143 418.62 387.1 420.701 387.825 422.572C390.175 428.776 399.858 428.024 400.845 428.4" fill="white"/>
<path d="M392.102 412.749C390.239 413.492 388.745 414.941 387.944 416.781C387.143 418.62 387.1 420.701 387.825 422.572C390.175 428.776 399.858 428.024 400.845 428.4" stroke="#7BAFDE" stroke-width="1.11" stroke-linecap="round" stroke-linejoin="round"/>
</svg>
