<svg width="566" height="253" viewBox="0 0 566 253" fill="none" xmlns="http://www.w3.org/2000/svg">
<path d="M86.0636 60C86.0636 60 10.2174 60 11.098 59.8385C6.4816 59.7826 2.09385 56.4246 0.814604 51.9638C-0.464641 47.5031 1.47277 42.3124 5.35067 39.7962C9.03391 37.4074 14.738 38.4574 18.3131 41.1444C18.5572 41.3276 18.9094 41.1848 18.9527 40.8803C20.1918 32.0738 27.8765 23.9382 36.7138 24.0004C44.8806 24.0563 51.7248 32.0707 53.5881 40.2963C53.7364 40.9518 54.6016 41.0667 54.9199 40.4734C56.5545 37.4478 59.9936 34.5309 62.8673 34.4967C66.5598 34.4564 70.0267 36.6495 72.2607 39.6036C74.3217 42.3279 75.4681 45.63 76.2252 48.9786C76.3055 49.3358 76.735 49.485 77.0162 49.252C79.7848 46.9595 84.4167 47.2173 86.799 49.9695C89.3637 52.9299 88.7179 58.0989 86.0636 60Z" fill="#ABCAEB"/>
<path d="M149.22 152C149.22 152 73.3736 152 74.2543 151.838C69.6378 151.783 65.2501 148.425 63.9709 143.964C62.6916 139.503 64.629 134.312 68.5069 131.796C72.1902 129.407 77.8942 130.457 81.4693 133.144C81.7134 133.328 82.0657 133.185 82.1089 132.88C83.348 124.074 91.0328 115.938 99.8701 116C108.037 116.056 114.881 124.071 116.744 132.296C116.893 132.952 117.758 133.067 118.076 132.473C119.711 129.448 123.15 126.531 126.024 126.497C129.716 126.456 133.183 128.649 135.417 131.604C137.478 134.328 138.624 137.63 139.381 140.979C139.462 141.336 139.891 141.485 140.172 141.252C142.941 138.959 147.573 139.217 149.955 141.97C152.52 144.93 151.874 150.099 149.22 152Z" fill="#ABCAEB"/>
<path d="M469.192 164C469.192 164 393.346 164 394.226 163.838C389.61 163.783 385.222 160.425 383.943 155.964C382.664 151.503 384.601 146.312 388.479 143.796C392.162 141.407 397.866 142.457 401.441 145.144C401.686 145.328 402.038 145.185 402.081 144.88C403.32 136.074 411.005 127.938 419.842 128C428.009 128.056 434.853 136.071 436.717 144.296C436.865 144.952 437.73 145.067 438.048 144.473C439.683 141.448 443.122 138.531 445.996 138.497C449.688 138.456 453.155 140.649 455.389 143.604C457.45 146.328 458.597 149.63 459.354 152.979C459.434 153.336 459.863 153.485 460.145 153.252C462.913 150.959 467.545 151.217 469.927 153.97C472.492 156.93 471.846 162.099 469.192 164Z" fill="#ABCAEB"/>
<path d="M326.22 106C326.22 106 250.374 106 251.254 105.838C246.638 105.783 242.25 102.425 240.971 97.9638C239.692 93.5031 241.629 88.3124 245.507 85.7962C249.19 83.4074 254.894 84.4574 258.469 87.1444C258.713 87.3276 259.066 87.1848 259.109 86.8803C260.348 78.0738 268.033 69.9382 276.87 70.0004C285.037 70.0563 291.881 78.0707 293.744 86.2963C293.893 86.9518 294.758 87.0667 295.076 86.4734C296.711 83.4478 300.15 80.5309 303.024 80.4967C306.716 80.4564 310.183 82.6495 312.417 85.6036C314.478 88.3279 315.624 91.63 316.381 94.9786C316.462 95.3358 316.891 95.485 317.172 95.252C319.941 92.9595 324.573 93.2173 326.955 95.9695C329.52 98.9299 328.874 104.099 326.22 106Z" fill="#ABCAEB"/>
<path d="M563.219 36C563.219 36 487.373 36 488.254 35.8385C483.637 35.7826 479.25 32.4246 477.97 27.9638C476.691 23.5031 478.629 18.3124 482.506 15.7962C486.19 13.4074 491.894 14.4574 495.469 17.1444C495.713 17.3276 496.065 17.1848 496.108 16.8803C497.348 8.07379 505.032 -0.0617737 513.87 0.00035354C522.036 0.0562681 528.881 8.07068 530.744 16.2963C530.892 16.9518 531.757 17.0667 532.076 16.4734C533.71 13.4478 537.149 10.5309 540.023 10.4967C543.716 10.4564 547.182 12.6495 549.417 15.6036C551.478 18.3279 552.624 21.63 553.381 24.9786C553.461 25.3358 553.891 25.485 554.172 25.252C556.941 22.9595 561.572 23.2173 563.955 25.9695C566.519 28.9299 565.874 34.0989 563.219 36Z" fill="#ABCAEB"/>
<path d="M213.538 86.4199C199.219 96.7188 186.679 109.777 178.801 125.407C170.922 141.038 167.955 159.361 172.419 176.246C179.075 201.431 200.618 219.884 222.23 234.902C233.597 242.8 246.462 250.538 260.338 249.463C269.44 248.76 277.725 244.322 286.21 241.011C298.993 236.021 312.67 233.488 326.387 232.465C334.664 231.848 343.042 231.762 351.115 229.866C359.187 227.969 367.125 223.994 371.774 217.232C376.86 209.836 377.301 200.212 375.871 191.397C371.813 166.338 354.639 145.134 348.059 120.597C344.89 108.782 344.175 96.1923 338.744 85.2015C329.258 66.0096 306.44 55.5232 284.741 56.0167C263.041 56.5101 242.166 65.8276 213.538 86.4199Z" fill="#A9CDFF" stroke="#A9CDFF" stroke-width="6" stroke-miterlimit="10" stroke-linecap="round" stroke-linejoin="round"/>
<path d="M264.124 197.143C264.124 197.143 252.054 204.263 235.546 194.734C228.6 190.674 226.159 191.066 221.385 191.404C219.011 191.58 213.741 191.973 211.997 186.248C210.656 181.862 214.371 178.397 217.362 177.328C222.726 175.392 230.276 175.785 239.288 182.038C251.545 190.552 256.721 186.099 256.721 186.099" fill="#F29111"/>
<path d="M264.124 197.143C264.124 197.143 252.054 204.263 235.546 194.734C228.6 190.674 226.159 191.066 221.385 191.404C219.011 191.58 213.741 191.973 211.997 186.248C210.656 181.862 214.371 178.397 217.362 177.328C222.726 175.392 230.276 175.785 239.288 182.038C251.545 190.552 256.721 186.099 256.721 186.099" stroke="#EC6E18" stroke-width="1.22" stroke-linecap="round" stroke-linejoin="round"/>
<g style="mix-blend-mode:darken">
<g style="mix-blend-mode:darken">
<path d="M240.735 183.067C240.767 182.999 240.812 182.939 240.867 182.889C240.921 182.838 240.986 182.8 241.055 182.774C241.125 182.749 241.199 182.738 241.273 182.742C241.347 182.746 241.42 182.764 241.486 182.796C242.452 183.257 243.136 183.649 243.739 184.001C244.503 184.461 245.307 184.851 246.14 185.165C246.228 185.2 246.307 185.253 246.374 185.321C246.441 185.388 246.494 185.469 246.529 185.557C246.603 185.74 246.603 185.944 246.529 186.126C244.732 189.929 243.431 191.77 242.103 192.339L241.795 192.447C241.467 192.535 241.123 192.546 240.79 192.478C240.458 192.41 240.145 192.265 239.877 192.054C237.396 190.335 238.912 186.586 240.735 183.067Z" fill="#EC6E18"/>
</g>
<g style="mix-blend-mode:darken">
<path d="M232.636 177.991C232.713 177.951 232.798 177.93 232.884 177.93C232.97 177.93 233.056 177.951 233.132 177.991C234.929 178.729 236.653 179.635 238.282 180.698C238.403 180.778 238.496 180.894 238.549 181.03C238.602 181.166 238.611 181.315 238.577 181.456C237.759 185.138 236.713 187.358 235.452 188.089L235.224 188.197C234.993 188.294 234.744 188.344 234.493 188.344C234.242 188.344 233.994 188.294 233.762 188.197C231.442 187.263 231.08 184.529 232.341 178.452C232.351 178.357 232.383 178.266 232.434 178.186C232.485 178.106 232.555 178.04 232.636 177.991Z" fill="#EC6E18"/>
</g>
<g style="mix-blend-mode:darken">
<path d="M223.168 175.758C223.227 175.697 223.298 175.65 223.377 175.619C223.455 175.589 223.54 175.576 223.624 175.582H224.294C225.893 175.555 227.478 175.868 228.948 176.503C229.049 176.556 229.136 176.633 229.201 176.727C229.266 176.821 229.308 176.93 229.323 177.044C229.672 179.873 229.806 183.568 228.519 185.165C228.336 185.414 228.098 185.615 227.822 185.752C227.547 185.889 227.243 185.957 226.936 185.95C224.589 185.95 223.262 182.634 222.994 176.218C222.997 176.049 223.059 175.887 223.168 175.758Z" fill="#EC6E18"/>
</g>
<g style="mix-blend-mode:darken">
<path d="M214.974 178.33C214.945 178.191 214.961 178.047 215.018 177.918C215.076 177.789 215.174 177.682 215.296 177.612L215.752 177.355C217.102 176.568 218.592 176.057 220.137 175.853C220.298 175.837 220.459 175.882 220.588 175.98C220.717 176.077 220.805 176.221 220.835 176.381C221.894 181.05 222.592 185.003 220.459 185.855L220.205 185.95C219.876 186.034 219.533 186.043 219.201 185.975C218.869 185.907 218.557 185.764 218.287 185.557C216.852 184.61 215.618 181.876 214.974 178.33Z" fill="#EC6E18"/>
</g>
</g>
<path d="M278.151 141.108C278.46 141 278.312 140.932 278.151 141.108V141.108Z" fill="#F29111" stroke="#EC6E18" stroke-width="1.22" stroke-linecap="round" stroke-linejoin="round"/>
<path d="M324.926 190.159C324.041 188.075 321.467 188.224 320.421 188.549C316.309 183.76 311.78 179.352 306.889 175.379C306.79 173.789 306.566 172.209 306.219 170.655C303.537 158.203 291.467 147.131 280.618 142.34C278.741 139.741 250.096 120.332 246.06 150.461C241.97 181.091 247.669 188.359 258.625 196.48C261.924 210.015 265.639 218.962 267.664 220.41C271.379 223.117 280.31 221.764 282.71 218.19C284.051 216.187 282.389 214.13 281.477 213.385C281.477 213.385 285.419 200.676 285.245 199.119C285.245 199.119 291.749 198.578 295.678 195.587C307.01 199.823 317.135 203.437 318.637 202.896C322.781 201.474 326.536 193.908 324.926 190.159Z" fill="#F29111" stroke="#EC6E18" stroke-width="1.22" stroke-linecap="round" stroke-linejoin="round"/>
<path d="M279.036 216.444C279.389 216.649 279.683 216.945 279.888 217.302C280.092 217.658 280.2 218.063 280.2 218.474C280.2 218.886 280.092 219.291 279.888 219.647C279.683 220.004 279.389 220.3 279.036 220.505" stroke="#EC6E18" stroke-width="1.22" stroke-linecap="round" stroke-linejoin="round"/>
<path d="M275.349 217.879C275.74 218.032 276.075 218.303 276.308 218.655C276.541 219.008 276.661 219.424 276.65 219.848C276.64 220.271 276.501 220.681 276.251 221.022C276.001 221.362 275.653 221.616 275.255 221.75" stroke="#EC6E18" stroke-width="1.22" stroke-linecap="round" stroke-linejoin="round"/>
<path d="M270.212 169.708C270.913 173.829 272.507 177.743 274.879 181.172C280.458 188.806 292.916 190.146 297.341 180.224C302.866 167.88 292.286 154.251 282.59 150.38C275.737 147.673 270.829 152.017 269.837 159.854C269.457 163.138 269.583 166.462 270.212 169.708Z" fill="#F8B04C"/>
<path d="M292.702 197.225C296.585 195.396 299.877 192.496 302.197 188.86" stroke="#EC6E18" stroke-width="1.22" stroke-linecap="round" stroke-linejoin="round"/>
<path d="M236.579 104.428C233.012 104.32 225.248 104.631 222.23 107.23C219.213 109.829 218.703 117.056 224.51 135.572C229.123 150.244 239.409 161.912 255.729 159.936C270.333 158.162 288.719 147.754 294.888 133.745C299.89 122.308 292.447 114.133 288.706 110.736C287.357 105.111 284.15 100.117 279.613 96.578C276.799 94.5789 273.601 93.1958 270.226 92.5175" fill="#F29111"/>
<path d="M274.611 93.3702C273.431 89.1473 273.511 83.3136 271.178 83.3813C264.003 83.625 259.015 91.1504 258.76 91.5023C252.995 92.35 247.429 94.2438 242.332 97.0923C238.641 99.3275 235.369 102.2 232.663 105.579C232.663 105.579 239.999 109.558 242.05 110.289C251.719 113.781 265.13 107.23 274.611 93.3702Z" fill="#F29111"/>
<path d="M254.013 160.098C254.013 160.098 254.536 139.917 273.123 130.727C287.874 123.459 294.579 133.799 294.579 133.799C294.579 133.799 293.694 143.788 276.81 152.505C261.375 160.463 254.013 160.098 254.013 160.098Z" fill="#F8B04C"/>
<path d="M273.055 130.727L274.396 133.177C274.396 133.177 275.469 136.29 268.402 140.986" stroke="#6E3E17" stroke-width="1.22" stroke-linecap="round" stroke-linejoin="round"/>
<path d="M274.383 133.177C275.534 133.844 276.835 134.201 278.162 134.213C279.49 134.224 280.797 133.891 281.96 133.244" stroke="#6E3E17" stroke-width="1.22" stroke-linecap="round" stroke-linejoin="round"/>
<path d="M273.055 130.727C272.295 131.014 271.47 131.082 270.674 130.921C269.878 130.761 269.142 130.38 268.549 129.82C267.731 128.724 268.469 127.925 270.896 126.653C273.323 125.38 274.503 125.15 274.919 126.45C275.028 127.267 274.912 128.098 274.583 128.853C274.254 129.608 273.726 130.256 273.055 130.727Z" fill="#E95178"/>
<path d="M272.679 85.574C271.987 87.9369 271.493 90.3548 271.204 92.8017L274.892 93.0589L272.679 85.574Z" fill="#EC6E18"/>
<path d="M274.611 93.3701C274.852 90.1894 273.471 82.9888 271.178 83.3813C266.551 84.1798 261.12 88.6058 258.76 91.5023C254.173 91.6918 240.602 95.644 234.058 104.022" stroke="#EC6E18" stroke-width="1.22" stroke-linecap="round" stroke-linejoin="round"/>
<path d="M261.548 127.546C259.617 124.176 257.297 126.193 254.119 128.006C250.941 129.82 248.124 130.957 250.096 134.327C250.523 135.119 251.102 135.817 251.798 136.381C252.494 136.946 253.293 137.367 254.151 137.618C255.008 137.87 255.907 137.948 256.794 137.847C257.682 137.747 258.541 137.471 259.322 137.034C260.854 136.065 261.946 134.526 262.363 132.751C262.779 130.975 262.487 129.106 261.548 127.546Z" fill="#FCC94C"/>
<path d="M260.533 137.186C262.088 136.331 262.312 133.718 261.034 131.347C259.756 128.977 257.459 127.748 255.904 128.602C254.35 129.457 254.126 132.07 255.404 134.441C256.682 136.811 258.979 138.04 260.533 137.186Z" fill="#6E3E17"/>
<path d="M283.931 114.553C282.16 111.453 280.055 113.199 277.225 114.945C274.396 116.691 271.781 117.652 273.537 120.711C273.921 121.438 274.444 122.081 275.076 122.602C275.708 123.123 276.436 123.513 277.218 123.749C278 123.984 278.821 124.06 279.632 123.973C280.444 123.887 281.23 123.638 281.946 123.242C283.339 122.345 284.328 120.932 284.699 119.307C285.07 117.682 284.794 115.974 283.931 114.553Z" fill="#FCC94C"/>
<path d="M283.505 123.922C284.884 123.164 284.995 120.682 283.752 118.377C282.509 116.073 280.383 114.819 279.004 115.576C277.625 116.334 277.515 118.816 278.758 121.121C280 123.425 282.126 124.679 283.505 123.922Z" fill="#6E3E17"/>
<path d="M225.717 111.67C223.826 112.685 224.376 119.249 228.13 128.047C228.13 128.047 230.424 118.017 237.933 112.495C234.286 109.937 227.192 110.871 225.717 111.67Z" fill="#EC6E18"/>
<path d="M278.634 97.2548C276.537 95.8304 274.288 94.6499 271.929 93.7357C267.234 91.7365 262.054 91.2038 257.057 92.2062C259.377 98.4324 259.122 104.455 261.402 110.79L278.634 97.2548Z" fill="#F29111"/>
<path d="M240.119 99.2578C243.032 99.9639 245.704 101.446 247.857 103.548C249.506 104.983 251.799 108.191 250.539 108.962C249.278 109.734 247.682 107.609 242.56 105.43C240.085 104.445 237.475 103.851 234.822 103.67L240.119 99.2578Z" fill="#EC6E18"/>
<path d="M252.671 101.004C249.425 99.3931 245.443 96.9433 242.546 96.9433C244.9 95.6862 247.348 94.6182 249.868 93.749C252.834 94.6595 255.545 96.2641 257.78 98.4321C260.462 101.139 262.487 104.78 261.186 105.443C259.456 106.282 256.694 103.048 252.671 101.004Z" fill="#EC6E18"/>
<path d="M268.133 100.341C267.02 100.882 265.827 99.3933 261.83 96.6321C259.01 94.8479 255.871 93.6385 252.591 93.0724C252.108 92.1926 257.673 91.164 259.175 91.6242C263.265 92.8694 269.313 99.7587 268.133 100.341Z" fill="#EC6E18"/>
<path d="M236.579 104.428C233.012 104.32 225.248 104.631 222.23 107.23C219.213 109.829 218.703 117.056 224.51 135.572C229.123 150.244 239.409 161.912 255.729 159.936C270.333 158.162 288.719 147.754 294.888 133.745C299.89 122.308 292.447 114.133 288.706 110.736C287.357 105.111 284.15 100.117 279.613 96.578C276.799 94.5789 273.601 93.1958 270.226 92.5175" stroke="#EC6E18" stroke-width="1.22" stroke-linecap="round" stroke-linejoin="round"/>
<path d="M321.802 190.416C322.157 190.253 322.547 190.184 322.936 190.218C323.325 190.251 323.699 190.385 324.021 190.607C324.343 190.829 324.603 191.131 324.776 191.484C324.949 191.837 325.028 192.23 325.007 192.623" stroke="#EC6E18" stroke-width="1.22" stroke-linecap="round" stroke-linejoin="round"/>
<path d="M321.374 194.044C322.715 193.421 324.632 193.759 324.404 196.169" stroke="#EC6E18" stroke-width="1.22" stroke-linecap="round" stroke-linejoin="round"/>
<path d="M294.565 166.608C293.452 167.691 289.777 167.962 288.798 165.255C287.135 165.958 284.386 164.036 284.44 161.289C283.758 160.579 283.292 159.686 283.099 158.717C282.147 155.455 285.54 151.083 291.145 151.002C293.821 150.861 296.459 151.691 298.581 153.342C300.704 154.993 302.171 157.355 302.718 160.003C302.849 160.936 302.756 161.888 302.448 162.778C302.14 163.668 301.626 164.471 300.948 165.119C300.096 165.777 299.113 166.239 298.066 166.472C297.019 166.706 295.934 166.706 294.887 166.473" fill="#F29111"/>
<path d="M294.565 166.608C293.452 167.691 289.777 167.962 288.798 165.255C287.135 165.958 284.386 164.036 284.44 161.289C283.758 160.579 283.292 159.686 283.099 158.717C282.147 155.455 285.54 151.083 291.145 151.002C293.821 150.861 296.459 151.691 298.581 153.342C300.704 154.993 302.171 157.355 302.718 160.003C302.849 160.936 302.756 161.888 302.448 162.778C302.14 163.668 301.626 164.471 300.948 165.119C300.096 165.777 299.113 166.239 298.066 166.472C297.019 166.706 295.934 166.706 294.887 166.473" stroke="#EC6E18" stroke-width="1.22" stroke-linecap="round" stroke-linejoin="round"/>
<path d="M285.634 158.054C285.23 158.487 284.916 158.998 284.71 159.556C284.505 160.114 284.414 160.708 284.441 161.302" fill="#F29111"/>
<path d="M285.634 158.054C285.23 158.487 284.916 158.998 284.71 159.556C284.505 160.114 284.414 160.708 284.441 161.302" stroke="#EC6E18" stroke-width="1.22" stroke-linecap="round" stroke-linejoin="round"/>
<path d="M288.879 165.255C288.74 164.678 288.728 164.077 288.843 163.495C288.959 162.912 289.2 162.363 289.549 161.885" fill="#F29111"/>
<path d="M288.879 165.255C288.74 164.678 288.728 164.077 288.843 163.495C288.959 162.912 289.2 162.363 289.549 161.885" stroke="#EC6E18" stroke-width="1.22" stroke-linecap="round" stroke-linejoin="round"/>
<path d="M312.334 134.314C311.562 135.195 311.055 136.279 310.872 137.44C310.51 138.942 310.561 140.514 311.02 141.988" fill="#67C1ED"/>
<path d="M312.334 134.314C311.562 135.195 311.055 136.279 310.872 137.44C310.51 138.942 310.561 140.514 311.02 141.988" stroke="#49A9DF" stroke-width="0.92" stroke-linecap="round" stroke-linejoin="round"/>
<path d="M315.191 135.153C314.425 136.037 313.919 137.12 313.73 138.279C313.368 139.781 313.419 141.353 313.877 142.827" fill="#67C1ED"/>
<path d="M315.191 135.153C314.425 136.037 313.919 137.12 313.73 138.279C313.368 139.781 313.419 141.353 313.877 142.827" stroke="#49A9DF" stroke-width="0.92" stroke-linecap="round" stroke-linejoin="round"/>
<path d="M293.305 130.036C292.512 131.033 291.957 132.2 291.682 133.447C291.376 134.811 291.527 136.24 292.111 137.508" fill="#67C1ED"/>
<path d="M293.305 130.036C292.512 131.033 291.957 132.2 291.682 133.447C291.376 134.811 291.527 136.24 292.111 137.508" stroke="#49A9DF" stroke-width="0.92" stroke-linecap="round" stroke-linejoin="round"/>
<path d="M290.636 129.184C289.849 130.182 289.299 131.349 289.027 132.595C288.71 133.958 288.862 135.39 289.456 136.655" fill="#67C1ED"/>
<path d="M290.636 129.184C289.849 130.182 289.299 131.349 289.027 132.595C288.71 133.958 288.862 135.39 289.456 136.655" stroke="#49A9DF" stroke-width="0.92" stroke-linecap="round" stroke-linejoin="round"/>
<path d="M333.791 160.382C333.911 160.412 334.02 160.476 334.105 160.567C334.19 160.658 334.248 160.772 334.27 160.894C334.293 161.017 334.28 161.144 334.233 161.26C334.186 161.375 334.107 161.475 334.005 161.546C330.291 164.077 319.093 171.698 313.782 175.487C312.669 176.272 308.754 174.635 307.627 173.863C307.077 173.471 290.891 164.889 290.529 164.389C291.454 163.671 303.631 153.29 303.631 153.29L333.791 160.382Z" fill="#67C1ED" stroke="#49A9DF" stroke-width="0.92" stroke-linecap="round" stroke-linejoin="round"/>
<path d="M314.359 171.765C316.827 170.128 325.772 164.253 331.23 160.585C329.58 158.853 332.048 153.412 332.356 152.965C326.255 157.215 322.969 159.53 316.814 163.793C315.812 164.628 314.986 165.657 314.385 166.819C313.784 167.982 313.419 169.254 313.313 170.561C313.394 171.698 313.93 172.063 314.359 171.765Z" fill="#FFF5D3" stroke="#F2D491" stroke-width="0.92" stroke-linecap="round" stroke-linejoin="round"/>
<path d="M275.281 165.674L309.679 175.92C310.384 176.099 311.111 176.177 311.838 176.15C312.526 176.073 313.189 175.847 313.782 175.487C313.005 175.422 312.28 175.071 311.744 174.499C311.462 174.115 311.258 173.677 311.145 173.212C311.032 172.748 311.013 172.265 311.087 171.792C311.268 169.831 312.15 168.003 313.568 166.649L275.71 156.173C275.063 156.765 274.539 157.48 274.167 158.278C273.795 159.075 273.583 159.939 273.543 160.82C273.503 161.7 273.636 162.58 273.934 163.409C274.233 164.237 274.69 164.998 275.281 165.647V165.674Z" fill="#67C1ED" stroke="#49A9DF" stroke-width="0.92" stroke-linecap="round" stroke-linejoin="round"/>
<path d="M275.71 156.173L313.568 166.608L334.153 153.763C334.289 153.697 334.4 153.588 334.471 153.453C334.541 153.317 334.567 153.163 334.544 153.012C334.522 152.861 334.452 152.721 334.346 152.613C334.239 152.505 334.101 152.434 333.952 152.41L298.843 144.248C297.79 144.004 296.684 144.168 295.746 144.708L275.71 156.173Z" fill="#67C1ED" stroke="#49A9DF" stroke-width="0.92" stroke-linecap="round" stroke-linejoin="round"/>
<path d="M274.436 154.684C273.994 154.887 273.927 155.442 274.315 155.591C277.454 156.809 299.608 162.385 308.592 164.93C309.545 165.214 312.616 163.333 313.514 162.548C313.943 162.155 324.752 150.583 325.034 150.096C324.256 149.784 303.47 142.245 303.47 142.245L274.436 154.684Z" fill="#E41E20" stroke="#B90D0D" stroke-width="0.92" stroke-linecap="round" stroke-linejoin="round"/>
<path d="M307.4 162.115C302.612 160.869 283.918 156.078 277.36 154.102C278.608 152.505 277.28 147.605 277.012 147.334C282.175 149.365 300.949 153.75 305.831 156.227C309.934 158.325 308.768 162.412 307.4 162.115Z" fill="#FFF5D3" stroke="#F2D491" stroke-width="0.61" stroke-linecap="round" stroke-linejoin="round"/>
<path d="M334.596 148.905C334.596 148.905 310.645 164.93 310.203 164.998C309.668 165.093 309.118 165.07 308.593 164.93C309.222 164.721 309.777 164.33 310.189 163.807C310.779 163.022 312.455 159.123 309.867 157.337C316.572 153.574 331.324 143.802 335.588 141.271C339.451 145.48 334.596 148.905 334.596 148.905Z" fill="#E41E20" stroke="#B90D0D" stroke-width="0.92" stroke-linecap="round" stroke-linejoin="round"/>
<path d="M335.588 141.216L309.867 157.283L275.604 148.322C275.161 148.173 275.228 147.537 275.711 147.321L304.154 135.017C304.76 134.76 305.429 134.694 306.072 134.828L335.588 141.216Z" fill="#E41E20" stroke="#B90D0D" stroke-width="0.92" stroke-linecap="round" stroke-linejoin="round"/>
<path d="M334.085 139.213C334.201 139.247 334.306 139.313 334.387 139.403C334.467 139.494 334.521 139.605 334.542 139.725C334.563 139.845 334.55 139.969 334.505 140.081C334.46 140.194 334.384 140.292 334.286 140.364C330.827 142.8 320.433 150.19 315.512 153.899C314.479 154.67 310.832 153.073 309.786 152.329C309.276 151.95 292.352 144.573 291.977 144.032C292.835 143.396 304.126 133.326 304.126 133.326L334.085 139.213Z" fill="#1D8C37" stroke="#037432" stroke-width="0.92" stroke-linecap="round" stroke-linejoin="round"/>
<path d="M316.049 150.204C318.382 148.688 326.657 142.922 331.793 139.362C330.264 137.684 332.557 132.405 332.852 131.972C327.112 136.1 323.988 138.347 318.382 142.489C317.437 143.319 316.663 144.331 316.106 145.464C315.549 146.598 315.22 147.831 315.137 149.094C315.124 150.19 315.62 150.502 316.049 150.204Z" fill="#FFF5D3" stroke="#F2D491" stroke-width="0.92" stroke-linecap="round" stroke-linejoin="round"/>
<path d="M277.775 145.263L311.677 154.251C312.33 154.411 313.002 154.484 313.675 154.467C314.319 154.392 314.938 154.17 315.485 153.818C314.759 153.756 314.082 153.417 313.594 152.87C313.042 152.085 312.821 151.112 312.977 150.163C313.146 148.278 313.962 146.511 315.284 145.169C303.55 141.825 289.912 139.416 278.151 136.046C276.886 137.29 276.158 138.987 276.126 140.77C276.114 142.421 276.701 144.019 277.775 145.263Z" fill="#1D8C37" stroke="#037432" stroke-width="0.92" stroke-linecap="round" stroke-linejoin="round"/>
<path d="M306.943 143.274C306.255 144.097 305.736 145.049 305.416 146.076C305.096 147.103 304.982 148.184 305.079 149.256C305.244 150.568 305.753 151.811 306.554 152.857" fill="#1D8C37"/>
<path d="M306.943 143.274C306.255 144.097 305.736 145.049 305.416 146.076C305.096 147.103 304.982 148.184 305.079 149.256C305.244 150.568 305.753 151.811 306.554 152.857" stroke="#037432" stroke-width="0.92" stroke-linecap="round" stroke-linejoin="round"/>
<path d="M304.489 142.583C303.302 144.281 302.674 146.312 302.692 148.39C302.713 149.665 302.991 150.922 303.51 152.085" fill="#1D8C37"/>
<path d="M304.489 142.583C303.302 144.281 302.674 146.312 302.692 148.39C302.713 149.665 302.991 150.922 303.51 152.085" stroke="#037432" stroke-width="0.92" stroke-linecap="round" stroke-linejoin="round"/>
<path d="M286.733 138.293C285.68 139.975 285.177 141.95 285.298 143.937C285.362 145.163 285.667 146.364 286.197 147.47" fill="#1D8C37"/>
<path d="M286.733 138.293C285.68 139.975 285.177 141.95 285.298 143.937C285.362 145.163 285.667 146.364 286.197 147.47" stroke="#037432" stroke-width="0.92" stroke-linecap="round" stroke-linejoin="round"/>
<path d="M284.279 137.684C283.315 139.45 282.851 141.449 282.938 143.463C283.016 144.632 283.283 145.779 283.729 146.861" fill="#1D8C37"/>
<path d="M284.279 137.684C283.315 139.45 282.851 141.449 282.938 143.463C283.016 144.632 283.283 145.779 283.729 146.861" stroke="#037432" stroke-width="0.92" stroke-linecap="round" stroke-linejoin="round"/>
<path d="M278.151 136.046L315.258 145.196L334.475 132.744C334.584 132.668 334.67 132.563 334.723 132.44C334.775 132.317 334.792 132.182 334.771 132.05C334.75 131.918 334.692 131.794 334.604 131.694C334.516 131.594 334.401 131.522 334.273 131.485L299.688 124.487C298.708 124.247 297.673 124.403 296.805 124.92L278.151 136.046Z" fill="#1D8C37" stroke="#037432" stroke-width="0.92" stroke-linecap="round" stroke-linejoin="round"/>
<path d="M278.902 134.99C278.459 135.193 278.392 135.762 278.781 135.897C281.906 137.061 304.006 142.665 313.058 145.182C314.01 145.466 317.081 143.599 317.967 142.814C318.409 142.408 329.218 130.835 329.499 130.361C328.722 130.05 307.936 122.511 307.936 122.511L278.902 134.99Z" fill="#3C86C7" stroke="#0071B8" stroke-width="0.92" stroke-linecap="round" stroke-linejoin="round"/>
<path d="M311.865 142.421C307.077 141.068 288.383 136.398 281.825 134.463C283.073 132.879 281.745 127.966 281.463 127.695C286.613 129.739 305.468 134.07 310.336 136.506C314.359 138.631 313.233 142.719 311.865 142.421Z" fill="#FFF5D3" stroke="#F2D491" stroke-width="0.61" stroke-linecap="round" stroke-linejoin="round"/>
<path d="M336.593 130.876C336.593 130.876 315.137 145.264 314.667 145.304C314.129 145.39 313.578 145.348 313.058 145.182C313.684 144.974 314.238 144.589 314.654 144.072C315.244 143.274 316.92 139.376 314.332 137.589C321.064 133.799 333.335 125.678 337.586 123.188C341.461 127.451 336.593 130.876 336.593 130.876Z" fill="#3C86C7" stroke="#0071B8" stroke-width="0.92" stroke-linecap="round" stroke-linejoin="round"/>
<path d="M334.475 125.435C335.133 126.065 335.598 126.873 335.816 127.763C335.938 128.642 335.849 129.538 335.555 130.374C335.261 131.211 334.77 131.963 334.126 132.568" fill="#3C86C7"/>
<path d="M334.475 125.435C335.133 126.065 335.598 126.873 335.816 127.763C335.938 128.642 335.849 129.538 335.555 130.374C335.261 131.211 334.77 131.963 334.126 132.568" stroke="#0071B8" stroke-width="0.92" stroke-linecap="round" stroke-linejoin="round"/>
<path d="M318.664 135.044C319.578 136.046 320.114 137.339 320.179 138.699C320.235 140.151 319.757 141.573 318.838 142.692" fill="#3C86C7"/>
<path d="M318.664 135.044C319.578 136.046 320.114 137.339 320.179 138.699C320.235 140.151 319.757 141.573 318.838 142.692" stroke="#0071B8" stroke-width="0.92" stroke-linecap="round" stroke-linejoin="round"/>
<path d="M337.585 123.188L314.358 137.589L280.068 128.629C279.625 128.48 279.692 127.857 280.175 127.627L306.151 116.989C306.757 116.731 307.425 116.665 308.069 116.799L337.585 123.188Z" fill="#3C86C7" stroke="#0071B8" stroke-width="0.92" stroke-linecap="round" stroke-linejoin="round"/>
<path d="M336.943 120.156C337.047 120.187 337.14 120.248 337.21 120.332C337.28 120.415 337.325 120.518 337.34 120.626C337.354 120.735 337.337 120.846 337.29 120.945C337.243 121.044 337.169 121.127 337.077 121.185C333.724 123.174 322.325 130.47 317.538 133.488C316.532 134.124 313.219 132.5 312.281 131.769C311.825 131.404 296.188 125.259 295.826 124.744C296.658 124.23 311.744 112.563 311.744 112.563L336.943 120.156Z" fill="#67C1ED" stroke="#49A9DF" stroke-width="0.92" stroke-linecap="round" stroke-linejoin="round"/>
<path d="M318.248 130.294C320.475 129.008 329.232 123.526 334.14 120.67C332.799 119.087 334.502 115.256 334.797 114.904C329.285 118.288 326.268 120.115 320.783 123.526C319.864 124.199 319.091 125.054 318.51 126.038C317.929 127.022 317.553 128.116 317.404 129.251C317.39 130.226 317.833 130.537 318.248 130.294Z" fill="#FFF5D3" stroke="#F2D491" stroke-width="0.61" stroke-linecap="round" stroke-linejoin="round"/>
<path d="M282.537 125.15L313.957 133.664C314.561 133.855 315.189 133.959 315.821 133.975C316.423 133.947 317.01 133.781 317.538 133.488C316.87 133.395 316.259 133.058 315.821 132.541C315.591 132.187 315.434 131.79 315.361 131.374C315.287 130.957 315.298 130.53 315.392 130.118C315.648 128.426 316.506 126.886 317.806 125.787C311.865 124.162 290.985 119.087 283.381 116.935C282.789 117.417 282.297 118.012 281.934 118.686C281.571 119.361 281.343 120.101 281.265 120.865C281.186 121.629 281.258 122.401 281.476 123.136C281.695 123.872 282.055 124.556 282.537 125.15Z" fill="#67C1ED" stroke="#49A9DF" stroke-width="0.92" stroke-linecap="round" stroke-linejoin="round"/>
<path d="M283.381 116.935L317.805 125.787L335.936 114.295C336.041 114.237 336.127 114.148 336.184 114.041C336.24 113.934 336.263 113.812 336.252 113.691C336.241 113.571 336.195 113.456 336.119 113.361C336.044 113.266 335.943 113.196 335.829 113.158L304.046 107.744C303.153 107.485 302.197 107.572 301.364 107.988L283.381 116.935Z" fill="#67C1ED" stroke="#49A9DF" stroke-width="0.92" stroke-linecap="round" stroke-linejoin="round"/>
<path d="M333.375 110.289C333.46 110.319 333.535 110.372 333.592 110.443C333.648 110.513 333.684 110.598 333.695 110.688C333.706 110.779 333.692 110.87 333.655 110.952C333.617 111.035 333.558 111.105 333.483 111.155C330.801 112.861 322.097 118.112 318.195 120.63C317.377 121.171 314.695 119.804 313.944 119.195C313.568 118.884 298.978 114.674 298.736 114.241C299.407 113.808 308.392 106.689 308.392 106.689L333.375 110.289Z" fill="#2F76BA" stroke="#265E9D" stroke-width="0.92" stroke-linecap="round" stroke-linejoin="round"/>
<path d="M318.771 117.963C320.582 116.881 327.609 112.793 331.592 110.33C330.506 108.976 331.994 105.227 332.236 104.916C327.756 107.771 325.302 109.328 320.85 112.224C319.355 113.417 318.39 115.16 318.168 117.07C318.074 117.909 318.45 118.166 318.771 117.963Z" fill="#FFF5D3" stroke="#F2D491" stroke-width="0.61" stroke-linecap="round" stroke-linejoin="round"/>
<path d="M287.953 114.647C287.953 114.647 316.41 121.13 316.799 121.09C317.271 121.051 317.729 120.908 318.14 120.67C317.61 120.582 317.132 120.297 316.799 119.872C316.611 119.571 316.483 119.235 316.423 118.885C316.363 118.534 316.373 118.175 316.451 117.828C316.647 116.41 317.33 115.107 318.382 114.146C315.914 113.28 294.873 109.057 288.624 107.704C288.316 107.704 287.028 109.057 286.881 111.182C286.809 112.43 287.19 113.662 287.953 114.647Z" fill="#2F76BA" stroke="#265E9D" stroke-width="0.92" stroke-linecap="round" stroke-linejoin="round"/>
<path d="M312.856 112.712C311.783 113.661 311.084 114.967 310.885 116.393C310.741 117.457 310.894 118.54 311.327 119.52" stroke="#265E9D" stroke-width="0.92" stroke-linecap="round" stroke-linejoin="round"/>
<path d="M292.245 109.247C291.424 110.138 290.895 111.263 290.729 112.468C290.536 113.351 290.615 114.272 290.957 115.107" stroke="#265E9D" stroke-width="0.92" stroke-linecap="round" stroke-linejoin="round"/>
<path d="M288.664 107.704L318.382 114.146L333.401 105.579C333.489 105.528 333.561 105.453 333.608 105.363C333.655 105.272 333.674 105.169 333.664 105.067C333.654 104.966 333.615 104.869 333.552 104.789C333.489 104.709 333.404 104.65 333.307 104.618L305.441 99.9617C304.705 99.7358 303.911 99.8087 303.228 100.165L288.664 107.704Z" fill="#2F76BA" stroke="#265E9D" stroke-width="0.92" stroke-linecap="round" stroke-linejoin="round"/>
<path d="M254.709 168.354C259.779 191.364 285.916 181.497 290.073 176.936C290.239 176.74 290.444 176.584 290.676 176.476C290.907 176.369 291.159 176.313 291.414 176.313C293.72 176.313 297.636 174.621 297.153 171.86C298.253 170.506 297.757 166.595 296.067 164.971C295.125 163.366 293.724 162.087 292.049 161.299C290.374 160.512 288.503 160.254 286.68 160.558C282.952 161.112 279.364 162.385 276.112 164.307C271.687 161.005 263.118 159.787 259.041 162.412C256.967 163.836 255.439 165.933 254.709 168.354Z" fill="#F29111"/>
<path d="M258.974 178.709C260.409 179.409 261.887 180.015 263.4 180.522C267.087 181.754 273.028 183.716 279.09 181.876C282.972 180.76 286.672 179.077 290.073 176.881C290.328 176.759 290.703 176.259 291.414 176.259C293.721 176.259 297.636 174.567 297.154 171.806C298.253 170.452 297.757 166.541 296.067 164.916C295.125 163.312 293.725 162.033 292.05 161.245C290.375 160.458 288.503 160.2 286.68 160.504C282.952 161.058 279.364 162.331 276.113 164.253C274.725 163.622 273.295 163.089 271.835 162.656C269.493 161.95 267.083 161.497 264.647 161.302" stroke="#EC6E18" stroke-width="1.22" stroke-linecap="round" stroke-linejoin="round"/>
<path d="M294.94 170.56C295.301 170.541 295.662 170.601 295.998 170.737C296.334 170.872 296.636 171.08 296.884 171.345" fill="#F29111"/>
<path d="M294.94 170.56C295.301 170.541 295.662 170.601 295.998 170.737C296.334 170.872 296.636 171.08 296.884 171.345" stroke="#EC6E18" stroke-width="1.22" stroke-linecap="round" stroke-linejoin="round"/>
<path d="M293.198 164.835C293.198 164.835 295.115 164.226 295.759 164.7L293.198 164.835Z" fill="#F29111"/>
<path d="M293.198 164.835C293.198 164.835 295.115 164.226 295.759 164.7" stroke="#EC6E18" stroke-width="1.22" stroke-linecap="round" stroke-linejoin="round"/>
</svg>
