<svg preserveAspectRatio="none" viewBox="0 0 1024 800" fill="none" xmlns="http://www.w3.org/2000/svg">
<path d="M887.776 108.101H998.789C1000.62 107.2 1002.16 105.759 1003.24 103.951C1006.01 99.0775 1004.72 92.4905 1001.22 88.4188C999.906 86.7909 998.247 85.5153 996.379 84.6958C994.51 83.8762 992.486 83.5359 990.47 83.7025C988.59 84.0012 986.796 84.7439 985.223 85.8759C983.65 87.0079 982.336 88.5001 981.38 90.2424C980.653 86.4851 977.465 72.3992 965.304 64.8217C961.656 62.5579 953.989 57.7787 946.412 61.1902C940.02 64.0671 935.912 71.8018 935.927 80.8098C934.014 76.8632 930.904 73.7138 927.098 71.8687C923.292 70.0237 919.01 69.5903 914.943 70.6384C911.783 71.6207 908.94 73.5083 906.726 76.0934C904.513 78.6785 903.015 81.8609 902.397 85.2903C901.715 85.0388 893.322 82.1461 887.568 86.8624C885.87 88.3355 884.485 90.1733 883.505 92.2546C882.399 94.375 881.885 96.7849 882.022 99.2033C882.378 104.533 887.049 107.63 887.776 108.101Z" fill="#DCEEEE"/>
<path d="M52.3992 120.101H163.413C165.242 119.2 166.786 117.759 167.862 115.951C170.635 111.078 169.345 104.49 165.845 100.419C164.53 98.7909 162.871 97.5153 161.002 96.6958C159.134 95.8762 157.11 95.5359 155.094 95.7025C153.213 96.0012 151.42 96.7439 149.847 97.8759C148.273 99.0079 146.96 100.5 146.003 102.242C145.277 98.4851 142.088 84.3992 129.928 76.8217C126.28 74.5579 118.613 69.7787 111.035 73.1902C104.644 76.0671 100.536 83.8018 100.551 92.8098C98.638 88.8632 95.5281 85.7138 91.7217 83.8687C87.9153 82.0237 83.6339 81.5903 79.5669 82.6384C76.4066 83.6207 73.5633 85.5083 71.3498 88.0934C69.1363 90.6785 67.6384 93.8609 67.0211 97.2903C66.3389 97.0388 57.9454 94.1461 52.1916 98.8624C50.4932 100.336 49.1084 102.173 48.1283 104.255C47.0227 106.375 46.5084 108.785 46.6453 111.203C47.0012 116.533 51.6725 119.63 52.3992 120.101Z" fill="#DCEEEE"/>
</svg>
