<svg width="23" height="20" viewBox="0 0 23 20" fill="none" xmlns="http://www.w3.org/2000/svg">
<path d="M11.5001 4.33882C15.2901 4.33882 18.6701 6.46882 20.3201 9.83882C19.7301 11.0588 18.9001 12.1088 17.9101 12.9588L19.3201 14.3688C20.7101 13.1388 21.8101 11.5988 22.5001 9.83882C20.7701 5.44882 16.5001 2.33882 11.5001 2.33882C10.2301 2.33882 9.01006 2.53882 7.86006 2.90882L9.51006 4.55882C10.1601 4.42882 10.8201 4.33882 11.5001 4.33882ZM10.4301 5.47882L12.5001 7.54882C13.0701 7.79882 13.5301 8.25882 13.7801 8.82882L15.8501 10.8988C15.9301 10.5588 15.9901 10.1988 15.9901 9.82882C16.0001 7.34882 13.9801 5.33882 11.5001 5.33882C11.1301 5.33882 10.7801 5.38882 10.4301 5.47882ZM1.51006 2.20882L4.19006 4.88882C2.56006 6.16882 1.27006 7.86882 0.500061 9.83882C2.23006 14.2288 6.50006 17.3388 11.5001 17.3388C13.0201 17.3388 14.4801 17.0488 15.8201 16.5188L19.2401 19.9388L20.6501 18.5288L2.92006 0.788818L1.51006 2.20882ZM9.01006 9.70882L11.6201 12.3188C11.5801 12.3288 11.5401 12.3388 11.5001 12.3388C10.1201 12.3388 9.00006 11.2188 9.00006 9.83882C9.00006 9.78882 9.01006 9.75882 9.01006 9.70882ZM5.61006 6.30882L7.36006 8.05882C7.13006 8.60882 7.00006 9.20882 7.00006 9.83882C7.00006 12.3188 9.02006 14.3388 11.5001 14.3388C12.1301 14.3388 12.7301 14.2088 13.2701 13.9788L14.2501 14.9588C13.3701 15.1988 12.4501 15.3388 11.5001 15.3388C7.71006 15.3388 4.33006 13.2088 2.68006 9.83882C3.38006 8.40882 4.40006 7.22882 5.61006 6.30882Z" fill="#666666"/>
</svg>
