<svg width="22" height="16" viewBox="0 0 22 16" fill="none" xmlns="http://www.w3.org/2000/svg">
<path d="M11 2.68677C14.79 2.68677 18.17 4.81677 19.82 8.18677C18.17 11.5568 14.79 13.6868 11 13.6868C7.21 13.6868 3.83 11.5568 2.18 8.18677C3.83 4.81677 7.21 2.68677 11 2.68677ZM11 0.686768C6 0.686768 1.73 3.79677 0 8.18677C1.73 12.5768 6 15.6868 11 15.6868C16 15.6868 20.27 12.5768 22 8.18677C20.27 3.79677 16 0.686768 11 0.686768ZM11 5.68677C12.38 5.68677 13.5 6.80677 13.5 8.18677C13.5 9.56677 12.38 10.6868 11 10.6868C9.62 10.6868 8.5 9.56677 8.5 8.18677C8.5 6.80677 9.62 5.68677 11 5.68677ZM11 3.68677C8.52 3.68677 6.5 5.70677 6.5 8.18677C6.5 10.6668 8.52 12.6868 11 12.6868C13.48 12.6868 15.5 10.6668 15.5 8.18677C15.5 5.70677 13.48 3.68677 11 3.68677Z" fill="#666666"/>
</svg>
