<svg preserveAspectRatio="none" viewBox="0 0 1920 1080" fill="none" xmlns="http://www.w3.org/2000/svg"><g clip-path="url(#a)"><path fill="#fff" d="M0 0h1920v1079H0z"/><path d="M271.101 488.497h111.014c1.828-.901 3.373-2.342 4.449-4.15 2.773-4.874 1.483-11.461-2.017-15.532a12.903 12.903 0 0 0-4.843-3.723 12.192 12.192 0 0 0-5.909-.994 12.292 12.292 0 0 0-5.247 2.174 13.181 13.181 0 0 0-3.843 4.366c-.727-3.757-3.915-17.843-16.075-25.421-3.649-2.263-11.315-7.043-18.893-3.631-6.392 2.877-10.5 10.612-10.485 19.62-1.912-3.947-5.022-7.096-8.829-8.942a17.673 17.673 0 0 0-12.155-1.23c-3.16.982-6.003 2.87-8.217 5.455-2.213 2.585-3.711 5.768-4.328 9.197-.683-.251-9.076-3.144-14.83 1.572a16.35 16.35 0 0 0-4.063 5.392 13.412 13.412 0 0 0-1.483 6.949c.356 5.329 5.027 8.426 5.754 8.898Z" fill="#DCEEEE"/><path d="M1849.4 1010.48s-1.25 4.59-2.1 7.07c-.43 1.29-.8 1.57-1.11 1.57-.31 0-.68-.29-1.11-1.57-.83-2.48-2.09-7.07-2.09-7.07h6.41Z" fill="#FAD08E" stroke="#F7B75D" stroke-width=".35" stroke-linecap="round" stroke-linejoin="round"/><path d="m1848.12 1009.46-6.2 7.56M1849.29 1010.68l-6.2 7.58M1850.46 1011.92l-6.19 7.57M1850.95 1016.51l-7.17-6.55M1849.78 1017.74l-7.18-6.54M1848.61 1018.98l-7.18-6.54" stroke="#F7B75D" stroke-width=".35" stroke-linecap="round" stroke-linejoin="round"/><path d="M1850.12 1008.84v-.44c.03-1.08-.35-2.13-1.05-2.92-.7-.79-1.67-1.25-2.69-1.28-1.02-.03-2.02.37-2.76 1.11-.74.75-1.18 1.77-1.21 2.86v.44c-.27.08-.52.25-.69.49-.17.23-.27.53-.27.83 1.36.28 2.6.99 3.56 2.06.11-.22.27-.4.48-.53.2-.12.43-.19.66-.19.23 0 .46.07.66.19.2.13.37.31.48.53.29.01.58-.08.82-.27.24-.18.42-.44.5-.74.12.16.27.3.44.39.17.09.36.14.55.15.18 0 .35-.03.52-.09.16-.07.31-.17.44-.3.12-.12.22-.28.29-.45.08-.16.11-.35.12-.53 0-.28-.09-.56-.24-.79a1.4 1.4 0 0 0-.61-.52Z" fill="#FFF7D3" stroke="#FBDCA1" stroke-width=".35" stroke-linejoin="round"/><path d="M1846.43 1004.99c.45 0 .82-.39.82-.86 0-.48-.37-.87-.82-.87-.45 0-.82.39-.82.87 0 .47.37.86.82.86Z" fill="#EE8AA7" stroke="#E85A95" stroke-width=".35" stroke-linecap="round" stroke-linejoin="round"/><path d="M1838.65 1012.5c1.88-.4 3.11-2.27 2.75-4.17-.37-1.9-2.19-3.1-4.08-2.7-1.88.41-3.11 2.28-2.75 4.18.37 1.89 2.19 3.1 4.08 2.69Z" fill="#A4D9EF" stroke="#6AC3E5" stroke-width=".35" stroke-linecap="round" stroke-linejoin="round"/><path d="M1840.72 1003.5c.12.38.15.77.11 1.17-.05.39-.17.77-.37 1.11-.2.34-.46.62-.78.84a2.3 2.3 0 0 1-1.04.41c-1.82.4-4.01-.15-4.44-2.1-.09-.43-.1-.87-.01-1.3.08-.42.24-.83.48-1.18.24-.36.54-.66.89-.89.36-.22.75-.37 1.16-.42.41-.14.84-.19 1.26-.15.43.05.85.18 1.22.4a3.298 3.298 0 0 1 1.52 2.11Z" fill="#F3B2C6" stroke="#EB759C" stroke-width=".35" stroke-linecap="round" stroke-linejoin="round"/><path d="M1834.55 1002.18c.11-.22.25-.42.42-.58.45-.44.98-.75 1.57-.92.58-.17 1.2-.19 1.79-.06 1.62.27 2.7 1.35 2.27 2.8-.04.11-.1.21-.19.3-.08.08-.18.14-.29.17-.11.04-.22.05-.33.03a.766.766 0 0 1-.32-.14c-.31-.19-.34-.58-.63-.8-.16-.12-.35-.19-.54-.21-.2-.03-.39 0-.58.07-.4.19-.62.96-1.09.92-.48-.03-.58-.7-.94-.94-.35-.23-.62.33-1.02.27a.31.31 0 0 1-.13-.06.4.4 0 0 1-.1-.12.573.573 0 0 1-.04-.14c0-.05 0-.1.02-.15.03-.15.07-.3.13-.44v0Z" fill="#862E0E" stroke="#642400" stroke-width=".35" stroke-linecap="round" stroke-linejoin="round"/><path d="M1837.47 1001.71c.78 0 1.41-.67 1.41-1.5 0-.823-.63-1.491-1.41-1.491-.78 0-1.41.668-1.41 1.491 0 .83.63 1.5 1.41 1.5Z" fill="#E61F1F" stroke="#C31717" stroke-width=".3" stroke-linecap="round" stroke-linejoin="round"/><path d="M1836.2 1007.48h-.73c-.1 0-.19.05-.25.12-.04.04-.06.08-.08.13-.02.05-.03.1-.03.15a.422.422 0 0 0 .25.36c.04.01.09.02.14.02h.71c.08 0 .15-.03.21-.08.04-.03.06-.08.08-.13.02-.05.03-.1.02-.15.01-.1-.02-.2-.08-.28a.354.354 0 0 0-.24-.14Z" fill="#00B1EC"/><path d="m1838.53 1008.84-.43-.55a.4.4 0 0 0-.26-.1c-.09 0-.18.04-.25.1-.03.04-.06.08-.08.13a.59.59 0 0 0-.02.14c0 .05.01.1.02.14.02.05.05.09.08.13l.42.55c.03.04.07.07.12.09.05.02.11.02.16 0 .08.02.16.02.24 0 .05-.03.09-.08.11-.13a.345.345 0 0 0 0-.36.3.3 0 0 0-.11-.14Z" fill="#FFF000"/><path d="m1840.04 1007.46-.86-.13c-.1-.01-.2.02-.28.08-.08.06-.13.15-.15.25-.02.05-.03.09-.03.14 0 .04.01.09.03.13.03.04.06.08.11.1.04.03.09.04.14.04l.86.13h.09c.08-.01.16-.05.22-.11s.1-.14.12-.22a.402.402 0 0 0-.06-.26.317.317 0 0 0-.19-.15Z" fill="#EE8AA7"/><path d="M1840.93 1011.06s-1.25 4.57-2.08 7.07c-.43 1.28-.8 1.58-1.11 1.58-.31 0-.68-.3-1.11-1.58-.85-2.5-2.09-7.07-2.09-7.07h6.39Z" fill="#FAD08E" stroke="#F7B75D" stroke-width=".35" stroke-linecap="round" stroke-linejoin="round"/><path d="m1839.59 1010.02-6.21 7.56M1840.77 1011.26l-6.2 7.57M1841.94 1012.49l-6.2 7.58M1842.43 1017.08l-7.18-6.54M1841.25 1018.32l-7.17-6.55M1840.08 1019.55l-7.17-6.54" stroke="#F7B75D" stroke-width=".35" stroke-linecap="round" stroke-linejoin="round"/><path d="M1836.48 1009.27a.539.539 0 0 0-.07-.13.313.313 0 0 0-.11-.09c-.04-.03-.09-.04-.13-.05-.05 0-.1 0-.14.02-.05.01-.09.03-.13.07-.04.03-.07.07-.09.11-.03.1-.03.2 0 .29.02.04.04.09.07.13.03.03.07.06.11.09.06.01.12.01.18 0h.1a.31.31 0 0 0 .13-.06.36.36 0 0 0 .08-.12c.03-.08.03-.18 0-.26Z" fill="#EE8AA7"/><path d="M1871.67 1025.74c.31-1.44 2.02-2.06 4.45-1.77 1.33.15 2.68 1.03 2.8 2.32.12 1.29-.81 1.98-2.45 1.98-1.63 0-5.07-.01-4.8-2.53ZM1862.46 1026.69c-.28-1.58 1.9-3.04 4.24-2.76 1.35.16 2.6.84 2.48 2.3-.12 1.46-1.32 1.98-2.45 1.98-2.25.05-4.02-.05-4.27-1.52Z" fill="#AB6C15" stroke="#8F5909" stroke-width=".57" stroke-linecap="round" stroke-linejoin="round"/><path d="M1865.38 1012.82c-3.36-3.93-5.22-5.88-6.27-5.53-1.66.53-1.48 3.6-.18 4.45-.27.59-.35 1.27-.22 1.92.13.65.47 1.23.95 1.66.46.44 1.01.76 1.61.96.6.19 1.23.24 1.84.16" fill="#FDDE8E"/><path d="M1865.38 1012.82c-3.36-3.93-5.22-5.88-6.27-5.53-1.66.53-1.48 3.6-.18 4.45-.27.59-.35 1.27-.22 1.92.13.65.47 1.23.95 1.66.46.44 1.01.76 1.61.96.6.19 1.23.24 1.84.16" stroke="#EBC882" stroke-width=".57" stroke-linecap="round" stroke-linejoin="round"/><path d="M1876.52 1012.71s4.45 2.72 3.16 7.47c-.54 1.87-1.8 2.59-2.78 1.08-.46-.79-.86-1.62-1.2-2.48" fill="#FDDE8E"/><path d="M1876.52 1012.71s4.45 2.72 3.16 7.47c-.54 1.87-1.8 2.59-2.78 1.08-.46-.79-.86-1.62-1.2-2.48" stroke="#EBC882" stroke-width=".57" stroke-linecap="round" stroke-linejoin="round"/><path d="M1863.47 1015.68c-1.31 3.54-.76 6.01.38 7.59 1.49 2.05 4.81 2.52 6.46 2.52 1.64 0 4.96-.47 6.45-2.52 1.14-1.57 1.69-4.05.38-7.59-.39-1.91-1.43-3.59-2.93-4.73-1.5-1.13-3.34-1.64-5.17-1.42-1.4.32-2.68 1.08-3.67 2.17-1 1.1-1.66 2.48-1.9 3.98Z" fill="#FDDE8E"/><path d="M1863.47 1015.68c-1.31 3.54-.76 6.01.38 7.59 1.49 2.05 4.81 2.52 6.46 2.52 1.64 0 4.96-.47 6.45-2.52 1.14-1.57 1.69-4.05.38-7.59" fill="#FDDE8E"/><path d="M1863.47 1015.68c-1.31 3.54-.76 6.01.38 7.59 1.49 2.05 4.81 2.52 6.46 2.52 1.64 0 4.96-.47 6.45-2.52 1.14-1.57 1.69-4.05.38-7.59" stroke="#EBC882" stroke-width=".57" stroke-linecap="round" stroke-linejoin="round"/><path d="M1869.79 1018.39c4.19.5 8.63-6.29 8.63-6.29l-7.88-.79-6.85-.96s1.96 7.55 6.1 8.04Z" fill="#FCD005" stroke="#F5AB18" stroke-width=".57" stroke-linecap="round" stroke-linejoin="round"/><path d="M1870.84 993.672c.11-.301.33-.545.6-.68.28-.135.59-.151.88-.043.2.096.37.242.51.424a1.118 1.118 0 0 1 1.35-.393c.29.132.52.381.64.692.12.312.13.662.01.975-.07.164-.16.313-.28.44.41.164.82.358 1.21.582a13.738 13.738 0 0 1 4.02 4.009c.55.762 1.05 1.572 1.48 2.422.19-.04.37-.04.55 0 .32.05.6.23.79.5.19.27.27.61.22.94-.03.28-.15.53-.33.72-.18.2-.41.34-.66.39.09.21.12.44.09.67-.02.17-.07.33-.14.47-.08.15-.18.28-.3.38-.13.11-.27.18-.42.23-.15.04-.31.06-.46.04-.34.71-.59 1.48-.73 2.26-.05.9-.16 1.8-.33 2.69-.38 1.01-1.88 3.79-9.31 2.73-7.43-1.05-8.18-4.13-8.32-5.21.07-.91.19-1.8.36-2.69.05-.8 0-1.61-.15-2.39-.31-.05-.59-.23-.78-.5-.19-.27-.27-.6-.23-.93.04-.24.12-.46.25-.65a1.3 1.3 0 0 1-.57-.63c-.11-.27-.13-.58-.05-.87.07-.291.24-.542.48-.712.23-.17.51-.249.8-.222.18.025.35.095.5.204.61-.697 1.28-1.344 1.99-1.933a13.056 13.056 0 0 1 4.88-2.751c.42-.113.86-.192 1.3-.236-.02-.318.03-.635.15-.928v0Z" fill="#FDDE8E" stroke="#EBC882" stroke-width=".57" stroke-linecap="round" stroke-linejoin="round"/><path d="M1870.17 1014.57c-2.25-.32-8.01-1.92-7.75-5.11 0-.98.65-1.1.93-2.13.5-2.62 1.48-3.9 3.31-3.93 1.48 0 4.03.88 3.04 5.98l1.02.77 1.19-.47c.29-5.19 3.05-5.33 4.45-4.92 1.76.55 2.38 2.04 2.22 4.71 0 1.04.55 1.32.37 2.3-.58 3.16-6.52 3.13-8.78 2.8Z" fill="#FFFAC6" stroke="#EBC882" stroke-width=".57" stroke-linecap="round" stroke-linejoin="round"/><path d="M1871.2 1009.2c.17 0 1 .22.9 1.01-.09.35-.26.67-.5.92-.25.26-.55.44-.88.53-.74-.1-1.13-1.04-1.41-1.65-.13-.32-.12-.19 0-.43.12-.23.98-.55 1.89-.38Z" fill="#F4A000" stroke="#EF8200" stroke-width=".38" stroke-linecap="round" stroke-linejoin="round"/><path d="M1872.93 1010.19c.12-.48-.64-.91-.96-1-.1-.2-.24-.37-.41-.51a1.24 1.24 0 0 0-.58-.24 1.2 1.2 0 0 0-.62.08c-.2.07-.37.2-.51.37-.67-.14-1.24.3-1.16.77.07.47.49.61 1.01.52.31-.09.63-.11.95-.08.46 0 .93.46 1.36.52.43.06.83 0 .92-.43Z" fill="#F4A000" stroke="#EF8200" stroke-width=".38" stroke-linecap="round" stroke-linejoin="round"/><path d="M1876.52 1007.59c-.15-.18-.34-.33-.54-.43-.21-.11-.43-.17-.66-.18a1.667 1.667 0 0 0-1.24.49c-.16.16-.3.36-.39.58-.09.22-.14.46-.15.7 0 .24.04.48.12.7.08.23.21.43.37.6.31.34.73.54 1.18.55.44.01.88-.17 1.2-.49.33-.32.52-.77.54-1.24.02-.47-.13-.93-.43-1.28Z" fill="#703C11"/><path d="M1875.04 1008.31c-.03.12-.1.22-.2.29a.41.41 0 0 1-.32.08.448.448 0 0 1-.3-.16.523.523 0 0 1-.12-.34c.01-.06.03-.13.06-.19.03-.05.07-.11.12-.15a.38.38 0 0 1 .17-.08c.06-.02.12-.03.19-.02.12.02.23.09.31.2.07.1.1.24.09.37Z" fill="#fff"/><path d="M1867.93 1006.37c-.31-.33-.73-.53-1.18-.54-.44-.01-.88.17-1.2.49-.33.32-.52.77-.54 1.24-.02.47.13.93.43 1.28.15.18.34.33.54.43.21.1.43.16.66.17.22.02.45-.02.66-.11.22-.08.41-.21.58-.37.16-.17.3-.36.39-.58.09-.22.14-.46.15-.7 0-.24-.04-.48-.12-.71-.08-.22-.21-.42-.37-.6Z" fill="#703C11"/><path d="M1866.54 1007.1c-.01.06-.03.13-.06.19-.03.05-.07.11-.12.15a.38.38 0 0 1-.17.08c-.06.02-.12.03-.19.02a.484.484 0 0 1-.31-.2c-.07-.1-.1-.24-.09-.37.01-.06.03-.12.06-.18s.07-.11.12-.15c.05-.04.1-.06.16-.08.06-.02.12-.02.18-.01.07 0 .13.02.18.05.06.03.1.08.14.13.04.05.07.11.09.17.01.07.02.13.01.2Z" fill="#fff"/><path d="M1860.21 1009.03s-1.01 3.74-1.69 5.77c-.36 1.05-.66 1.29-.91 1.29s-.56-.24-.92-1.29c-.67-2.03-1.69-5.77-1.69-5.77h5.21Z" fill="#FAD08E" stroke="#F7B75D" stroke-width=".32" stroke-linecap="round" stroke-linejoin="round"/><path d="m1859.17 1008.2-5.06 6.16M1860.12 1009.2l-5.06 6.17M1861.08 1010.21l-5.06 6.16M1861.47 1013.95l-5.85-5.33M1860.52 1014.96l-5.85-5.33M1859.57 1015.96l-5.86-5.32" stroke="#F7B75D" stroke-width=".32" stroke-linecap="round" stroke-linejoin="round"/><path d="M1860.65 1007.1c.11-.33.16-.68.16-1.02a3.5 3.5 0 0 0-1.01-2.28c-.6-.59-1.39-.92-2.21-.92-.82 0-1.61.33-2.21.92-.6.6-.96 1.41-1.02 2.28.01.35.06.7.17 1.03-.22.13-.4.31-.52.54-.13.22-.19.48-.2.74.02.4.19.78.46 1.06.28.28.65.43 1.03.43.33 0 .65-.11.92-.33a5.5 5.5 0 0 1 3.68.33c.38 0 .74-.15 1.02-.43.27-.28.44-.66.46-1.06-.01-.27-.08-.52-.21-.75-.13-.22-.31-.41-.52-.54Z" fill="#A4D9EF" stroke="#6AC3E5" stroke-width=".32" stroke-linecap="round" stroke-linejoin="round"/><path d="M1856.77 1002.08c-.72.12-1.39.47-1.92 1.01-.32.36-.55.9-.16 1.3.39.41.67.08 1.1.08.77 0 1.04 1.09 1.93.71.88-.38.75-.63 1.48-.31.12.07.26.12.41.14.14.02.29 0 .43-.04.14-.05.27-.12.38-.23.11-.1.2-.22.26-.36.19-.57-.5-1.23-.87-1.57-.71-.55-1.56-.84-2.44-.82l-.6.09Z" fill="#EF96B5" stroke="#EB759C" stroke-width=".38" stroke-linecap="round" stroke-linejoin="round"/><path d="M1856.42 1003.1h-.56c-.08.01-.15.04-.21.1a.41.41 0 0 0 0 .22c0 .04.01.09.02.13.02.04.04.07.07.1.07.03.14.03.21 0h.56c.06.02.11.02.17 0 .03-.03.05-.06.06-.1.02-.04.03-.09.03-.13 0-.05-.01-.09-.03-.13a.284.284 0 0 0-.08-.11c-.03-.03-.07-.05-.11-.07-.04-.01-.08-.01-.13-.01Z" fill="#fff"/><path d="m1858.04 1003.88-.32-.48a.333.333 0 0 0-.21-.09c-.08 0-.15.04-.21.09-.06.06-.09.15-.09.23 0 .09.03.17.09.23l.33.46h.09c.04.01.09.01.13 0 .06.02.13.02.19 0a.31.31 0 0 0 .09-.22.28.28 0 0 0-.09-.22Z" fill="#00B1EC"/><path d="m1859.02 1002.74-.65-.09a.244.244 0 0 0-.12 0c-.03.01-.07.03-.1.06-.03.02-.06.05-.08.09-.01.04-.03.08-.03.12-.03.07-.03.16 0 .23.05.07.12.11.19.13l.66.09a.26.26 0 0 0 .16-.09.31.31 0 0 0 .09-.18.34.34 0 0 0 0-.2.377.377 0 0 0-.12-.16Z" fill="#FFF000"/><path d="M1857.58 1002.44a.426.426 0 0 0-.15-.2.277.277 0 0 0-.25 0c-.04.01-.08.03-.11.06-.03.02-.05.06-.07.1-.03.08-.03.18 0 .26.03.09.08.16.15.21h.25c.08-.03.15-.09.18-.17.03-.09.03-.17 0-.26Z" fill="#00B1EC"/><path d="M1887.8 921.026c4.75 12.059 6.44 25.223 4.9 38.186a76.643 76.643 0 0 1-6.19 22.104" stroke="#F5F5F5" stroke-width=".24" stroke-linecap="round" stroke-linejoin="round"/><path d="M1913.21 933.304c-5.93 14.13-13.94 27.173-23.73 38.642" stroke="#F5F5F5" stroke-width=".24" stroke-linecap="round" stroke-linejoin="round"/><path d="M1896.91 930.647a257.169 257.169 0 0 1-3.43 23.582 255.994 255.994 0 0 1-6.83 27.385M1902.97 916.64a156.46 156.46 0 0 1-5.73 38.642c-1.6 5.675-3.52 11.24-5.76 16.664" stroke="#F5F5F5" stroke-width=".24" stroke-linecap="round" stroke-linejoin="round"/><path d="M1882.04 937.895a49.427 49.427 0 0 1 5.22 9.149c2.73 5.505 4.13 11.64 4.09 17.859-.22 5.765-1.84 11.372-4.72 16.271" stroke="#F5F5F5" stroke-width=".24" stroke-linecap="round" stroke-linejoin="round"/><path d="m1897.5 915.838 1.13-2.028c.39-.004.78.06 1.16.189l.4.188.49 2.264c-.55.175-1.13.212-1.69.11a3.5 3.5 0 0 1-1.49-.723Z" fill="#FFE726"/><path d="M1896.27 915.508c5.31.456 11.03-4.716 11.61-12.089.18-2.953-.74-5.863-2.57-8.101-1.82-2.239-4.4-3.629-7.19-3.87-2.78-.241-5.54.685-7.68 2.58-2.14 1.895-3.5 4.607-3.78 7.551-.58 7.421 4.29 13.489 9.61 13.929Z" fill="#88EAD0"/><path d="M1889.98 899.504a.888.888 0 0 1-.42-.187 1.087 1.087 0 0 1-.29-.379 2.393 2.393 0 0 1-.03-.961c.06-.318.19-.619.37-.878.44-.79 1.06-1.45 1.8-1.918.25-.221.56-.369.88-.429.33-.061.66-.032.97.083.13.086.23.208.29.353.07.145.09.306.07.464 0 .19-.06.375-.18.519-.21.243-.49.408-.8.472a2.54 2.54 0 0 0-.91.614c-.25.271-.45.598-.57.958-.07.282-.16.56-.26.833a.776.776 0 0 1-.38.411c-.16.084-.36.1-.54.045Z" fill="#fff" style="mix-blend-mode:screen" opacity=".16"/><path d="m1911.95 932.361 1.48-1.761c.39.078.76.227 1.1.44.13.073.25.157.37.252v2.327a3.249 3.249 0 0 1-1.66-.252c-.5-.226-.94-.57-1.29-1.006Z" fill="#F297B7"/><path d="M1914.53 931.056c5.13 1.572 11.7-2.264 13.64-9.433.79-2.877.46-5.967-.9-8.591-1.36-2.624-3.65-4.566-6.37-5.4-2.71-.834-5.62-.491-8.1.954-2.48 1.444-4.31 3.872-5.09 6.749-1.95 7.216 1.69 14.149 6.82 15.721Z" fill="#F297B7"/><path d="M1911.35 914.062a1.03 1.03 0 0 1-.38-.274c-.1-.124-.17-.273-.21-.434-.02-.326.03-.652.14-.955.12-.303.3-.573.53-.79a5.295 5.295 0 0 1 2.1-1.572c.29-.171.62-.26.95-.26.32 0 .65.089.94.26.11.11.19.251.22.408.04.156.03.32-.02.472a.938.938 0 0 1-.26.472c-.26.185-.57.288-.88.299-.35.048-.7.179-1 .383a2.43 2.43 0 0 0-.76.796c-.12.27-.24.532-.39.786a.773.773 0 0 1-.41.403.759.759 0 0 1-.57.006Z" fill="#fff" style="mix-blend-mode:screen" opacity=".16"/><path d="m1888.13 926.072.48-2.185c.35-.139.72-.203 1.09-.188h.42l1.07 1.917c-.44.328-.95.537-1.48.611-.53.074-1.08.01-1.58-.186v.031Z" fill="#32A2ED"/><path d="M1889.87 924.39c5.26-1.305 9.26-8.127 7.65-15.469-.66-2.952-2.39-5.508-4.82-7.106-2.43-1.598-5.36-2.107-8.14-1.415-2.79.692-5.2 2.529-6.71 5.106-1.5 2.576-1.98 5.682-1.33 8.634 1.62 7.342 8.07 11.555 13.35 10.25Z" fill="#4CB2EE"/><path d="M1879.11 911.043a.898.898 0 0 1-.46-.045.998.998 0 0 1-.4-.269c-.16-.277-.27-.59-.31-.917-.04-.326-.01-.658.09-.97.19-.903.6-1.741 1.17-2.436.18-.299.44-.542.73-.708.3-.165.63-.246.96-.236.15.044.28.128.39.244.1.117.17.26.21.417.05.184.05.381 0 .566-.11.345-.39.518-.63.723a2.59 2.59 0 0 0-.7.865 2.63 2.63 0 0 0-.3 1.1c.01.298.01.597 0 .896a.926.926 0 0 1-.24.53.803.803 0 0 1-.51.24Z" fill="#fff" style="mix-blend-mode:screen" opacity=".16"/><path d="m1894.64 936.102 1.05-1.446c.02-.08.06-.153.12-.204.17-.173.45-.095.65 0 .24.065.46.177.66.33l.16 2.295c-.58.1-1.17.029-1.71-.204a3.242 3.242 0 0 1-.93-.771Z" fill="#F15EB7"/><path d="M1896.39 935.285c5.5 1.226 12.1-3.553 13.61-11.555.36-1.555.41-3.17.17-4.749-.25-1.578-.8-3.087-1.61-4.436a11.529 11.529 0 0 0-3.12-3.415 10.837 10.837 0 0 0-4.13-1.847 10.292 10.292 0 0 0-4.45-.089c-1.47.295-2.87.908-4.11 1.802a11.17 11.17 0 0 0-3.1 3.393 12.06 12.06 0 0 0-1.56 4.42c-1.53 8.002 2.8 15.234 8.3 16.476Z" fill="#F15EB7"/><g style="mix-blend-mode:screen" opacity=".16"><path d="M1890.81 918.322c-.02.258.05.516.2.721.15.204.36.341.61.38.24.016.48-.061.67-.217.2-.157.33-.383.38-.636.05-.253.01-.516-.11-.741a1.02 1.02 0 0 0-.54-.482.935.935 0 0 0-1.09.425.863.863 0 0 0-.14.409s.02.031.02.141ZM1895.63 913.983a.88.88 0 0 0 .3-.255.843.843 0 0 0 .18-.361c.04-.131.05-.27.03-.406a1.031 1.031 0 0 0-.12-.385 1.138 1.138 0 0 0-.26-.302.876.876 0 0 0-.35-.168.888.888 0 0 0-.38-.007.93.93 0 0 0-.36.155c-.64.379-1.23.85-1.75 1.399a4.499 4.499 0 0 0-1.14 2.201c0 .912 1.23 1.116 1.64.361a6.16 6.16 0 0 1 2.21-2.232Z" fill="#fff" style="mix-blend-mode:screen" opacity=".16"/></g><path d="m1883.43 943.68.1-2.358c.35-.205.72-.344 1.12-.409h.43c.49.582.96 1.179 1.48 1.776-.42.428-.93.746-1.48.928a3.19 3.19 0 0 1-1.65.063Z" fill="#FFE726"/><path d="M1884.65 941.793c4.92-2.232 7.74-9.637 4.96-16.507-1.11-2.764-3.22-4.945-5.85-6.064a10.126 10.126 0 0 0-8.18.098c-2.61 1.182-4.67 3.414-5.72 6.205a11.916 11.916 0 0 0 .09 8.675c2.77 6.823 9.76 9.763 14.7 7.593Z" fill="#FFE726"/><path d="M1871.98 930.647a.887.887 0 0 1-.46.041.882.882 0 0 1-.41-.198 2.086 2.086 0 0 1-.52-1.792c.03-.922.29-1.82.74-2.61.31-.55.81-1.226 1.48-1.21a.765.765 0 0 1 .68.534c.06.179.06.371 0 .55-.09.322-.26.61-.5.834-.25.273-.44.603-.55.965-.12.362-.15.747-.1 1.125.06.291.11.585.15.881a.972.972 0 0 1-.12.53.82.82 0 0 1-.39.35Z" fill="#fff" style="mix-blend-mode:screen" opacity=".16"/><path d="m1904.61 949.732 1.48-1.76c.39.08.76.229 1.1.44.13.072.26.162.37.267v2.327a3.363 3.363 0 0 1-1.68-.252c-.5-.225-.93-.576-1.27-1.022Z" fill="#06B5C1"/><path d="M1906.71 949.041c5.16 1.572 11.76-2.217 13.75-9.433.61-2.825.17-5.789-1.22-8.284-1.39-2.495-3.62-4.333-6.25-5.137a10.155 10.155 0 0 0-7.87.813c-2.43 1.326-4.29 3.587-5.2 6.32-1.99 7.137 1.65 14.117 6.79 15.721Z" fill="#06B5C1"/><path d="M1903.6 931.952a.883.883 0 0 1-.38-.274 1.002 1.002 0 0 1-.22-.433c-.02-.328.03-.656.15-.959.12-.303.3-.573.54-.786a5.218 5.218 0 0 1 2.12-1.573c.29-.161.62-.239.96-.225.33.014.65.118.94.304.1.111.18.249.21.402.04.152.04.312-.01.463-.05.185-.15.353-.28.487a1.4 1.4 0 0 1-.87.283c-.36.05-.71.181-1.01.384-.31.203-.57.475-.77.795-.12.272-.25.535-.4.786a.81.81 0 0 1-.43.367.741.741 0 0 1-.55-.021Z" fill="#fff" style="mix-blend-mode:screen" opacity=".16"/><path d="M982.727 902.68h-20.91v165.05h20.91V902.68Z" fill="#5772C8"/><path d="M888.366 1046.53h83.238c2.002-2.41 3.189-5.79 1.483-8.3-1.705-2.52-4.938-2.57-7.755-2.44a6.662 6.662 0 0 0-1.172-3.73 5.928 5.928 0 0 0-2.966-2.29 5.735 5.735 0 0 0-3.661.03c-1.189.4-2.23 1.19-2.982 2.25.278-3.02-.434-6.05-2.017-8.58-1.583-2.52-3.94-4.39-6.672-5.29a11.73 11.73 0 0 0-8.328.37c-2.653 1.13-4.856 3.2-6.236 5.86-.715-1.25-1.768-2.24-3.022-2.83a6.438 6.438 0 0 0-4.002-.53 6.726 6.726 0 0 0-3.579 1.97 7.371 7.371 0 0 0-1.899 3.78 14.74 14.74 0 0 0-4.175-4.78 13.766 13.766 0 0 0-5.686-2.46c-4.449-.75-8.245 1.34-12.175 3.01-4.348 1.55-8.003 4.74-10.262 8.97a13.904 13.904 0 0 0-1.371 7.58c.264 2.61 1.258 5.08 2.854 7.09l.385.32Z" fill="#8FC048"/><path d="M764.302 1049.86h152.477a6.727 6.727 0 0 0 .074-5.05 9.691 9.691 0 0 0-.252-.58c-.938-1.77-2.475-3.1-4.299-3.71a7.15 7.15 0 0 0-5.533.39 9.87 9.87 0 0 0 .239-5.13 9.551 9.551 0 0 0-2.359-4.49c-1.53-1.44-3.481-2.28-5.526-2.37-2.045-.1-4.058.56-5.7 1.85a9.706 9.706 0 0 0 2.513-3.15 10.458 10.458 0 0 0 .542-8.06 9.974 9.974 0 0 0-2.067-3.5 9.364 9.364 0 0 0-3.233-2.31 9.042 9.042 0 0 0-3.838-.7 8.96 8.96 0 0 0-3.777 1.01 9.524 9.524 0 0 0-3.057 2.56c.333-1.92.13-3.9-.585-5.7a9.926 9.926 0 0 0-3.44-4.43c-1.53-1.09-3.326-1.69-5.169-1.71a9.108 9.108 0 0 0-5.205 1.58c-.633-2.24-1.853-4.25-3.517-5.79-1.665-1.536-3.706-2.543-5.888-2.902a11.093 11.093 0 0 0-6.441.877c-2.026.932-3.761 2.455-5.005 4.385a14.655 14.655 0 0 0-2.974-4.837 13.756 13.756 0 0 0-4.512-3.236 13.084 13.084 0 0 0-5.343-1.126c-1.834.005-3.649.4-5.337 1.159a13.78 13.78 0 0 0-4.494 3.264 14.718 14.718 0 0 0-2.947 4.856 15.372 15.372 0 0 0-.939 5.69 15.35 15.35 0 0 0 1.217 5.63c-.801-1.99-2.171-3.66-3.917-4.78a9.36 9.36 0 0 0-5.81-1.45 9.483 9.483 0 0 0-5.517 2.42c-1.554 1.4-2.654 3.28-3.144 5.38-1.563-1.64-3.556-2.75-5.719-3.17a10.423 10.423 0 0 0-6.412.78c-2.446 1.38-4.322 3.67-5.262 6.44-.94 2.76-.877 5.8.176 8.51a10.425 10.425 0 0 0-5.962-.67c-2.008.36-3.882 1.31-5.413 2.73-3.84 3.93-4.137 11.38.208 16.65a10.177 10.177 0 0 0-4.716.27 10.446 10.446 0 0 0-4.137 2.42Z" fill="#8FC048"/><path d="M1010.38 875.42h-76.191c-7.887 0-14.281 6.778-14.281 15.139s6.394 15.139 14.281 15.139h76.191c7.89 0 14.28-6.778 14.28-15.139s-6.39-15.139-14.28-15.139Z" fill="#2F50BA"/><path d="M932.647 883.092h-4.271c-.573 0-1.038.492-1.038 1.1v6.084c0 .608.465 1.1 1.038 1.1h4.271c.573 0 1.038-.492 1.038-1.1v-6.084c0-.608-.465-1.1-1.038-1.1ZM941.931 883.092h-4.271c-.574 0-1.038.492-1.038 1.1v6.084c0 .608.464 1.1 1.038 1.1h4.271c.573 0 1.038-.492 1.038-1.1v-6.084c0-.608-.465-1.1-1.038-1.1ZM951.214 883.092h-4.271c-.573 0-1.038.492-1.038 1.1v6.084c0 .608.465 1.1 1.038 1.1h4.271c.573 0 1.038-.492 1.038-1.1v-6.084c0-.608-.465-1.1-1.038-1.1ZM960.482 883.092h-4.271c-.573 0-1.038.492-1.038 1.1v6.084c0 .608.465 1.1 1.038 1.1h4.271c.574 0 1.038-.492 1.038-1.1v-6.084c0-.608-.464-1.1-1.038-1.1ZM969.766 883.092h-4.271c-.574 0-1.038.492-1.038 1.1v6.084c0 .608.464 1.1 1.038 1.1h4.271c.573 0 1.038-.492 1.038-1.1v-6.084c0-.608-.465-1.1-1.038-1.1ZM979.049 883.092h-4.271c-.574 0-1.038.492-1.038 1.1v6.084c0 .608.464 1.1 1.038 1.1h4.271c.573 0 1.038-.492 1.038-1.1v-6.084c0-.608-.465-1.1-1.038-1.1ZM988.332 883.092h-4.271c-.573 0-1.038.492-1.038 1.1v6.084c0 .608.465 1.1 1.038 1.1h4.271c.573 0 1.038-.492 1.038-1.1v-6.084c0-.608-.465-1.1-1.038-1.1ZM997.615 883.092h-4.271c-.573 0-1.038.492-1.038 1.1v6.084c0 .608.465 1.1 1.038 1.1h4.271c.573 0 1.038-.492 1.038-1.1v-6.084c0-.608-.465-1.1-1.038-1.1ZM1006.9 883.092h-4.27c-.58 0-1.04.492-1.04 1.1v6.084c0 .608.46 1.1 1.04 1.1h4.27c.57 0 1.04-.492 1.04-1.1v-6.084c0-.608-.47-1.1-1.04-1.1ZM1016.18 883.092h-4.27c-.57 0-1.04.492-1.04 1.1v6.084c0 .608.47 1.1 1.04 1.1h4.27c.58 0 1.04-.492 1.04-1.1v-6.084c0-.608-.46-1.1-1.04-1.1Z" fill="#fff"/><path d="M927.264 897.193h90.016" stroke="#fff" stroke-linecap="round" stroke-linejoin="round"/><path d="M1616.48 1038.4c-.68-1.52-1.8-2.76-3.2-3.54-1.28-.74-7.15-2.97-8.36-1.01.84-1.39 1.23-3.04 1.13-4.69-.11-1.65-.71-3.23-1.73-4.49a6.54 6.54 0 0 0-4.01-2.06c-1.52-.19-3.05.18-4.35 1.04 1.63-3.93-1.34-9.1-4.66-11-3.82-2.2-9.36-.9-12.68 1.87-.74-1.43-1.79-2.65-3.06-3.57a9.512 9.512 0 0 0-4.25-1.71c-2.35-.29-4.73.27-6.76 1.57-2.02 1.29-3.59 3.27-4.45 5.61-1.84-1.89-4.22-3.09-6.76-3.43-6.27-.86-12.1 3.3-13.01 9.34-.22 1.48-.13 2.99.27 4.42-.88.07-1.74.24-2.58.52-1.96.71-3.74 1.89-5.21 3.45a14.692 14.692 0 0 0-3.26 5.51 5.55 5.55 0 0 0 .3 3.68c-4.79 0-9.09 1.82-10.28 7.65-2.06 10.16 8.34 15.55 16.12 14.31 1.99-.33 3.93-.98 5.73-1.95 1.53 1.23 3.32 2.06 5.22 2.41 1.9.35 3.85.21 5.69-.4 4.17 2.97 9.64 3.79 13.81 1.15 2.41 2.58 5.43 4.43 8.75 5.36 2.47.69 5.06.8 7.58.34 2.52-.47 4.92-1.5 7.04-3.03l.7.46c5.93 3.69 32.03 7.54 30.97-6.29-.06-2.51-.81-4.95-2.16-7.01-.59-.76-3.86-3.71-4.95-2.63 1.01-1.01 1.81-2.23 2.36-3.58.55-1.35.84-2.81.84-4.28.02-1.38-.25-2.76-.79-4.02Z" fill="#8FC048"/><path d="M119.955 778.586h91.157a8.817 8.817 0 0 0 3.678-3.474 11.934 11.934 0 0 0 1.109-6.798c-.306-2.332-1.29-4.506-2.814-6.219a11.626 11.626 0 0 0-4.448-2.928 11.071 11.071 0 0 0-5.206-.578 12.404 12.404 0 0 0-5.382 2.347 13.341 13.341 0 0 0-3.842 4.633c.445-11.681-6.525-22.009-16.15-24.776-11.344-3.364-24.35 4.245-27.939 17.796-5.709-3.103-12.18-4.271-18.536-3.349-4.36.633-8.467 2.538-11.864 5.503a14.847 14.847 0 0 0-3.337 4.496 9.8 9.8 0 0 0-1.222 3.64 9.978 9.978 0 0 0 .257 3.855 9.625 9.625 0 0 0 1.694 3.421 9.005 9.005 0 0 0 2.845 2.415v.016ZM1202.84 877.149h84.95a8.596 8.596 0 0 0 3.42-3.474c2.63-5.062-.75-11.508-1.48-13.017-1.35-2.547-3.29-6.288-7.16-7.012-5.08-.959-8.9 4.119-9.06 4.418 4.44-8.882 2.96-19.148-1.95-23.581-6.03-5.424-18.39-3.145-23.96 8.835-2.42-2.398-5.53-3.85-8.83-4.115-3.3-.266-6.58.67-9.31 2.653a17.545 17.545 0 0 0-5.1 6.85 18.574 18.574 0 0 0-1.38 8.603c-2.61-2.239-5.86-3.48-9.22-3.521-4.24.223-8.23 2.199-11.11 5.502a15.007 15.007 0 0 0-3.1 4.512 11.873 11.873 0 0 0-1.17 5.817c.19 1.52.69 2.98 1.46 4.279a10.43 10.43 0 0 0 3 3.251ZM1428.87 786.958h111.02c1.83-.901 3.37-2.342 4.45-4.15 2.77-4.874 1.48-11.461-2.02-15.532-1.32-1.628-2.97-2.904-4.84-3.723-1.87-.82-3.9-1.16-5.91-.994a12.335 12.335 0 0 0-5.25 2.174 13.14 13.14 0 0 0-3.84 4.366c-.73-3.757-3.92-17.843-16.08-25.42-3.65-2.264-11.31-7.043-18.89-3.632-6.39 2.877-10.5 10.612-10.48 19.62-1.92-3.947-5.03-7.096-8.83-8.941a17.688 17.688 0 0 0-12.16-1.231c-3.16.983-6 2.87-8.22 5.455-2.21 2.585-3.71 5.768-4.32 9.197-.69-.251-9.08-3.144-14.83 1.572a16.337 16.337 0 0 0-4.07 5.393c-1.1 2.12-1.62 4.53-1.48 6.948.36 5.33 5.03 8.427 5.75 8.898Z" fill="#DCEEEE"/><path d="m1320.16 1021.04-.07 33.14 4.35.01.06-33.14-4.34-.01Z" fill="#73432E"/><path d="M1334.53 1008.78c0 13.46-5.53 19.9-12.31 19.9s-12.26-6.49-12.23-19.96c.03-13.476 5.81-25.958 12.59-25.958 6.77 0 11.96 12.482 11.95 26.018Z" fill="#009750"/><path d="m1337.69 1021.09-.06 33.14 4.36.01.06-33.14-4.36-.01Z" fill="#73432E"/><path d="M1352.09 1008.81c0 13.47-5.55 19.92-12.31 19.9-6.76-.01-12.27-6.49-12.24-19.95.03-13.453 5.8-25.967 12.58-25.951 6.78.016 11.98 12.53 11.97 26.001Z" fill="#0B7D58"/><path d="m1357.04 1021.09-.07 33.14 4.36.01.07-33.14-4.36-.01Z" fill="#73432E"/><path d="M1371.43 1008.81c0 13.47-5.54 19.92-12.31 19.9-6.78-.01-12.27-6.49-12.24-19.95.03-13.453 5.82-25.967 12.58-25.951 6.76.016 11.98 12.53 11.97 26.001Z" fill="#009750"/><path d="m1282.37 1021.04-.07 33.14 4.34.01.07-33.14-4.34-.01Z" fill="#73432E"/><path d="M1296.68 1008.78c0 13.46-5.53 19.9-12.31 19.9-6.77 0-12.24-6.49-12.21-19.96.03-13.476 5.79-25.958 12.57-25.958s12.04 12.482 11.95 26.018Z" fill="#009750"/><path d="m1299.92 1021.07-.07 33.14 4.36.01.07-33.14-4.36-.01Z" fill="#73432E"/><path d="M1314.3 1008.81c0 13.47-5.53 19.92-12.31 19.9-6.77-.01-12.25-6.49-12.22-19.95.03-13.453 5.8-25.967 12.58-25.951 6.78.016 11.98 12.53 11.95 26.001Z" fill="#0B7D58"/><path d="M1695.49 878.391c-.55 0-1.08-.231-1.47-.644a2.323 2.323 0 0 1-.62-1.557V756.806c-.02-.306.02-.614.11-.904.09-.291.24-.557.44-.783.19-.226.43-.406.7-.53a1.974 1.974 0 0 1 1.68 0c.26.124.5.304.7.53.19.226.34.492.44.783.09.29.13.598.1.904V876.19c0 .584-.22 1.144-.61 1.556-.39.413-.91.645-1.47.645Z" fill="#06B5C1"/><path d="M1695.18 876.819h-112.6c-.29.026-.58-.012-.85-.112a2.073 2.073 0 0 1-.74-.465c-.21-.208-.38-.46-.5-.741a2.45 2.45 0 0 1-.17-.891c0-.307.06-.61.17-.891.12-.281.29-.533.5-.741.21-.208.47-.366.74-.465.27-.1.56-.138.85-.112h112.6c.29-.026.58.012.86.112.27.099.52.257.73.465.22.208.39.46.5.741.12.281.18.584.18.891 0 .307-.06.61-.18.891-.11.281-.28.533-.5.741-.21.208-.46.366-.73.465-.28.1-.57.138-.86.112Z" fill="#06B5C1"/><path d="M1693.7 996.534a2.046 2.046 0 0 1-1.47-.655 2.284 2.284 0 0 1-.61-1.562V874.932c-.02-.305.02-.613.11-.903.09-.291.24-.557.44-.783.19-.226.43-.406.7-.53a1.974 1.974 0 0 1 1.68 0c.26.124.5.304.7.53.19.226.34.492.44.783.09.29.13.598.1.903v119.385c0 .588-.22 1.152-.61 1.567-.39.416-.92.65-1.48.65Z" fill="#06B5C1"/><path d="M1806.63 878.721H1694a2.06 2.06 0 0 1-1.37-.709 2.317 2.317 0 0 1 0-3c.36-.409.84-.662 1.37-.708h112.63c.52.046 1.01.299 1.36.708.36.409.55.945.55 1.5 0 .556-.19 1.091-.55 1.5-.35.409-.84.662-1.36.709Z" fill="#06B5C1"/><path d="M1696.8 878.532c-.37.003-.73-.098-1.04-.291a2.124 2.124 0 0 1-.77-.809l-56.44-103.318a2.186 2.186 0 0 1-.26-.827 2.13 2.13 0 0 1 .06-.87 2.164 2.164 0 0 1 .98-1.353c.25-.145.51-.239.79-.276.27-.037.55-.016.82.061.26.078.51.21.73.39.22.18.4.404.54.659l56.35 103.317c.28.507.35 1.109.21 1.675a2.22 2.22 0 0 1-.96 1.344c-.31.191-.66.294-1.01.298Z" fill="#06B5C1"/><path d="M1598.35 937.171c-.46.005-.91-.153-1.28-.448a2.205 2.205 0 0 1-.75-1.184 2.31 2.31 0 0 1 .09-1.423c.18-.45.5-.824.9-1.064l97.44-59.849c.24-.145.5-.24.77-.279.27-.038.55-.02.81.055.27.074.52.203.73.379.22.176.4.396.54.647s.23.528.26.815c.04.288.02.58-.05.86s-.19.543-.36.774c-.16.23-.37.424-.61.569l-97.46 59.85c-.31.196-.67.299-1.03.298Z" fill="#06B5C1"/><path d="M1751.11 981.693a1.976 1.976 0 0 1-1.04-.296c-.32-.193-.58-.47-.76-.804l-56.45-103.255a2.323 2.323 0 0 1-.22-1.675c.15-.567.49-1.05.97-1.344a1.984 1.984 0 0 1 1.58-.224c.54.15.99.52 1.27 1.026l56.45 103.302c.19.337.28.718.28 1.106 0 .388-.1.768-.28 1.104-.18.336-.45.615-.76.809-.32.194-.68.297-1.04.298v-.047Z" fill="#06B5C1"/><path d="M1695.6 879.586c-.46.004-.91-.153-1.28-.449a2.26 2.26 0 0 1-.65-2.606c.17-.45.49-.825.89-1.064l97.45-59.834a1.973 1.973 0 0 1 1.58-.224c.53.15.99.519 1.26 1.026.28.507.36 1.109.21 1.675a2.209 2.209 0 0 1-.96 1.343l-97.45 59.834c-.32.197-.68.3-1.05.299Z" fill="#06B5C1"/><path d="M1697.99 877.951a1.96 1.96 0 0 1-1.04-.299l-97.74-59.393a2.172 2.172 0 0 1-.97-1.338 2.312 2.312 0 0 1 .2-1.673c.28-.507.73-.876 1.26-1.028a1.98 1.98 0 0 1 1.58.218l97.68 59.394c.41.239.72.614.9 1.064.18.45.21.95.09 1.422s-.38.888-.75 1.184c-.36.296-.81.453-1.27.449h.06Z" fill="#06B5C1"/><path d="M1640.52 981.001c-.36 0-.72-.098-1.04-.283a2.212 2.212 0 0 1-.96-1.342 2.32 2.32 0 0 1 .19-1.676l56.04-103.506a2.2 2.2 0 0 1 .54-.648c.21-.176.46-.306.72-.381a1.988 1.988 0 0 1 1.58.219 2 2 0 0 1 .61.566c.17.23.29.492.36.772.07.279.09.571.06.858-.04.287-.13.564-.26.814l-56.03 103.57c-.19.324-.46.591-.77.773-.32.182-.68.273-1.04.264Z" fill="#06B5C1"/><path d="M1793.77 938.366c-.37.001-.72-.102-1.04-.298l-97.69-59.394c-.26-.133-.49-.32-.68-.551a2.14 2.14 0 0 1-.41-.79 2.276 2.276 0 0 1-.08-.899c.03-.302.12-.594.26-.858.15-.264.34-.494.57-.675a1.983 1.983 0 0 1 2.41-.063l97.7 59.394c.4.244.71.619.88 1.069.18.45.21.948.09 1.419-.12.47-.38.886-.74 1.184-.37.297-.81.46-1.27.462Z" fill="#06B5C1"/><path d="M1697.51 879.476c-.36.001-.72-.102-1.04-.299a2.163 2.163 0 0 1-.97-1.33c-.08-.28-.09-.571-.06-.858.04-.288.13-.564.26-.815l56.03-103.569c.27-.509.72-.881 1.26-1.036.53-.155 1.1-.079 1.58.211s.83.769.98 1.334c.14.565.07 1.168-.2 1.676l-56.03 103.57c-.18.339-.44.621-.76.817-.32.196-.68.299-1.05.299Z" fill="#06B5C1"/><path d="M1646.66 1060.28c-.58 0-1.15-.08-1.7-.25-.76-.24-1.47-.63-2.09-1.16a6.146 6.146 0 0 1-1.51-1.91c-.38-.74-.61-1.55-.7-2.38-.08-.84-.01-1.68.22-2.49l48.02-173.306a6.358 6.358 0 0 1 2.16-3.312 5.79 5.79 0 0 1 3.6-1.279c1.3.002 2.57.448 3.61 1.272a6.398 6.398 0 0 1 2.16 3.303l48.02 170.792c.46 1.62.29 3.37-.47 4.86-.77 1.49-2.05 2.6-3.58 3.09-1.54.48-3.19.3-4.59-.51-1.41-.8-2.46-2.17-2.91-3.79l-42.27-150.09-42.26 152.49c-.35 1.33-1.1 2.5-2.12 3.34a5.825 5.825 0 0 1-3.59 1.33Z" fill="#06B5C1"/><path d="M1696.38 960.077c-16 0-31.64-5.031-44.95-14.456-13.3-9.424-23.67-22.82-29.8-38.493-6.12-15.673-7.72-32.92-4.6-49.558 3.12-16.638 10.83-31.922 22.14-43.917 11.32-11.996 25.73-20.165 41.43-23.474 15.69-3.31 31.96-1.611 46.75 4.881 14.78 6.491 27.42 17.485 36.31 31.591 8.89 14.105 13.63 30.688 13.63 47.653-.02 22.74-8.55 44.543-23.72 60.623-15.17 16.08-35.73 25.125-57.19 25.15Zm0-167.145c-15.18-.003-30.02 4.767-42.64 13.706-12.63 8.939-22.47 21.647-28.28 36.515-5.81 14.869-7.33 31.23-4.37 47.016 2.96 15.785 10.26 30.286 21 41.667 10.73 11.382 24.41 19.133 39.3 22.274 14.89 3.141 30.32 1.531 44.35-4.628 14.03-6.158 26.02-16.587 34.45-29.969 8.44-13.382 12.94-29.115 12.94-45.209-.03-21.571-8.12-42.251-22.5-57.505-14.39-15.255-33.9-23.838-54.25-23.867Z" fill="#06B5C1"/><path d="M1696.37 994.427c-22.41-.003-44.32-7.051-62.95-20.252-18.63-13.201-33.15-31.963-41.73-53.913-8.57-21.95-10.81-46.102-6.44-69.403 4.37-23.301 15.17-44.703 31.02-61.501 15.84-16.798 36.03-28.237 58.01-32.871 21.98-4.633 44.77-2.254 65.47 6.839 20.71 9.092 38.4 24.488 50.85 44.242 12.45 19.754 19.1 42.978 19.1 66.736-.04 31.849-11.99 62.384-33.24 84.904-21.24 22.52-50.05 35.186-80.09 35.219Zm0-235.813c-21.59.003-42.69 6.791-60.63 19.507-17.95 12.716-31.94 30.788-40.2 51.93-8.26 21.143-10.42 44.407-6.2 66.851 4.21 22.444 14.61 43.059 29.87 59.239 15.27 16.18 34.72 27.199 55.89 31.662 21.17 4.463 43.11 2.171 63.06-6.587 19.94-8.758 36.98-23.588 48.98-42.616 11.99-19.027 18.39-41.397 18.39-64.281-.03-30.681-11.54-60.096-32.01-81.79-20.46-21.695-48.21-33.898-77.15-33.931v.016Z" fill="#06B5C1"/><path d="M1706.75 758.063c0 2.364-.66 4.675-1.9 6.64-1.24 1.965-3 3.496-5.06 4.4-2.06.904-4.33 1.14-6.51.677a11.048 11.048 0 0 1-5.77-3.274c-1.58-1.672-2.65-3.803-3.09-6.121-.43-2.319-.2-4.722.65-6.905.86-2.183 2.3-4.048 4.16-5.359a10.821 10.821 0 0 1 6.27-2.006c1.47 0 2.94.31 4.31.91 1.36.601 2.6 1.481 3.65 2.591a12.198 12.198 0 0 1 2.44 3.876c.56 1.45.85 3.003.85 4.571ZM1583.75 862.67c2.23-.003 4.41.695 6.27 2.006 1.86 1.311 3.3 3.176 4.16 5.359.85 2.183 1.08 4.586.64 6.904-.43 2.319-1.5 4.449-3.08 6.122-1.57 1.672-3.58 2.812-5.77 3.274-2.18.462-4.45.227-6.51-.677-2.06-.904-3.82-2.435-5.06-4.401a12.453 12.453 0 0 1-1.9-6.639c0-3.166 1.18-6.203 3.29-8.443 2.11-2.24 4.98-3.501 7.96-3.505ZM1682.44 993.059c0-2.364.67-4.674 1.91-6.639 1.23-1.965 3-3.497 5.06-4.401a10.664 10.664 0 0 1 6.51-.677c2.19.462 4.19 1.602 5.77 3.274 1.58 1.673 2.65 3.803 3.08 6.122.43 2.319.21 4.721-.65 6.904-.85 2.183-2.3 4.048-4.15 5.358a10.877 10.877 0 0 1-6.27 2.01c-1.48 0-2.94-.31-4.31-.91-1.37-.6-2.61-1.48-3.65-2.59a11.865 11.865 0 0 1-2.44-3.88 12.496 12.496 0 0 1-.86-4.571ZM1805.44 888.437c-2.23.003-4.41-.696-6.27-2.007-1.85-1.312-3.3-3.178-4.15-5.362a12.61 12.61 0 0 1-.65-6.906c.44-2.319 1.51-4.45 3.09-6.122a11.034 11.034 0 0 1 5.77-3.27 10.69 10.69 0 0 1 6.52.683c2.06.907 3.82 2.44 5.05 4.408a12.472 12.472 0 0 1 1.9 6.643c-.01 3.164-1.19 6.196-3.3 8.433s-4.97 3.495-7.96 3.5ZM1650.68 768.125a12.591 12.591 0 0 1 1.49 6.745 12.284 12.284 0 0 1-2.3 6.485c-1.35 1.874-3.2 3.28-5.31 4.04-2.1.76-4.38.841-6.53.232-2.15-.609-4.08-1.88-5.55-3.654a12.244 12.244 0 0 1-2.7-6.307c-.29-2.34.08-4.719 1.06-6.836.98-2.118 2.53-3.878 4.46-5.06a10.808 10.808 0 0 1 4.16-1.505c1.46-.207 2.95-.105 4.38.3 1.43.404 2.77 1.104 3.94 2.058 1.18.954 2.16 2.144 2.9 3.502ZM1593.73 923.997a10.78 10.78 0 0 1 6.37-1.574c2.22.154 4.34 1.001 6.11 2.436 1.77 1.435 3.09 3.393 3.81 5.627.72 2.233.79 4.641.22 6.921-.58 2.279-1.77 4.327-3.44 5.884-1.68 1.558-3.75 2.556-5.95 2.867-2.21.311-4.45-.078-6.45-1.118-2-1.039-3.66-2.684-4.77-4.724a12.167 12.167 0 0 1-1.42-4.411c-.2-1.555-.1-3.136.28-4.652a12.208 12.208 0 0 1 1.94-4.181c.9-1.245 2.02-2.29 3.3-3.075ZM1740.77 984.381a12.586 12.586 0 0 1-1.49-6.743c.15-2.354.95-4.61 2.3-6.483 1.36-1.872 3.2-3.277 5.31-4.037 2.11-.76 4.38-.841 6.53-.233 2.15.608 4.08 1.879 5.55 3.65a12.234 12.234 0 0 1 2.7 6.304c.3 2.338-.07 4.717-1.05 6.834-.98 2.118-2.53 3.88-4.46 5.063-2.58 1.585-5.66 2.017-8.54 1.2-2.89-.816-5.35-2.814-6.85-5.555ZM1797.73 828.509a10.773 10.773 0 0 1-6.37 1.592 10.873 10.873 0 0 1-6.13-2.429c-1.77-1.434-3.1-3.394-3.83-5.631-.72-2.237-.8-4.65-.22-6.934.57-2.285 1.77-4.337 3.44-5.899 1.68-1.562 3.75-2.562 5.96-2.874 2.21-.312 4.46.077 6.46 1.12 2 1.042 3.67 2.691 4.78 4.736 1.5 2.74 1.91 5.998 1.14 9.057-.77 3.06-2.65 5.671-5.23 7.262ZM1606.93 806.594c1.94 1.175 3.5 2.932 4.49 5.048a12.646 12.646 0 0 1 1.09 6.842c-.29 2.344-1.22 4.546-2.69 6.327-1.46 1.782-3.39 3.063-5.54 3.681-2.16.618-4.43.546-6.55-.208-2.11-.753-3.96-2.155-5.32-4.026-1.37-1.871-2.17-4.128-2.33-6.486a12.55 12.55 0 0 1 1.47-6.761c1.49-2.747 3.95-4.755 6.83-5.583 2.88-.828 5.96-.409 8.55 1.166ZM1631.34 971.773c1.11-2.045 2.77-3.696 4.76-4.744a10.696 10.696 0 0 1 6.44-1.143c2.21.302 4.28 1.292 5.96 2.842 1.68 1.551 2.88 3.594 3.46 5.871.59 2.277.52 4.686-.19 6.922-.71 2.236-2.03 4.199-3.79 5.641-1.76 1.442-3.88 2.299-6.1 2.462-2.22.162-4.44-.377-6.37-1.548-2.59-1.577-4.49-4.18-5.27-7.237a12.617 12.617 0 0 1 1.1-9.066ZM1787.14 945.881c-1.93-1.174-3.49-2.928-4.48-5.042a12.508 12.508 0 0 1-1.08-6.831c.28-2.341 1.21-4.54 2.67-6.319 1.47-1.779 3.39-3.058 5.54-3.676 2.15-.618 4.42-.546 6.53.206 2.11.751 3.97 2.15 5.33 4.017a12.35 12.35 0 0 1 2.32 6.476c.15 2.354-.36 4.704-1.47 6.751a11.645 11.645 0 0 1-2.88 3.51 11.053 11.053 0 0 1-3.93 2.072c-1.43.411-2.92.519-4.39.319-1.46-.2-2.88-.704-4.16-1.483ZM1762.72 780.733c-1.11 2.045-2.77 3.696-4.76 4.744-2 1.047-4.24 1.445-6.44 1.143-2.21-.303-4.28-1.292-5.96-2.842-1.68-1.551-2.88-3.594-3.47-5.871-.58-2.277-.51-4.686.2-6.922.71-2.236 2.03-4.199 3.79-5.641 1.76-1.443 3.88-2.299 6.1-2.462 2.22-.162 4.44.376 6.37 1.548 2.59 1.577 4.49 4.18 5.27 7.237.78 3.057.38 6.318-1.1 9.066Z" fill="#7DC8E7"/><path d="M1715.94 874.303c0 4.102-1.14 8.111-3.29 11.521-2.15 3.41-5.21 6.067-8.78 7.637a18.532 18.532 0 0 1-11.3 1.18c-3.8-.8-7.28-2.775-10.02-5.675-2.73-2.9-4.6-6.595-5.35-10.617a21.944 21.944 0 0 1 1.11-11.981c1.48-3.789 3.99-7.027 7.21-9.306 3.21-2.278 7-3.494 10.86-3.494 5.19.004 10.16 2.19 13.83 6.078 3.67 3.887 5.73 9.159 5.73 14.657Z" fill="#06B5C1"/><path d="M1707.71 874.304c.01 2.379-.66 4.707-1.9 6.687-1.25 1.98-3.02 3.524-5.09 4.436a10.76 10.76 0 0 1-6.56.688c-2.2-.463-4.22-1.609-5.81-3.292-1.59-1.683-2.67-3.827-3.11-6.161-.43-2.335-.21-4.754.65-6.952.86-2.199 2.32-4.077 4.19-5.397a10.862 10.862 0 0 1 6.3-2.02c3.01 0 5.89 1.265 8.02 3.518 2.12 2.252 3.31 5.307 3.31 8.493Z" fill="#F04E98"/><path d="M1587.73 863.189a.956.956 0 0 0 .35-.337.995.995 0 0 0 .12-.481.966.966 0 0 0-.25-.655.867.867 0 0 0-.62-.272h-6.26a.852.852 0 0 0-.61.276.979.979 0 0 0-.27.651c.01.207.08.405.2.565.13.159.3.27.49.316-2.79.704-5.28 2.371-7.08 4.739-1.79 2.368-2.79 5.302-2.84 8.341.16 3.674 1.65 7.14 4.16 9.679 2.51 2.539 5.85 3.956 9.32 3.956 3.47 0 6.8-1.417 9.31-3.956 2.51-2.539 4-6.005 4.17-9.679-.06-3.087-1.09-6.064-2.94-8.45-1.85-2.385-4.41-4.039-7.25-4.693ZM1574 875.766c.17-2.846 1.36-5.514 3.32-7.463 1.96-1.95 4.55-3.035 7.24-3.035 2.69 0 5.28 1.085 7.24 3.035 1.96 1.949 3.15 4.617 3.33 7.463H1574Z" fill="#FFA603"/><path d="M1587.08 859.982h-5.91c-.75 0-1.36.647-1.36 1.446v.959c0 .799.61 1.446 1.36 1.446h5.91c.75 0 1.36-.647 1.36-1.446v-.959c0-.799-.61-1.446-1.36-1.446Z" fill="#FFA603"/><path d="M1604.63 803.34a.827.827 0 0 0 .35-.338c.09-.144.13-.31.13-.48a.934.934 0 0 0-.26-.656.834.834 0 0 0-.62-.272h-6.25a.861.861 0 0 0-.62.277.967.967 0 0 0-.26.651c-.01.206.05.409.16.577.12.168.28.291.46.351-2.78.704-5.27 2.371-7.07 4.739-1.79 2.368-2.8 5.302-2.85 8.34.17 3.674 1.66 7.141 4.17 9.68 2.51 2.539 5.84 3.956 9.31 3.956 3.47 0 6.81-1.417 9.32-3.956 2.51-2.539 4-6.006 4.16-9.68-.04-3.085-1.06-6.065-2.9-8.458-1.84-2.393-4.38-4.06-7.23-4.731Zm-13.71 12.576c.14-2.866 1.32-5.564 3.28-7.539 1.96-1.975 4.57-3.076 7.28-3.076 2.7 0 5.31 1.101 7.27 3.076 1.97 1.975 3.14 4.673 3.28 7.539h-21.11Z" fill="#F04E98"/><path d="M1603.98 800.101h-5.9c-.75 0-1.37.648-1.37 1.446v.959c0 .799.62 1.447 1.37 1.447h5.9c.75 0 1.37-.648 1.37-1.447v-.959c0-.798-.62-1.446-1.37-1.446Z" fill="#F04E98"/><path d="M1602.17 920.476a.862.862 0 0 0 .4-.433c.08-.188.1-.401.06-.602a.922.922 0 0 0-.32-.507.809.809 0 0 0-.54-.188h-6.27c-.23 0-.45.097-.61.268a.943.943 0 0 0-.25.644c0 .206.06.406.19.566.12.16.29.271.48.315-2.79.704-5.28 2.371-7.08 4.739-1.79 2.368-2.79 5.302-2.84 8.34.16 3.675 1.65 7.141 4.16 9.68 2.51 2.539 5.85 3.956 9.32 3.956 3.47 0 6.8-1.417 9.31-3.956 2.51-2.539 4-6.005 4.17-9.68-.06-3.084-1.09-6.06-2.94-8.445-1.84-2.385-4.39-4.04-7.24-4.697Zm-13.71 12.576c.17-2.845 1.36-5.513 3.32-7.462 1.96-1.95 4.55-3.035 7.24-3.035 2.69 0 5.28 1.085 7.24 3.035 1.96 1.949 3.15 4.617 3.33 7.462h-21.13Z" fill="#5772C8"/><path d="M1601.52 917.237h-5.9c-.76 0-1.37.648-1.37 1.447v.959c0 .798.61 1.446 1.37 1.446h5.9c.75 0 1.36-.648 1.36-1.446v-.959c0-.799-.61-1.447-1.36-1.447ZM1644.63 760.06a.862.862 0 0 0 .4-.433c.08-.188.1-.401.05-.602a.855.855 0 0 0-.31-.507.82.82 0 0 0-.54-.187h-6.26c-.23 0-.45.097-.62.271a.97.97 0 0 0-.25.656c0 .204.07.401.2.558.12.156.29.265.48.307-2.79.704-5.28 2.371-7.07 4.739-1.8 2.368-2.8 5.302-2.85 8.341.16 3.674 1.65 7.14 4.16 9.679 2.51 2.539 5.85 3.956 9.32 3.956 3.47 0 6.8-1.417 9.31-3.956 2.51-2.539 4-6.005 4.17-9.679-.06-3.087-1.1-6.062-2.94-8.447-1.85-2.385-4.41-4.039-7.25-4.696Zm-13.72 12.577c.15-2.866 1.32-5.565 3.28-7.54 1.97-1.975 4.57-3.076 7.28-3.076s5.31 1.101 7.28 3.076c1.96 1.975 3.14 4.674 3.28 7.54h-21.12Z" fill="#5772C8"/><path d="M1643.98 756.821h-5.91c-.75 0-1.36.648-1.36 1.447v.959c0 .798.61 1.446 1.36 1.446h5.91c.75 0 1.36-.648 1.36-1.446v-.959c0-.799-.61-1.447-1.36-1.447Z" fill="#5772C8"/><path d="M1644.21 964.18a.801.801 0 0 0 .35-.329.973.973 0 0 0 .13-.473.934.934 0 0 0-.26-.656.833.833 0 0 0-.62-.271h-6.25a.849.849 0 0 0-.61.277.96.96 0 0 0-.25.65c0 .205.06.403.19.563.12.16.28.272.47.317-2.79.689-5.3 2.349-7.1 4.715-1.81 2.367-2.82 5.305-2.88 8.35.17 3.674 1.66 7.14 4.17 9.679 2.51 2.539 5.84 3.956 9.31 3.956 3.47 0 6.81-1.417 9.32-3.956 2.51-2.539 4-6.005 4.16-9.679-.05-3.079-1.07-6.049-2.91-8.433-1.84-2.384-4.38-4.043-7.22-4.71Zm-13.71 12.577c.17-2.846 1.36-5.514 3.32-7.463 1.97-1.95 4.55-3.035 7.24-3.035 2.69 0 5.28 1.085 7.24 3.035 1.97 1.949 3.16 4.617 3.33 7.463h-21.13Z" fill="#F04E98"/><path d="M1643.58 960.941h-5.91c-.75 0-1.36.648-1.36 1.447v.959c0 .798.61 1.446 1.36 1.446h5.91c.75 0 1.36-.648 1.36-1.446v-.959c0-.799-.61-1.447-1.36-1.447Z" fill="#F04E98"/><path d="M1778.55 817.598c.17 3.674 1.66 7.141 4.17 9.68 2.51 2.539 5.85 3.956 9.31 3.956 3.47 0 6.81-1.417 9.32-3.956 2.51-2.539 4-6.006 4.17-9.68-.06-3.038-1.06-5.972-2.85-8.34-1.8-2.368-4.29-4.035-7.08-4.74.19-.042.36-.15.49-.307a.997.997 0 0 0 .2-.557.98.98 0 0 0-.26-.656.85.85 0 0 0-.62-.272h-6.26a.846.846 0 0 0-.54.188.855.855 0 0 0-.31.507.956.956 0 0 0 .05.602c.09.188.23.341.4.433-2.84.657-5.4 2.311-7.24 4.696-1.85 2.385-2.89 5.36-2.95 8.446Zm2.79-.519c.15-2.866 1.32-5.564 3.29-7.539 1.96-1.975 4.56-3.076 7.27-3.076s5.31 1.101 7.28 3.076c1.96 1.975 3.14 4.673 3.28 7.539h-21.12Z" fill="#5772C8"/><path d="M1789.38 805.037h5.9c.76 0 1.37-.647 1.37-1.446v-.959c0-.799-.61-1.446-1.37-1.446h-5.9c-.75 0-1.36.647-1.36 1.446v.959c0 .799.61 1.446 1.36 1.446Z" fill="#5772C8"/><path d="M1779.37 935.143c.2 3.651 1.71 7.082 4.21 9.592 2.51 2.51 5.83 3.909 9.28 3.909 3.45 0 6.77-1.399 9.27-3.909 2.51-2.51 4.02-5.941 4.22-9.592-.06-3.034-1.06-5.963-2.86-8.328-1.8-2.364-4.28-4.03-7.06-4.736a.86.86 0 0 0 .47-.317c.12-.16.19-.358.19-.563a.97.97 0 0 0-.25-.656.867.867 0 0 0-.62-.272h-6.25c-.23 0-.45.098-.61.272a.934.934 0 0 0-.26.656c0 .167.04.331.13.473.08.141.2.255.34.329-2.84.654-5.4 2.307-7.25 4.692-1.85 2.385-2.89 5.362-2.95 8.45Zm2.79-.518c.14-2.866 1.32-5.565 3.28-7.54 1.97-1.975 4.57-3.076 7.28-3.076 2.7 0 5.31 1.101 7.27 3.076 1.97 1.975 3.14 4.674 3.29 7.54h-21.12Z" fill="#F04E98"/><path d="M1790.23 922.614h5.9c.75 0 1.36-.648 1.36-1.446v-.959c0-.799-.61-1.447-1.36-1.447h-5.9c-.76 0-1.37.648-1.37 1.447v.959c0 .798.61 1.446 1.37 1.446ZM1739.58 773.58c.2 3.65 1.71 7.082 4.22 9.592 2.5 2.51 5.82 3.908 9.27 3.908 3.45 0 6.77-1.398 9.28-3.908 2.5-2.51 4.01-5.942 4.21-9.592a14.24 14.24 0 0 0-2.85-8.338c-1.8-2.367-4.29-4.035-7.07-4.742a.878.878 0 0 0 .66-.88c0-.121-.02-.241-.06-.353a1.053 1.053 0 0 0-.19-.298.827.827 0 0 0-.29-.196.794.794 0 0 0-.33-.065h-6.26a.866.866 0 0 0-.54.195.902.902 0 0 0-.3.507.945.945 0 0 0 .06.598c.08.187.22.338.4.429-2.85.652-5.41 2.304-7.26 4.69-1.85 2.385-2.89 5.364-2.95 8.453Zm2.79-.535c.14-2.866 1.32-5.564 3.28-7.539 1.97-1.975 4.57-3.076 7.28-3.076s5.31 1.101 7.28 3.076c1.96 1.975 3.13 4.673 3.28 7.539h-21.12Z" fill="#F04E98"/><path d="M1750.42 761.113h5.91c.75 0 1.36-.647 1.36-1.446v-.959c0-.799-.61-1.446-1.36-1.446h-5.91c-.75 0-1.36.647-1.36 1.446v.959c0 .799.61 1.446 1.36 1.446Z" fill="#F04E98"/><path d="M1737.12 978.203c.16 3.674 1.65 7.141 4.17 9.68 2.51 2.539 5.84 3.956 9.31 3.956 3.47 0 6.81-1.417 9.32-3.956 2.51-2.539 4-6.006 4.16-9.68-.05-3.037-1.05-5.97-2.85-8.338-1.8-2.367-4.28-4.035-7.07-4.742a.83.83 0 0 0 .48-.314.952.952 0 0 0-.06-1.211.852.852 0 0 0-.61-.267h-6.26a.799.799 0 0 0-.54.188.923.923 0 0 0-.32.506c-.04.202-.02.414.06.603.08.188.22.341.4.432-2.85.655-5.4 2.309-7.25 4.694-1.85 2.385-2.88 5.362-2.94 8.449Zm2.77-.519c.18-2.845 1.37-5.513 3.33-7.463 1.96-1.949 4.55-3.034 7.24-3.034 2.69 0 5.28 1.085 7.24 3.034 1.96 1.95 3.15 4.618 3.33 7.463h-21.14Z" fill="#5772C8"/><path d="M1747.96 965.673h5.9c.76 0 1.37-.647 1.37-1.446v-.959c0-.799-.61-1.446-1.37-1.446h-5.9c-.75 0-1.36.647-1.36 1.446v.959c0 .799.61 1.446 1.36 1.446Z" fill="#5772C8"/><path d="M1698.64 743.883a.834.834 0 0 0 .34-.329.874.874 0 0 0 .13-.473c0-.121-.02-.242-.06-.355a1.098 1.098 0 0 0-.19-.301.854.854 0 0 0-.29-.201.815.815 0 0 0-.33-.07h-6.26a.849.849 0 0 0-.61.277.96.96 0 0 0-.25.65c0 .205.07.404.19.563.12.16.29.272.48.318-2.79.706-5.27 2.371-7.07 4.736-1.79 2.364-2.8 5.293-2.85 8.328.19 3.65 1.7 7.082 4.21 9.592 2.51 2.51 5.82 3.908 9.27 3.908 3.45 0 6.77-1.398 9.28-3.908s4.01-5.942 4.21-9.592c-.06-3.088-1.09-6.066-2.95-8.451-1.85-2.385-4.4-4.038-7.25-4.692Zm-13.72 12.577c.18-2.845 1.36-5.513 3.33-7.463 1.96-1.95 4.55-3.035 7.24-3.035 2.69 0 5.28 1.085 7.24 3.035 1.96 1.95 3.15 4.618 3.32 7.463h-21.13Z" fill="#FFA603"/><path d="M1698 740.645h-5.9c-.75 0-1.37.647-1.37 1.446v.959c0 .799.62 1.446 1.37 1.446h5.9c.75 0 1.36-.647 1.36-1.446v-.959c0-.799-.61-1.446-1.36-1.446ZM1697.41 979.052a.888.888 0 0 0 .34-.34.966.966 0 0 0-.12-1.133.867.867 0 0 0-.62-.272h-6.26a.892.892 0 0 0-.62.276 1.02 1.02 0 0 0-.26.651c.01.207.08.405.2.565.13.159.3.27.49.316-2.79.703-5.28 2.37-7.08 4.738-1.8 2.368-2.81 5.302-2.86 8.342.2 3.65 1.71 7.081 4.21 9.595 2.51 2.51 5.83 3.9 9.28 3.9 3.45 0 6.77-1.39 9.27-3.9 2.51-2.514 4.02-5.945 4.22-9.595-.06-3.086-1.1-6.062-2.95-8.447-1.84-2.385-4.4-4.039-7.24-4.696Zm-13.72 12.577c.14-2.866 1.32-5.565 3.28-7.54 1.97-1.975 4.57-3.076 7.28-3.076s5.31 1.101 7.27 3.076c1.97 1.975 3.14 4.674 3.29 7.54h-21.12Z" fill="#FFA603"/><path d="M1696.76 975.813h-5.91c-.75 0-1.36.648-1.36 1.447v.959c0 .798.61 1.446 1.36 1.446h5.91c.75 0 1.36-.648 1.36-1.446v-.959c0-.799-.61-1.447-1.36-1.447ZM1808.73 863.189a.99.99 0 0 0 .35-.34.992.992 0 0 0 .13-.478.93.93 0 0 0-.26-.655.834.834 0 0 0-.62-.272h-6.26a.852.852 0 0 0-.61.276.97.97 0 0 0-.26.651c.01.207.07.405.2.565.12.159.29.27.48.316-2.79.703-5.28 2.37-7.08 4.738-1.79 2.368-2.8 5.302-2.85 8.342.19 3.65 1.7 7.081 4.21 9.591 2.51 2.51 5.82 3.909 9.27 3.909 3.45 0 6.77-1.399 9.28-3.909s4.01-5.941 4.21-9.591c-.06-3.086-1.09-6.062-2.94-8.447-1.85-2.385-4.4-4.039-7.25-4.696Zm-13.71 12.577c.14-2.866 1.31-5.565 3.28-7.54 1.96-1.975 4.57-3.076 7.27-3.076 2.71 0 5.32 1.101 7.28 3.076 1.97 1.975 3.14 4.674 3.28 7.54h-21.11Z" fill="#FFA603"/><path d="M1808.08 859.982h-5.9c-.75 0-1.37.647-1.37 1.446v.959c0 .799.62 1.446 1.37 1.446h5.9c.75 0 1.37-.647 1.37-1.446v-.959c0-.799-.62-1.446-1.37-1.446Z" fill="#FFA603"/><path d="M1004.76 1059.89c-.39 0-.77-.17-1.05-.46-.27-.3-.43-.7-.43-1.11v-60.718c0-.417.16-.816.43-1.111.28-.295.66-.461 1.05-.461.4 0 .77.166 1.05.461.28.295.44.694.44 1.111v60.718c0 .41-.16.81-.44 1.11-.28.29-.65.46-1.05.46ZM1026.37 1059.89c-.39 0-.77-.17-1.05-.46-.28-.3-.43-.7-.43-1.11v-91.766c0-.417.15-.817.43-1.112.28-.295.66-.46 1.05-.46s.77.165 1.05.46c.28.295.43.695.43 1.112v91.766c0 .41-.15.81-.43 1.11-.28.29-.66.46-1.05.46ZM1047.99 1059.89c-.39 0-.77-.17-1.05-.46-.27-.3-.43-.7-.43-1.11V948.994c0-.417.16-.817.43-1.112.28-.295.66-.46 1.05-.46s.77.165 1.05.46c.28.295.43.695.43 1.112v109.326c0 .41-.15.81-.43 1.11-.28.29-.66.46-1.05.46ZM1069.61 1059.89c-.39 0-.77-.17-1.05-.46-.27-.3-.43-.7-.43-1.11v-98.29c0-.417.16-.817.43-1.112.28-.295.66-.46 1.05-.46.4 0 .77.165 1.05.46.28.295.44.695.44 1.112v98.29c0 .41-.16.81-.44 1.11-.28.29-.65.46-1.05.46ZM1091.23 1059.89c-.39 0-.77-.17-1.04-.46-.28-.3-.44-.7-.44-1.11v-85.918c0-.417.16-.817.44-1.112a1.414 1.414 0 0 1 2.09 0c.28.295.44.695.44 1.112v85.918c0 .41-.16.81-.44 1.11-.27.29-.65.46-1.05.46ZM1112.8 1059.89c-.4 0-.77-.17-1.05-.46-.28-.3-.44-.7-.44-1.11v-73.892c0-.417.16-.816.44-1.111.28-.295.65-.461 1.05-.461.39 0 .77.166 1.05.461.27.295.43.694.43 1.111v73.892c0 .41-.16.81-.43 1.11-.28.29-.66.46-1.05.46ZM1134.45 1059.89c-.4 0-.77-.17-1.05-.46-.28-.3-.43-.7-.43-1.11v-87.616c0-.417.15-.817.43-1.112.28-.294.65-.46 1.05-.46.39 0 .77.166 1.05.46.28.295.43.695.43 1.112v87.616c0 .2-.04.41-.11.6-.08.19-.19.36-.32.51-.14.14-.3.26-.48.34-.18.08-.38.12-.57.12ZM1156.07 1059.89c-.39 0-.77-.17-1.05-.46-.28-.3-.43-.7-.43-1.11v-96.184c0-.417.15-.817.43-1.111.28-.295.66-.461 1.05-.461s.77.166 1.05.461c.28.294.43.694.43 1.111v96.184c0 .41-.15.81-.43 1.11-.28.29-.66.46-1.05.46ZM1177.69 1059.89c-.39 0-.77-.17-1.05-.46-.28-.3-.43-.7-.43-1.11v-99.045c0-.417.15-.817.43-1.112.28-.294.66-.46 1.05-.46s.77.166 1.05.46c.28.295.43.695.43 1.112v99.045c0 .41-.15.81-.43 1.11-.28.29-.66.46-1.05.46ZM1199.3 1059.89c-.4 0-.77-.17-1.05-.46-.28-.3-.44-.7-.44-1.11V961.9c0-.417.16-.816.44-1.111.28-.295.65-.461 1.05-.461.39 0 .77.166 1.05.461.27.295.43.694.43 1.111v96.42c0 .41-.16.81-.43 1.11-.28.29-.66.46-1.05.46ZM1220.92 1059.89c-.39 0-.77-.17-1.05-.46-.28-.3-.43-.7-.43-1.11v-88.779c0-.417.15-.817.43-1.112.28-.295.66-.46 1.05-.46s.77.165 1.05.46c.28.295.43.695.43 1.112v88.779c0 .41-.15.81-.43 1.11-.28.29-.66.46-1.05.46ZM1242.53 1059.89c-.4 0-.77-.17-1.05-.46-.28-.3-.44-.7-.44-1.11v-76.69c0-.417.16-.817.44-1.112.28-.294.65-.46 1.05-.46.39 0 .77.166 1.05.46.27.295.43.695.43 1.112v76.69c0 .41-.16.81-.43 1.11-.28.29-.66.46-1.05.46ZM1252.19 1059.89c-.39 0-.77-.17-1.04-.46-.28-.3-.44-.7-.44-1.11v-70.936c0-.417.16-.817.44-1.112a1.414 1.414 0 0 1 2.09 0c.28.295.44.695.44 1.112v71.016c-.02.4-.19.78-.46 1.06-.28.27-.64.43-1.03.43ZM1015.41 1053.41c-.39 0-.77-.16-1.05-.46a1.59 1.59 0 0 1-.43-1.11v-75.696c0-.417.15-.817.43-1.112.28-.295.66-.461 1.05-.461s.77.166 1.05.461c.28.295.43.695.43 1.112v75.696c0 .42-.15.82-.43 1.11-.28.3-.66.46-1.05.46ZM1037.02 1053.41c-.4 0-.77-.16-1.05-.46a1.59 1.59 0 0 1-.43-1.11v-96.165c0-.417.15-.817.43-1.112.28-.295.65-.46 1.05-.46.39 0 .77.165 1.05.46.27.295.43.695.43 1.112v96.165c0 .42-.16.82-.43 1.11-.28.3-.66.46-1.05.46ZM1058.64 1053.41c-.39 0-.77-.16-1.05-.46a1.59 1.59 0 0 1-.43-1.11v-98.319c0-.417.15-.817.43-1.112.28-.294.66-.46 1.05-.46s.77.166 1.05.46c.28.295.43.695.43 1.112v98.319c0 .42-.15.82-.43 1.11-.28.3-.66.46-1.05.46ZM1080.26 1053.41c-.39 0-.77-.16-1.05-.46a1.59 1.59 0 0 1-.43-1.11v-85.962c0-.417.15-.817.43-1.112.28-.295.66-.46 1.05-.46s.77.165 1.05.46c.28.295.43.695.43 1.112v85.962c0 .42-.15.82-.43 1.11-.28.3-.66.46-1.05.46ZM1101.87 1053.41c-.4 0-.77-.16-1.05-.46a1.6 1.6 0 0 1-.44-1.11v-59.881c0-.417.16-.817.44-1.112.28-.295.65-.461 1.05-.461.39 0 .77.166 1.05.461.27.295.43.695.43 1.112v59.881c0 .42-.16.82-.43 1.11-.28.3-.66.46-1.05.46ZM1123.49 1053.41c-.39 0-.77-.16-1.05-.46a1.59 1.59 0 0 1-.43-1.11v-73.889c0-.417.15-.816.43-1.111.28-.295.66-.461 1.05-.461s.77.166 1.05.461c.28.295.43.694.43 1.111v73.889c0 .42-.15.82-.43 1.11-.28.3-.66.46-1.05.46ZM1145.1 1053.41c-.4 0-.77-.16-1.05-.46a1.6 1.6 0 0 1-.44-1.11v-96.228c0-.417.16-.817.44-1.112.28-.294.65-.46 1.05-.46.39 0 .77.166 1.04.46.28.295.44.695.44 1.112v96.228c0 .42-.16.82-.44 1.11-.27.3-.65.46-1.04.46ZM1166.72 1053.41c-.4 0-.77-.16-1.05-.46a1.6 1.6 0 0 1-.44-1.11v-99.042c0-.417.16-.817.44-1.112.28-.295.65-.46 1.05-.46.39 0 .77.165 1.05.46.27.295.43.695.43 1.112v99.042c0 .42-.16.82-.43 1.11-.28.3-.66.46-1.05.46ZM1188.34 1053.41c-.39 0-.77-.16-1.05-.46a1.59 1.59 0 0 1-.43-1.11v-96.448c0-.417.15-.817.43-1.112.28-.295.66-.46 1.05-.46s.77.165 1.05.46c.28.295.43.695.43 1.112v96.448c0 .42-.15.82-.43 1.11-.28.3-.66.46-1.05.46ZM1209.95 1053.41c-.4 0-.77-.16-1.05-.46a1.6 1.6 0 0 1-.44-1.11v-88.808c0-.417.16-.817.44-1.111.28-.295.65-.461 1.05-.461.39 0 .77.166 1.04.461.28.294.44.694.44 1.111v88.808c0 .42-.16.82-.44 1.11-.27.3-.65.46-1.04.46ZM1231.57 1053.41c-.4 0-.77-.16-1.05-.46a1.6 1.6 0 0 1-.44-1.11v-76.718c0-.417.16-.817.44-1.112.28-.295.65-.46 1.05-.46.39 0 .77.165 1.05.46.27.295.43.695.43 1.112v76.718c0 .42-.16.82-.43 1.11-.28.3-.66.46-1.05.46Z" fill="#5772C8"/><path d="M1264.15 1061.05c-.69 0-1.34-.29-1.82-.8-.48-.52-.75-1.21-.75-1.93v-60.812c-68.35-55.023-113.07-36.158-147.83-10.36-6.77 4.999-13.28 10.329-19.58 15.482-23.42 19.18-45.53 37.28-71.18 29.87-10.03-2.92-17.2-9.16-20.21-17.56-3.37-9.43-1.32-20.938 5.75-32.524 4.52-7.373 22.01-23.581 27.26-28.297 2.18-1.981 4-3.601 4.62-4.104l.69-.55a11.201 11.201 0 0 1 4.52-2.845h.28c2.39-.441 4.21-.488 9.36 2.389 18.34 10.25 42.57 24.069 56.87 32.794 15.56-11.382 36.64-24.116 63.47-25.153 28.34-1.054 57.83 11.209 90.09 37.415.31.252.57.577.74.951.18.374.27.786.27 1.203v62.161c-.02.71-.29 1.38-.77 1.88-.47.5-1.11.78-1.78.79Zm-217.51-109.164c-.82.55-1.62 1.153-2.37 1.808l-.71.582c-.37.298-1.84 1.572-4.45 3.899-10.06 9.165-22.99 21.757-26.28 27.15-6.17 10.077-8.04 19.885-5.26 27.625 2.46 6.82 8.26 11.74 16.77 14.24 23.15 6.74 43.3-9.75 66.64-28.864 5.33-4.355 10.81-8.851 16.49-13.174-14.52-8.804-37.98-22.151-54.63-31.442-3.97-2.233-4.76-2.091-6.11-1.855l-.09.031Z" fill="#2C4874"/><path d="M1127.26 969.336c.23.368.32.819.24 1.254a1.68 1.68 0 0 1-.66 1.073l-19.06 13.85c-.34.248-.77.341-1.18.259a1.592 1.592 0 0 1-1.01-.699l-6.32-9.763c-.12-.181-.2-.385-.24-.601a1.797 1.797 0 0 1-.01-.654c.04-.216.12-.422.23-.606.12-.184.27-.342.44-.465l19.04-13.898a1.492 1.492 0 0 1 1.18-.265c.21.041.4.125.57.246.18.121.33.277.44.46l6.34 9.809Z" fill="#06B5C1"/><path d="m1119.49 961.503-17.91 13.006 3.05 4.721 17.91-13.006-3.05-4.721Z" fill="#fff"/><path d="M1151.27 958.568a1.8 1.8 0 0 1-.01 1.273c-.16.406-.47.729-.86.896l-21.29 9.354a1.47 1.47 0 0 1-1.21.006c-.19-.085-.37-.21-.51-.368a1.503 1.503 0 0 1-.34-.55l-4.24-11.004c-.08-.203-.12-.42-.13-.639a1.744 1.744 0 0 1 .46-1.183c.15-.156.32-.279.51-.364l21.37-9.322c.39-.167.82-.165 1.21.006s.69.496.85.906l4.19 10.989Z" fill="#06B5C1"/><path d="m1145.23 949.278-20.09 8.762 2.06 5.292 20.09-8.762-2.06-5.292Z" fill="#fff"/><path d="M1176.39 955.282c.04.439-.08.88-.33 1.227-.26.347-.64.573-1.05.628l-22.94 2.893c-.42.048-.84-.08-1.17-.357a1.7 1.7 0 0 1-.58-1.121l-1.32-11.744c-.03-.218-.01-.439.04-.65a1.645 1.645 0 0 1 .75-1.004c.18-.107.38-.175.58-.201l22.96-2.892c.42-.049.83.077 1.16.35.33.274.54.673.59 1.112l1.31 11.759Z" fill="#06B5C1"/><path d="m1172.92 944.649-21.56 2.709.63 5.682 21.56-2.709-.63-5.682Z" fill="#fff"/><path d="M1201.98 957.09c-.01.223-.06.442-.15.643-.1.2-.23.38-.39.526-.16.147-.34.258-.54.327-.2.07-.41.095-.62.076l-23.03-2.075a1.55 1.55 0 0 1-.61-.171 1.597 1.597 0 0 1-.49-.404 1.744 1.744 0 0 1-.31-.576 1.824 1.824 0 0 1-.08-.657l.95-11.791c.01-.223.07-.442.16-.642a1.576 1.576 0 0 1 .93-.854c.2-.069.41-.095.62-.076l23.01 2.075c.21.014.42.072.61.171.19.099.35.236.49.404.14.169.24.364.31.576.07.211.09.435.08.657l-.94 11.791Z" fill="#06B5C1"/><path d="m1179.03 943.929-.45 5.702 21.63 1.95.46-5.702-21.64-1.95Z" fill="#fff"/><path d="M1226.98 965.453c-.05.211-.15.408-.28.579-.13.171-.29.314-.47.419a1.49 1.49 0 0 1-1.2.134l-22.17-6.933a1.607 1.607 0 0 1-.98-.821 1.799 1.799 0 0 1-.11-1.317l3.18-11.35c.06-.211.15-.408.28-.579.13-.171.29-.314.47-.419a1.51 1.51 0 0 1 1.21-.134l22.15 6.917c.4.131.74.423.94.814.2.391.24.85.13 1.277l-3.15 11.413Z" fill="#06B5C1"/><path d="m1206.95 947.683-1.52 5.489 20.82 6.506 1.53-5.489-20.83-6.506Z" fill="#fff"/><path d="M1264.15 1061.05c-.68 0-1.34-.29-1.82-.8-.48-.52-.75-1.21-.75-1.93v-60.812c-68.35-55.023-113.07-36.158-147.83-10.36l-10.38 8.049c-3.09 2.453-6.14 4.973-9.17 7.433-6.51 5.35-12.66 10.38-18.88 14.91-.27.2-.59.35-.92.43-.33.08-.67.08-1.01.02-.33-.06-.65-.19-.93-.38-.29-.2-.54-.45-.73-.74-.2-.3-.34-.63-.41-.98-.07-.35-.08-.71-.02-1.07.06-.35.18-.69.36-.99.18-.3.42-.57.7-.77 6.09-4.45 12.19-9.44 18.64-14.734 2.96-2.484 6.12-5 9.25-7.515l10.49-8.112c15.72-11.649 37.26-25.153 64.86-26.112 28.34-1.054 57.84 11.209 90.09 37.415.31.252.57.577.74.951.18.374.27.786.27 1.203v62.164c0 .72-.27 1.41-.75 1.92-.47.51-1.12.8-1.8.81Z" fill="#2C4874"/><path d="m1462.64 894.804 5.59 6.555h-20.11v-11.555h20.11l-5.59 5Z" fill="#E51F21"/><path d="M1448.12 925.145c-.35 0-.69-.149-.94-.415a1.458 1.458 0 0 1-.39-1v-36.708c0-.376.14-.735.39-1.001.25-.265.59-.414.94-.414.36 0 .7.149.95.414.25.266.39.625.39 1.001v36.708c0 .375-.14.735-.39 1-.25.266-.59.415-.95.415Z" fill="#D52A39"/><path d="M1409.83 995.574c-.35 0-.69-.149-.94-.414a1.458 1.458 0 0 1-.39-1v-41.519c0-.376.14-.735.39-1.001.25-.265.59-.414.94-.414.36 0 .7.149.95.414.25.266.39.625.39 1.001v41.519c0 .375-.14.735-.39 1s-.59.414-.95.414ZM1474.31 995.574c-.35 0-.69-.149-.94-.414a1.458 1.458 0 0 1-.39-1v-41.519c0-.376.14-.735.39-1.001.25-.265.59-.414.94-.414.36 0 .7.149.95.414.25.266.39.625.39 1.001v41.519c0 .375-.14.735-.39 1s-.59.414-.95.414Z" fill="#06B5C1"/><path d="M1451.98 942.438h-11.51v91.012h11.51v-91.012Z" fill="#D52A39"/><path d="M1379.73 955.03c.58 6.399 4.64 11.366 9.56 11.366 4.93 0 9.01-4.967 9.58-11.366h-19.14Z" fill="#06B5C1"/><path d="M1398.67 955.03c.57 6.399 4.62 11.366 9.56 11.366s8.99-4.967 9.57-11.366h-19.13Z" fill="#06B5C1"/><path d="M1417.65 955.03c.58 6.399 4.64 11.366 9.58 11.366s8.98-4.967 9.56-11.366h-19.14Z" fill="#06B5C1"/><path d="M1436.64 955.03c.58 6.399 4.65 11.366 9.57 11.366s9-4.967 9.56-11.366h-19.13Z" fill="#06B5C1"/><path d="M1455.64 955.03c.57 6.399 4.63 11.366 9.57 11.366 4.93 0 8.98-4.967 9.56-11.366h-19.13Z" fill="#06B5C1"/><path d="M1474.64 955.03c.58 6.399 4.64 11.366 9.56 11.366 4.93 0 9.01-4.967 9.58-11.366h-19.14Z" fill="#06B5C1"/><path d="M1493.77 955.03c.58 6.399 4.63 11.366 9.56 11.366 4.94 0 8.99-4.967 9.57-11.366h-19.13Z" fill="#06B5C1"/><path d="m1379.61 955.046 68.9-37.62 64.33 37.62h-133.23Z" fill="#E52D1E"/><path d="M1397.42 992.682c3.14-1.572 16.09 0 16.09 0s7-9.433 9.45-10.203c1.93-.582 7.74 7.86 10.14 11.555.29.45.43.996.38 1.542a2.393 2.393 0 0 1-.63 1.445l-.31.314a2.17 2.17 0 0 1-1.12.638c-.42.092-.86.051-1.26-.119l-4.44-1.839-1.72 2.374v20.311c0 .35-.07.7-.2 1.02-.12.33-.31.62-.54.87-.24.25-.52.44-.82.58-.31.13-.63.2-.97.2-.61 0-1.21-.24-1.67-.67-.46-.44-.76-1.04-.83-1.69-.43-3.91-2.14-11.36-8.9-11.36s-9.27 7.86-9.95 11.69c-.1.57-.38 1.09-.8 1.46-.42.37-.95.57-1.5.57h-.67c-.61 0-1.19-.25-1.63-.7-.44-.45-.69-1.07-.71-1.72l-.53-22.134c.09-.937.43-1.827.99-2.561a4.636 4.636 0 0 1 2.15-1.573Z" fill="#E86A03"/><path d="M1423.06 986.284c-.28.002-.56-.056-.83-.169-.26-.114-.5-.282-.7-.494a2.315 2.315 0 0 1-.63-1.617l.28-4.37c-.03-.276.01-.555.09-.817.08-.263.22-.504.39-.708.18-.205.39-.368.63-.48.24-.111.5-.169.76-.169s.52.058.76.169c.24.112.46.275.63.48.18.204.31.445.4.708.08.262.11.541.09.817l.28 4.37c0 .605-.23 1.184-.63 1.612-.4.427-.95.668-1.52.668ZM1389.24 1007.62c-.28-2.37-.32-4.76-.11-7.14.06-1.113.27-2.211.64-3.255 1.48-3.726 5.1-5.188 8.78-4.638.34.013.68.12.97.31.29.19.54.457.7.775.1.381.1.782 0 1.164-.19 1.213-.51 2.4-.96 3.537.18-.472-2.85-.173-3.11 0a7.705 7.705 0 0 0-2.61 2.437c-1.49 2.11-1.18 5.12-2.26 7.5-.13.37-.36.68-.67.91a.815.815 0 0 1-1.02 0c-.17-.22-.27-.49-.28-.77l-.07-.83ZM1466.36 992.682c3.15-1.572 16.09 0 16.09 0s6.99-9.433 9.45-10.203c1.91-.582 7.74 7.86 10.14 11.555.3.452.43.999.38 1.545a2.45 2.45 0 0 1-.64 1.442l-.3.314c-.3.324-.69.546-1.11.638-.42.092-.86.051-1.26-.119l-4.45-1.839-1.72 2.374v20.311c0 .71-.27 1.39-.74 1.89s-1.11.78-1.78.78a2.45 2.45 0 0 1-1.69-.66 2.74 2.74 0 0 1-.82-1.7c-.43-3.91-2.13-11.36-8.9-11.36-6.76 0-9.27 7.86-9.95 11.69-.1.57-.38 1.09-.8 1.46-.42.37-.95.57-1.5.57h-.68c-.61 0-1.19-.25-1.63-.7-.43-.46-.68-1.07-.7-1.72l-.53-22.134c.09-.937.44-1.827.99-2.561a4.636 4.636 0 0 1 2.15-1.573Z" fill="#E86A03"/><path d="M1491.99 986.284c-.28 0-.56-.059-.82-.174a2.17 2.17 0 0 1-.7-.494c-.2-.212-.36-.463-.47-.74a2.353 2.353 0 0 1-.16-.872l.28-4.37a2.25 2.25 0 0 1 .09-.817c.09-.263.22-.504.4-.708a1.818 1.818 0 0 1 2.15-.48c.23.112.45.275.63.48.17.204.31.445.39.708.08.262.12.541.09.817l.28 4.37a2.315 2.315 0 0 1-.63 1.617c-.2.212-.44.38-.7.494-.27.113-.55.171-.83.169ZM1458.18 1007.62c-.28-2.37-.32-4.76-.12-7.14.07-1.111.28-2.206.64-3.255 1.48-3.726 5.11-5.188 8.79-4.638.34.013.68.12.97.31.3.19.54.457.71.775.09.381.09.782 0 1.164-.2 1.216-.52 2.403-.98 3.537.19-.472-2.83-.173-3.1 0a7.93 7.93 0 0 0-2.63 2.437c-1.48 2.11-1.15 5.12-2.24 7.5-.13.36-.36.68-.66.91a.822.822 0 0 1-1.03 0c-.17-.22-.27-.49-.28-.77l-.07-.83Z" fill="#E86A03"/><path d="M1516.07 1077.37h-139.69v-45.79c0-1.03.38-2.01 1.07-2.74.68-.72 1.61-1.13 2.58-1.13h132.94c.82 0 1.61.35 2.19.96.58.62.91 1.45.91 2.32v46.38Z" fill="#D52A39"/><path d="M1516.07 1032.53v-1.57c0-.87-.33-1.7-.91-2.32-.58-.61-1.37-.96-2.19-.96h-132.94c-.97 0-1.9.4-2.58 1.13-.69.72-1.07 1.71-1.07 2.73v.96l139.69.03Z" fill="#FFA603"/><path d="M1448.51 917.426a21279.393 21279.393 0 0 1-49.81 37.604h18.89l30.92-37.604Z" fill="#fff"/><path d="m1448.51 917.426-11.87 37.636h19c-2.38-12.535-4.76-25.08-7.13-37.636ZM1448.51 917.426l26.13 37.62h19.05l-45.18-37.62Z" fill="#fff"/><path d="m757.154 1047.59-.267-19.93-6.095 1.92c-.074 1.34.386 12.31.638 18.09.015.32.145.62.363.84.218.22.508.34.808.34h3.411c.153 0 .305-.03.445-.1.141-.06.268-.16.374-.27a1.296 1.296 0 0 0 .323-.89Z" fill="#74422B"/><path d="M766.719 1029.67c0-.67-.148-1.44-.267-2.25-1.735-8.17-7.978-24.63-11.181-32.852a1.986 1.986 0 0 0-.726-.928 1.813 1.813 0 0 0-2.168.076 2.018 2.018 0 0 0-.666.978c-2.728 8.666-8.097 26.086-9.49 33.516 0 .28-.089.5-.119.69-.653 4.37 3.144 8.43 8.186 8.49l8.275.11c4.775.05 8.527-3.54 8.156-7.83Z" fill="#006E5A"/><path d="m775.854 1047.59-.296-19.93-6.095 1.92c-.075 1.34.385 12.31.637 18.09.015.32.146.62.364.84.218.22.507.34.808.34h3.411c.155 0 .308-.03.451-.09.144-.07.273-.16.382-.28.109-.11.195-.25.253-.4.058-.16.087-.32.085-.49Z" fill="#74422B"/><path d="M785.404 1029.67c0-.67-.148-1.44-.267-2.24-1.735-8.18-7.414-35.44-10.662-43.678a1.992 1.992 0 0 0-.729-.926 1.822 1.822 0 0 0-1.097-.318 1.835 1.835 0 0 0-1.072.405c-.31.247-.541.59-.661.981-2.729 8.646-8.616 36.886-10.01 44.316 0 .28-.089.5-.119.69-.652 4.37 3.159 8.43 8.186 8.49l8.275.11c4.849.05 8.527-3.53 8.156-7.83Z" fill="#00805A"/><path d="m1788.42 1047.59-.3-19.93-6.09 1.92c0 1.34.38 12.31.63 18.09.02.32.15.62.37.84.21.22.5.34.8.34h3.42c.15 0 .3-.03.45-.09.14-.07.27-.16.38-.28.11-.11.19-.25.25-.4.06-.16.09-.32.09-.49Z" fill="#74422B"/><path d="M1797.92 1029.67c0-.67-.15-1.44-.26-2.25-1.74-8.17-7.97-24.63-11.19-32.852-.14-.381-.4-.705-.72-.928a1.832 1.832 0 0 0-1.1-.323c-.38.014-.76.153-1.07.399a2.08 2.08 0 0 0-.67.978c-2.72 8.666-8.09 26.086-9.49 33.516 0 .28-.08.5-.11.69-.66 4.37 3.14 8.43 8.18 8.49l8.28.11c4.82.05 8.57-3.54 8.15-7.83Z" fill="#006E5A"/><path d="m1807.1 1047.59-.28-19.93-6.11 1.92c-.07 1.34.39 12.31.64 18.09.01.32.14.62.36.84.22.22.51.34.81.34h3.41c.16 0 .31-.03.45-.09.14-.07.27-.16.38-.28.11-.11.2-.25.26-.4.05-.16.08-.32.08-.49Z" fill="#74422B"/><path d="M1816.67 1029.67c0-.67-.17-1.44-.28-2.24-1.74-8.18-7.42-35.44-10.67-43.678-.14-.38-.4-.703-.73-.926a1.805 1.805 0 0 0-1.09-.318c-.39.016-.76.157-1.07.405-.31.247-.55.59-.67.981-2.72 8.646-8.6 36.886-10.01 44.316 0 .28-.09.5-.11.69-.66 4.37 3.15 8.43 8.2 8.49l8.26.11c4.79.05 8.54-3.53 8.17-7.83Z" fill="#00805A"/><path d="M1904.26 1045.52H11.267c-15.07 0-27.287 8.85-27.287 19.78 0 10.92 12.217 19.77 27.287 19.77H1904.26c15.07 0 27.29-8.85 27.29-19.77 0-10.93-12.22-19.78-27.29-19.78Z" fill="#009750"/><path d="m1448.48 919.202 58.61 34.272h-121.35l62.74-34.272Zm0-1.776-68.9 37.62h133.23l-64.3-37.62h-.03Z" fill="#E52D1E"/><path d="M610.952 903.324c-6.229-9.935-18.241-10.328-19.65-10.344a24.621 24.621 0 0 0-11.611 2.83c1.148-4.715.633-9.712-1.45-14.053-2.082-4.34-5.588-7.725-9.858-9.519a17.85 17.85 0 0 0-13.333-.22c-4.322 1.651-7.925 4.918-10.134 9.187-.431-1.383-3.975-12.262-14.326-15.909-1.364-.488-9.001-3.145-15.185.959-7.83 5.219-10.826 17.796-5.22 28.203a24.2 24.2 0 0 0-3.975 0c-5.645.707-10.968 3.162-15.304 7.059a19.47 19.47 0 0 0-4.285 5.801 16.362 16.362 0 0 0-1.617 7.483 11.734 11.734 0 0 0 .831 4.37c1.096 2.445 3.024 4.361 5.398 5.361h117.153c1.938-.98 3.57-2.529 4.701-4.465 3.856-6.933-1.616-15.972-2.135-16.743Z" fill="#DCEEEE"/><path d="M1831.65 982.023h-4.79v45.217h4.79v-45.217ZM1891.62 982.023h-4.79v45.217h4.79v-45.217Z" fill="#D52A39"/><path d="M1894.21 1019.28v.1l-.74 21.88c-.02.62-.26 1.2-.68 1.63-.42.43-.98.66-1.56.66l-63.32-.37c-.55 0-1.08-.22-1.48-.6-.41-.39-.67-.92-.73-1.49l-.94-20.35 65.25-1.36 4.2-.1Z" fill="#D52A39"/><path d="m1843.26 1033.16-4.13 9.72M1837.84 1032.09l1.31 10.57M1829.42 1039.95l9.73 2.71M1831.48 1049.56l7.67-6.9M1839.95 1054.06l-.8-10.63M1849.16 1042.12l-10.03.76M1847.07 1037.16l-8.28 6.05M1844.8 1051.68l-5.67-8.8M1848.18 1047.74l-8.94-4.88M1834.4 1053.08l4.48-9.54M1829.21 1045.02l9.88-1.92M1832.15 1035.21l6.98 7.67" stroke="#342418" stroke-width=".5" stroke-miterlimit="10"/><path d="M1850.45 1043.33c0 2.34-.66 4.63-1.89 6.57-1.23 1.94-2.97 3.45-5.01 4.35-2.03.89-4.28 1.12-6.44.66-2.16-.46-4.15-1.58-5.7-3.24-1.56-1.65-2.62-3.76-3.05-6.05-.43-2.29-.21-4.67.64-6.83.84-2.16 2.27-4 4.1-5.3 1.84-1.3 3.99-1.99 6.2-1.99 1.46 0 2.91.3 4.27.9 1.35.59 2.58 1.47 3.62 2.56a11.99 11.99 0 0 1 2.41 3.85c.56 1.43.85 2.97.85 4.52Zm-11.15-9.96c-1.86-.01-3.68.58-5.23 1.67-1.55 1.09-2.76 2.65-3.47 4.47-.71 1.82-.9 3.82-.54 5.76.36 1.93 1.25 3.71 2.57 5.11a9.302 9.302 0 0 0 4.81 2.73c1.83.38 3.72.19 5.44-.57 1.72-.75 3.18-2.03 4.22-3.67a10.41 10.41 0 0 0 1.58-5.54c.01-1.3-.24-2.6-.71-3.81a9.933 9.933 0 0 0-2.03-3.23 9.279 9.279 0 0 0-3.05-2.16c-1.14-.5-2.36-.76-3.59-.76Z" fill="#342418"/><path d="M1840.93 1042.88c0 .37-.1.73-.29 1.03-.19.31-.46.55-.78.69-.32.15-.67.19-1.01.12-.34-.07-.66-.25-.9-.51a1.89 1.89 0 0 1-.49-.95c-.07-.36-.03-.73.1-1.07.13-.34.36-.63.64-.84a1.683 1.683 0 0 1 2.21.23c.33.34.51.81.52 1.3Z" fill="#342418"/><path d="m1883.59 1033.16-4.12 9.72M1878.18 1032.09l1.31 10.57M1869.77 1039.95l9.71 2.71M1871.83 1049.56l7.65-6.9M1880.29 1054.06l-.79-10.63M1889.5 1042.12l-10.03.76M1887.4 1037.16l-8.27 6.05M1885.14 1051.68l-5.67-8.8M1888.52 1047.74l-8.95-4.88M1874.75 1053.08l4.47-9.54M1869.55 1045.02l9.89-1.92M1872.49 1035.21l6.98 7.67" stroke="#342418" stroke-width=".5" stroke-miterlimit="10"/><path d="M1890.79 1043.33c-.01 2.34-.66 4.63-1.89 6.57-1.23 1.94-2.97 3.45-5.01 4.35-2.04.89-4.28 1.12-6.44.66-2.16-.46-4.15-1.58-5.71-3.24-1.56-1.65-2.62-3.76-3.05-6.05-.42-2.29-.2-4.67.64-6.83.85-2.16 2.28-4 4.11-5.3 1.83-1.3 3.99-1.99 6.19-1.99 1.47 0 2.92.3 4.27.9 1.36.59 2.59 1.47 3.62 2.56 1.04 1.1 1.86 2.41 2.42 3.85.56 1.43.85 2.97.85 4.52Zm-11.16-9.96c-1.86-.01-3.68.58-5.22 1.67-1.55 1.09-2.76 2.65-3.47 4.47a10.38 10.38 0 0 0-.54 5.76c.36 1.93 1.25 3.71 2.56 5.11 1.32 1.39 2.99 2.34 4.82 2.73 1.82.38 3.71.19 5.43-.57 1.72-.75 3.19-2.03 4.22-3.67 1.04-1.64 1.59-3.56 1.59-5.54 0-2.64-.99-5.17-2.75-7.04s-4.15-2.92-6.64-2.92Z" fill="#342418"/><path d="M1881.22 1042.88c0 .37-.1.73-.29 1.03-.19.31-.46.55-.78.69-.32.15-.67.19-1.01.12-.34-.07-.66-.25-.9-.51a1.8 1.8 0 0 1-.48-.95c-.07-.36-.04-.73.09-1.07.13-.34.36-.63.65-.84a1.672 1.672 0 0 1 2.2.23c.33.34.52.81.52 1.3Z" fill="#342418"/><path d="m1894.21 1019.38-.33 5.06h-68.54l-.58-3.7 65.24-1.36h4.21Z" fill="#231815" style="mix-blend-mode:multiply" opacity=".1"/><path d="M1898.88 978.863h-80.77l3.6-17.953c.16-.857.6-1.629 1.24-2.184a3.436 3.436 0 0 1 2.26-.866h66.57c.82.004 1.62.31 2.26.866a3.873 3.873 0 0 1 1.24 2.184l3.6 17.953Z" fill="#D52A39"/><path d="M1837.37 1015.87c.16 0 .3-.14.3-.31 0-.18-.14-.32-.3-.32-.17 0-.3.14-.3.32 0 .17.13.31.3.31ZM1838.54 1016.61c.16 0 .3-.14.3-.32a.31.31 0 0 0-.3-.31c-.16 0-.3.14-.3.31 0 .18.14.32.3.32Z" fill="#FCD000"/><path d="M1894.76 1018.15h-71.35c-.61 0-1.11.53-1.11 1.18v2.7c0 .65.5 1.18 1.11 1.18h71.35c.61 0 1.11-.53 1.11-1.18v-2.7c0-.65-.5-1.18-1.11-1.18Z" fill="#FFA603"/><path d="M1830.34 1021.01c6.5 6.72 15.16 10.59 24.23 10.83 7.33.24 23.64 0 33.78-10.83" stroke="#E2BE65" stroke-width=".43" stroke-linecap="round" stroke-linejoin="round"/><path d="m1838.78 1026.92.56 9.51 5.93-6.71-6.49-2.8Z" fill="#FFEA00"/><path d="m1848.76 1030.51 2.65 8.08 4.47-7.52-7.12-.56ZM1830.87 1021.36l-1.48 8.91 7.64-3.82-6.16-5.09Z" fill="#49B688"/><path d="m1859.85 1031.14 3.5 7.71 3.17-8.01-6.67.3Z" fill="#FFEA00"/><path d="m1870.54 1029.86 5.48 6.57 1.37-8.27-6.85 1.7Z" fill="#49B688"/><path d="m1880.75 1026.26 7.34 4.29-1.65-8.38-5.69 4.09Z" fill="#FFEA00"/><path d="M1898.87 978.675v13.048c0 1.042-.39 2.042-1.09 2.779a3.597 3.597 0 0 1-2.62 1.151c-.98 0-1.93-.414-2.62-1.151a4.036 4.036 0 0 1-1.09-2.779v-13.048h7.42Z" fill="#FFA603"/><path d="M1891.53 978.675v13.048a4.016 4.016 0 0 1-1.16 2.595 3.555 3.555 0 0 1-2.51 1.056 3.56 3.56 0 0 1-2.52-1.056 4.006 4.006 0 0 1-1.15-2.595v-13.048h7.34Z" fill="#fff"/><path d="M1884.19 978.675v13.048c0 1.042-.39 2.042-1.09 2.779-.7.737-1.64 1.151-2.62 1.151-.98 0-1.93-.414-2.62-1.151a4.036 4.036 0 0 1-1.09-2.779v-13.048h7.42Z" fill="#FFA603"/><path d="M1876.85 978.675v13.048c0 1.042-.4 2.042-1.09 2.779-.7.737-1.64 1.151-2.62 1.151a3.58 3.58 0 0 1-2.62-1.151 4.036 4.036 0 0 1-1.09-2.779v-13.048h7.42Z" fill="#fff"/><path d="M1869.5 978.675v13.048c0 1.042-.39 2.042-1.08 2.779-.7.737-1.64 1.151-2.62 1.151a3.58 3.58 0 0 1-2.62-1.151 4.036 4.036 0 0 1-1.09-2.779v-13.048h7.41Z" fill="#FFA603"/><path d="M1862.16 978.675v13.048c0 1.042-.39 2.042-1.08 2.779-.7.737-1.64 1.151-2.62 1.151a3.58 3.58 0 0 1-2.62-1.151 4.036 4.036 0 0 1-1.09-2.779v-13.048h7.41Z" fill="#fff"/><path d="M1854.82 978.675v13.048a4.006 4.006 0 0 1-1.15 2.595 3.56 3.56 0 0 1-2.52 1.056c-.93 0-1.83-.377-2.51-1.056a3.968 3.968 0 0 1-1.16-2.595v-13.048h7.34Z" fill="#FFA603"/><path d="M1847.48 978.675v13.048c0 1.042-.39 2.042-1.08 2.779-.7.737-1.64 1.151-2.62 1.151a3.62 3.62 0 0 1-2.63-1.151 4.073 4.073 0 0 1-1.08-2.779v-13.048h7.41Z" fill="#fff"/><path d="M1840.14 978.675v13.048c0 1.042-.39 2.042-1.08 2.779a3.62 3.62 0 0 1-2.63 1.151c-.98 0-1.92-.414-2.62-1.151a4.073 4.073 0 0 1-1.08-2.779v-13.048h7.41Z" fill="#FFA603"/><path d="M1832.8 978.675v13.048c0 1.042-.39 2.042-1.08 2.779a3.62 3.62 0 0 1-2.63 1.151c-.98 0-1.92-.414-2.62-1.151a4.073 4.073 0 0 1-1.08-2.779v-13.048h7.41Z" fill="#fff"/><path d="M1818.12 978.675v13.048c0 1.042.39 2.042 1.09 2.779a3.58 3.58 0 0 0 2.62 1.151c.98 0 1.92-.414 2.62-1.151a4.073 4.073 0 0 0 1.08-2.779v-13.048h-7.41Z" fill="#FFA603"/><g style="mix-blend-mode:multiply" opacity=".35"><path d="M1898.87 991.723c0 1.042-.39 2.042-1.09 2.779a3.597 3.597 0 0 1-2.62 1.151c-.98 0-1.93-.414-2.62-1.151a4.036 4.036 0 0 1-1.09-2.779v-3.05h7.42v3.05Z" fill="#BCC0C5" style="mix-blend-mode:multiply" opacity=".35"/><path d="M1884.19 988.673h7.34v3.05a7.887 7.887 0 0 0-6.24-.478c-2.06.707-3.77 2.238-4.78 4.267 0-1.03-.39-2.018-1.07-2.746a3.569 3.569 0 0 0-2.59-1.137c-.98 0-1.91.409-2.59 1.137a3.997 3.997 0 0 0-1.08 2.746c-.47.008-.95-.084-1.39-.27a3.62 3.62 0 0 1-1.19-.815 3.903 3.903 0 0 1-.8-1.236 4.09 4.09 0 0 1-.3-1.468v-3.05h14.69ZM1840.14 988.673h29.36v3.05a7.863 7.863 0 0 0-6.23-.479c-2.06.708-3.77 2.239-4.78 4.268a4.017 4.017 0 0 0-1.16-2.596 3.56 3.56 0 0 0-2.51-1.056c-.94 0-1.84.378-2.52 1.056a3.957 3.957 0 0 0-1.15 2.596c0-1.043-.4-2.042-1.09-2.78-.7-.737-1.64-1.151-2.62-1.151-.99 0-1.93.414-2.62 1.151a4.038 4.038 0 0 0-1.09 2.78c0-1.043-.39-2.042-1.09-2.78a3.58 3.58 0 0 0-2.62-1.151c-.98 0-1.92.414-2.62 1.151a4.075 4.075 0 0 0-1.08 2.78c0-1.043-.39-2.042-1.09-2.78-.7-.737-1.64-1.151-2.62-1.151-.98 0-1.93.414-2.62 1.151a4.038 4.038 0 0 0-1.09 2.78c-.47.006-.95-.087-1.39-.274a3.601 3.601 0 0 1-1.18-.817 3.894 3.894 0 0 1-.8-1.234c-.19-.463-.29-.96-.29-1.464v-3.05h14.9Z" fill="#BCC0C5" style="mix-blend-mode:multiply" opacity=".35"/><path d="M1818.12 988.673v3.05c0 1.042.39 2.042 1.09 2.779a3.58 3.58 0 0 0 2.62 1.151c.98 0 1.92-.414 2.62-1.151a4.073 4.073 0 0 0 1.08-2.779v-3.05h-7.41Z" fill="#BCC0C5" style="mix-blend-mode:multiply" opacity=".35"/></g><path d="M106.882 354.793a2.18 2.18 0 0 1-.009.859c-.06.282-.175.548-.338.78-.163.233-.37.426-.608.568a1.87 1.87 0 0 1-.774.256l-9.65 1.154a1.834 1.834 0 0 1-.793-.066 1.9 1.9 0 0 1-.701-.396 2.054 2.054 0 0 1-.492-.662 2.152 2.152 0 0 1-.2-.816l-.275-6.7v-.437a2.546 2.546 0 0 1 .56-1.658c.373-.46.894-.757 1.462-.834l8.077-.97a2.222 2.222 0 0 1 1.599.462c.461.358.781.885.898 1.478l.073.427 1.171 6.555Z" fill="#962623"/><path d="m92.378 332.504-.79.159 2.452 13.671.791-.16-2.453-13.67ZM95.004 332.166l-.778.179 3.154 15.399.778-.179-3.154-15.399ZM99.056 331.318l-.79.104 2.042 17.33.79-.105-2.042-17.329ZM102.635 331.42l-.804.047.861 16.576.803-.047-.86-16.576Z" fill="#480E00"/><path d="m105.72 348.199-12.65 1.522v-.436a2.544 2.544 0 0 1 .558-1.658c.374-.46.895-.758 1.463-.834l8.077-.97a2.218 2.218 0 0 1 1.6.462c.461.358.78.884.897 1.477l.055.437Z" fill="#411819"/><path d="M130.684 264.29c-3.915-16.572-16.291-27.617-33.094-29.537a45.69 45.69 0 0 0-3.22-.252 65.248 65.248 0 0 0-7.035.107c-.603 0-1.207.068-1.83.126a53.867 53.867 0 0 0-9.32 1.658l-.229.068-.302.087c-6.83 2.262-12.94 6.48-17.654 12.189-4.921 6.294-8.059 15.836-8.232 24.912-.403 21.314 15.669 35.52 27.441 45.896l2.05 1.814a71.874 71.874 0 0 1 11.781 13.459.92.92 0 0 0 .485.378c.103.01.207.01.31 0h.083l10.977-1.125a.886.886 0 0 0 .459-.188.974.974 0 0 0 .3-.413 75.079 75.079 0 0 1 8.781-16.145l1.519-2.134c9.12-12.703 21.624-30.158 16.73-50.9Z" fill="#E51F25" fill-opacity=".63"/><path d="m101.366 333.294-2.26.223-3.512.369-2.332.233c-7.318-16.117-23.024-28.364-30.05-39.758-3.389-5.449-5.408-11.725-5.866-18.234-.458-6.508.661-13.033 3.25-18.954 2.628-5.97 6.36-11.319 10.977-15.729a56.493 56.493 0 0 1 4.858-4.082 53.311 53.311 0 0 1 9.147-1.61c.594-.058 1.18-.097 1.765-.136a64.921 64.921 0 0 1 6.961-.097c1.052.049 2.104.126 3.147.252 1.164.414 2.298.916 3.394 1.503 5.537 3.057 10.439 7.262 14.416 12.364 4.104 5.518 6.845 12.034 7.976 18.958 3.458 23.884-17.169 42.512-21.871 64.698Z" fill="#F9FAFB"/><path d="M107.266 283.723c-1.281 11.501-5.315 22.905-7.19 33.814a64.26 64.26 0 0 0-.915 15.98l-3.512.369a69.844 69.844 0 0 0-3.33-12.49c-6.787-17.348-12.02-23.476-16.154-35.462-4.308-12.48-5.296-23.661-.988-35.763 2.038-5.819 5.673-10.858 10.437-14.468.595-.058 1.18-.097 1.766-.135 5.378 2.977 9.723 7.961 12.605 11.869 9.687 13.197 7.83 31.36 7.281 36.286Z" fill="#E51F25" fill-opacity=".63"/><path d="M95.393 334.158v-.224a68.541 68.541 0 0 0-3.32-12.441 193.615 193.615 0 0 0-9.147-20.015 111.867 111.867 0 0 1-6.943-15.457c-4.684-13.575-4.995-24.679-.988-35.947 2.069-5.852 5.738-10.916 10.537-14.545h.101c.604-.058 1.19-.097 1.83-.136h.119c4.262 2.347 8.516 6.361 12.595 11.889 6.467 8.785 9.001 21.391 7.318 36.47a150.042 150.042 0 0 1-4.043 19.84c-1.217 4.849-2.36 9.407-3.156 13.993a63.765 63.765 0 0 0-.915 15.913v.252l-3.988.408Zm-9.696-98.202c-4.703 3.575-8.294 8.555-10.318 14.303-3.942 11.142-3.659 22.119 1.015 35.588a110.387 110.387 0 0 0 6.907 15.389 194.466 194.466 0 0 1 9.147 20.063 69.977 69.977 0 0 1 3.302 12.315l3.064-.32a64.338 64.338 0 0 1 .979-15.806c.796-4.596 1.994-9.396 3.165-14.022a151.439 151.439 0 0 0 4.071-19.772c1.655-14.943-.842-27.423-7.227-36.092-4.025-5.45-8.232-9.406-12.477-11.773-.54.03-1.079.068-1.628.127Z" fill="#E51F21"/><path d="m105.38 344.125-13.774 1.622.32 3.062 13.775-1.622-.321-3.062Z" fill="#962623"/><path d="M91.844 334.526h-.174l-.046-.068a73.104 73.104 0 0 0-11.955-13.576l-2.04-1.803c-11.653-10.357-27.579-24.447-27.176-45.421.164-8.922 3.247-18.289 8.04-24.466 4.641-5.612 10.656-9.754 17.38-11.966l.302-.087.238-.068a54.18 54.18 0 0 1 9.184-1.649 55.74 55.74 0 0 1 1.774-.136 75.607 75.607 0 0 1 6.98-.067c1.115 0 2.149.126 3.164.252 16.52 1.891 28.668 12.722 32.51 29.042 4.811 20.364-7.574 37.654-16.63 50.289l-1.518 2.134a75.535 75.535 0 0 0-8.864 16.3l-.055.146-11.114 1.144Zm-.082-98.852c-1.473 0-2.936.049-4.364.146-.585 0-1.17.077-1.756.136a52.914 52.914 0 0 0-9.147 1.609l-.201.068-.284.087c-6.634 2.178-12.57 6.259-17.15 11.792-4.73 6.09-7.767 15.35-7.932 24.155-.393 20.733 15.432 34.725 26.985 44.946l2.04 1.804a73.14 73.14 0 0 1 11.955 13.576l10.712-1.096a76.472 76.472 0 0 1 8.872-16.281l1.519-2.134c9.019-12.538 21.313-29.721 16.547-49.891-3.787-16.058-15.761-26.754-32.097-28.616a37.928 37.928 0 0 0-3.129-.252c-.86-.029-1.72-.049-2.57-.049Z" fill="#E51F25" fill-opacity=".63"/><path d="M1633.48 354.283c.06.329.06.668-.01.995-.07.328-.2.636-.39.905-.19.27-.43.495-.71.66a2.16 2.16 0 0 1-.89.301l-11.2 1.336c-.31.045-.63.018-.93-.077-.3-.095-.58-.257-.82-.475a2.316 2.316 0 0 1-.57-.791 2.304 2.304 0 0 1-.21-.968l-.33-7.86v-.503c-.02-.708.22-1.398.65-1.935a2.689 2.689 0 0 1 1.71-.974l9.37-1.131a2.58 2.58 0 0 1 1.9.524c.55.423.93 1.049 1.07 1.755l.09.487 1.27 7.751Z" fill="#962623"/><path d="m1616.62 328.351-.91.185 2.85 15.892.92-.185-2.86-15.892ZM1619.7 327.978l-.91.21 3.66 17.898.92-.21-3.67-17.898ZM1624.4 326.975l-.93.123 2.38 20.154.93-.122-2.38-20.155ZM1628.53 327.125l-.93.055 1 19.276.93-.055-1-19.276Z" fill="#480E00"/><path d="m1632.13 346.611-14.71 1.761v-.503c-.02-.709.22-1.398.65-1.935a2.689 2.689 0 0 1 1.71-.974l9.37-1.132c.67-.085 1.35.103 1.9.525.55.423.93 1.049 1.07 1.755l.01.503Z" fill="#411819"/><path d="M1661.55 248.969c-4.59-19.447-19.11-32.417-38.82-34.586-1.2-.142-2.45-.236-3.77-.299a75.341 75.341 0 0 0-8.23.126c-.69 0-1.48 0-2.09.157-3.7.311-7.36.952-10.96 1.918l-.61.189c-8.03 2.643-15.22 7.601-20.76 14.321-5.74 7.389-9.41 18.582-9.62 29.226-.48 24.996 18.3 41.581 32 53.702l2.37 2.107a82.51 82.51 0 0 1 13.68 15.563c.18.284.46.494.77.598.16.051.33.078.5.078h.12l12.74-1.304c.27-.03.53-.138.75-.312.21-.175.38-.41.48-.679a87.106 87.106 0 0 1 10.14-18.661l1.78-2.468c10.67-14.966 25.27-35.356 19.53-59.676Z" fill="#2F50BA" fill-opacity=".8"/><path d="m1627.07 329.287-2.62.267-4.09.424-2.7.268c-8.53-18.724-26.7-33.014-34.94-46.22-3.93-6.342-6.26-13.642-6.78-21.208-.52-7.566.79-15.146 3.81-22.024 3.07-6.948 7.43-13.168 12.82-18.284a62.15 62.15 0 0 1 5.6-4.716 61.902 61.902 0 0 1 10.55-1.949l2.06-.158c2.78-.188 5.51-.204 8.08-.11 1.23 0 2.45.142 3.66.283 1.37.483 2.7 1.072 3.99 1.761 6.42 3.575 12.11 8.476 16.71 14.416 4.77 6.407 7.95 13.971 9.27 22.009 4.02 27.795-19.94 49.443-25.42 75.241Z" fill="#F9FAFB"/><path d="M1633.93 271.67c-1.49 13.362-6.17 26.615-8.37 39.302a74.171 74.171 0 0 0-1.11 18.582l-4.09.424a81.069 81.069 0 0 0-3.87-14.51c-7.82-20.186-13.9-27.291-18.7-41.236-5.02-14.495-6.17-27.496-1.16-41.566 2.36-6.758 6.57-12.616 12.09-16.821l2.06-.157c6.25 3.458 11.28 9.259 14.65 13.803 11.3 15.28 9.13 36.456 8.5 42.179Z" fill="#2F50BA" fill-opacity=".8"/><path d="M1620.13 330.293v-.267a81.301 81.301 0 0 0-3.85-14.448 226.136 226.136 0 0 0-10.65-23.267 129.851 129.851 0 0 1-8.07-17.969c-5.45-15.815-5.81-28.691-1.15-41.786 2.39-6.82 6.66-12.723 12.25-16.947h.11c.7-.079 1.38-.126 2.08-.157 5.78 3.465 10.81 8.191 14.74 13.865 7.53 10.219 10.47 24.871 8.53 42.447a177.372 177.372 0 0 1-4.64 23c-1.49 5.628-2.76 11.004-3.68 16.255a74.496 74.496 0 0 0-1.11 18.503v.299l-4.56.472Zm-11.28-114.15c-5.47 4.151-9.65 9.937-12 16.617-4.61 12.954-4.25 25.72 1.14 41.378a130.303 130.303 0 0 0 8.04 17.89c4 7.545 7.58 15.336 10.71 23.33a81.59 81.59 0 0 1 3.85 14.306l3.55-.377a75.814 75.814 0 0 1 1.14-18.362c.93-5.361 2.33-11.005 3.68-16.319a176.93 176.93 0 0 0 4.7-22.968c1.93-17.293-.98-31.882-8.41-41.959-3.87-5.594-8.81-10.26-14.5-13.693-.55.047-1.25.079-1.9.157Z" fill="#2F50BA"/><path d="m1632.29 342.171-16.08 1.929.39 3.562 16.07-1.93-.38-3.561Z" fill="#962623"/><path d="m1661.27 253.795-.19-.22a.445.445 0 0 0-.4-.126.39.39 0 0 0-.16.058.507.507 0 0 0-.13.12.792.792 0 0 0-.07.162.538.538 0 0 0 0 .179c.11.361.12.746.04 1.114-.09.368-.26.706-.51.977-.64.49-1.4.778-2.18.833-1.73.154-3.46.032-5.15-.362a.597.597 0 0 0-.41.052.733.733 0 0 0-.29.31 7.035 7.035 0 0 1-2.96 3.364c-1.38.751-2.9 1.18-4.45 1.258a20.92 20.92 0 0 1-4.75-.236 29.45 29.45 0 0 1-4.65-1.163.584.584 0 0 0-.35-.042.615.615 0 0 0-.32.168 25.424 25.424 0 0 1-4.33 3.144 35.918 35.918 0 0 1-4.79 2.452 41.738 41.738 0 0 1-10.38 2.94c-3.52.631-7.1.736-10.65.314-1.76-.197-3.5-.571-5.19-1.116a18.459 18.459 0 0 1-4.79-2.154h-.1a.62.62 0 0 0-.67 0 36.995 36.995 0 0 1-4.61 2.091 27.735 27.735 0 0 1-4.82 1.384c-1.59.321-3.22.321-4.81 0a4.927 4.927 0 0 1-2.01-.876 5.428 5.428 0 0 1-1.49-1.687.827.827 0 0 0-.47-.402.807.807 0 0 0-.61.041 15.932 15.932 0 0 1-4.19 1.572c-.65.163-1.32.13-1.95-.095-.49-.22-.66-.88-.61-1.572a.437.437 0 0 0-.05-.225.51.51 0 0 0-.15-.168.413.413 0 0 0-.31-.036.396.396 0 0 0-.24.194v.125a2.53 2.53 0 0 0-.33 1.478c.04.317.15.621.31.892s.37.503.63.68c.89.567 1.94.779 2.96.598a9.975 9.975 0 0 0 3.8-1.337c.26.763.69 1.447 1.26 1.997a6.675 6.675 0 0 0 2.96 1.572c1.96.459 3.99.427 5.94-.094.9-.226 1.79-.504 2.67-.834.84-.345 1.67-.723 2.47-1.147a22.42 22.42 0 0 0 4.08-2.814c2.9 2.47 6.35 4.095 10.03 4.716 1.91.374 3.86.569 5.81.582 1.94-.012 3.87-.175 5.78-.488a35.379 35.379 0 0 0 10.96-3.647c1.7-.904 3.33-1.956 4.87-3.144a24.626 24.626 0 0 0 3.75-3.757c1.39.833 2.89 1.462 4.45 1.87 1.72.476 3.51.667 5.29.566a10.23 10.23 0 0 0 5.4-1.776 6.675 6.675 0 0 0 1.83-1.861c.49-.742.83-1.579 1.02-2.462.68.291 1.38.512 2.1.66.98.192 1.98.239 2.97.141a5.03 5.03 0 0 0 3.19-1.415c.46-.525.72-1.214.74-1.933a2.617 2.617 0 0 0-.79-1.415Z" fill="#142884" fill-opacity=".8"/><path d="M1510.89 529.894h111.01a10.665 10.665 0 0 0 4.45-4.15c2.78-4.874 1.49-11.461-2.01-15.533a12.962 12.962 0 0 0-4.85-3.723 12.152 12.152 0 0 0-5.9-.993 12.232 12.232 0 0 0-5.25 2.174 13.158 13.158 0 0 0-3.85 4.366c-.72-3.757-3.91-17.843-16.07-25.421-3.65-2.264-11.32-7.043-18.89-3.631-6.39 2.877-10.5 10.611-10.49 19.619-1.91-3.946-5.02-7.096-8.83-8.941a17.654 17.654 0 0 0-12.15-1.23c-3.16.982-6.01 2.87-8.22 5.455-2.21 2.585-3.71 5.767-4.33 9.197-.68-.252-9.07-3.144-14.83 1.572a16.315 16.315 0 0 0-4.06 5.392 13.339 13.339 0 0 0-1.48 6.949c.35 5.329 5.02 8.426 5.75 8.898ZM81.925 425.526h111.014c1.828-.901 3.373-2.342 4.449-4.15 2.773-4.873 1.483-11.46-2.017-15.532a12.896 12.896 0 0 0-4.843-3.723 12.178 12.178 0 0 0-5.908-.993 12.277 12.277 0 0 0-5.248 2.173 13.175 13.175 0 0 0-3.843 4.367c-.727-3.758-3.915-17.844-16.075-25.421-3.648-2.264-11.315-7.043-18.893-3.632-6.392 2.877-10.499 10.612-10.485 19.62-1.912-3.947-5.022-7.096-8.829-8.941a17.665 17.665 0 0 0-12.154-1.23c-3.161.982-6.004 2.869-8.217 5.455-2.214 2.585-3.712 5.767-4.33 9.196-.681-.251-9.075-3.144-14.829 1.573a16.34 16.34 0 0 0-4.063 5.392 13.412 13.412 0 0 0-1.483 6.948c.356 5.33 5.027 8.427 5.754 8.898ZM137.559 608.001h111.014c1.828-.902 3.373-2.343 4.449-4.151 2.773-4.873 1.483-11.46-2.017-15.532a12.914 12.914 0 0 0-4.843-3.723 12.192 12.192 0 0 0-5.909-.993 12.278 12.278 0 0 0-5.247 2.173 13.175 13.175 0 0 0-3.843 4.367c-.727-3.758-3.915-17.844-16.075-25.421-3.649-2.264-11.315-7.043-18.893-3.632-6.392 2.877-10.5 10.612-10.485 19.62-1.912-3.946-5.022-7.096-8.829-8.941a17.673 17.673 0 0 0-12.155-1.23c-3.16.982-6.003 2.87-8.217 5.455-2.213 2.585-3.711 5.767-4.328 9.197-.683-.252-9.076-3.145-14.83 1.572a16.35 16.35 0 0 0-4.063 5.392 13.408 13.408 0 0 0-1.483 6.949c.356 5.329 5.027 8.426 5.754 8.898Z" fill="#DCEEEE"/></g><defs><clipPath id="a"><path fill="#fff" d="M0 0h1920v1079H0z"/></clipPath></defs></svg>
