<svg width="1125" height="1639" viewBox="0 0 1125 1639" fill="none" xmlns="http://www.w3.org/2000/svg">
<path d="M560.12 155.659C552.22 140.359 536.19 133.469 519.12 134.169C499.73 134.949 390.7 166.119 361.2 179.519C345.64 186.589 337 202.299 337.85 219.519C339.17 246.379 352.96 294.379 366.6 319.629C374.78 334.769 390.6 343.299 407.6 341.119C439.77 336.979 547.66 304.969 565.53 295.759C580.72 287.939 590.22 272.949 588.88 255.759C586.84 229.729 572 178.719 560.12 155.659Z" fill="#EEEFE8"/>
<path d="M543.931 174.618C538.591 162.508 528.121 155.018 518.021 156.328C490.511 159.918 399.671 185.998 374.451 197.558C365.191 201.808 360.981 213.628 362.191 226.808C364.361 250.648 373.461 280.228 383.341 300.478C389.151 312.378 399.161 320.078 409.261 318.768C436.181 315.258 538.781 285.448 552.821 277.538C561.691 272.538 566.821 261.408 565.091 248.288C562.861 231.658 551.281 191.268 543.931 174.618Z" fill="#4CCE00"/>
<path d="M494.501 224.369C493.441 223.889 468.361 212.629 438.811 209.489C437.963 209.391 437.105 209.493 436.304 209.786C435.504 210.08 434.783 210.557 434.199 211.179C433.616 211.801 433.187 212.551 432.946 213.369C432.704 214.187 432.658 215.05 432.811 215.889C436.611 235.046 442.027 253.847 449.001 272.089C449.317 272.879 449.814 273.585 450.452 274.149C451.089 274.712 451.85 275.119 452.673 275.337C453.496 275.555 454.358 275.577 455.191 275.402C456.024 275.227 456.805 274.86 457.471 274.329C480.811 255.989 496.101 233.179 496.741 232.179C497.171 231.536 497.455 230.808 497.575 230.043C497.694 229.279 497.646 228.498 497.433 227.755C497.219 227.011 496.847 226.323 496.34 225.738C495.834 225.154 495.206 224.687 494.501 224.369V224.369Z" fill="#EAE451"/>
<path d="M888.22 371.176C887.556 372.233 886.593 373.068 885.453 373.577C884.313 374.085 883.048 374.244 881.818 374.032C880.588 373.821 879.448 373.248 878.544 372.388C877.64 371.528 877.011 370.419 876.738 369.201C876.465 367.983 876.561 366.711 877.011 365.547C877.462 364.384 878.249 363.38 879.271 362.664C880.293 361.948 881.505 361.551 882.753 361.525C884.001 361.499 885.228 361.843 886.28 362.516C886.977 362.957 887.579 363.53 888.054 364.204C888.528 364.878 888.865 365.639 889.046 366.444C889.226 367.248 889.246 368.08 889.104 368.892C888.962 369.704 888.662 370.48 888.22 371.176Z" fill="#572D0F"/>
<path d="M881.807 370.591L877.473 367.805L862.79 390.644L867.124 393.431L881.807 370.591Z" fill="#572D0F"/>
<path d="M884.373 408.668L846.783 384.608C846.341 384.321 846.029 383.871 845.917 383.356C845.805 382.841 845.9 382.303 846.183 381.858C846.781 380.921 847.558 380.112 848.47 379.476C849.382 378.839 850.409 378.389 851.495 378.15C852.581 377.912 853.703 377.889 854.797 378.085C855.891 378.28 856.937 378.689 857.873 379.288L884.563 396.368C886.453 397.58 887.785 399.494 888.265 401.688C888.745 403.882 888.334 406.177 887.123 408.068C886.836 408.51 886.386 408.821 885.871 408.934C885.356 409.046 884.818 408.95 884.373 408.668" fill="#FC1000"/>
<path d="M803.162 412.227C810.574 412.227 816.582 406.219 816.582 398.807C816.582 391.395 810.574 385.387 803.162 385.387C795.751 385.387 789.742 391.395 789.742 398.807C789.742 406.219 795.751 412.227 803.162 412.227Z" fill="#FC1000"/>
<path d="M888.822 467.059C896.234 467.059 902.242 461.05 902.242 453.639C902.242 446.227 896.234 440.219 888.822 440.219C881.411 440.219 875.402 446.227 875.402 453.639C875.402 461.05 881.411 467.059 888.822 467.059Z" fill="#FC1000"/>
<path d="M874.431 400.851L853.985 387.708C835.688 375.945 811.32 381.243 799.558 399.54C787.796 417.837 793.093 442.205 811.39 453.967L831.835 467.111C850.132 478.873 874.5 473.576 886.263 455.279C898.025 436.982 892.728 412.614 874.431 400.851Z" fill="#FF4423"/>
<path d="M869.361 410.546L847.278 396.349C834.195 387.939 816.772 391.727 808.362 404.809L807.995 405.38C799.584 418.463 803.372 435.886 816.455 444.296L838.538 458.493C851.621 466.903 869.044 463.115 877.454 450.033L877.821 449.462C886.232 436.379 882.444 418.956 869.361 410.546Z" fill="#FBD100"/>
<path d="M840.94 418.569C839.783 420.382 838.114 421.811 836.145 422.675C834.175 423.539 831.994 423.8 829.876 423.424C827.759 423.048 825.8 422.053 824.249 420.563C822.697 419.074 821.622 417.158 821.16 415.057C820.698 412.957 820.869 410.766 821.653 408.763C822.436 406.76 823.796 405.034 825.56 403.805C827.324 402.575 829.414 401.896 831.564 401.854C833.714 401.812 835.829 402.408 837.64 403.569C840.062 405.124 841.77 407.575 842.388 410.387C843.007 413.198 842.486 416.14 840.94 418.569Z" fill="white"/>
<path d="M873.48 439.397C872.322 441.21 870.652 442.638 868.682 443.502C866.712 444.365 864.531 444.625 862.413 444.247C860.296 443.87 858.338 442.873 856.787 441.383C855.236 439.892 854.162 437.975 853.702 435.875C853.241 433.774 853.414 431.583 854.198 429.581C854.983 427.578 856.344 425.853 858.109 424.624C859.874 423.396 861.965 422.718 864.115 422.678C866.265 422.637 868.38 423.236 870.19 424.397C872.611 425.954 874.316 428.406 874.933 431.218C875.549 434.029 875.027 436.97 873.48 439.397Z" fill="white"/>
<path d="M837.78 416.539C837.016 417.721 835.92 418.65 834.628 419.209C833.337 419.768 831.909 419.932 830.525 419.68C829.141 419.428 827.862 418.771 826.851 417.793C825.839 416.816 825.14 415.56 824.842 414.185C824.543 412.81 824.659 411.377 825.174 410.068C825.689 408.759 826.581 407.631 827.736 406.828C828.891 406.025 830.258 405.583 831.665 405.556C833.072 405.529 834.455 405.92 835.64 406.679C836.428 407.186 837.109 407.842 837.643 408.612C838.178 409.382 838.555 410.25 838.754 411.165C838.952 412.081 838.969 413.027 838.802 413.949C838.634 414.871 838.287 415.751 837.78 416.539" fill="#572D0F"/>
<path d="M870.323 437.367C869.559 438.549 868.463 439.478 867.171 440.037C865.88 440.596 864.452 440.76 863.068 440.508C861.684 440.256 860.405 439.6 859.394 438.622C858.382 437.644 857.683 436.388 857.385 435.013C857.086 433.638 857.202 432.205 857.717 430.896C858.232 429.587 859.124 428.46 860.279 427.656C861.434 426.853 862.801 426.411 864.208 426.384C865.615 426.358 866.998 426.748 868.183 427.507C868.971 428.014 869.652 428.671 870.186 429.44C870.721 430.21 871.098 431.078 871.297 431.994C871.495 432.909 871.512 433.855 871.345 434.777C871.177 435.699 870.83 436.579 870.323 437.367" fill="#572D0F"/>
<path d="M846.221 448.938L825.611 435.748C825.018 435.321 824.61 434.682 824.473 433.963C824.335 433.244 824.479 432.5 824.873 431.884C825.268 431.268 825.884 430.826 826.594 430.65C827.304 430.474 828.055 430.577 828.691 430.938L849.301 444.178C849.895 444.605 850.303 445.244 850.44 445.963C850.578 446.681 850.434 447.425 850.04 448.042C849.645 448.658 849.029 449.099 848.319 449.275C847.609 449.451 846.858 449.349 846.221 448.988" fill="#572D0F"/>
<path d="M309.751 1316.31L329.661 1308.39L299.171 1273.47C298.693 1272.92 298.064 1272.53 297.363 1272.33C296.662 1272.14 295.919 1272.16 295.229 1272.39C294.539 1272.62 293.932 1273.05 293.484 1273.62C293.036 1274.19 292.767 1274.88 292.711 1275.61L289.051 1321.82L302.141 1318.65L302.251 1319.29L306.601 1317.56L309.901 1316.76L309.751 1316.31Z" fill="#FF4CA4"/>
<path d="M315.44 1333.51C313.12 1334.27 311.65 1336.16 312.16 1337.72L314.51 1344.8L322.93 1342.02L320.59 1334.93C320.07 1333.38 317.77 1332.74 315.44 1333.51Z" fill="#7D2B5E"/>
<path d="M300.9 1383.45L315.61 1376.75L292.7 1350.53C292.342 1350.12 291.87 1349.82 291.344 1349.68C290.818 1349.53 290.261 1349.55 289.744 1349.72C289.226 1349.89 288.77 1350.21 288.433 1350.64C288.096 1351.07 287.893 1351.58 287.85 1352.13L285.15 1386.22C285.144 1386.29 285.155 1386.37 285.183 1386.44C285.21 1386.5 285.253 1386.57 285.308 1386.62C285.364 1386.66 285.429 1386.7 285.501 1386.72C285.572 1386.74 285.647 1386.74 285.72 1386.73L296.89 1384.66L297.02 1385.22L299.18 1384.22L301.04 1383.88L300.9 1383.45Z" fill="#FF4CA4"/>
<path d="M259.161 1394.82L278.741 1385.9L248.251 1350.99C247.773 1350.44 247.144 1350.05 246.443 1349.86C245.742 1349.67 245 1349.69 244.31 1349.91C243.62 1350.14 243.012 1350.57 242.564 1351.14C242.116 1351.71 241.847 1352.41 241.791 1353.13L238.121 1399.34L253.831 1396.43L253.991 1397.18L256.881 1395.86L259.351 1395.4L259.161 1394.82Z" fill="#FF4CA4"/>
<path d="M342.531 1367.3L285.109 1386.29L300.04 1431.43L357.461 1412.44L342.531 1367.3Z" fill="#FFC34A"/>
<path d="M353.999 1398.32L294.389 1418.03L290.129 1435.11L368.449 1409.21L353.999 1398.32Z" fill="#FF4CA4"/>
<path d="M369.28 1358.4L388.86 1349.48L358.37 1314.57C357.892 1314.02 357.263 1313.63 356.562 1313.44C355.861 1313.24 355.119 1313.26 354.429 1313.49C353.739 1313.72 353.131 1314.15 352.683 1314.72C352.235 1315.29 351.966 1315.98 351.91 1316.71L348.25 1362.92L363.95 1360.01L364.12 1360.76L367 1359.44L369.47 1358.98L369.28 1358.4Z" fill="#FF4CA4"/>
<path d="M384.069 1403.13L273.945 1439.55L285.268 1473.79L395.392 1437.37L384.069 1403.13Z" fill="#FFC34A"/>
<path d="M309.351 1315.1L289.051 1321.82L290.941 1327.53L311.251 1320.82L331.551 1314.1L329.661 1308.39L316.531 1312.73L309.351 1315.1Z" fill="#FCC36C"/>
<path d="M313.819 1328.6L299.469 1333.34L313.959 1377.16L328.309 1372.42L342.659 1367.67L328.169 1323.85L323.059 1325.54L313.819 1328.6Z" fill="#FFE285"/>
<path d="M271.149 1411.54L265.319 1413.46L250.809 1418.27L263.339 1471.27C263.612 1472.42 264.122 1473.51 264.835 1474.45C265.549 1475.4 266.451 1476.19 267.485 1476.77C268.519 1477.35 269.662 1477.71 270.841 1477.82C272.021 1477.94 273.212 1477.81 274.339 1477.44L285.249 1473.83L305.029 1467.29L279.819 1408.7L271.149 1411.54Z" fill="#FFE285"/>
<path d="M258.431 1392.62L238.121 1399.33L242.441 1412.4L262.751 1405.68L283.061 1398.97L278.741 1385.9L264.261 1390.69L258.431 1392.62Z" fill="#FCC36C"/>
<path d="M390.001 1372.24L381.301 1375.12L375.481 1377.04L360.961 1381.85L375.651 1443.91L395.431 1437.37L406.901 1433.58C407.961 1433.23 408.936 1432.67 409.765 1431.92C410.594 1431.18 411.258 1430.27 411.715 1429.25C412.171 1428.23 412.41 1427.13 412.417 1426.02C412.423 1424.9 412.196 1423.8 411.751 1422.78L390.001 1372.24Z" fill="#FFE285"/>
<path d="M374.382 1354.27L368.552 1356.2L348.242 1362.91L352.572 1375.98L372.872 1369.26L393.182 1362.55L388.862 1349.48L374.382 1354.27Z" fill="#FCC36C"/>
<path d="M331.37 1428.87C324.43 1431.16 320.27 1437.43 322.06 1442.87L327.66 1459.79L352.78 1451.48L347.18 1434.56C345.39 1429.12 338.3 1426.58 331.37 1428.87Z" fill="#B5633A"/>
<path d="M311.251 1320.82L290.941 1327.53L299.301 1333.4L299.471 1333.34L313.821 1328.6L328.172 1323.85L328.341 1323.8L331.551 1314.1L321.401 1317.46L311.251 1320.82Z" fill="#F0AF56"/>
<path d="M377.09 1367.87L372.87 1369.26L352.57 1375.98L360.93 1381.84L375.45 1377.04L389.97 1372.24L393.18 1362.55L377.09 1367.87Z" fill="#F0AF56"/>
<path d="M262.751 1405.68L242.441 1412.4L250.801 1418.26L265.321 1413.46L279.851 1408.66L283.061 1398.97L266.961 1404.29L262.751 1405.68Z" fill="#F0AF56"/>
<path d="M267.572 1420.24C265.242 1421.01 263.772 1422.9 264.292 1424.45L266.632 1431.53L275.052 1428.75L272.712 1421.67C272.202 1420.11 269.892 1419.47 267.572 1420.24Z" fill="#B5633A"/>
<path d="M377.69 1383.82C375.37 1384.59 373.9 1386.48 374.41 1388.03L376.75 1395.11L385.18 1392.33L382.83 1385.25C382.32 1383.69 380 1383.05 377.69 1383.82Z" fill="#B5633A"/>
<path d="M228.89 500.179C226.71 498.549 199.82 480.179 191.67 474.619C190.143 473.585 188.871 472.217 187.95 470.619L181.51 459.359C177.203 462.86 172.505 465.85 167.51 468.269C164.82 469.616 162.063 470.824 159.25 471.889L165.51 483.239C166.401 484.865 166.917 486.669 167.02 488.519C167.53 498.369 169.24 530.889 169.49 533.599C170.01 539.069 171.71 543.519 177.05 545.959C180.83 547.679 185.37 547.079 189.17 546.299C204.559 542.867 218.596 534.979 229.53 523.619C232.17 520.779 235.05 517.209 235.53 513.089C236.21 507.269 233.29 503.499 228.89 500.179Z" fill="#85E5FF"/>
<path d="M181.628 459.299C181.628 459.299 185.547 455.019 184.677 453.409C184.677 453.409 184.287 452.759 183.787 451.889C182.82 451.448 181.779 451.191 180.717 451.129C180.269 451.072 179.816 451.072 179.367 451.129C176.287 454.009 170.367 457.629 165.367 460.189C160.367 462.749 153.627 465.809 150.577 465.649C150.347 465.889 150.138 466.119 149.938 466.349C150.938 468.079 152.697 471.289 152.688 471.349C153.608 472.929 159.298 471.809 159.298 471.809C162.11 470.742 164.867 469.534 167.557 468.189C172.578 465.784 177.3 462.8 181.628 459.299Z" fill="#41AFE4"/>
<path d="M149.928 466.432C150.928 468.152 152.688 471.362 152.678 471.432C153.598 473.012 159.308 471.882 159.308 471.882C162.134 470.795 164.901 469.56 167.598 468.182C172.623 465.765 177.345 462.764 181.668 459.242C181.668 459.242 185.608 454.962 184.738 453.352C184.738 453.352 184.348 452.692 183.848 451.822C183.038 450.402 181.908 448.392 181.488 447.652C181.758 448.482 180.928 449.712 179.418 451.122C176.318 454.002 170.418 457.632 165.418 460.202C160.418 462.772 153.628 465.842 150.568 465.692L149.418 465.522L149.928 466.432Z" fill="#66D6FF"/>
<path d="M181.428 447.522C182.608 449.622 176.428 455.342 167.538 460.292C158.648 465.242 150.668 467.752 149.538 465.652C148.408 463.552 154.468 457.652 163.318 452.652C172.168 447.652 180.258 445.422 181.428 447.522Z" fill="#85E5FF"/>
<path d="M230.218 510.073C232.408 516.233 223.218 525.073 209.538 532.983L207.538 534.133C193.708 541.713 181.338 544.963 177.238 539.863C173.728 535.513 173.348 513.973 173.348 513.973C173.348 513.733 173.348 513.503 173.348 513.293C173.404 512.847 173.504 512.409 173.648 511.983C173.648 511.983 173.648 511.933 173.648 511.893C174.648 510.463 177.218 508.283 180.818 505.803C183.758 503.913 187.078 501.943 189.648 500.473L190.028 500.253C192.498 498.903 195.678 497.253 198.678 495.723L198.828 495.643C203.418 493.643 206.978 492.463 208.528 492.643C208.61 492.655 208.69 492.675 208.768 492.703C208.873 492.709 208.974 492.748 209.058 492.813C209.411 492.936 209.747 493.104 210.058 493.313C210.058 493.313 228.258 504.833 230.178 510.093" fill="#FFC204"/>
<path d="M209.478 492.931C210.348 494.481 203.008 500.271 193.038 505.871C183.068 511.471 174.408 514.711 173.468 513.211H173.418C173.258 512.911 173.418 512.471 173.768 511.921C173.768 511.921 173.768 511.871 173.768 511.831C174.768 510.401 177.338 508.221 180.938 505.741C183.448 503.991 186.498 502.111 189.808 500.251C193.118 498.391 196.058 496.901 198.808 495.661L198.958 495.581C203.538 493.531 207.098 492.401 208.658 492.581C208.739 492.594 208.82 492.614 208.898 492.641C209.003 492.647 209.104 492.686 209.188 492.751C209.243 492.767 209.294 492.795 209.337 492.833C209.381 492.871 209.415 492.918 209.438 492.971" fill="#FFDC04"/>
<path opacity="0.57" d="M184.398 525.741C185.668 525.741 186.698 524.711 186.698 523.441C186.698 522.17 185.668 521.141 184.398 521.141C183.127 521.141 182.098 522.17 182.098 523.441C182.098 524.711 183.127 525.741 184.398 525.741Z" fill="white"/>
<path opacity="0.57" d="M208.388 513.1C210.669 513.1 212.518 511.251 212.518 508.97C212.518 506.689 210.669 504.84 208.388 504.84C206.107 504.84 204.258 506.689 204.258 508.97C204.258 511.251 206.107 513.1 208.388 513.1Z" fill="white"/>
<path opacity="0.57" d="M197.788 530.87C199.059 530.87 200.088 529.84 200.088 528.57C200.088 527.299 199.059 526.27 197.788 526.27C196.518 526.27 195.488 527.299 195.488 528.57C195.488 529.84 196.518 530.87 197.788 530.87Z" fill="white"/>
<path d="M176.998 450.003C177.848 451.523 172.998 455.133 166.618 458.703C160.238 462.273 154.758 464.633 153.908 463.113C153.058 461.593 157.758 457.883 164.148 454.303C170.538 450.723 176.138 448.483 176.998 450.003Z" fill="#66D6FF"/>
<path d="M976.722 1279.82C979.822 1278.37 982.592 1278.29 984.042 1281.25C986.242 1285.83 987.272 1290.87 987.042 1295.94C986.882 1300.37 986.532 1304.94 984.362 1308.81C976.418 1303.47 967.804 1299.19 958.742 1296.09C959.827 1294.28 961.175 1292.63 962.742 1291.21C964.732 1289.23 971.242 1282.38 976.722 1279.82Z" fill="#FFFA84"/>
<path d="M1002.89 1305.42C1006.51 1304.81 1010.21 1304.85 1013.82 1305.55C1019.66 1306.83 1018.08 1311.46 1015.64 1315.55C1011.78 1322.08 1007.11 1328.46 1000.52 1332.25C999.988 1329.23 998.914 1326.34 997.351 1323.71C996.23 1321.91 994.991 1320.18 993.641 1318.54C992.501 1317.08 991.341 1315.63 990.061 1314.29C989.395 1313.58 988.69 1312.92 987.951 1312.29C985.841 1310.47 989.101 1309.8 990.691 1309.04C994.564 1307.26 998.673 1306.04 1002.89 1305.42V1305.42Z" fill="#FFFA84"/>
<path d="M1027.46 1350.65C1027.37 1349.72 1027.03 1348.82 1026.46 1348.08C1024.5 1344.92 1021.84 1342.25 1018.69 1340.28C1015.53 1338.31 1011.97 1337.09 1008.27 1336.71L1007.49 1336.63C1007.07 1336.63 1002.49 1336.44 1002.49 1336.77C1002.36 1343.64 1001.86 1350.5 1001.01 1357.32C1000.97 1358.39 1000.84 1359.46 1000.64 1360.51C1000.7 1360.46 1000.78 1360.43 1000.86 1360.43C1004.35 1360.59 1007.85 1360.29 1011.26 1359.52C1014.51 1358.94 1017.67 1357.93 1020.66 1356.52C1022.79 1355.49 1024.73 1354.11 1026.4 1352.44C1026.57 1352.27 1026.73 1352.1 1026.89 1351.92C1027.23 1351.58 1027.43 1351.13 1027.46 1350.65Z" fill="#FFFA84"/>
<path d="M995.572 1373.33C995.931 1372.57 996.236 1371.78 996.482 1370.97C997.088 1369.27 997.901 1367.66 998.902 1366.16C1000.28 1366.56 1001.62 1367.08 1002.9 1367.73C1005.51 1368.93 1007.9 1370.56 1009.95 1372.57C1013.38 1376.02 1015.49 1380.89 1016.95 1385.45C1017.07 1385.66 1017.13 1385.9 1017.13 1386.15C1017.12 1386.39 1017.05 1386.63 1016.92 1386.83C1016.79 1387.04 1016.6 1387.2 1016.39 1387.31C1016.17 1387.42 1015.93 1387.47 1015.68 1387.45C1008.86 1389.01 1001.76 1389.14 995.242 1386.35C993.83 1385.74 992.451 1385.05 991.112 1384.29C991.022 1384.23 989.822 1383.62 989.902 1383.47C991.242 1381 992.112 1378.26 993.722 1375.96C994.392 1375.12 995.01 1374.24 995.572 1373.33V1373.33Z" fill="#FFFA84"/>
<path d="M1004.58 1407.18C1003.43 1408.28 1002.02 1409.05 1000.47 1409.42C998.977 1409.95 997.455 1410.4 995.911 1410.76C992.669 1411.5 989.313 1411.61 986.031 1411.07C985.015 1410.89 984.013 1410.64 983.031 1410.33C982.057 1410.04 981.113 1409.66 980.211 1409.19C981.712 1403.32 983.771 1397.6 986.361 1392.12C986.451 1391.95 987.951 1392.12 988.161 1392.12C991.765 1392.43 995.156 1393.96 997.781 1396.45C999.567 1397.98 1001.19 1399.7 1002.61 1401.57C1003.55 1402.77 1006 1405.55 1004.58 1407.18Z" fill="#FFFA84"/>
<path d="M989.851 1420.83C990.391 1421.17 990.911 1421.54 991.421 1421.92C993.501 1423.5 998.011 1427.15 997.131 1430.27C996.691 1431.85 994.211 1432.91 992.861 1433.52C988.648 1435.37 983.983 1435.93 979.451 1435.14C977.831 1434.86 975.091 1434.57 974.211 1432.98C973.761 1432.17 974.381 1431.05 974.561 1430.24C974.821 1429.1 975.091 1427.95 975.351 1426.8C975.48 1425.78 975.711 1424.78 976.041 1423.8C976.142 1423.33 976.269 1422.87 976.421 1422.42C976.611 1421.89 976.871 1421.42 977.071 1420.88C977.721 1419.25 977.301 1417.39 979.571 1417.5C983.228 1417.7 986.77 1418.85 989.851 1420.83V1420.83Z" fill="#FFFA84"/>
<path d="M986.49 1456.52L987.67 1456.01C989.055 1455.53 990.23 1454.58 991 1453.33C991.183 1452.88 991.241 1452.38 991.168 1451.9C991.096 1451.42 990.897 1450.96 990.59 1450.58C987.41 1445.53 982.09 1441.25 975.94 1441.05C974.73 1441.05 973.53 1441.05 972.33 1441.13C971.981 1444.16 971.47 1447.16 970.8 1450.13C970.193 1452.34 969.821 1454.6 969.69 1456.89C969.666 1456.98 969.666 1457.08 969.69 1457.17C969.752 1457.25 969.835 1457.32 969.93 1457.36C972.553 1458.46 975.425 1458.83 978.24 1458.43C979.966 1458.29 981.678 1458.01 983.36 1457.59C984.428 1457.31 985.474 1456.95 986.49 1456.52V1456.52Z" fill="#FFFA84"/>
<path d="M778.852 1396.85C780.437 1394.7 781.807 1392.39 782.942 1389.97C785.542 1383.64 783.542 1376.49 782.412 1369.74C778.542 1346.57 786.222 1324.34 800.742 1306.42C803.982 1302.42 811.362 1297.78 816.742 1298.5C817.749 1298.69 818.692 1299.13 819.486 1299.78C820.281 1300.43 820.901 1301.26 821.292 1302.21C822.822 1305.21 821.782 1308.87 820.892 1312.21C816.543 1328.34 816.591 1345.34 821.032 1361.44C822.202 1365.63 823.842 1370 827.352 1372.57C830.542 1374.9 834.682 1375.33 838.602 1375.73C850.012 1376.88 861.472 1378.42 872.312 1382.15C881.816 1385.26 890.725 1389.95 898.662 1396.03C902.559 1399.1 906.045 1402.67 909.032 1406.63C910.533 1408.67 911.89 1410.81 913.092 1413.03C914.182 1415.03 915.342 1417.74 917.892 1418.12C919.772 1418.4 921.892 1416.72 923.392 1415.76C934.452 1408.65 943.742 1397.13 947.082 1384.22C947.862 1381.22 947.542 1380.12 944.362 1379.5C942.212 1379.08 940.012 1379.24 937.852 1378.96C926.972 1377.55 916.022 1375.53 905.932 1371.07C892.762 1365.26 880.932 1354.56 877.492 1340.59C872.932 1322.21 884.492 1302.36 901.312 1293.59C918.132 1284.82 938.582 1285.65 956.562 1291.59C974.332 1297.45 990.152 1308.82 999.212 1325.46C1009.5 1344.35 1006.61 1364.36 1001.68 1384.46C991.632 1425.46 975.122 1467.18 942.192 1493.56C933.122 1500.82 921.792 1506.72 914.192 1515.56C909.002 1521.63 905.332 1528.83 901.702 1535.89C899.572 1540.03 897.542 1544.66 895.402 1548.79C893.562 1552.38 891.872 1556.2 888.282 1558.38C884.692 1560.56 880.162 1559.98 876.382 1558.93C869.522 1557.01 862.312 1553.93 856.932 1549.22C855.513 1548.08 854.354 1546.65 853.531 1545.03C852.709 1543.41 852.242 1541.63 852.162 1539.81C852.082 1535.97 853.482 1532.28 855.092 1528.81C855.962 1526.97 857.332 1524.33 857.092 1522.22C856.952 1520.78 855.272 1519.87 854.092 1519.44C848.542 1517.44 842.782 1516.12 837.262 1513.99C827.802 1510.33 818.932 1505.46 810.092 1500.54C808.712 1499.77 806.992 1498.35 805.332 1498.54C804.693 1498.64 804.092 1498.91 803.592 1499.32C801.587 1500.99 799.914 1503.03 798.662 1505.32C795.662 1510.21 792.162 1512.68 786.322 1511.32C779.172 1509.68 772.112 1506.92 766.322 1502.32C762.052 1498.97 758.732 1493.95 758.762 1488.51C758.762 1481.05 764.762 1475.13 767.822 1468.3C772.482 1457.78 770.432 1445.8 769.382 1434.76C768.209 1421.42 771.544 1408.07 778.852 1396.85Z" fill="#9EE314"/>
<path fill-rule="evenodd" clip-rule="evenodd" d="M896.422 1436.44C895.759 1436.1 895.13 1435.7 894.542 1435.24C892.332 1433.63 890.567 1431.48 889.412 1429C888.242 1426.35 887.662 1422.4 890.032 1420.21C894.372 1416.21 899.422 1422.01 901.602 1425.55C903.602 1428.77 905.602 1434.9 900.882 1436.87C900.153 1437.13 899.375 1437.23 898.604 1437.16C897.832 1437.08 897.087 1436.84 896.422 1436.44V1436.44Z" fill="#57B807"/>
<path fill-rule="evenodd" clip-rule="evenodd" d="M856.572 1404.18C856.338 1403.7 856.163 1403.18 856.052 1402.66C855.892 1401.43 856.103 1400.17 856.659 1399.06C857.215 1397.95 858.09 1397.02 859.172 1396.41C861.532 1395.03 864.532 1395.14 867.172 1395.57C868.441 1395.78 869.694 1396.08 870.922 1396.46C873.825 1397.29 876.473 1398.85 878.622 1400.97C880.382 1402.77 882.122 1405.24 882.262 1407.84C882.432 1411.21 879.112 1413.05 876.142 1413.33C873.81 1413.44 871.476 1413.15 869.242 1412.47C864.532 1411.23 858.822 1408.77 856.572 1404.18Z" fill="#57B807"/>
<path fill-rule="evenodd" clip-rule="evenodd" d="M836.392 1406.41C833.835 1406.44 831.294 1405.99 828.902 1405.09C826.702 1404.23 824.722 1402.56 825.212 1399.97C826.092 1395.4 832.152 1393.64 836.212 1393.67C837.793 1393.63 839.369 1393.86 840.872 1394.35C843.942 1395.46 846.012 1398.77 844.692 1401.98C843.372 1405.19 839.642 1406.35 836.392 1406.41Z" fill="#57B807"/>
<path d="M956.479 1347.33C968.922 1347.33 979.009 1337.24 979.009 1324.8C979.009 1312.36 968.922 1302.27 956.479 1302.27C944.036 1302.27 933.949 1312.36 933.949 1324.8C933.949 1337.24 944.036 1347.33 956.479 1347.33Z" fill="white"/>
<path d="M950.001 1337.3C955.91 1337.3 960.701 1332.51 960.701 1326.6C960.701 1320.69 955.91 1315.9 950.001 1315.9C944.091 1315.9 939.301 1320.69 939.301 1326.6C939.301 1332.51 944.091 1337.3 950.001 1337.3Z" fill="#3F3A4F"/>
<path d="M252.678 1078.07C252.551 1081.88 251.97 1085.65 250.948 1089.32V1089.32C250.33 1091.56 249.548 1093.75 248.608 1095.87V1095.87C245.894 1101.94 241.952 1107.39 237.03 1111.86C232.107 1116.34 226.312 1119.75 220.008 1121.87C217.334 1122.78 214.582 1123.45 211.788 1123.87V1123.87C208.899 1124.3 205.977 1124.46 203.058 1124.36C194.773 1124.1 186.699 1121.69 179.628 1117.36C178.878 1116.9 178.138 1116.42 177.418 1115.92C168.624 1109.83 162.108 1100.98 158.898 1090.77C158.458 1089.35 158.078 1087.9 157.768 1086.43C156.226 1079.17 156.385 1071.66 158.233 1064.48C160.081 1057.29 163.567 1050.63 168.418 1045.02C169.578 1043.69 170.806 1042.42 172.098 1041.22V1041.22C180.568 1033.36 191.597 1028.83 203.148 1028.46V1028.46C204.218 1028.46 205.298 1028.46 206.378 1028.46C208.028 1028.52 209.673 1028.66 211.308 1028.89C219.371 1030 227.017 1033.15 233.518 1038.04C234.258 1038.59 234.978 1039.16 235.678 1039.76C240.638 1043.94 244.696 1049.09 247.608 1054.89C248.148 1055.95 248.608 1057.04 249.098 1058.14C251.703 1064.45 252.923 1071.25 252.678 1078.07V1078.07Z" fill="#FF7900"/>
<path d="M225.628 1107.28C214.471 1108.92 203.093 1106.6 193.468 1100.72C192.718 1100.26 191.988 1099.78 191.268 1099.28C182.476 1093.2 175.96 1084.37 172.748 1074.18C172.298 1072.76 171.918 1071.31 171.608 1069.84C169.352 1059.15 170.791 1048 175.688 1038.23C174.448 1039.18 173.251 1040.18 172.098 1041.23C170.806 1042.43 169.578 1043.7 168.418 1045.03C163.567 1050.64 160.081 1057.3 158.233 1064.49C156.385 1071.67 156.226 1079.18 157.768 1086.44V1086.44C158.078 1087.91 158.458 1089.36 158.898 1090.78C162.108 1100.99 168.624 1109.84 177.418 1115.93C178.138 1116.43 178.878 1116.93 179.628 1117.37C186.699 1121.69 194.773 1124.11 203.058 1124.37C205.977 1124.47 208.899 1124.31 211.788 1123.88V1123.88C214.582 1123.46 217.334 1122.79 220.008 1121.88C231.979 1117.84 241.882 1109.26 247.578 1097.98C243.431 1101.14 238.793 1103.6 233.848 1105.26C231.175 1106.18 228.424 1106.86 225.628 1107.28V1107.28Z" fill="#E66515"/>
<path d="M220.329 1043.26C220.166 1044.23 219.918 1045.19 219.589 1046.12C219.316 1046.92 218.982 1047.69 218.589 1048.43L218.399 1048.76C216.769 1051.56 214.539 1053.25 211.219 1055.22C207.605 1057.37 203.834 1059.23 199.939 1060.81C195.829 1062.49 193.279 1063.45 191.029 1064.3C188.519 1065.24 186.359 1066.05 182.839 1067.59C175.989 1070.59 173.899 1071.95 172.999 1072.59C169.849 1074.55 167.028 1076.99 164.639 1079.82C162.015 1083.07 160.07 1086.81 158.919 1090.82C158.479 1089.4 158.099 1087.95 157.789 1086.48C159.014 1083.52 160.665 1080.75 162.689 1078.26C165.234 1075.23 168.244 1072.61 171.609 1070.52C172.559 1069.89 174.789 1068.41 181.829 1065.35C185.409 1063.79 187.599 1062.97 190.139 1062.01C192.379 1061.17 194.909 1060.22 198.979 1058.55C202.761 1057.02 206.422 1055.21 209.929 1053.13C212.929 1051.32 214.869 1049.9 216.219 1047.57L216.309 1047.41C216.715 1046.67 217.05 1045.89 217.309 1045.09C217.539 1044.38 217.72 1043.66 217.849 1042.92C218.115 1041.52 218.115 1040.08 217.849 1038.68C217.179 1035.68 214.409 1033.87 211.969 1032.28C209.257 1030.52 206.259 1029.24 203.109 1028.51C204.179 1028.51 205.259 1028.51 206.339 1028.51C207.989 1028.57 209.634 1028.71 211.269 1028.94C211.979 1029.32 212.679 1029.73 213.349 1030.17C214.823 1031.08 216.207 1032.12 217.479 1033.29C218.878 1034.59 219.862 1036.27 220.309 1038.12C220.631 1039.82 220.638 1041.56 220.329 1043.26V1043.26Z" fill="#8A311F"/>
<path d="M235.68 1039.74C234.708 1043.42 233.513 1047.04 232.1 1050.57C231.87 1051.15 231.5 1052.08 230.92 1053.35C230.62 1054.04 230.26 1054.82 229.82 1055.7C227.427 1060.5 224.756 1065.15 221.82 1069.64C217.015 1077.11 211.731 1084.26 206 1091.05C197.954 1100.53 189.138 1109.32 179.64 1117.34C178.89 1116.88 178.15 1116.4 177.43 1115.9C187.049 1107.85 195.965 1098.99 204.08 1089.42C209.746 1082.72 214.971 1075.66 219.72 1068.28C222.703 1063.73 225.401 1059 227.8 1054.12C228.23 1053.22 228.59 1052.45 228.88 1051.78C229.3 1050.83 229.58 1050.11 229.77 1049.63C231.282 1045.85 232.538 1041.97 233.53 1038.02C234.26 1038.57 235 1039.18 235.68 1039.74Z" fill="#8A311F"/>
<path d="M251 1089.32C250.382 1091.56 249.6 1093.75 248.66 1095.87C249.059 1086.79 246.889 1077.78 242.4 1069.87C241.259 1067.92 239.969 1066.06 238.54 1064.31C237.9 1063.51 237.27 1062.8 236.68 1062.16C235.85 1061.26 235.09 1060.49 234.43 1059.84C232.984 1058.39 231.462 1057.01 229.87 1055.72C229.2 1055.17 228.52 1054.65 227.87 1054.14C224.962 1051.99 221.878 1050.08 218.65 1048.45C217.88 1048.07 217.12 1047.7 216.37 1047.36C209.951 1044.38 203.099 1042.43 196.07 1041.6C186.74 1040.67 177.321 1041.84 168.5 1045.02C169.66 1043.69 170.888 1042.42 172.18 1041.22V1041.22C174.409 1040.6 176.669 1040.09 178.95 1039.71C184.687 1038.73 190.528 1038.52 196.32 1039.09C201.42 1039.67 206.436 1040.84 211.27 1042.57C213.36 1043.3 215.4 1044.13 217.39 1045.04C218.16 1045.39 218.92 1045.76 219.67 1046.14C220.99 1046.8 222.29 1047.51 223.54 1048.25C225.41 1049.35 227.22 1050.54 228.95 1051.8C229.65 1052.31 230.33 1052.8 230.95 1053.37C232.788 1054.83 234.541 1056.4 236.2 1058.06C236.69 1058.55 237.27 1059.13 237.9 1059.8C238.53 1060.47 239.04 1061.03 239.66 1061.8C241.498 1063.93 243.135 1066.22 244.55 1068.65C248.21 1074.97 250.413 1082.04 251 1089.32V1089.32Z" fill="#8A311F"/>
<path d="M249.097 1058.12C248.026 1057.46 246.773 1057.15 245.517 1057.24C244.429 1057.38 243.396 1057.8 242.517 1058.46C241.322 1059.32 240.335 1060.44 239.627 1061.73C239.176 1062.55 238.795 1063.41 238.487 1064.29C238.297 1064.83 238.127 1065.37 237.967 1065.9C236.752 1070.13 236.044 1074.5 235.857 1078.9V1079C235.347 1089.06 235.097 1094.11 233.607 1099.82C232.928 1102.64 232.008 1105.4 230.857 1108.06C228.478 1113.53 224.739 1118.3 219.997 1121.92C217.323 1122.83 214.572 1123.5 211.777 1123.92C215.753 1122.15 219.341 1119.62 222.337 1116.47C228.337 1110.15 230.177 1103.05 231.167 1099.24C232.587 1093.78 232.837 1088.82 233.327 1078.92V1078.82C233.517 1074.22 234.259 1069.66 235.537 1065.23C235.836 1064.19 236.193 1063.17 236.607 1062.17C236.807 1061.7 237.037 1061.23 237.287 1060.76C237.537 1060.29 237.657 1060.11 237.847 1059.76C238.688 1058.43 239.778 1057.28 241.057 1056.37C242.294 1055.47 243.739 1054.9 245.257 1054.71C246.037 1054.64 246.822 1054.69 247.587 1054.85C248.147 1055.93 248.647 1057.02 249.097 1058.12Z" fill="#8A311F"/>
<path d="M832.449 712.64L892.129 672.91" stroke="#FFE285" stroke-width="8.11" stroke-linecap="round" stroke-linejoin="round"/>
<path d="M681.53 244.41L656.16 317.67" stroke="#FFE285" stroke-width="8.11" stroke-linecap="round" stroke-linejoin="round"/>
<path d="M687.25 318.461L663.27 354.871" stroke="#FFE285" stroke-width="8.11" stroke-linecap="round" stroke-linejoin="round"/>
<path d="M384.041 1095.7L340.461 1187.04" stroke="#FFE285" stroke-width="8.11" stroke-linecap="round" stroke-linejoin="round"/>
<path d="M418.891 1092.94L409.711 1147.09" stroke="#FFE285" stroke-width="8.11" stroke-linecap="round" stroke-linejoin="round"/>
<path d="M725.3 206.488C722.392 204.07 719.262 201.934 715.95 200.108C711.89 197.778 710.57 195.578 709.95 192.168C709.252 187.699 707.904 183.357 705.95 179.278C705.553 178.581 704.917 178.052 704.159 177.788C703.401 177.525 702.573 177.547 701.83 177.848C697.773 179.851 694.031 182.435 690.72 185.518C688.16 187.828 685.72 188.748 681.13 188.068C677.4 187.452 673.62 187.191 669.84 187.288C669.428 187.293 669.023 187.387 668.651 187.565C668.28 187.744 667.953 188.001 667.691 188.319C667.43 188.637 667.242 189.009 667.14 189.408C667.038 189.807 667.024 190.223 667.1 190.628C667.991 194.964 669.507 199.148 671.6 203.048C673.18 206.048 673 208.298 671.6 211.558C669.67 215.898 668 219.558 667.06 222.558C666.37 224.718 668.3 226.558 670.57 226.638C674.551 226.819 678.539 226.742 682.51 226.408C684.096 226.258 685.695 226.418 687.22 226.878C688.703 227.461 690.061 228.324 691.22 229.418C694.138 232.133 697.224 234.661 700.46 236.988C702.3 238.318 704.95 238.078 705.75 235.988C706.83 233.088 707.75 229.168 708.95 224.568C709.83 221.098 711.07 219.248 714.18 217.848C718.239 216.076 722.016 213.717 725.39 210.848C725.712 210.58 725.969 210.243 726.143 209.862C726.317 209.48 726.403 209.065 726.394 208.646C726.385 208.227 726.283 207.816 726.093 207.442C725.904 207.069 725.633 206.742 725.3 206.488V206.488Z" fill="#EAE451"/>
<path d="M940.838 666.51C940.134 663.558 939.153 660.678 937.908 657.91C936.418 654.45 936.638 652.41 937.908 649.91C939.617 646.703 940.847 643.263 941.558 639.7C941.653 639.061 941.499 638.41 941.128 637.88C940.771 637.347 940.23 636.962 939.608 636.8C936.035 636.128 932.383 635.983 928.768 636.37C926.008 636.62 924.028 636.06 921.378 633.37C919.274 631.181 916.971 629.192 914.498 627.43C914.231 627.236 913.925 627.102 913.6 627.039C913.276 626.975 912.941 626.983 912.62 627.062C912.3 627.141 912 627.289 911.742 627.496C911.484 627.703 911.275 627.964 911.128 628.26C909.612 631.473 908.567 634.888 908.028 638.4C907.588 641.11 906.408 642.4 903.898 643.85C900.568 645.71 897.728 647.26 895.698 648.7C894.218 649.75 894.578 651.86 895.988 653.02C898.466 655.05 901.068 656.924 903.778 658.63C904.866 659.293 905.814 660.163 906.568 661.19C907.239 662.28 907.694 663.489 907.908 664.75C908.471 667.899 909.232 671.008 910.188 674.06C910.738 675.81 912.548 676.93 914.088 675.95C916.178 674.61 918.678 672.55 921.648 670.16C923.888 668.35 925.578 667.76 928.248 668.36C931.704 669.182 935.262 669.496 938.808 669.29C939.134 669.264 939.451 669.168 939.736 669.009C940.021 668.849 940.269 668.63 940.461 668.366C940.654 668.102 940.788 667.8 940.853 667.479C940.918 667.159 940.913 666.828 940.838 666.51V666.51Z" fill="#EAE451"/>
<path d="M317.62 1231.99C319.98 1231.17 322.257 1230.14 324.42 1228.89C327.13 1227.39 328.83 1227.4 330.95 1228.24C333.716 1229.38 336.634 1230.11 339.61 1230.41C340.14 1230.42 340.657 1230.25 341.064 1229.91C341.471 1229.57 341.74 1229.09 341.82 1228.57C342.083 1225.59 341.908 1222.59 341.3 1219.66C340.86 1217.42 341.17 1215.75 343.14 1213.37C344.76 1211.46 346.203 1209.42 347.45 1207.25C347.588 1207.01 347.671 1206.75 347.694 1206.47C347.717 1206.2 347.68 1205.92 347.584 1205.67C347.489 1205.41 347.337 1205.18 347.141 1204.99C346.945 1204.79 346.709 1204.65 346.45 1204.56C343.699 1203.57 340.818 1202.99 337.9 1202.84C335.65 1202.7 334.45 1201.84 333.1 1199.9C331.31 1197.33 329.81 1195.12 328.46 1193.58C327.46 1192.45 325.78 1192.92 324.95 1194.17C323.474 1196.36 322.138 1198.64 320.95 1201C320.494 1201.94 319.859 1202.79 319.08 1203.5C318.242 1204.13 317.292 1204.6 316.28 1204.88C313.743 1205.59 311.254 1206.47 308.83 1207.51C307.45 1208.09 306.68 1209.68 307.6 1210.85C308.87 1212.46 310.76 1214.34 312.96 1216.58C314.62 1218.26 315.24 1219.58 314.96 1221.83C314.574 1224.73 314.611 1227.67 315.07 1230.56C315.112 1230.84 315.217 1231.1 315.377 1231.34C315.537 1231.57 315.749 1231.76 315.995 1231.9C316.241 1232.04 316.515 1232.12 316.797 1232.13C317.079 1232.15 317.36 1232.1 317.62 1231.99V1231.99Z" fill="#EAE451"/>
<path d="M398.931 1163.09C398.666 1164.79 398.559 1166.51 398.611 1168.23C398.709 1169.01 398.603 1169.81 398.303 1170.54C398.004 1171.27 397.521 1171.91 396.901 1172.4C395.321 1173.71 393.937 1175.25 392.791 1176.95C392.613 1177.27 392.555 1177.64 392.629 1178C392.702 1178.35 392.902 1178.67 393.191 1178.89C394.917 1180.01 396.797 1180.87 398.771 1181.45C399.534 1181.66 400.231 1182.05 400.797 1182.6C401.362 1183.16 401.777 1183.84 402.001 1184.6C402.626 1186.2 403.403 1187.74 404.321 1189.19C404.419 1189.35 404.55 1189.49 404.706 1189.59C404.862 1189.69 405.039 1189.76 405.224 1189.79C405.409 1189.82 405.597 1189.8 405.777 1189.75C405.956 1189.7 406.121 1189.6 406.261 1189.48C407.744 1188.12 409.024 1186.56 410.061 1184.84C410.392 1184.24 410.875 1183.74 411.462 1183.39C412.048 1183.04 412.718 1182.85 413.401 1182.84C415.541 1182.58 417.401 1182.38 418.731 1182.07C418.957 1181.99 419.162 1181.87 419.33 1181.7C419.499 1181.53 419.626 1181.33 419.701 1181.1C419.777 1180.87 419.799 1180.63 419.766 1180.4C419.733 1180.16 419.646 1179.94 419.511 1179.74C418.652 1178.15 417.693 1176.61 416.641 1175.13C416.214 1174.55 415.904 1173.89 415.731 1173.19C415.611 1172.48 415.635 1171.75 415.801 1171.04C416.181 1169.27 416.448 1167.48 416.601 1165.68C416.691 1164.68 415.981 1163.68 414.971 1163.85C413.591 1164.1 411.831 1164.64 409.771 1165.25C409.146 1165.52 408.461 1165.61 407.787 1165.53C407.113 1165.44 406.472 1165.18 405.931 1164.77C404.296 1163.6 402.501 1162.68 400.601 1162.02C400.421 1161.96 400.23 1161.94 400.041 1161.97C399.853 1161.99 399.672 1162.06 399.512 1162.16C399.353 1162.26 399.217 1162.4 399.117 1162.56C399.016 1162.72 398.953 1162.9 398.931 1163.09V1163.09Z" fill="#EAE451"/>
<path d="M752.341 266.279C751.176 264.137 749.813 262.108 748.271 260.219C746.391 257.849 746.131 256.219 746.601 254.039C747.264 251.197 747.504 248.272 747.311 245.359C747.249 244.846 746.995 244.374 746.601 244.039C746.217 243.689 745.711 243.503 745.191 243.519C742.283 243.743 739.423 244.39 736.701 245.439C734.611 246.209 732.951 246.179 730.341 244.659C728.254 243.401 726.055 242.34 723.771 241.489C723.524 241.392 723.258 241.35 722.993 241.367C722.728 241.384 722.47 241.459 722.237 241.587C722.004 241.715 721.802 241.892 721.646 242.107C721.489 242.322 721.382 242.568 721.331 242.829C720.819 245.64 720.721 248.51 721.041 251.349C721.261 253.539 720.621 254.829 718.971 256.429C716.771 258.569 714.881 260.369 713.611 261.899C712.681 263.029 713.401 264.589 714.741 265.189C717.083 266.255 719.491 267.167 721.951 267.919C722.933 268.212 723.85 268.691 724.651 269.329C725.399 270.031 726 270.874 726.421 271.809C727.519 274.134 728.762 276.389 730.141 278.559C730.931 279.799 732.571 280.289 733.561 279.209C734.901 277.739 736.411 275.619 738.221 273.139C739.581 271.279 740.761 270.469 742.961 270.379C745.815 270.289 748.641 269.787 751.351 268.889C751.603 268.802 751.832 268.66 752.023 268.475C752.214 268.289 752.362 268.064 752.456 267.815C752.55 267.566 752.589 267.3 752.569 267.034C752.549 266.769 752.472 266.511 752.341 266.279V266.279Z" fill="#EAE451"/>
<g opacity="0.2">
<path opacity="0.2" d="M149.1 822.79C373.15 888.98 76.2197 1048.65 257.75 1184.55C316.37 1228.43 430.39 1140.71 540.75 1172.27C641.59 1201.1 665.99 1278.06 753.8 1255.67C834.8 1235.01 792.5 1129.82 895.34 1022.49C932.85 983.35 876.56 913.85 947.81 877.77C1036.46 832.87 1079.25 738.89 905.48 683.77C756.58 635.56 857.2 452.66 764 413.01C704.18 387.55 626.48 442.6 557.46 467.46C488.44 492.32 378 352.99 318.7 444.54C262.24 542 284.77 557.54 167.95 594.82C-7.37031 650.83 19.4897 784.5 149.1 822.79Z" fill="#08A4FA"/>
<path opacity="0.2" d="M228.771 274.82C237.326 274.82 244.261 267.885 244.261 259.33C244.261 250.775 237.326 243.84 228.771 243.84C220.216 243.84 213.281 250.775 213.281 259.33C213.281 267.885 220.216 274.82 228.771 274.82Z" fill="#08A4FA"/>
<path opacity="0.2" d="M1047.41 956.3C1057.52 956.3 1065.72 948.102 1065.72 937.99C1065.72 927.877 1057.52 919.68 1047.41 919.68C1037.3 919.68 1029.1 927.877 1029.1 937.99C1029.1 948.102 1037.3 956.3 1047.41 956.3Z" fill="#08A4FA"/>
<path opacity="0.2" d="M120.79 181.092C141.197 181.092 157.74 164.548 157.74 144.141C157.74 123.734 141.197 107.191 120.79 107.191C100.383 107.191 83.8398 123.734 83.8398 144.141C83.8398 164.548 100.383 181.092 120.79 181.092Z" fill="#08A4FA"/>
<path opacity="0.2" d="M853.48 290.343C870.816 290.343 884.87 276.289 884.87 258.952C884.87 241.616 870.816 227.562 853.48 227.562C836.144 227.562 822.09 241.616 822.09 258.952C822.09 276.289 836.144 290.343 853.48 290.343Z" fill="#08A4FA"/>
<path opacity="0.2" d="M113.581 1328.41C124.881 1328.41 134.041 1319.25 134.041 1307.95C134.041 1296.65 124.881 1287.49 113.581 1287.49C102.281 1287.49 93.1211 1296.65 93.1211 1307.95C93.1211 1319.25 102.281 1328.41 113.581 1328.41Z" fill="#08A4FA"/>
</g>
<path opacity="0.2" d="M498.568 1133.47C684.87 1133.47 835.898 982.433 835.898 796.12C835.898 609.806 684.87 458.77 498.568 458.77C312.266 458.77 161.238 609.806 161.238 796.12C161.238 982.433 312.266 1133.47 498.568 1133.47Z" fill="#08A4FA"/>
<path d="M493.922 1073.08C645.474 1073.08 768.332 950.212 768.332 798.649C768.332 647.085 645.474 524.219 493.922 524.219C342.369 524.219 219.512 647.085 219.512 798.649C219.512 950.212 342.369 1073.08 493.922 1073.08Z" stroke="white" stroke-width="23" stroke-linecap="round" stroke-linejoin="round" stroke-dasharray="6 32"/>
<path d="M441.1 1038.53C474.1 1031.93 495.76 1005.53 503.68 973.011C512.68 936.111 512.95 714.131 503.68 651.391C498.79 618.311 473.9 593.561 441.1 585.871C389.86 573.871 292.1 573.871 237.26 585.871C204.35 593.081 179.73 618.331 174.68 651.391C165.09 714.131 167.02 934.391 174.68 973.011C181.19 1005.81 204.25 1031.78 237.26 1038.53C287.33 1048.78 391.27 1048.5 441.1 1038.53Z" fill="#296BC4"/>
<path d="M421.421 966.76C449.571 962.91 471.211 945.76 474.491 924.12C483.401 865.25 483.401 714.98 474.491 656.12C471.211 634.5 449.321 618.81 421.421 613.48C370.961 603.86 304.541 605.09 256.901 613.48C228.901 618.41 207.101 634.48 203.831 656.12C195.101 713.75 195.831 890.49 203.831 924.12C208.891 945.39 228.831 962.6 256.901 966.76C292.521 972.02 382.701 972.05 421.421 966.76Z" fill="#87D7FF"/>
<path d="M190.492 790.688C188.002 778.848 187.162 773.688 176.172 764.398C165.182 755.108 165.702 756.338 160.972 749.048C160.972 749.048 156.632 743.868 153.922 750.048C151.212 756.228 157.582 765.318 157.582 765.318C157.582 765.318 130.262 750.408 120.582 747.118C120.582 747.118 114.252 746.118 114.752 750.738C115.252 755.358 136.752 767.448 136.752 767.448C136.752 767.448 116.402 759.448 112.022 759.158C107.642 758.868 105.902 761.158 106.022 762.968C106.142 764.778 106.912 768.968 116.782 772.838C116.782 772.838 135.542 780.208 140.132 782.768C140.132 782.768 114.712 775.318 109.812 775.588C104.692 775.878 104.992 779.078 105.092 780.678C105.192 782.278 106.422 784.958 113.482 787.008C120.542 789.058 128.852 792.178 139.572 794.928C139.572 794.928 124.422 794.648 119.682 796.838C114.942 799.028 114.682 803.048 117.452 804.568C120.222 806.088 128.532 805.768 133.892 806.108C140.342 806.518 139.712 804.858 145.632 808.288C152.624 812.455 160.592 814.704 168.732 814.808C168.732 814.808 185.732 856.888 190.912 859.518C196.092 862.148 229.122 862.088 226.332 852.288C222.812 840.108 193.662 805.768 190.492 790.688Z" fill="#EA9F67"/>
<path d="M160.331 772.791C159.151 777.891 160.251 784.221 160.251 784.221C162.251 796.871 167.191 797.221 167.191 797.221C159.731 785.731 164.491 772.011 164.491 772.011C161.62 769.78 159.07 767.166 156.911 764.241C157.311 764.901 157.581 765.301 157.581 765.301C157.581 765.301 155.421 764.151 152.051 762.391C154.346 766.203 157.129 769.699 160.331 772.791Z" fill="#E08542"/>
<path d="M143.56 800.638C143.42 789.188 146.89 770.418 146.89 770.418C140.98 767.898 130.36 763.018 126.89 761.418C131.99 764.738 136.75 767.418 136.75 767.418C136.75 767.418 129.52 764.568 122.75 762.208C129.56 766.138 142.91 772.338 142.91 772.338C138.93 796.998 143.56 800.638 143.56 800.638Z" fill="#E08542"/>
<path d="M136 781.599C138.56 782.124 141.043 782.971 143.39 784.12L143.52 787.12C139.214 785.18 135.033 782.976 131 780.52L136 781.599Z" fill="#E08542"/>
<path d="M134.859 794.799C137.592 794.732 140.326 794.906 143.029 795.319C143.029 795.319 143.159 798.319 142.839 798.319C142.519 798.319 132.379 794.839 132.379 794.839L134.859 794.799Z" fill="#E08542"/>
<path d="M316.252 751.39C331.152 765.74 332.452 775.01 296.592 818.79C271.002 850.08 233.702 906.98 210.752 883.61C191.442 863.96 228.332 820.52 264.532 776.73C290.292 745.57 306.942 742.43 316.252 751.39Z" fill="#F89A00"/>
<path d="M234.54 884.989C222.93 893.689 210.09 889.329 184.43 859.919C175.93 850.169 160.55 829.709 158.34 820.169C158.34 820.169 163.52 811.549 174.84 803.319C181.61 798.389 192.84 789.489 197.99 792.939C197.99 792.939 218.64 819.459 226.46 828.439C258 864.649 246.14 876.299 234.54 884.989Z" fill="#F89A00"/>
<path d="M267.892 855.081C267.892 855.081 265.132 842.181 269.002 803.621C269.002 803.621 254.522 818.111 260.252 863.881L267.892 855.081Z" fill="#F88100"/>
<path d="M359.888 752.292C378.218 742.712 399.508 756.722 432.648 809.292C456.318 846.842 496.178 901.642 466.648 915.932C441.838 927.932 403.018 889.642 369.988 836.732C346.518 799.072 348.428 758.282 359.888 752.292Z" fill="#F89A00"/>
<path d="M417 953.181C415 939.831 405.75 919.381 404.66 899.851C403.78 884.161 405.16 857.851 405.16 840.851C405.16 823.851 403.07 801.961 398.97 787.581C388.29 750.171 365.48 739.581 338.61 738.861L335.71 738.801C335.06 738.801 330.8 739.001 330.71 739.001C305.33 740.511 284 751.771 273.78 787.581C269.68 801.961 267.59 823.981 267.59 840.851C267.59 857.721 268.97 884.121 268.09 899.851C267 919.381 257.8 939.851 255.75 953.181C255.14 957.121 255.16 960.451 256.2 962.941C257.24 965.431 260.49 967.441 265.09 968.821C282.43 974.041 319.39 975.761 335.51 975.821H337.2C353.32 975.721 390.28 974.001 407.62 968.821C412.22 967.441 415.44 965.541 416.51 962.941C417.58 960.341 417.63 957.091 417 953.181Z" fill="#EAF0F4"/>
<path d="M300.281 747.899L300.761 747.609L300.281 747.899Z" fill="#E1E8EB"/>
<path d="M303.801 745.879L304.801 745.379L303.801 745.879Z" fill="#E1E8EB"/>
<path d="M308.4 743.72C307.56 751.84 306.4 764.55 305.27 779.1C308.366 781.321 312.06 782.555 315.87 782.64C316.649 782.642 317.428 782.585 318.2 782.47C325.41 781.37 333.05 769.98 336.89 763.47C340.73 770.02 348.37 781.41 355.59 782.47C356.357 782.585 357.133 782.642 357.91 782.64V782.64C361.392 782.565 364.782 781.508 367.69 779.59C366.57 764.89 365.38 752.04 364.52 743.83C361.84 742.73 361.93 742.14 359.08 741.43C358.25 742.85 357.57 747.05 353.3 749.67C347.6 753.16 338.98 756.88 336.92 757.96C334.86 756.88 329.52 756.78 323.82 753.29C319.31 750.53 315.6 743.78 314.82 742.43C311.67 743.16 311.16 742.58 308.22 743.78L308.4 743.72Z" fill="#C3CFD5"/>
<path d="M306.419 767.18C306.419 767.18 297.629 794.59 302.279 870.1C302.279 870.1 304.869 804.94 310.559 772.87L306.419 767.18Z" fill="#C3CFD5"/>
<path d="M361.408 746.049C361.408 742.389 357.688 740.299 351.968 739.189C351.898 735.029 351.758 731.249 351.758 729.189C351.758 716.109 344.888 711.609 336.408 711.609C327.928 711.609 321.068 716.109 321.068 729.189C321.068 731.129 320.998 735.349 321.068 739.899C315.728 741.239 312.148 743.309 312.148 746.089C312.148 754.209 322.578 756.729 334.798 757.879C335.519 757.958 336.243 757.998 336.968 757.999C337.603 757.997 338.238 757.96 338.868 757.889C351.138 756.829 361.408 754.229 361.408 746.049Z" fill="#DB8442"/>
<path d="M302.508 942.798C304.678 902.018 301.958 890.148 301.958 845.238C301.958 810.288 306.238 763.798 308.398 744.148C292.398 750.358 277.798 762.318 270.398 786.898C266.088 801.248 264.398 821.678 264.398 838.528C264.398 855.378 266.948 884.288 266.028 899.958C264.878 919.448 255.198 939.868 253.028 953.188C252.388 957.128 252.408 960.438 253.498 962.928C254.588 965.418 258.018 967.418 262.858 968.798C271.858 971.368 285.858 973.078 299.738 974.178L300.298 973.778C302.508 967.578 302.508 942.798 302.508 942.798Z" fill="#F89A00"/>
<path d="M370.12 942.739C368.06 901.889 370.64 889.989 370.64 844.999C370.64 809.999 366.57 763.409 364.52 743.719C379.77 749.939 392.06 762.959 399.08 787.589C403.19 801.969 405.27 823.989 405.27 840.859C405.27 857.729 403.9 884.129 404.77 899.859C405.86 919.389 415.06 939.859 417.11 953.189C417.72 957.129 417.7 960.459 416.67 962.949C415.64 965.439 412.37 967.449 407.78 968.829C399.24 971.399 385.95 973.119 372.78 974.219L372.24 973.809C370.12 967.569 370.12 942.739 370.12 942.739Z" fill="#F89A00"/>
<path d="M365.218 767.18C365.218 767.18 374.008 794.59 369.358 870.1C369.358 870.1 366.768 804.94 361.078 772.87L365.218 767.18Z" fill="#C3CFD5"/>
<path d="M308.271 743.779C307.091 744.269 291.481 751.169 290.521 752.229C290.281 752.489 287.161 754.379 287.051 754.499C289.661 760.289 297.311 773.739 305.271 779.099C306.371 764.549 307.561 751.839 308.401 743.719L308.271 743.779Z" fill="#E18055"/>
<path d="M364.531 743.828C365.391 752.038 366.581 764.888 367.701 779.588C375.751 774.588 384.521 761.438 386.521 754.588C385.681 754.008 382.171 751.808 382.171 751.808C376.711 748.458 370.501 746.278 364.531 743.828Z" fill="#E18055"/>
<path d="M312.53 740.419C312.952 740.306 313.399 740.344 313.796 740.527C314.192 740.71 314.512 741.025 314.7 741.419C315.59 743.419 317.97 746.869 323.23 750.089C331.23 754.999 336.93 757.839 336.93 757.839C336.93 757.839 326.33 778.529 317.8 779.839C303.95 781.939 292.59 760.749 290.23 754.029C290.026 753.452 289.995 752.828 290.143 752.234C290.29 751.64 290.609 751.103 291.06 750.689C293.66 748.309 300.05 743.619 312.53 740.419Z" fill="#EAF0F4"/>
<path d="M361.252 740.418C360.831 740.306 360.385 740.345 359.991 740.528C359.596 740.71 359.278 741.025 359.092 741.418C358.192 743.418 355.812 746.868 350.562 750.088C342.562 754.998 336.852 757.838 336.852 757.838C336.852 757.838 347.452 778.528 355.992 779.838C369.832 781.938 381.202 760.748 383.552 754.028C383.761 753.453 383.795 752.828 383.649 752.234C383.503 751.639 383.184 751.101 382.732 750.688C380.132 748.308 373.732 743.618 361.252 740.418Z" fill="#EAF0F4"/>
<path d="M225.142 826.848C225.142 826.848 217.472 837.498 214.632 843.058C214.632 843.058 210.922 840.168 219.972 820.648L225.142 826.848Z" fill="#F88100"/>
<path d="M261.079 925.328C269.943 929.525 279.717 931.436 289.509 930.888C289.727 930.874 289.944 930.906 290.149 930.981C290.353 931.056 290.54 931.173 290.696 931.325C290.852 931.477 290.975 931.659 291.057 931.861C291.138 932.063 291.177 932.28 291.169 932.498L290.889 938.418C290.871 938.821 290.695 939.201 290.4 939.476C290.104 939.751 289.713 939.899 289.309 939.888C284.599 939.818 269.749 939.148 258.579 933.778C258.579 933.778 258.239 931.538 261.079 925.328Z" fill="#F88100"/>
<path d="M409.669 925.328C400.805 929.525 391.031 931.436 381.239 930.888C381.022 930.874 380.804 930.906 380.599 930.981C380.395 931.056 380.208 931.173 380.052 931.325C379.896 931.477 379.773 931.659 379.691 931.861C379.61 932.063 379.572 932.28 379.579 932.498L379.859 938.418C379.877 938.821 380.053 939.201 380.349 939.476C380.644 939.751 381.036 939.899 381.439 939.888C386.159 939.818 400.999 939.148 412.169 933.778C412.169 933.778 412.509 931.538 409.669 925.328Z" fill="#F88100"/>
<path d="M486.888 755.299C487.895 754.867 488.692 754.057 489.108 753.044C489.525 752.031 489.529 750.895 489.118 749.879C488.649 748.888 487.893 748.06 486.948 747.504C486.003 746.948 484.913 746.688 483.818 746.759C484.758 745.759 484.208 743.959 483.028 743.259C482.404 742.963 481.724 742.805 481.034 742.797C480.343 742.788 479.659 742.929 479.028 743.209C479.057 742.625 478.954 742.043 478.728 741.503C478.503 740.964 478.159 740.482 477.723 740.093C477.287 739.704 476.769 739.417 476.207 739.254C475.646 739.09 475.055 739.055 474.478 739.149C421.388 743.629 406.218 776.039 406.218 776.039C365.878 759.489 332.698 782.329 332.698 782.329C331.148 783.199 329.338 783.709 329.078 786.559C329.048 786.965 329.1 787.374 329.233 787.759C329.365 788.144 329.575 788.498 329.848 788.799C327.618 788.669 325.098 792.069 325.628 794.249C325.723 794.491 325.741 794.757 325.678 795.009C325.558 795.299 325.188 795.359 324.938 795.549C323.583 796.479 322.63 797.887 322.268 799.489C321.638 802.199 322.958 802.669 324.168 803.279C326.528 804.469 329.958 802.109 332.508 801.379C350.795 796.094 369.82 793.814 388.838 794.629C393.928 794.859 399.058 795.299 404.098 794.569C412.298 793.399 419.718 789.239 426.988 785.259C446.698 774.469 465.628 762.569 486.888 755.299Z" fill="white" stroke="#E5EAE4" stroke-width="2.77" stroke-linecap="round" stroke-linejoin="round"/>
<path d="M418.001 780.869C418.001 780.869 434.161 760.179 485.521 750.179C485.521 750.179 492.761 747.079 493.801 756.039C494.841 764.999 507.591 865.039 507.591 867.749C507.591 870.459 506.211 871.889 503.801 873.269C501.391 874.649 484.151 876.719 440.021 890.849C440.021 890.849 435.531 900.509 419.021 897.409C419.021 897.409 366.961 903.609 350.021 912.229C350.021 912.229 345.201 913.609 344.511 907.399C343.821 901.189 321.411 806.729 321.411 806.729C321.411 806.729 321.061 801.899 326.231 798.799C334.041 794.109 359.331 780.179 399.671 786.039C399.681 786.039 411.831 785.699 418.001 780.869Z" fill="#009CEA"/>
<path d="M418 780.868C411.88 785.698 399.73 786.038 399.73 786.038L399.32 785.988L419.1 897.418C435.55 900.418 440.02 890.848 440.02 890.848L440.23 890.788C436.55 870.428 424.42 804.618 419.69 778.988C419.096 779.587 418.532 780.214 418 780.868V780.868Z" fill="#0082EA"/>
<path d="M321.929 807.561C321.576 807.557 321.231 807.46 320.929 807.281C320.695 807.151 320.489 806.975 320.324 806.765C320.159 806.554 320.038 806.313 319.968 806.054C319.898 805.796 319.881 805.526 319.917 805.261C319.953 804.996 320.042 804.741 320.179 804.511C325.259 795.671 358.459 778.061 399.789 784.001C401.209 783.931 411.349 783.341 416.549 779.391C418.549 777.141 436.859 757.681 490.029 749.041C490.293 748.992 490.565 748.997 490.827 749.056C491.089 749.115 491.337 749.226 491.556 749.383C491.774 749.54 491.959 749.739 492.098 749.969C492.238 750.199 492.33 750.454 492.369 750.721C492.417 750.985 492.412 751.257 492.353 751.519C492.294 751.781 492.183 752.029 492.026 752.248C491.869 752.466 491.67 752.651 491.44 752.79C491.21 752.93 490.955 753.022 490.689 753.061C436.899 761.801 419.689 781.961 419.529 782.161C419.438 782.276 419.334 782.38 419.219 782.471C412.649 787.651 400.269 788.061 399.749 788.081C399.629 788.081 399.509 788.081 399.399 788.081C358.059 782.081 327.349 800.231 323.709 806.561C323.529 806.872 323.269 807.129 322.956 807.305C322.643 807.481 322.288 807.569 321.929 807.561V807.561Z" fill="#0082EA"/>
<path d="M435.909 786.24C442.259 782.54 461.479 772.24 479.999 770.65C480.954 770.539 481.914 770.799 482.683 771.376C483.451 771.953 483.969 772.803 484.129 773.75L486.559 791.51C486.677 792.436 486.43 793.371 485.87 794.118C485.31 794.865 484.481 795.364 483.559 795.51C476.469 796.87 459.509 800.83 443.139 809.95C442.625 810.247 442.049 810.419 441.457 810.452C440.864 810.486 440.272 810.381 439.728 810.145C439.183 809.908 438.702 809.548 438.322 809.092C437.942 808.636 437.674 808.098 437.539 807.52L434.169 789.96C434.029 789.236 434.122 788.485 434.434 787.817C434.747 787.149 435.263 786.597 435.909 786.24V786.24Z" fill="#EAE451"/>
<path d="M465.861 864.758C463.631 858.958 458.861 855.428 452.461 854.158C445.361 852.758 436.801 853.078 430.631 856.858C428.871 857.928 427.101 859.338 426.581 861.328C426.061 863.318 427.491 865.868 429.581 865.708C429.581 865.708 423.301 868.288 424.321 872.508C425.341 876.728 430.581 877.268 430.581 877.268C430.581 877.268 423.771 876.858 423.581 882.028C423.391 887.198 432.081 888.288 432.081 888.288C432.081 888.288 426.431 887.468 426.161 892.288C425.971 895.578 430.511 896.378 437.991 900.188C439.824 901.121 441.303 902.627 442.201 904.478C444.9 908.404 448.74 911.407 453.201 913.078C457.411 914.718 464.611 913.638 468.711 906.878C471.641 902.048 471.661 896.598 471.301 887.218C470.851 877.688 465.861 864.758 465.861 864.758Z" fill="#EA9F67"/>
<path d="M429.371 877.3C429.764 877.28 430.158 877.28 430.551 877.3L430.001 877.18L429.371 877.3Z" fill="#F5B17E"/>
<path d="M442.932 863.178C450.112 863.258 453.932 864.618 453.932 864.618C453.932 864.618 453.122 861.418 446.522 860.698C441.982 860.208 432.722 860.588 426.922 863.978C427.128 864.51 427.493 864.966 427.967 865.284C428.441 865.602 429.001 865.768 429.572 865.758C429.572 865.758 429.092 865.968 428.442 866.328L428.562 866.408C428.562 866.408 435.762 863.058 442.932 863.178Z" fill="#E08542"/>
<path d="M430.001 877.18C433.371 876.601 436.793 876.373 440.211 876.5C444.111 876.61 449.941 876.94 454.871 879.5C454.871 879.5 453.871 875.72 447.661 874.39C440.508 873.026 433.135 873.368 426.141 875.39C427.266 876.286 428.589 876.9 430.001 877.18V877.18Z" fill="#E08542"/>
<path d="M451.08 895.992C450.806 894.64 450.25 893.363 449.446 892.242C448.643 891.122 447.612 890.184 446.42 889.492C440.291 886.058 433.132 884.944 426.25 886.352C428.044 887.349 430.007 888.006 432.04 888.292C431.578 888.25 431.112 888.25 430.65 888.292C433.39 888.412 441.65 888.992 445.65 891.632C450.4 894.802 451.08 895.992 451.08 895.992Z" fill="#E08542"/>
<path d="M415.219 651.679C440.919 706.179 378.369 732.279 348.739 733.219C276.789 735.499 264.649 695.579 264.649 695.579C264.649 695.579 253.759 697.359 248.589 692.579C234.859 680.009 237.029 666.699 243.889 664.309C249.969 662.189 259.999 671.069 259.999 671.069C259.999 671.069 258.189 667.699 257.499 665.859C254.499 660.479 238.649 630.599 250.279 597.449C262.999 561.179 301.339 542.179 335.159 543.069C365.909 543.879 399.899 561.339 413.109 593.589C421.869 614.989 417.399 642.889 415.219 651.679Z" fill="#EA9F67"/>
<path d="M314.501 652.071C314.451 658.851 318.051 666.121 324.641 666.611C329.241 666.951 333.171 661.491 333.421 654.401C333.671 647.311 329.421 640.651 324.831 640.301C317.811 639.781 314.551 645.701 314.501 652.071Z" fill="#38261D"/>
<path d="M364.43 648.49C364.38 655.27 367.98 662.54 374.58 663.03C379.17 663.37 383.1 657.91 383.35 650.82C383.6 643.73 379.35 637.07 374.77 636.73C367.74 636.18 364.48 642.18 364.43 648.49Z" fill="#38261D"/>
<path d="M370.211 689.338C365.591 690.908 356.131 693.508 347.111 692.758C335.371 691.758 320.901 681.028 320.771 681.388C318.611 687.488 325.351 709.388 343.841 711.098C363.141 712.878 373.631 688.178 370.211 689.338Z" fill="#C9366D"/>
<path d="M356.67 662C358.206 662.619 359.484 663.743 360.295 665.187C361.106 666.63 361.401 668.307 361.13 669.94C360.841 671.305 360.162 672.558 359.175 673.545C358.188 674.532 356.936 675.211 355.57 675.5" stroke="#D17126" stroke-width="4.36" stroke-linecap="round" stroke-linejoin="round"/>
<path d="M382.66 615.778C381.852 614.28 380.624 613.05 379.126 612.242C377.628 611.433 375.926 611.081 374.23 611.228C369.57 611.698 367.45 615.908 367.34 616.148" stroke="#38261D" stroke-width="4.36" stroke-linecap="round" stroke-linejoin="round"/>
<path d="M325.492 620.439C324.686 618.939 323.458 617.708 321.96 616.899C320.461 616.091 318.758 615.739 317.062 615.889C312.402 616.359 310.282 620.569 310.172 620.809" stroke="#38261D" stroke-width="4.36" stroke-linecap="round" stroke-linejoin="round"/>
<path d="M322.749 650.279C324.058 650.279 325.119 649.218 325.119 647.909C325.119 646.6 324.058 645.539 322.749 645.539C321.44 645.539 320.379 646.6 320.379 647.909C320.379 649.218 321.44 650.279 322.749 650.279Z" fill="white"/>
<path d="M371.26 647.349C372.569 647.349 373.631 646.288 373.631 644.979C373.631 643.67 372.569 642.609 371.26 642.609C369.952 642.609 368.891 643.67 368.891 644.979C368.891 646.288 369.952 647.349 371.26 647.349Z" fill="white"/>
<path d="M407.783 682.693C409.232 676.617 404.772 670.347 397.821 668.688C390.869 667.03 384.059 670.611 382.609 676.686C381.16 682.762 385.62 689.032 392.571 690.691C399.522 692.349 406.333 688.769 407.783 682.693Z" fill="#EA7467"/>
<path d="M314.099 685.685C315.549 679.609 311.089 673.339 304.137 671.681C297.186 670.022 290.375 673.603 288.926 679.679C287.476 685.754 291.936 692.024 298.887 693.683C305.839 695.342 312.649 691.761 314.099 685.685Z" fill="#EA7467"/>
<path d="M209.598 620.23C210.698 655.81 217.768 673.42 218.898 707.69C220.148 745.38 216.818 741.84 231.598 741.43C270.398 740.36 321.408 731.85 321.408 731.85C321.408 731.85 304.998 728.18 302.998 727.54C271.208 716.99 264.648 695.54 264.648 695.54C264.648 695.54 253.748 697.32 248.588 692.54C234.858 679.97 237.028 666.661 243.878 664.271C247.578 662.981 252.728 665.76 256.198 668.13C259.328 670.52 262.198 673.57 265.388 676.42C265.388 676.42 263.808 669.671 262.388 665.701C261.481 663.032 260.812 660.287 260.388 657.5C259.678 647.71 266.388 639.24 272.078 634.31C286.588 621.68 304.658 616.1 318.728 602.97C328.868 593.52 338.048 581.97 341.568 568.53C342.098 569.53 342.648 570.53 343.248 571.53C351.578 585.33 366.788 595.79 380.168 603.8C387.578 608.23 395.998 612.861 403.318 617.461C408.198 620.531 417.268 628.89 417.568 637.61C417.092 642.323 416.31 646.999 415.228 651.61C436.288 696.27 393.688 722.93 362.908 731.23C362.508 731.34 437.058 713.091 435.758 706.891C432.148 689.661 425.888 656.36 429.088 646.37C436.208 624.15 438.278 605.23 430.798 583.51C417.278 544.24 381.108 522.25 341.388 516.76C309.538 512.35 274.568 515.371 247.848 534.76C221.128 554.15 208.598 587.78 209.598 620.23Z" fill="#402511"/>
<path d="M765.501 484.031H633.351C605.295 484.031 582.551 506.775 582.551 534.831V666.991C582.551 695.047 605.295 717.791 633.351 717.791H765.501C793.557 717.791 816.301 695.047 816.301 666.991V534.831C816.301 506.775 793.557 484.031 765.501 484.031Z" fill="#FF8AC3"/>
<path d="M808.22 876.629H676.07C648.014 876.629 625.27 899.373 625.27 927.429V1059.59C625.27 1087.65 648.014 1110.39 676.07 1110.39H808.22C836.276 1110.39 859.02 1087.65 859.02 1059.59V927.429C859.02 899.373 836.276 876.629 808.22 876.629Z" fill="#EFE929"/>
<path d="M684.463 694.709C700.313 671.789 701.233 657.079 700.863 649.409C700.533 642.669 699.783 627.129 687.983 620.529C680.063 616.099 669.933 617.249 663.043 620.929C653.593 625.929 650.503 635.629 647.633 644.599C645.561 651.189 644.44 658.042 644.303 664.949C643.703 676.669 636.163 693.949 604.203 717.229L623.143 748.019C642.753 737.569 666.383 720.829 684.463 694.709Z" fill="#FCBA03"/>
<path d="M851.192 541.529C849.541 542.301 847.935 543.165 846.382 544.119C844.835 545.081 843.351 546.144 841.942 547.299C843.069 543.206 844.202 539.113 845.342 535.019C845.904 533.479 846.241 531.866 846.342 530.229C846.282 527.399 846.572 524.609 846.592 521.769C846.675 514.643 846.059 507.525 844.752 500.519C842.065 485.826 835.893 471.993 826.752 460.179C805.372 432.919 770.972 419.849 737.582 415.179C724.832 413.389 661.732 409.609 633.082 450.499C628.091 457.683 624.426 465.703 622.262 474.179C624.042 473.079 626.152 471.469 625.962 469.799C625.552 466.199 614.542 463.919 605.782 463.749C596.402 463.569 593.672 465.899 583.592 466.109C578.054 466.217 572.523 465.649 567.122 464.419C564.802 484.189 574.662 502.259 590.322 508.809C605.212 515.029 619.532 508.409 622.172 507.129C622.312 502.203 622.456 497.269 622.602 492.329C620.482 511.029 624.692 524.209 627.602 531.069C635.202 549.219 649.172 561.069 663.372 572.839C667.866 576.573 672.506 580.099 677.292 583.419C686.165 589.589 695.561 594.97 705.372 599.499C714.822 603.839 724.652 606.859 734.532 610.079C737.089 610.988 739.714 611.69 742.382 612.179C752.542 613.769 758.722 609.949 768.452 607.799C775.529 606.275 782.801 605.873 790.002 606.609C797.174 604.672 803.902 601.361 809.812 596.859C827.222 583.509 831.302 564.039 832.292 558.269C839.492 584.029 864.192 600.269 888.722 596.859C909.902 593.929 927.482 576.859 931.722 554.499C916.542 556.499 906.022 553.819 899.122 550.849C889.972 546.899 888.902 543.259 878.712 540.489C863.792 536.449 853.082 540.679 851.192 541.529Z" fill="#E58300"/>
<path d="M682.871 886.181H668.691C664.531 886.181 661.451 884.501 661.861 882.461L679.661 793.761C680.071 791.761 683.811 790.051 687.981 790.051H702.151C706.321 790.051 709.401 791.721 708.991 793.761L691.191 882.471C690.781 884.551 687.001 886.181 682.871 886.181Z" fill="#E5321C"/>
<path d="M801.382 886.999H787.202C783.042 886.999 779.412 885.329 779.202 883.289L768.002 794.569C767.752 792.569 771.002 790.859 775.112 790.859H789.302C793.472 790.859 797.092 792.539 797.302 794.579L808.452 883.279C808.752 885.329 805.552 886.999 801.382 886.999Z" fill="#E5321C"/>
<path d="M787.82 846.07H683.75V861.33H787.82V846.07Z" fill="#E5321C"/>
<path d="M806.27 822.67C806.27 828.45 776.05 833.1 738.78 833.06C701.51 833.02 671.31 828.29 671.32 822.52C671.32 818.15 671.32 794.75 671.32 794.75L806.62 792.34L806.27 822.67Z" fill="#C01B20"/>
<path d="M806.332 792.381C806.339 786.604 776.133 781.884 738.865 781.838C701.597 781.793 671.379 786.439 671.372 792.216C671.365 797.993 701.571 802.713 738.839 802.758C776.108 802.804 806.325 798.158 806.332 792.381Z" fill="#E5321C"/>
<path d="M670.412 824.18H641.312C640.382 833.7 639.102 845.43 637.312 859.46C634.442 859.37 624.972 859.46 616.932 866.2C610.212 871.86 603.932 882.65 607.422 888.59C609.342 891.89 613.812 892.94 637.792 892.88C649.992 892.88 660.192 892.56 667.542 892.27C668.472 891.122 669.292 889.89 669.992 888.59C675.522 878.36 671.992 866.89 670.462 862.59L670.412 824.18Z" fill="#F9D1AF"/>
<path d="M644.681 870.18C639.681 870.18 634.901 869.89 630.421 869.5C629.741 866.5 629.071 863.5 628.421 860.43C627.271 860.19 618.071 858.43 611.131 864.59C603.921 870.99 603.131 882.42 607.401 888.59C611.671 894.76 621.211 894.86 640.241 894.98C646.121 894.98 652.041 894.89 657.911 894.47C661.509 894.426 665.097 894.091 668.641 893.47C670.081 893.388 671.478 892.945 672.701 892.18C675.081 890.5 675.561 887.64 676.161 884.18C676.971 879.44 676.251 876.38 675.051 871.28C674.761 870.03 674.261 868.22 673.181 868.02C672.863 867.974 672.539 868.038 672.261 868.2C670.851 868.45 668.641 868.81 665.911 869.14C658.868 869.987 651.773 870.335 644.681 870.18V870.18Z" fill="#093682"/>
<path d="M686.812 827.531C687.949 818.792 688.564 809.993 688.652 801.181C697.202 800.311 710.312 799.181 726.382 798.731C763.782 797.631 776.162 801.241 784.822 793.191C789.482 788.871 797.062 777.481 788.152 744.191C750.442 731.881 729.292 733.621 716.782 737.921C712.782 739.281 703.052 740.651 687.452 748.441C680.349 752.074 672.802 754.763 665.002 756.441C654.772 758.591 645.432 761.881 640.192 771.681C636.732 778.151 635.582 783.601 634.892 791.761C633.982 802.581 632.462 818.361 629.762 838.941L684.002 844.071C685.102 838.911 686.052 833.391 686.812 827.531Z" fill="#176133"/>
<path d="M676.691 750.228C714.892 762.393 755.796 763.247 794.471 752.688C792.098 735.954 788.871 719.353 784.801 702.948C776.711 670.318 770.801 645.478 753.551 628.818C744.171 619.851 733.076 612.871 720.931 608.298C718.902 607.52 716.787 606.986 714.631 606.708C705.511 604.318 694.941 606.128 686.131 610.838C682.971 610.053 679.634 610.444 676.741 611.938C674.6 613.154 672.823 614.919 671.592 617.052C670.362 619.184 669.723 621.606 669.741 624.068C663.301 648.638 657.801 685.858 668.901 727.298C670.996 735.103 673.599 742.762 676.691 750.228V750.228Z" fill="#FCBA03"/>
<path d="M787.09 715.688C767.85 721.058 747.89 724.398 728.62 721.018C703.75 716.658 688.46 697.178 696.51 669.698C700.17 657.218 699.59 646.528 706.07 635.348C711.37 626.018 718.167 617.623 726.19 610.498C724.48 609.728 722.73 608.988 720.93 608.298C718.9 607.52 716.786 606.986 714.63 606.708C709.427 605.436 704.007 605.334 698.76 606.408C698.941 607.25 699.039 608.107 699.05 608.968C699.05 608.968 699.05 609.518 699.05 610.078C698.95 611.458 692.14 629.208 682.52 653.328L665.52 651.778C668 642.118 670.483 632.451 672.97 622.778L659.62 621.508C658.86 626.248 657.71 633.688 656.44 642.828C653.04 667.258 652.62 676.138 650.08 692.098C648.79 700.178 646.65 712.038 643.08 726.438C618.888 747.931 603.489 777.604 599.84 809.758L662.16 827.568C668.052 816.623 674.859 806.195 682.51 796.398C692.587 783.462 704.108 771.719 716.85 761.398C738.157 744.454 762.567 731.831 788.71 724.238C788.759 722.795 788.655 721.35 788.4 719.928C788.115 718.472 787.676 717.051 787.09 715.688Z" fill="#145FAC"/>
<path d="M802.93 724.88C799.5 722.339 795.461 720.746 791.22 720.26L802.4 716.58C803.72 716.15 805.16 715.58 805.78 714.37C806.72 712.51 805.58 709.97 803.93 708.94C802.798 708.151 801.467 707.697 800.09 707.63C798.712 707.563 797.343 707.885 796.14 708.56C792.45 710.78 791.02 714.83 786.49 715.98C785.832 716.096 785.191 716.29 784.58 716.56C782.5 717.67 782.33 720.56 782.64 722.63C782.66 722.861 782.735 723.084 782.86 723.28C783.21 723.76 783.93 723.68 784.52 723.6C786.244 723.382 787.994 723.613 789.602 724.27C791.211 724.926 792.622 725.988 793.7 727.35C795.772 729.962 797.524 732.812 798.92 735.84C801.82 734.68 804.697 733.463 807.55 732.19C807.896 732.075 808.194 731.85 808.4 731.55C808.68 731.03 808.34 730.4 807.98 729.92C806.561 727.994 804.858 726.295 802.93 724.88Z" fill="#093682"/>
<path d="M625.372 755.64C631.102 754.64 636.852 753.73 642.652 753.24C650.652 752.57 665.012 750.62 662.212 739.04C661.157 734.697 659.745 730.45 657.992 726.34C656.992 724.04 655.812 721.66 653.662 720.34C650.772 718.6 647.092 719.34 643.812 720.18L642.192 720.58L624.192 725.06C617.642 726.69 608.962 730.06 602.722 725.93C600.262 724.3 599.422 722.34 595.662 720.72C592.981 719.602 590.08 719.116 587.182 719.3L586.342 723.3C583.149 724.151 579.873 724.651 576.572 724.79C572.102 724.98 570.412 724.37 567.862 725.56C567.452 725.75 562.392 728.37 562.352 733C562.352 736.28 565.092 739.49 568.352 739.48C566.906 740.148 565.736 741.296 565.041 742.729C564.346 744.162 564.169 745.792 564.541 747.341C564.912 748.89 565.808 750.262 567.078 751.224C568.347 752.187 569.91 752.68 571.502 752.62C568.892 754.8 570.052 759.42 572.872 761.32C575.692 763.22 579.362 763.17 582.762 762.91C597.122 761.78 611.182 758.18 625.372 755.64Z" fill="#F9D1AF"/>
<path d="M590.263 719.8C589.721 719.75 589.175 719.75 588.633 719.8C588.21 719.828 587.803 719.977 587.463 720.23C587.352 720.346 587.269 720.485 587.221 720.638C587.172 720.79 587.159 720.952 587.183 721.11C587.224 721.603 587.335 722.088 587.513 722.55C587.598 722.775 587.6 723.023 587.517 723.249C587.435 723.475 587.273 723.663 587.063 723.78V723.78C585.514 724.69 583.824 725.336 582.063 725.69C580.315 725.985 578.536 726.042 576.773 725.86C575.156 725.671 573.53 725.578 571.903 725.58C570.339 725.645 568.799 725.983 567.353 726.58V726.58C567.163 726.648 566.954 726.641 566.768 726.561C566.583 726.481 566.434 726.335 566.353 726.15C566.276 725.971 566.268 725.769 566.331 725.585C566.394 725.4 566.523 725.245 566.693 725.15C568.263 724.266 570 723.717 571.793 723.54C573.515 723.42 575.245 723.447 576.963 723.62C578.541 723.766 580.132 723.698 581.693 723.42C583.231 723.157 584.712 722.633 586.073 721.87L585.503 723.18C585.283 722.495 585.178 721.779 585.193 721.06C585.196 720.638 585.281 720.22 585.443 719.83C585.623 719.394 585.916 719.014 586.293 718.73C586.949 718.283 587.729 718.055 588.523 718.08C589.196 718.075 589.868 718.153 590.523 718.31C590.704 718.351 590.863 718.459 590.968 718.613C591.073 718.766 591.117 718.953 591.09 719.137C591.064 719.321 590.969 719.488 590.825 719.605C590.681 719.722 590.498 719.781 590.313 719.77L590.263 719.8Z" fill="#F29E81"/>
<path d="M739.85 719.179C755.67 690.829 755.31 673.469 754.16 664.499C753.16 656.619 750.83 638.499 736.81 631.789C727.4 627.309 716.02 629.579 708.54 634.539C698.3 641.329 695.71 652.949 693.31 663.739C691.575 671.678 690.949 679.819 691.45 687.929C691.88 701.749 684.97 722.689 650.91 752.989L675.33 787.389C696.59 773.309 721.81 751.489 739.85 719.179Z" fill="#FCBA03"/>
<path d="M624.46 530.018C582.91 577.618 638.52 621.868 668.14 631.318C740.05 654.238 763.74 617.458 763.74 617.458C763.74 617.458 774.22 622.368 780.74 619.078C798.2 610.328 799.82 596.278 793.59 591.908C788.06 588.028 775.41 594.108 775.41 594.108C775.41 594.108 778.2 591.228 779.41 589.568C783.96 584.998 808.53 559.408 806.3 522.638C803.85 482.348 770.65 452.208 736.3 443.418C705.05 435.418 665.77 443.288 643.2 472.038C628.26 491.108 624.77 520.528 624.46 530.018Z" fill="#F9D1AF"/>
<path d="M731.21 564.46C729.07 572.19 722.62 579.31 714.95 577.73C709.61 576.63 706.95 569.14 708.95 560.99C710.95 552.84 717.95 546.62 723.29 547.72C731.41 549.39 733.21 557.18 731.21 564.46Z" fill="#3D2C22"/>
<path d="M675.512 544.23C673.382 551.96 666.932 559.08 659.262 557.5C653.922 556.41 651.262 548.91 653.262 540.76C655.262 532.61 662.262 526.39 667.602 527.49C675.722 529.18 677.522 536.97 675.512 544.23Z" fill="#3D2C22"/>
<path d="M659.062 580.9C663.272 583.82 672.062 589.15 681.382 590.97C693.502 593.36 711.182 586.66 711.202 587.06C711.642 593.84 698.562 614 679.422 610.41C659.442 606.67 656.002 578.74 659.062 580.9Z" fill="#EB7487"/>
<path d="M680.549 557.18C678.924 557.284 677.379 557.922 676.154 558.996C674.93 560.07 674.095 561.519 673.78 563.117C673.465 564.715 673.687 566.372 674.413 567.831C675.138 569.289 676.325 570.467 677.789 571.18" stroke="#F3A98A" stroke-width="4.57" stroke-linecap="round" stroke-linejoin="round"/>
<path d="M711.78 566.608C713.327 566.608 714.58 565.354 714.58 563.808C714.58 562.261 713.327 561.008 711.78 561.008C710.234 561.008 708.98 562.261 708.98 563.808C708.98 565.354 710.234 566.608 711.78 566.608Z" fill="white"/>
<path d="M657.503 547.588C659.049 547.588 660.303 546.335 660.303 544.788C660.303 543.242 659.049 541.988 657.503 541.988C655.957 541.988 654.703 543.242 654.703 544.788C654.703 546.335 655.957 547.588 657.503 547.588Z" fill="white"/>
<path d="M650.196 564.604C650.476 558.06 644.633 552.495 637.146 552.175C629.658 551.854 623.361 556.9 623.081 563.444C622.801 569.988 628.644 575.553 636.132 575.873C643.619 576.193 649.916 571.148 650.196 564.604Z" fill="#F5BAAB"/>
<path d="M742.38 592.132C742.642 585.582 736.779 580.029 729.284 579.729C721.79 579.429 715.502 584.496 715.24 591.046C714.978 597.596 720.841 603.149 728.336 603.449C735.83 603.749 742.118 598.682 742.38 592.132Z" fill="#F5BAAB"/>
<path d="M678.601 438.228L637.781 458.898L627.121 499.018L670.121 513.398L677.351 508.338L678.791 516.338L724.111 530.718L730.751 524.138L731.681 533.228L822.581 561.088L812.111 480.268C806.581 471.068 793.341 452.018 768.711 439.858C726.511 418.978 685.331 435.418 678.601 438.228Z" fill="#E58300"/>
<path d="M683.003 443.29C685.273 441.58 683.003 437.76 680.673 439.49C673.003 445.26 666.003 451.58 661.453 460.18C657.263 468.18 654.663 477.88 656.863 486.84C657.553 489.63 661.813 488.35 661.133 485.56C659.133 477.56 661.903 468.63 665.763 461.56C669.913 454.01 676.173 448.42 683.003 443.29Z" fill="#E26F04"/>
<path d="M756.401 512.82C753.484 506.876 752.148 500.28 752.521 493.67C752.931 486.24 755.911 479.35 759.121 472.75C760.371 470.18 756.481 468.01 755.221 470.59C751.641 477.95 748.521 485.54 748.071 493.81C747.709 501.205 749.27 508.567 752.601 515.18C753.871 517.71 757.671 515.37 756.401 512.82Z" fill="#E26F04"/>
<path d="M712.2 499.467C709.981 493.228 709.409 486.522 710.54 479.997C711.8 472.667 715.54 466.167 719.54 459.997C721.08 457.587 717.46 454.997 715.92 457.407C711.51 464.307 707.55 471.477 706.15 479.647C704.941 486.936 705.63 494.413 708.15 501.357C709.12 504.037 713.16 502.177 712.2 499.467Z" fill="#E26F04"/>
<path d="M829.813 558.18C830.168 558.236 830.53 558.213 830.876 558.115C831.221 558.017 831.541 557.844 831.813 557.61C833.483 556.15 832.703 554.82 831.693 553.34C830.283 551.25 830.033 548.48 829.483 546.06C828.833 543.22 828.213 540.36 827.783 537.47C827.023 532.871 827.023 528.179 827.783 523.58C828.303 520.77 823.983 519.7 823.453 522.53C822.203 529.25 822.783 536.13 824.053 542.8C824.583 545.56 825.463 548.29 825.833 551.07C826.033 552.55 825.833 554.24 826.483 555.63C826.797 556.288 827.263 556.862 827.842 557.305C828.421 557.748 829.096 558.048 829.813 558.18V558.18Z" fill="#E26F04"/>
<path d="M800.69 578.518C799.04 571.158 801.2 563.798 802.69 556.608C804.226 549.8 804.534 542.774 803.6 535.858C801.66 522.418 795.88 509.148 797.4 495.378C797.71 492.568 793.4 491.478 793.07 494.328C791.48 508.698 797.07 522.008 799.14 535.998C800.23 543.508 799.47 550.518 797.85 557.888C796.23 565.258 794.74 572.398 796.4 579.808C797.05 582.598 801.32 581.318 800.69 578.518Z" fill="#E26F04"/>
<path d="M803.06 1035.89C811.59 1054.6 835.74 1088.33 843.58 1110.39C856.58 1147.05 870.15 1149.24 876.51 1180.19C825.305 1211.97 764.031 1223.35 704.83 1212.08C706.96 1185.45 684.17 1157.63 686.03 1130.53C687.17 1113.97 699.91 1066.78 708.95 1057.53C712.95 1048.93 736.44 1036.34 778.36 1021.97C796.42 1015.77 792.41 1034.78 803.06 1035.89Z" fill="#145FAC"/>
<path d="M900.111 973.441C909.001 956.551 909.411 933.021 899.111 913.701C887.641 892.191 867.371 884.301 861.781 882.331C834.001 837.181 785.001 814.181 741.301 824.081C712.491 830.651 680.901 852.751 670.101 885.781C664.011 904.391 666.601 920.111 669.601 938.281C670.355 942.505 671.326 946.687 672.511 950.811C673.162 953.46 673.98 956.065 674.961 958.611C675.621 960.323 676.645 961.872 677.961 963.151C680.651 965.621 684.641 966.371 687.961 967.551C700.961 972.161 713.841 976.951 727.201 980.551C740.79 984.239 754.584 987.131 768.511 989.211L769.341 989.341C775.611 990.261 782.521 991.341 786.551 996.231C789.631 999.951 790.281 1005.04 790.821 1009.84L791.911 1019.62C792.111 1021.44 792.321 1023.25 792.521 1025.07C792.531 1025.92 792.649 1026.76 792.871 1027.58C793.362 1028.57 793.931 1029.52 794.571 1030.42C795.864 1032.5 797.273 1034.5 798.791 1036.42C801.803 1040.2 805.247 1043.61 809.051 1046.58C811.581 1048.58 814.491 1050.4 817.701 1050.36C819.226 1050.26 820.712 1049.83 822.063 1049.11C823.414 1048.4 824.598 1047.4 825.541 1046.2C827.407 1043.78 828.919 1041.11 830.031 1038.26C834.547 1043 840.723 1045.8 847.261 1046.07C850.481 1040.66 854.541 1035.23 856.391 1029.16C857.621 1025.16 858.271 1021.45 860.901 1017.98C862.701 1015.68 864.677 1013.52 866.811 1011.52C867.799 1010.67 868.722 1009.75 869.571 1008.76C870.314 1007.6 871.143 1006.5 872.051 1005.47C882.221 995.661 893.431 986.181 900.111 973.441Z" fill="#753F1F"/>
<path d="M666.172 949.891C660.762 954.671 647.432 967.811 645.832 987.061C643.052 1020.53 678.222 1042.69 685.102 1047.06C723.752 1071.41 767.372 1057.31 773.442 1055.24C773.442 1055.24 836.552 1035.46 849.632 965.761C850.072 963.461 850.632 961.201 850.952 958.881C851.845 952.318 851.989 945.676 851.382 939.081C850.382 928.601 830.272 859.611 775.582 853.311C738.202 849.011 709.912 876.881 700.182 886.461C676.082 910.181 668.652 937.871 666.172 949.891Z" fill="#EA9F67"/>
<path d="M770.002 984.309C767.692 992.689 760.702 1000.39 752.412 998.689C746.632 997.499 743.702 989.379 745.872 980.559C748.042 971.739 755.602 965.009 761.392 966.189C770.252 967.999 772.192 976.449 770.002 984.309Z" fill="#3D2C22"/>
<path d="M709.731 962.413C707.411 970.793 700.431 978.493 692.131 976.783C686.351 975.603 683.421 967.483 685.591 958.663C687.761 949.843 695.321 943.103 701.111 944.293C710.001 946.103 711.901 954.553 709.731 962.413Z" fill="#3D2C22"/>
<path d="M693.522 998.521C694.942 997.821 697.712 1006.43 706.842 1012.2C720.242 1020.67 735.342 1015.45 735.602 1017.11C735.892 1019.04 715.922 1029.51 702.992 1020.62C693.342 1013.98 691.752 999.401 693.522 998.521Z" fill="#B33C67"/>
<path d="M752.052 979.392C753.731 979.392 755.092 978.031 755.092 976.353C755.092 974.674 753.731 973.312 752.052 973.312C750.373 973.312 749.012 974.674 749.012 976.353C749.012 978.031 750.373 979.392 752.052 979.392Z" fill="white"/>
<path d="M693.29 958.799C694.969 958.799 696.33 957.438 696.33 955.759C696.33 954.08 694.969 952.719 693.29 952.719C691.611 952.719 690.25 954.08 690.25 955.759C690.25 957.438 691.611 958.799 693.29 958.799Z" fill="white"/>
<path d="M682.308 984.486C682.611 977.401 676.286 971.377 668.181 971.03C660.075 970.683 653.258 976.146 652.955 983.23C652.652 990.315 658.977 996.34 667.083 996.687C675.188 997.033 682.005 991.571 682.308 984.486Z" fill="#EA7467"/>
<path d="M783.683 1016.81C783.986 1009.73 777.661 1003.7 769.556 1003.35C761.45 1003.01 754.633 1008.47 754.33 1015.55C754.027 1022.64 760.352 1028.66 768.458 1029.01C776.563 1029.36 783.38 1023.9 783.683 1016.81Z" fill="#EA7467"/>
<path d="M691.571 988.421C707.234 988.421 719.931 975.334 719.931 959.191C719.931 943.048 707.234 929.961 691.571 929.961C675.908 929.961 663.211 943.048 663.211 959.191C663.211 975.334 675.908 988.421 691.571 988.421Z" stroke="#49220F" stroke-width="5.33" stroke-miterlimit="10"/>
<path d="M761.581 1009.63C777.713 1009.63 790.791 996.373 790.791 980.02C790.791 963.667 777.713 950.41 761.581 950.41C745.449 950.41 732.371 963.667 732.371 980.02C732.371 996.373 745.449 1009.63 761.581 1009.63Z" stroke="#49220F" stroke-width="5.44" stroke-miterlimit="10"/>
<path d="M719.941 959.181C720.661 958.901 726.251 956.871 731.391 960.051C733.474 961.365 735.123 963.264 736.131 965.511" stroke="#49220F" stroke-width="5.73" stroke-miterlimit="10"/>
<path d="M790.703 982.07L852.363 986.36" stroke="#49220F" stroke-width="5.73" stroke-linecap="round" stroke-linejoin="round"/>
<path d="M851.11 1021.07C841.97 1027.33 828.69 1026.5 818.5 1018.62L836.73 989.871C845.59 985.571 854.87 984.871 859.52 989.161C866.64 995.771 862.22 1013.47 851.11 1021.07Z" fill="#EA9F67"/>
<path d="M722.523 972.262C722.353 972.262 716.763 973.522 712.203 974.562C711.466 974.732 710.771 975.053 710.163 975.505C709.556 975.957 709.048 976.53 708.673 977.187C708.297 977.844 708.061 978.572 707.981 979.325C707.9 980.078 707.976 980.84 708.203 981.562L710.553 988.892" fill="#EA9F67"/>
<path d="M710.54 990.542C710.197 990.541 709.863 990.432 709.586 990.228C709.309 990.025 709.104 989.74 709 989.412L706.65 982.092C706.348 981.154 706.245 980.163 706.346 979.182C706.448 978.201 706.753 977.252 707.241 976.395C707.729 975.539 708.39 974.793 709.182 974.205C709.973 973.618 710.879 973.201 711.84 972.982C722.13 970.652 722.26 970.652 722.52 970.652C722.923 970.667 723.306 970.831 723.595 971.112C723.883 971.394 724.056 971.773 724.08 972.176C724.104 972.579 723.977 972.975 723.723 973.289C723.47 973.603 723.109 973.811 722.71 973.872C722.44 973.872 720.86 974.252 712.56 976.142C712.036 976.259 711.542 976.483 711.11 976.802C710.677 977.12 710.316 977.526 710.05 977.992C709.785 978.46 709.619 978.978 709.564 979.514C709.509 980.049 709.566 980.59 709.73 981.102L712.08 988.422C712.2 988.82 712.163 989.249 711.977 989.621C711.791 989.993 711.471 990.279 711.08 990.422C710.908 990.49 710.725 990.53 710.54 990.542V990.542Z" fill="#DC6E16"/>
<path d="M660.653 927.64C662.983 930.31 671.223 929.83 698.493 914.2C680.373 930.2 678.633 936.37 680.073 939.09C683.443 945.48 707.603 939.23 736.323 931.62C762.703 924.62 783.683 917.52 797.063 912.7C793.823 921.81 788.243 941.83 797.973 955.13C810.923 972.85 848.303 975.69 852.373 977.52C853.002 977.876 853.723 978.033 854.443 977.97C855.254 977.686 855.928 977.108 856.333 976.35C866.203 962.09 867.783 951.44 858.593 937.08C853.513 929.14 852.943 919.79 849.813 911.08C846.163 900.96 836.303 895.01 831.643 885.52C829.443 881.05 828.433 876.08 826.483 871.52C821.691 863.024 814.992 855.756 806.913 850.29C787.523 837.2 749.103 842.43 719.403 858.44C680.073 879.63 654.473 920.53 660.653 927.64Z" fill="#753F1F"/>
<path d="M709.004 1057.52L703.844 1088.72C730.251 1089.41 756.595 1085.8 781.844 1078.03C797.384 1073.22 802.144 1074.03 813.314 1068.19C807.234 1061.63 809.804 1048.41 803.734 1041.85C792.584 1044.62 780.814 1047.21 768.474 1049.5C747.324 1053.42 727.404 1055.96 709.004 1057.52Z" fill="#145FAC"/>
<path d="M378.129 996.77H300.779C296.317 996.77 292.699 1000.39 292.699 1004.85V1014.19C292.699 1018.65 296.317 1022.27 300.779 1022.27H378.129C382.592 1022.27 386.209 1018.65 386.209 1014.19V1004.85C386.209 1000.39 382.592 996.77 378.129 996.77Z" fill="#438BED"/>
</svg>
