<svg width="22" height="20" viewBox="0 0 22 20" fill="#666666" xmlns="http://www.w3.org/2000/svg">
  <path d="M21.1278 18.325L16.909 8.10625C16.8311 7.91754 16.6989 7.7562 16.5292 7.64267C16.3596 7.52915 16.16 7.46855 15.9558 7.46855C15.7517 7.46855 15.5521 7.52915 15.3824 7.64267C15.2127 7.7562 15.0805 7.91754 15.0026 8.10625L10.7839 18.325C10.7314 18.4503 10.7042 18.5848 10.7039 18.7206C10.7035 18.8565 10.73 18.991 10.7819 19.1166C10.8337 19.2422 10.9098 19.3563 11.0059 19.4524C11.1019 19.5484 11.216 19.6246 11.3416 19.6764C11.4672 19.7283 11.6018 19.7548 11.7376 19.7545C11.8735 19.7541 12.0079 19.727 12.1332 19.6745C12.2586 19.6221 12.3723 19.5454 12.4679 19.4489C12.5635 19.3523 12.6391 19.2379 12.6903 19.112L13.5495 17.0312H18.3621L19.2214 19.112C19.2993 19.3008 19.4314 19.4623 19.6012 19.5758C19.7709 19.6894 19.9706 19.75 20.1748 19.75C20.3443 19.7499 20.5111 19.708 20.6605 19.6281C20.8099 19.5482 20.9374 19.4327 21.0315 19.2918C21.1257 19.1509 21.1837 18.989 21.2004 18.8204C21.2171 18.6518 21.192 18.4816 21.1273 18.325H21.1278ZM14.4012 14.9688L15.9561 11.2023L17.5109 14.9688H14.4012ZM11.2611 14.0744C11.4213 13.8531 11.4871 13.5772 11.4441 13.3074C11.4012 13.0376 11.2529 12.7959 11.0318 12.6353C11.0225 12.6283 10.3287 12.1136 9.32137 11.0073C11.18 8.49109 12.2328 5.62844 12.6621 4.28125H14.1748C14.4483 4.28125 14.7106 4.1726 14.904 3.9792C15.0974 3.78581 15.2061 3.5235 15.2061 3.25C15.2061 2.9765 15.0974 2.71419 14.904 2.5208C14.7106 2.3274 14.4483 2.21875 14.1748 2.21875H8.7373V1.28125C8.7373 1.00775 8.62866 0.745443 8.43526 0.552046C8.24186 0.358649 7.97956 0.25 7.70605 0.25C7.43255 0.25 7.17025 0.358649 6.97685 0.552046C6.78345 0.745443 6.6748 1.00775 6.6748 1.28125V2.21875H1.2373C0.9638 2.21875 0.701498 2.3274 0.508101 2.5208C0.314704 2.71419 0.206055 2.9765 0.206055 3.25C0.206055 3.5235 0.314704 3.78581 0.508101 3.9792C0.701498 4.1726 0.9638 4.28125 1.2373 4.28125H10.4834C10.0371 5.54453 9.21543 7.53906 7.96199 9.36063C6.48965 7.40688 5.94262 6.14266 5.9384 6.13234C5.83061 5.88324 5.62896 5.68668 5.37719 5.58529C5.12542 5.4839 4.84383 5.48585 4.59349 5.59072C4.34315 5.6956 4.14425 5.89494 4.03992 6.14551C3.9356 6.39608 3.93427 6.67767 4.03621 6.92922C4.0634 6.99391 4.71824 8.53375 6.51402 10.8634C6.55715 10.9192 6.5998 10.9736 6.64246 11.028C4.80309 13.1069 2.9984 14.3964 2.24324 14.8127C2.00312 14.9436 1.82486 15.1646 1.74767 15.427C1.67049 15.6894 1.70071 15.9718 1.83168 16.2119C1.96265 16.452 2.18365 16.6303 2.44605 16.7074C2.70846 16.7846 2.99077 16.7544 3.2309 16.6234C3.33215 16.5681 5.50902 15.363 7.9948 12.6114C9.05043 13.7402 9.77605 14.2727 9.81965 14.3036C9.92933 14.3833 10.0537 14.4405 10.1855 14.4721C10.3173 14.5037 10.4541 14.509 10.588 14.4876C10.7219 14.4663 10.8502 14.4188 10.9657 14.3478C11.0812 14.2768 11.1816 14.1837 11.2611 14.0739V14.0744Z" />
</svg>
