<?xml version="1.0" encoding="utf-8"?>
<!-- Generator: Adobe Illustrator 25.4.1, SVG Export Plug-In . SVG Version: 6.00 Build 0)  -->
<svg version="1.1" id="Layer_1" xmlns="http://www.w3.org/2000/svg" xmlns:xlink="http://www.w3.org/1999/xlink" x="0px" y="0px"
	 viewBox="0 0 402 108" style="enable-background:new 0 0 402 108;" xml:space="preserve">
<style type="text/css">
	.st0{fill:#DDE8FF;}
	.st1{fill:#4168F5;}
	.st2{fill:#FDC600;}
	.st3{fill:#4B7AF5;}
	.st4{fill:#FFA93D;}
	.st5{fill:#FF8200;}
	.st6{fill:#642E00;}
	.st7{fill:#4A0800;}
	.st8{fill:none;stroke:#F15526;stroke-width:2.2403;stroke-linecap:round;stroke-miterlimit:10;}
	.st9{fill:#232188;}
	.st10{fill:#A63A32;}
	.st11{fill:#741E20;}
	.st12{fill:#321700;}
	.st13{fill:#390700;}
	.st14{fill:#6E0F01;}
	.st15{fill:#FF5234;}
	.st16{fill:#FFA47A;}
	.st17{fill:#FF6C1C;}
	.st18{fill:#FF8246;}
	.st19{fill:#88A0FF;}
	.st20{fill:#FFA18D;}
	.st21{fill:#A38BFF;}
	.st22{fill:#BBD5FF;}
	.st23{fill:#00C2DB;}
	.st24{fill:#FFFFFF;}
	.st25{fill:#00B9F2;}
	.st26{fill:#006EC4;}
	.st27{fill:none;}
	.st28{fill:#004CA1;}
	.st29{fill:#68F2FF;}
</style>
<path class="st0" d="M361.8,107.7H40c-22.1,0-40-17.9-40-40V40C0,17.9,17.9,0,40,0h351.8c5.5,0,10,4.5,10,10v57.7
	C401.8,89.8,383.9,107.7,361.8,107.7z"/>
<g>
	<path class="st1" d="M183.9,41.2c-0.9-2.4-1-7.6,6.1-10.6c11.7-5,24,0.9,28.3,12.2c3.7,9.7-0.1,34.9,13.9,38.3
		c8.3,2.1-1.8,10.8-14.9,6.1C206.6,83.5,191.9,61.7,183.9,41.2z"/>
	<path class="st2" d="M182.8,45.8c-0.6-0.8-0.8-1.8-0.4-2.9c0.6-1.7,2.8-2.7,4.4-3.2c2.1-0.7,5.1-1.1,7.2-0.2
		c2.9,1.3,2.9,4.8,0.1,6.4c-2.3,1.3-5.5,1.6-8.1,1.5C184.7,47.2,183.5,46.7,182.8,45.8z"/>
	<path class="st3" d="M180,45.1c-8.2,4.3-10.8,11.4-10.5,20.3c0.3,8.3,5.1,25.1,21.7,23.9l13.8-4.9c0,0,12.7-8.4,7.1-22.5
		c-1.8-4.6-2.6-9.9-5.9-13.8C198.8,39.5,188.6,40.6,180,45.1z"/>
	<path class="st4" d="M174.6,71.4c0,0,5.6,23.6,24.3,18.3s8.2-29.6,8.2-29.6s-5.5-5.1-20-5.1C185.1,55,178,62.6,174.6,71.4z"/>
	<path class="st4" d="M206.9,61.7c0,0,1.1-5.2,5.1-4c4.1,1.2,1.8,11.5-3.2,12.7C200.3,72.5,206.9,61.7,206.9,61.7z"/>
	<path class="st4" d="M174.6,71.4c0,0-5.8-2.3-4.9,2.3c0.8,4.5,4.6,7.8,10.5,5.4S174.6,71.4,174.6,71.4z"/>
	<path class="st5" d="M192.7,71.7c1.6-0.3,1.9,2.8,1.7,3.6c-0.2,1.6-1.6,1-2.1-0.4C192.1,74.2,191.8,71.9,192.7,71.7z"/>
	<path class="st5" d="M208.4,64.5c-0.1-1,0-4.6,1.7-4.2c1.7,0.4,1.3,5.1-0.3,6C208.2,67.1,208.4,64.5,208.4,64.5z"/>
	<path class="st5" d="M176.4,75.5c-0.4-0.9-2.6-3.8-3.8-2.5s1.9,4.9,3.6,4.7S176.4,75.5,176.4,75.5z"/>
	<path class="st6" d="M196,65.9c0.7-0.9,2.2-2.2,5-2.1c0.4,0,0.6-0.5,0.3-0.7c-0.6-0.4-1.8-0.8-3-0.5c-2.1,0.6-2.5,2.1-2.8,3.1
		C195.5,66.1,195.8,66.2,196,65.9z"/>
	<path class="st6" d="M181.8,69.5c0.9-0.8,2.6-1.7,5.3-1.1c0.4,0.1,0.7-0.4,0.5-0.6c-0.5-0.5-1.6-1.2-2.8-1.1
		c-2.2,0.1-2.9,1.5-3.3,2.5C181.2,69.5,181.6,69.7,181.8,69.5z"/>
	<ellipse transform="matrix(0.9619 -0.2732 0.2732 0.9619 -13.3125 53.9482)" class="st7" cx="187" cy="74.8" rx="1.6" ry="1.8"/>
	<ellipse transform="matrix(0.9619 -0.2732 0.2732 0.9619 -11.9132 57.0913)" class="st7" cx="199" cy="71.3" rx="1.6" ry="1.8"/>
	<path class="st8" d="M189.8,81.6c2.5,2.5,9.8,1.2,10.9-3.1"/>
</g>
<g>
	<g>
		<path class="st9" d="M341.7,70.2c0,0,2.8,11.3,7.4,7c3.9-3.6,4.1,4.9,9,1c3.7-2.9,6.6-0.1,8-3c1.3-2.9,0.6-2.9,4.2-4.2
			c3.6-1.3-0.9-5.4,3.5-6.7c4.3-1.2,2.7-6.4,1.9-8.8s3.3-1.7,3.6-5c0.3-3.3-4.3-4.8-3-8.6c1.1-3.2-1.5-4.3-5.1-5.2
			c-2.7-0.7-0.7-6.3-5.3-6.2c-6.2,0.2-3.7-5.4-9-4.6s-3.8-4-8.6-1.2c-4.8,2.9-7.3-4.4-10.3,1.3s-7.2,1.6-6.8,8.4
			c0.4,6.7-5.8,5.3-2.4,13.9S341.7,70.2,341.7,70.2z"/>
		<g>
			<path class="st10" d="M336.9,40.3c-3.4-0.9-6,6.4-8.4,8.1c-1,0.7-2.2,1.1-3.2,1.7c-1.1,0.6-2.1,1.4-2.4,2.6
				c-0.2,0.7,0,1.6,0.4,2.2c0.5,0.7,0.4,1.7,0,2.4c-2.6,4.3-4.2,9.3-1.6,14.2c0.9,1.7,2.2,3.1,3.8,4c6.9,4.2,15.4,0.2,22.2-1.9
				c2.6-0.8,6.4-1.2,8.3-3.4c1.3-1.5,1.6-3.9,0.7-5.7c-0.9-1.8-3-2.9-5.1-2.7c-0.5,0.1-1.2,0.1-1.3-0.4c-0.1-0.2,0.1-0.5,0.2-0.7
				c1.7-2.4,4.8-4.3,4.3-7.2c-0.4-2.3-3-3.4-5.1-4.3c-2.1-0.9-4.2-2.1-6.1-3.5c-2.1-1.5-3.8-3.9-5.8-5.2
				C337.4,40.4,337.2,40.3,336.9,40.3z"/>
			<path class="st11" d="M348.1,69.1c0.2-0.9,1.2-4.2,3-4c1.7,0.1,2,2.1,0.6,3.3S347.7,70.6,348.1,69.1z"/>
			<path class="st12" d="M335.7,46.8c1.4,0,3.6,0.3,5.6,2.8c0.3,0.3,0.9,0.2,0.9-0.2c-0.1-0.8-0.7-2.2-1.8-3
				c-2.1-1.5-3.7-0.7-4.8-0.1C335.2,46.4,335.4,46.8,335.7,46.8z"/>
			
				<ellipse transform="matrix(0.4469 -0.8946 0.8946 0.4469 139.1068 328.4556)" class="st13" cx="335.2" cy="51.7" rx="1.8" ry="1.6"/>
		</g>
	</g>
	<path class="st14" d="M325.3,60.7c1.2,1,3.8,2.6,9.2,3.3c0.7,0.1,1.1,1,0.6,1.5c-2.1,2.3-6.3,3.1-9.3,2.2c-3-0.9-3.1-3.9-2-6.7
		C324.1,60.4,324.8,60.2,325.3,60.7z"/>
</g>
<g>
	<path class="st15" d="M56.1,18c-4,0.5-25.9,4.7-26.2,27.5c-0.1,12.4,4.1,19.4,7.5,22.9c2,2.1,5,2.9,7.8,2L62.7,65
		c0,0,24.4-5.1,24.8-8.2c0.3-2.4-3.2-3.9-4.4-6.9c-3.5-8-0.8-15.5-5.8-23C72.5,19.8,64.5,17,56.1,18z"/>
	<g>
		<path class="st16" d="M64.7,24c4.3,0.5,8.1,2.8,10.6,6.4c2.9,4,3,9.1,5.7,13.2c7,11-1.8,28.1-17.6,25.5
			c-9.8-1.6-15.8-9.4-18.5-16.6C40.7,41.1,51.6,22.5,64.7,24z"/>
		<path class="st15" d="M64.7,24c3.2,2.3,4.6,16.8-7.4,23.6c-0.3,0.2-0.8,0-1-0.3c-0.7-1.8-2.8-6.1-6.1-4.3c-1.9,1-2.7,3.1-2.6,5.2
			c0.1,2.1,1.8,5.9,5.6,7.6c3.4,1.6-0.4,4.2,6.9,7.8c4.9,2.4-8.4,4.9-14.4,6.4c-5,1.3-9.7-7.7-11-12.4c-2.7-10.5,5-23.5,12.6-30.1
			C51.6,23.6,59.4,20.2,64.7,24z"/>
		<path class="st17" d="M76.9,52.6c-0.8,0.4-2.4,1.1-6.2,1c-3.1-0.1-0.6,4.1,0.4,5.1c2.3,2.5,5.8,2.3,7.5-0.9
			C79.4,56.3,80.3,50.9,76.9,52.6z"/>
		<path class="st18" d="M55.2,51c-0.2-0.9-1.2-4.2-3-4.1s-2,2.1-0.6,3.3S55.5,52.5,55.2,51z"/>
		<path class="st18" d="M74.1,46.6c-0.1,0-0.1,0.1-0.2,0.1c-0.6,0.6,0.5,2.3,1.1,2.6c1.3,0.6,1.2-1.1,0.7-1.9
			C75.5,46.9,74.6,46.3,74.1,46.6z"/>
		<path class="st6" d="M77.5,38.5c-0.9,0-2.2,0.3-3.1,1.7c-0.2,0.3-0.6,0.2-0.6-0.2c0-0.8,0.2-1.9,1.2-2.4c1.1-0.5,2-0.2,2.7,0.3
			C78,38,77.8,38.5,77.5,38.5z"/>
		<path class="st6" d="M68.4,41.7c-1.3-0.3-3.5-0.4-5.8,1.6c-0.3,0.3-0.9,0-0.8-0.4c0.3-0.8,1.1-2,2.3-2.5c2.3-1,3.7,0.1,4.6,0.9
			C69,41.4,68.8,41.8,68.4,41.7z"/>
		<ellipse transform="matrix(0.9381 -0.3464 0.3464 0.9381 -11.8088 25.9899)" class="st7" cx="66.8" cy="46" rx="1.6" ry="1.9"/>
		<ellipse transform="matrix(0.976 -0.2178 0.2178 0.976 -7.6398 17.802)" class="st7" cx="76.9" cy="43.6" rx="1.5" ry="1.9"/>
	</g>
</g>
<g>
	<path class="st19" d="M306.6,33.3c-0.1-7.6-5.7-13.9-13-15c-1.1-0.2-2.2,0.7-2.2,1.9l-0.2,12.2c0,0.7-0.2,1.5-0.5,2.2l-5,11.1
		c-0.5,1.1,0.1,2.3,1.2,2.6c1.4,0.4,2.9,0.6,4.4,0.6C299.7,48.8,306.7,41.7,306.6,33.3z"/>
	<g>
		<path class="st20" d="M276.4,24.3c-0.4-0.3-0.9-0.2-1.1,0.2c-1.5,2.4-2.3,5.2-2.3,8.2c0,5.9,3.3,11,8.2,13.6
			c0.4,0.2,0.9,0,1.1-0.4l5.6-12.4c0.2-0.5,0.1-1.1-0.4-1.4L276.4,24.3z"/>
		<path class="st21" d="M288.4,14.6c0-0.5-0.4-0.9-0.9-0.8c0,0,0,0,0,0c-4.4,0.3-8.3,2.4-10.9,5.5c-0.2,0.2-0.4,0.9,0,1.2
			c2.4,1.7,10.6,7.4,10.6,7.4c0.5,0.4,1.2,0,1.2-0.6C288.4,27.3,288.5,17.6,288.4,14.6C288.4,14.6,288.4,14.6,288.4,14.6z"/>
	</g>
</g>
<path class="st22" d="M263.9,62.5V46.6c0-5.1-4.1-9.2-9.2-9.2h-10.2h0c-5.1,0-9.2,4.1-9.2,9.2v10.2c0,5.1,4.1,9.2,9.2,9.2h15.9
	C262.3,65.9,263.9,64.4,263.9,62.5z"/>
<path class="st22" d="M262.2,77.9v5.1c0,1.6,1.3,2.9,2.9,2.9h3.3l0,0c1.6,0,2.9-1.3,2.9-2.9v-3.3c0-1.6-1.3-2.9-2.9-2.9h-5.1
	C262.7,76.8,262.2,77.3,262.2,77.9z"/>
<path class="st22" d="M375.1,16.2v5c0,1.6,1.3,2.9,2.9,2.9h3.2l0,0c1.6,0,2.9-1.3,2.9-2.9V18c0-1.6-1.3-2.9-2.9-2.9h-5
	C375.6,15.1,375.1,15.6,375.1,16.2z"/>
<path class="st22" d="M47.7,78.5v7.4c0,2.4,1.9,4.3,4.3,4.3h4.8h0c2.4,0,4.3-1.9,4.3-4.3v-4.8c0-2.4-1.9-4.3-4.3-4.3h-7.4
	C48.4,76.9,47.7,77.6,47.7,78.5z"/>
<path class="st2" d="M152.4,22.7l-1.2,2.6c-0.4,0.9,0,2,0.8,2.4l2.5,1.4c1.6,0.9,1.1,3.4-0.7,3.6l-2.9,0.3c-1,0.1-1.7,0.9-1.7,1.9
	l0,2.9c0,1.9-2.4,2.6-3.5,1.1l-1.7-2.3c-0.6-0.8-1.7-1-2.5-0.5l-2.5,1.5c-1.6,0.9-3.5-0.7-2.7-2.4l1.2-2.6c0.4-0.9,0-2-0.8-2.4
	l-2.5-1.4c-1.6-0.9-1.1-3.4,0.7-3.6l2.9-0.3c1-0.1,1.7-0.9,1.7-1.9l0-2.9c0-1.9,2.4-2.6,3.5-1.1l1.7,2.3c0.6,0.8,1.7,1,2.5,0.5
	l2.5-1.5C151.2,19.4,153.1,21,152.4,22.7z"/>
<path class="st2" d="M175.6,22.4l-0.6,1.4c-0.2,0.5,0,1,0.4,1.3l1.3,0.7c0.8,0.5,0.6,1.8-0.4,1.9l-1.5,0.2c-0.5,0.1-0.9,0.5-0.9,1
	l0,1.5c0,1-1.2,1.4-1.8,0.6l-0.9-1.2c-0.3-0.4-0.9-0.5-1.3-0.3l-1.3,0.8c-0.8,0.5-1.8-0.4-1.4-1.3l0.6-1.4c0.2-0.5,0-1-0.4-1.3
	l-1.3-0.7c-0.8-0.5-0.6-1.8,0.4-1.9l1.5-0.2c0.5-0.1,0.9-0.5,0.9-1l0-1.5c0-1,1.2-1.4,1.8-0.6l0.9,1.2c0.3,0.4,0.9,0.5,1.3,0.3
	l1.3-0.8C175,20.7,176,21.5,175.6,22.4z"/>
<g>
	<path class="st23" d="M315.1,74.5h-19.2c-3.4,0-6.1,2.7-6.1,6.1v4.6c0,3.4,2.7,6.1,6.1,6.1h14.4c3.4,0,6.1-2.7,6.1-6.1v-9.4
		C316.4,75.1,315.8,74.5,315.1,74.5z"/>
	<path class="st24" d="M309.9,77.5c-2.4,0.1-4.5,1.4-6.1,3.1c-1,1-1.8,2.2-2.6,3.3c-0.6-0.8-1.2-1.6-1.9-2.3
		c-0.5-0.6-1.6-0.4-2.1,0.1c-0.6,0.5-0.7,1.5-0.3,2.1c1,1.3,1.9,2.6,2.7,4c0.5,0.9,2,0.9,2.6,0.1c1.3-1.6,2.5-3.3,3.8-4.9
		c1.3-1.5,2.6-3,4.3-4.2C311,78.4,310.6,77.5,309.9,77.5z"/>
</g>
<g>
	<g>
		<path class="st25" d="M110.6,86.3c0,3.3,2.7,6,6,6h19c3.3,0,6-2.7,6-6V63.8h-30.9V86.3z"/>
		<path class="st26" d="M139.1,56.7h-22.6c-3.3,0-6,2.7-6,6v1.2h30.9V59C141.5,57.7,140.4,56.7,139.1,56.7z"/>
	</g>
	<path class="st27" d="M135.5,92.3h-19c-3.3,0-6-2.7-6-6V62.6c0-3.3,2.7-6,6-6h22.6c1.3,0,2.4,1.1,2.4,2.4v27.3
		C141.5,89.6,138.8,92.3,135.5,92.3z"/>
	<g>
		<path class="st28" d="M137.3,58.6c-0.8,0-1.5,0.7-1.5,1.5s0.7,1.5,1.5,1.5c0.8,0,1.5-0.7,1.5-1.5S138.1,58.6,137.3,58.6z"/>
		<path class="st28" d="M132.6,58.6c-0.8,0-1.5,0.7-1.5,1.5s0.7,1.5,1.5,1.5c0.8,0,1.5-0.7,1.5-1.5S133.5,58.6,132.6,58.6z"/>
		<path class="st28" d="M127.9,58.6c-0.8,0-1.5,0.7-1.5,1.5s0.7,1.5,1.5,1.5s1.5-0.7,1.5-1.5S128.8,58.6,127.9,58.6z"/>
	</g>
	<g>
		<path class="st29" d="M134.1,82.9c-2.1-4-5.7-4.7-7.7-4.7c-1.9,0-5.6,0.7-7.7,4.7c-0.8,1.5-0.2,3.1,1.5,3.1h12.4
			C134.3,86,134.9,84.4,134.1,82.9z"/>
		<circle class="st29" cx="126.4" cy="74.3" r="4.7"/>
	</g>
</g>
</svg>
