<?xml version="1.0" encoding="utf-8"?>
<!-- Generator: Adobe Illustrator 25.4.1, SVG Export Plug-In . SVG Version: 6.00 Build 0)  -->
<svg version="1.1" id="Layer_1" xmlns="http://www.w3.org/2000/svg" xmlns:xlink="http://www.w3.org/1999/xlink" x="0px" y="0px"
	 viewBox="0 0 550 770" style="enable-background:new 0 0 550 770;" xml:space="preserve">
<style type="text/css">
	.st0{fill:#2180E8;}
	.st1{fill:url(#SVGID_1_);}
	.st2{fill:#FF68FF;}
	.st3{fill:#00C16F;}
	.st4{fill:#FFC300;}
	.st5{fill:#00C1A8;}
	.st6{fill:#FFA47A;}
	.st7{fill:#1941BB;}
	.st8{fill:#00D6D0;}
	.st9{fill:#FF8246;}
	.st10{fill:#FF6C1C;}
	.st11{fill:#642E00;}
	.st12{fill:#FF5234;}
	.st13{fill:#00B69E;}
	.st14{fill:#4A0800;}
	.st15{fill:#9D2B2A;}
	.st16{fill:#46312B;}
	.st17{fill:#163AA8;}
	.st18{fill:#E8E8FF;}
	.st19{fill:#081721;}
	.st20{fill:none;stroke:#6E0F01;stroke-width:1.7403;stroke-linecap:round;stroke-miterlimit:10;}
	.st21{fill:#741E20;}
	.st22{fill:#979CFC;}
	.st23{fill:#ADB1FA;}
	.st24{fill:#321700;}
	.st25{fill:#390700;}
	.st26{fill:#FFC400;}
	.st27{fill:#FF62CB;}
	.st28{fill:#007DFF;}
	.st29{fill:#00B9F2;}
	.st30{fill:#006EC4;}
	.st31{fill:none;}
	.st32{fill:#004CA1;}
	.st33{fill:#68F2FF;}
	.st34{fill:#88A0FF;}
	.st35{fill:#FFA18D;}
	.st36{fill:#A38BFF;}
	.st37{fill:#BBE98E;}
	.st38{fill:#FCAF83;}
	.st39{fill:#00AEF5;}
	.st40{fill:none;stroke:#00B4F3;stroke-width:2.21;stroke-linecap:round;stroke-linejoin:round;stroke-miterlimit:10;}
	.st41{fill:#FF8000;}
	.st42{fill:#FF3E20;}
	.st43{fill:#933430;}
	.st44{fill:#F96400;}
	.st45{fill:#FFE780;}
	.st46{fill:#F33300;}
	.st47{fill:#FFDA61;}
	.st48{fill:#608BD3;}
	.st49{fill:#5DBCFF;}
	.st50{fill:#6298F5;}
	.st51{fill:#00C2DB;}
	.st52{fill:#FFFFFF;}
	.st53{fill:#00A9F8;}
	.st54{fill:#FDC600;}
	.st55{fill:#009AFA;}
	.st56{opacity:0.3;fill:#6CA9FF;}
</style>
<circle class="st0" cx="274.7" cy="376.7" r="265.3"/>
<g>
	<linearGradient id="SVGID_1_" gradientUnits="userSpaceOnUse" x1="341.7141" y1="380.7985" x2="228.6501" y2="380.7985">
		<stop  offset="0" style="stop-color:#A3CCFF"/>
		<stop  offset="0.7005" style="stop-color:#4D92FF"/>
	</linearGradient>
	<path class="st1" d="M279.2,510.6c-71.6,0-129.8-58.2-129.8-129.8S207.7,251,279.2,251c71.6,0,129.8,58.2,129.8,129.8
		S350.8,510.6,279.2,510.6z M279.2,260.1c-66.6,0-120.7,54.2-120.7,120.7c0,66.6,54.2,120.7,120.7,120.7
		c66.6,0,120.7-54.2,120.7-120.7C400,314.2,345.8,260.1,279.2,260.1z"/>
</g>
<g>
	<path class="st2" d="M218.6,343.9h-81.1c-25.8,0-46.7,20.9-46.7,46.7v54.7v0c0,25.8,20.9,46.7,46.7,46.7h52
		c25.8,0,46.7-20.9,46.7-46.7v-83.9C236.2,351.8,228.3,343.9,218.6,343.9z"/>
</g>
<path class="st3" d="M423.8,409.6H341c-26.3,0-47.7,21.3-47.7,47.7v56v0c0,26.3,21.3,47.7,47.7,47.7h53c26.3,0,47.7-21.3,47.7-47.7
	v-85.7C441.7,417.6,433.7,409.6,423.8,409.6z"/>
<path class="st4" d="M386.3,151.4H308c-24.9,0-45.1,20.2-45.1,45.1v57.9v0c0,24.9,20.2,45.1,45.1,45.1h50.2
	c24.9,0,45.1-20.2,45.1-45.1v-86.1C403.3,159,395.7,151.4,386.3,151.4z"/>
<g>
	<path class="st5" d="M325.5,214.1c-16.5,3.1-10.3,36.6-4.2,48.9c3.4,6.9,9.2,6.8,17,7c11.4,0.2,15.9-1.3,19.4-12.8
		c3-10,7.5-27.6,4.1-36.5c-3.2-8.5-12.6-7.8-20.3-7.6C336.2,213.1,330.8,213.1,325.5,214.1z"/>
	<path class="st5" d="M321.8,214.9c-5.3,1-11.9,4.9-16.6,14.9c-2.9,6.3-9.1,17.1-10.3,20.1c-2.9,7.7-1.2,12.5,3.3,11.4
		c17-4,22-25.5,22-25.5S328,213.7,321.8,214.9z"/>
	<path class="st6" d="M286.3,227.2c1.6-3.5-4.6-8.9-8.3-10.5c-3.8-1.6-7.4-2.1-5.6-0.1s4.8,2.6,2.6,3.5s-3.9-0.7-11.1,1.2
		c-7.2,1.9-3.9,3.3-2,3.8c1.8,0.5,15,1.9,15,1.9L286.3,227.2z"/>
	<path class="st6" d="M285.6,223.4c-3.8-3-14.2-1.4-18.6,0c-2.3,0.7-6-0.3-7.2,2c-1.1,2.1,6.8,2.9,10.6,4.4c4.7,1.9,6.3,0.3,9,2.1
		c1.7,1.2,2.2,5.8,2.2,5.8l8.3-1.6C289.9,236.2,288.1,225.4,285.6,223.4z"/>
	<path class="st5" d="M290.5,230.8c-7,3.7-10.8,3.5-11,5.2s7.2,23.2,14.7,25.2c3.5,0.9,5.6-0.2,6.1-3.7
		C301.5,248.8,293.3,229.3,290.5,230.8z"/>
	<path class="st5" d="M354.8,214c5.3,1,11.9,4.9,16.6,14.9c2.9,6.3,9.1,17.1,10.3,20.1c2.9,7.7,1.2,12.5-3.3,11.4
		c-17-4-22-25.5-22-25.5S348.6,212.8,354.8,214z"/>
	<path class="st6" d="M390.4,226.3c-1.6-3.5,4.6-8.9,8.3-10.5c3.8-1.6,7.4-2.1,5.6-0.1c-1.8,2-4.8,2.6-2.6,3.5
		c2.1,0.9,3.9-0.7,11.1,1.2c7.2,1.9,3.9,3.3,2,3.8c-1.8,0.5-15,1.9-15,1.9L390.4,226.3z"/>
	<path class="st6" d="M391,222.6c3.8-3,14.2-1.4,18.6,0c2.3,0.7,6-0.3,7.2,2c1.1,2.1-6.8,2.9-10.6,4.4c-4.7,1.9-6.3,0.3-9,2.1
		c-1.7,1.2-2.2,5.8-2.2,5.8l-8.3-1.6C386.7,235.3,388.6,224.5,391,222.6z"/>
	<path class="st5" d="M386.1,229.9c7,3.7,10.8,3.5,11,5.2c0.2,1.7-7.2,23.2-14.7,25.2c-3.5,0.9-5.6-0.2-6.1-3.7
		C375.1,247.9,383.4,228.4,386.1,229.9z"/>
	<path class="st7" d="M332.6,162.5c-3.4,0.9-7.1,1.3-10.3,2.7c-8.1,3.5-9.5,13-11.5,20.6c-1.3,4.8-4.8,9.9-3.8,15
		c1.4,7.2,9.8,8.8,16.3,10.3c7,1.5,16.2,5.2,22.7,1.4c6.8-4,7.7-3.4,13.5-5.8c9.3-4,11.2-13.2,9.1-19.3c-1.7-4.9-3.9-6.3-6.5-10.8
		c-2.2-3.7-3.9-7.7-5.8-11.6c-1.6-3.2-2.7-6.4-6.5-7.1c-5.8-1.1-11.5,2.9-16.8,4.5C332.7,162.5,332.6,162.5,332.6,162.5z"/>
	<path class="st8" d="M331.1,212.7l-8.4,1.7c-1.7,0.4-2.9,1.8-2.7,3.5c0.3,4.6,1.8,13,7.8,14.7c8.4,2.3,11-7.4,11-7.4
		S336.9,212.1,331.1,212.7z"/>
	<path class="st8" d="M345,212.3l7.9,1.2c1.8,0.3,3,1.7,3,3.4c-0.2,4.9-1.4,14.1-7.6,15.8c-8.5,2.3-11.1-7.4-11.1-7.4
		S339.2,211.6,345,212.3z"/>
	<path class="st6" d="M329.5,200.8l0.6,9c0.1,1.8-0.5,3.6-1.8,4.8c-1.2,1.2-1.5,3.1-0.6,4.5c1.1,2,3.5,4.4,8.4,4.9
		c4.1,0.4,8.7-1.5,11.2-4.9c4.6-6.1-1.6-5.8-2.3-11.2l-1.5-11.3L329.5,200.8z"/>
	<path class="st9" d="M329.8,204c0,0,0.1,3.2,0.4,6.6c0.2,1.7,7.1,1.2,12.7-5.4C342.9,205.2,329.8,204.6,329.8,204z"/>
	<path class="st6" d="M330.3,177.7c-1.1,3.2-3.5,6.8-9.1,8.6c0,0-0.9,20.7,15.7,20.7c16.6,0,13.6-22.4,13.6-22.4s-11-0.7-16.7-7.6
		C332.8,175.8,330.8,176.2,330.3,177.7z"/>
	<path class="st6" d="M350.1,185.9c0,0,1.6-5.1,4.7-3.2c3.1,1.9,2.1,9.2-5.1,10.8S350.1,185.9,350.1,185.9z"/>
	<path class="st6" d="M321.2,186.3c0,0-4.7-4.1-5-0.2c-0.4,3.9,2.4,8.4,7.8,7.8C329.4,193.4,321.2,186.3,321.2,186.3z"/>
	<path class="st9" d="M336,190.8c1.3,0.1,0.9,2.8,0.6,3.4c-0.6,1.3-1.6,0.4-1.6-0.8C335,192.7,335.3,190.7,336,190.8z"/>
	<path class="st9" d="M350.6,188.5c0.1-0.8,1.1-3.8,2.4-3.1c1.3,0.7-0.1,4.5-1.6,4.9C349.9,190.6,350.6,188.5,350.6,188.5z"/>
	<path class="st9" d="M321.8,190.1c-0.2-0.8-1.3-3.8-2.5-2.9c-1.3,0.8,0.4,4.5,1.9,4.8S321.8,190.1,321.8,190.1z"/>
	<path class="st10" d="M333,197.9c2.5,0.3,5.6,0.4,8.3-0.4c2.5-0.7,1.4,3.1,0,4.4c-2.3,2.1-5.6,1.9-7.9,0
		C332.5,201.1,329.8,197.5,333,197.9z"/>
	<path class="st11" d="M340.1,186.8c0.8-0.6,2.3-1.3,4.6-0.6c0.3,0.1,0.6-0.3,0.4-0.5c-0.4-0.5-1.3-1.1-2.4-1.1
		c-1.9,0-2.6,1.1-3,1.9C339.6,186.8,339.9,187,340.1,186.8z"/>
	<path class="st11" d="M327.6,186.4c0.9-0.4,2.5-0.8,4.6,0.4c0.3,0.2,0.7-0.1,0.5-0.4c-0.3-0.6-1.1-1.3-2.1-1.6
		c-1.8-0.4-2.7,0.6-3.3,1.3C327.1,186.3,327.4,186.5,327.6,186.4z"/>
	<path class="st6" d="M309.6,315c1.8-14,1.1-36,12.6-39.2c11.4-3.2,12.7,14.1,6.5,35.7c-5.4,18.7-6.2,17-8.1,25.3
		c-0.3,1.3-1,6.3-0.9,7.6c0.2,1.9,0,5-3.2,8.2c-8.6,8.7-8.2,11.5-13,11.7c-3.8,0.1,0.2-12.7,2.8-20.3c1.3-3.8,2.2-7.7,2.5-11.7
		L309.6,315z"/>
	<path class="st12" d="M302.5,356.1c0.2,1.5,0.8,4.2,4.9,2.7c4.1-1.4,9.1-9.3,10.1-11.3c1.1-2,1-4.6,2.3-4.7
		c1.3-0.2,2.3,4.6,1.6,6.8c-0.7,2.2-3.2,3.6-3.6,5.5c-0.4,1.9-15.3,19.4-18.6,16.8C296.2,369.4,302.5,356.1,302.5,356.1z"/>
	<path class="st6" d="M288.1,310.7c1.7-13.4,1.1-34.6,12.1-37.6c11-3.1,12.2,13.6,6.3,34.3c-5.2,18-5.9,16.4-7.8,24.3
		c-0.3,1.3-1,6-0.8,7.3c0.2,1.8,0,4.8-3.1,7.9c-8.2,8.4-7.9,11.1-12.5,11.2c-3.6,0.1,0.1-12.2,2.7-19.5c1.3-3.7,2.1-7.4,2.4-11.3
		L288.1,310.7z"/>
	<path class="st12" d="M281.3,350.2c0.2,1.4,0.8,4,4.7,2.6c3.9-1.4,8.7-8.9,9.7-10.8s1-4.4,2.3-4.6s2.2,4.4,1.5,6.6
		c-0.7,2.1-3.1,3.5-3.5,5.3c-0.4,1.8-13.9,19.9-17.9,17.9C275.6,365.9,281.3,350.2,281.3,350.2z"/>
	<path class="st5" d="M352.4,321.2c2.2,0.4,8.3-13.3,11-16.6c2.7-3.4,8-4.8,9.9-8.7c2.7-5.7,2.9-14.2,0.5-19.9
		c-2.9-6.8-11.4-18-19.7-17.6c0,0-33.9,1.7-33.9,1.7s-5.1,6.6-21.9,13.1c-12.5,4.8-23.8,14.3-24.5,27.9c-0.1,1.2,1.2,1.9,2.2,1.4
		c4.1-2.3,33.6,0.3,47.1,7.5C341.2,319.4,344.1,319.7,352.4,321.2z"/>
	<path class="st13" d="M317.1,286.9c5.1-2.6,9.7-6,14.8-8.7c5.3-2.8,12.8-5.8,17.3-6.4c-0.6-0.9-2.1-1.2-3.4-1.2
		c-5.5,0.2-10.5,3-16.1,1.1c-1.9-0.7-4.4-3-6.2-0.7c-3.7,4.7-9.6,8-12.9,12.9c-1,1.4-1.8,3.4-1.6,5.1c0.3,2.2,0.6,1.7,2.2,1
		C313.3,289.2,315.2,287.9,317.1,286.9z"/>
	<ellipse class="st14" cx="330.7" cy="192" rx="1.3" ry="1.5"/>
	<ellipse class="st14" cx="341.3" cy="191.9" rx="1.3" ry="1.5"/>
</g>
<g>
	<path class="st15" d="M166.6,474c-1.4,0.5-0.8,13.8,0.2,15.5c4.3,7.1,17.1,2.8,23.8,2.6c4.1-0.1,6.9-2.5,1.1-5.4
		c-3.1-1.5-12.2-3-12.7-5c-0.6-2-1.2-10.8-1.2-10.8S166.6,474,166.6,474z"/>
	<path class="st16" d="M165.7,483.4c-1,3.2-0.5,7.6,0,8.7c1.7,3.8,11.5,2.5,14.7,2.6c2.5,0,21.8-0.5,19.4-4.7
		c-0.9-1.7-4.7-2.7-6.3-3.3c-2.2-0.8-4.4-1.6-6.6-2.2c-0.2-0.1-0.4,0-0.6,0.1c-0.4,0.2-1.3,0.8-2,1.6c-0.3,0.4-0.3,1.1,0.2,1.4
		c0.6,0.5,0.4,1.6-0.4,1.7c-1.8,0.2-4.6,0.3-8.2-0.1c-2.8-0.3-5.4-1.6-7.4-3.8C167.4,484.2,165.9,482.7,165.7,483.4z"/>
	<path class="st17" d="M154.6,396c2.8,13.3,6,25.7,6.9,39.1c1,14.7,0.9,27.4,3.1,42.1c0.8,5.4,18.6,4.5,21.7,1.2
		c1.2-1.3,0.1-44.8,0-47.7c-0.1-3-5.4-51.2-6.9-55.6c0,0-4.4-3.7-10.3-0.6S150.9,380.2,154.6,396z"/>
	<path class="st15" d="M139.8,477.8c-1.5,0.4-1.8,13.7-1,15.4c3.8,7.4,16.9,4.1,23.6,4.4c4.1,0.2,7.1-2,1.5-5.3
		c-3-1.8-11.9-3.9-12.3-6c-0.4-2-0.4-10.9-0.4-10.9S139.8,477.8,139.8,477.8z"/>
	<path class="st7" d="M134,375.3c-0.6,8.1,0.5,52.3,0.1,59.4c-0.4,7.1-2.9,46.4-0.6,47.6c2.4,1.1,9.8,1.2,17.9,0.8
		c8.3-0.4,7.3-3.2,7.3-8.3c0-17,0.8-27.5,1.8-44.5c1.2-21.2,3.2-41.4,2.8-62.7L134,375.3z"/>
	<path class="st15" d="M215.8,314c0.6-2,2.9-5.7,3.1-6.8c0.2-1.1,1.1-3.9,3.6-5.9s5.1-2.9,6.4-3.6c1.3-0.7,1.7,0.6,0.6,2.3
		s-3.5,3.4-2.9,4c0.6,0.6,4-0.4,5.1-1.2c1-0.7,6.2-9.2,8-9.4c1.8-0.2,1.5,4.6,1.1,6.6c-0.3,2-5.2,10.9-6.8,12.5
		c-1.5,1.5-11,4.1-12,6.4C221.1,321,214.8,317.2,215.8,314z"/>
	<path class="st15" d="M202.4,338.9c0.8-3.7,12.8-25.2,14.6-27.1c1.2-1.3,6.9,0.9,5.8,5.1c-1.4,5.3-10.7,36.2-15.3,36.1
		C204.5,352.9,202.4,338.9,202.4,338.9z"/>
	<path class="st15" d="M207.4,353c-4.9-0.3-12.5-4-17.9-9.8c-5.4-5.8,2.2-15,2.2-15s9.8,5.5,15.1,8.3
		C212.1,339.3,210.6,353.2,207.4,353z"/>
	<path class="st18" d="M157.7,312.7c1.1-2.8,5.4-3.1,7.5-2.8c6,0.8,11.6,3.5,18.1,7.7c3.8,2.4,10.6,7.9,13.4,10.6
		c3.1,3.1-7,16.9-8.7,19.1c-1.2,1.5-6.5-2-10.8-4.9C173,339.5,156.1,316.7,157.7,312.7z"/>
	<path class="st18" d="M132.2,334.2c-0.8,2.2-2.8,43.8,3.7,48.3c2,1.4,52.5,2.6,50.2-7.9c-2.6-11.8-1-23.7-2.2-35.6
		c-1.1-10.8-7.3-20.8-15.7-27.5l-20-3.2L132.2,334.2z"/>
	<path class="st15" d="M162.2,299.2c0.9,0.8,1.9,7.1,2.3,9.9c0.1,0.8,0.5,1.5,1.2,2c1.3,1.1,3.1,3,1.2,4.3c-2.2,1.5-14.5-3-19.3-5.4
		c-1.1-0.6-2-1.6-2.3-2.9c-0.2-0.9-0.5-2.1-0.8-3.4c-0.6-2.8-1.1-5.9-1-7.1C143.9,294.3,160.3,297.7,162.2,299.2z"/>
	<path class="st15" d="M124.4,381.1c1.1,0.7,6.8,3,7.9,3.4c1.3,0.5,2.4,1.4,3.7,1.9c1.3,0.5,2.9,0.5,4.2,0.5
		c1.9-0.1,4.9-1.7,6.6-0.8c1.5,0.8,5.9,2.9,6.9,1.5c1.9-2.5-5.5-12.9-8.1-13.6c-2.6-0.6-6.4,3.1-7.5,3c-1.1-0.1-4.7-1.9-4.7-1.9
		S124.4,381.1,124.4,381.1z"/>
	<path class="st19" d="M161.9,256c0.9,0.6,1.6,1.4,2.1,2.4c1.9,4.1-0.9,9.2-3.2,12.6c-6,8.9-11.4,19.1-11.4,19.1s0.3,5.5-2,7.5
		c-2.3,2-5.7,1.1-9.4-1.4c-5-3.4-7.7-9-6.2-15.3c1.6-6.6,6.6-12.9,11.1-17.9c3.2-3.5,7.1-7.2,11.9-8.4
		C157.1,254.2,159.9,254.6,161.9,256z"/>
	<path class="st15" d="M160.1,269.5c2.8-0.8,5,5.4,7.1,6.8c0.8,0.6,1.8,0.9,2.7,1.4c0.9,0.5,1.8,1.2,2.1,2.2c0.2,0.6,0,1.3-0.3,1.8
		c-0.4,0.6-0.4,1.4,0,2c2.2,3.6,3.6,7.8,1.4,12c-0.7,1.4-1.9,2.6-3.2,3.4c-5.8,3.5-12.9,0.2-18.7-1.6c-2.2-0.7-5.4-1-6.9-2.8
		c-1.1-1.3-1.3-3.3-0.5-4.8c0.8-1.5,2.6-2.4,4.3-2.2c0.4,0,1,0.1,1.1-0.4c0-0.2-0.1-0.4-0.2-0.6c-1.4-2-4-3.6-3.6-6
		c0.3-1.9,2.5-2.9,4.3-3.7c1.8-0.8,3.5-1.8,5.1-2.9c1.7-1.2,3.2-3.3,4.9-4.4C159.7,269.6,159.9,269.5,160.1,269.5z"/>
	<path class="st15" d="M104.4,344.9c-1.3,1.6-5.7,6.4-2.7,14.2c2.2,6,14.7,20.1,27,23.8c3.4,1,9.6-5.5,6.6-6.9
		c-9.1-4.2-18.7-22.3-20.2-22.7C113.7,352.8,104.4,344.9,104.4,344.9z"/>
	<path class="st20" d="M171.8,287.1c0,0-3.3,4-8,1.4"/>
	<path class="st21" d="M150.7,293.7c-0.2-0.7-1-3.5-2.5-3.4c-1.5,0.1-1.7,1.8-0.5,2.8C148.8,294.1,151,295,150.7,293.7z"/>
	<path class="st15" d="M111.2,336.3c0.5-0.6,7-6.7,6.8-7.2c0,0,9,16.9,9,16.9l-14.7,15.1c0,0-11.6-6.6-9.8-13.5
		C103.1,345.1,109.6,337.9,111.2,336.3z"/>
	<path class="st18" d="M142.9,307.7c-0.1-0.2-3.6,1.3-4.6,1.7c-1.5,0.6-3.3,1.5-3.6,1.6c-9,5-29,20.6-30.2,24.9
		c-0.6,2.3,15.1,18.3,19.2,18.5c2.4,0.1,25.3-25.5,25.8-29C150.6,318.1,144,310,142.9,307.7z"/>
	<path class="st22" d="M161.1,317.3c0,0,0.4,8.7,0.7,11.3c0.2,1.6,3.8,1,4,0c0.9-5.4-1-12.4-1-12.4S162.8,313.1,161.1,317.3z"/>
	<path class="st23" d="M164,309c0.2-0.7,1-1.1,1.7-0.8c1.7,0.9,2.5,1.8,3.8,3.1c1.5,1.5,2,6.5,1.2,10.3c-0.2,0.7-1.1,1-1.6,0.5
		l-6.5-6.8L164,309z"/>
	<path class="st23" d="M145.6,306.7c4.2,2,13.1,6.3,17,8.5c0,0-3.5,8-4.9,9c-1.1,0.8-11.2-8.7-15.4-12.8c-1.1-1-1.2-2.7-0.3-3.9l0,0
		C142.8,306.5,144.3,306.1,145.6,306.7z"/>
	<path class="st16" d="M138.2,487.1c-1.3,3.1-1.1,7.5-0.7,8.7c1.4,4,11.2,3.4,14.5,3.7c2.5,0.2,21.7,1.2,19.7-3.3
		c-0.8-1.8-4.5-3-6.1-3.8c-2.1-1-4.3-1.9-6.5-2.7c-0.2-0.1-0.4-0.1-0.6,0c-0.5,0.2-1.4,0.7-2.1,1.5c-0.4,0.4-0.3,1,0,1.4
		c0.6,0.5,0.3,1.6-0.5,1.6c-1.8,0.1-4.6,0-8.2-0.7c-2.7-0.5-5.2-2-7.1-4.3C139.8,488,138.4,486.5,138.2,487.1z"/>
	<path class="st24" d="M161.1,275c-1.1,0-3,0.3-4.7,2.4c-0.2,0.3-0.8,0.1-0.7-0.2c0.1-0.7,0.6-1.9,1.5-2.5c1.8-1.2,3.1-0.6,4.1-0.1
		C161.5,274.7,161.4,275,161.1,275z"/>
	
		<ellipse transform="matrix(0.8946 -0.4469 0.4469 0.8946 -107.6984 101.6261)" class="st25" cx="161.6" cy="279.1" rx="1.3" ry="1.5"/>
</g>
<g>
	<path class="st26" d="M218.3,383.7l0,3.2c0,1.1,0.8,2,1.9,2.1l3.2,0.3c2,0.2,2.6,2.8,0.9,3.9l-2.7,1.6c-0.9,0.5-1.3,1.7-0.8,2.7
		l1.3,2.9c0.9,1.8-1.1,3.7-2.9,2.7l-2.8-1.6c-0.9-0.5-2.1-0.3-2.7,0.6l-1.8,2.6c-1.2,1.7-3.8,0.9-3.8-1.2l0-3.2c0-1.1-0.8-2-1.9-2.1
		L203,398c-2-0.2-2.6-2.8-0.9-3.9l2.7-1.6c0.9-0.5,1.3-1.7,0.8-2.7l-1.3-2.9c-0.9-1.8,1.1-3.7,2.9-2.7l2.8,1.6
		c0.9,0.5,2.1,0.3,2.7-0.6l1.8-2.6C215.7,380.9,218.3,381.7,218.3,383.7z"/>
	<g>
		<path class="st27" d="M213.2,397.1c-0.4,0-0.7-0.1-1-0.2c-0.9-0.3-1.6-0.9-2.1-1.7c-0.4-0.8-0.5-1.8-0.3-2.7
			c0.5-1.5,1.8-2.5,3.4-2.5c0.4,0,0.7,0.1,1,0.2c0.9,0.3,1.6,0.9,2.1,1.7s0.5,1.8,0.3,2.7C216.1,396.1,214.8,397.1,213.2,397.1z"/>
		<g>
			<path class="st28" d="M213.2,391c0.2,0,0.5,0,0.8,0.1c1.3,0.4,2.1,1.8,1.7,3.2c-0.3,1.1-1.3,1.8-2.4,1.8c-0.2,0-0.5,0-0.8-0.1
				c-1.3-0.4-2.1-1.8-1.7-3.2C211.1,391.7,212.1,391,213.2,391 M213.2,389.1L213.2,389.1c-2,0-3.7,1.3-4.3,3.2
				c-0.4,1.1-0.2,2.4,0.3,3.4c0.6,1.1,1.5,1.8,2.6,2.2c0.4,0.1,0.9,0.2,1.3,0.2c2,0,3.7-1.3,4.3-3.2c0.4-1.1,0.2-2.4-0.3-3.4
				c-0.6-1.1-1.5-1.8-2.6-2.2C214.1,389.1,213.6,389.1,213.2,389.1L213.2,389.1z"/>
		</g>
	</g>
</g>
<path class="st26" d="M203.9,406.7l-0.3,1.2c-0.1,0.4,0.1,0.8,0.5,1l1.2,0.4c0.8,0.2,0.8,1.3,0,1.6l-1.2,0.4c-0.4,0.1-0.6,0.5-0.6,1
	l0.3,1.2c0.2,0.8-0.8,1.3-1.4,0.8l-0.9-0.8c-0.3-0.3-0.8-0.3-1.1,0l-0.9,0.8c-0.6,0.5-1.5,0-1.3-0.8l0.3-1.2c0.1-0.4-0.1-0.8-0.5-1
	l-1.2-0.4c-0.8-0.2-0.8-1.3,0-1.6l1.2-0.4c0.4-0.1,0.6-0.5,0.6-1l-0.3-1.2c-0.2-0.8,0.8-1.3,1.4-0.8l0.9,0.8c0.3,0.3,0.8,0.3,1.1,0
	l0.9-0.8C203.1,405.3,204.1,405.9,203.9,406.7z"/>
<g>
	<g>
		<path class="st29" d="M242.9,205.8c0,3.6,2.9,6.5,6.5,6.5h20.7c3.6,0,6.5-2.9,6.5-6.5v-24.6h-33.7V205.8z"/>
		<path class="st30" d="M274,173.4h-24.6c-3.6,0-6.5,2.9-6.5,6.5v1.3h33.7V176C276.6,174.6,275.4,173.4,274,173.4z"/>
	</g>
	<path class="st31" d="M270.1,212.3h-20.7c-3.6,0-6.5-2.9-6.5-6.5v-25.9c0-3.6,2.9-6.5,6.5-6.5H274c1.4,0,2.6,1.2,2.6,2.6v29.7
		C276.6,209.4,273.7,212.3,270.1,212.3z"/>
	<g>
		<path class="st32" d="M272,175.6c-0.9,0-1.7,0.7-1.7,1.7s0.7,1.7,1.7,1.7c0.9,0,1.7-0.7,1.7-1.7S273,175.6,272,175.6z"/>
		<path class="st32" d="M266.9,175.6c-0.9,0-1.7,0.7-1.7,1.7s0.7,1.7,1.7,1.7c0.9,0,1.7-0.7,1.7-1.7S267.9,175.6,266.9,175.6z"/>
		<path class="st32" d="M261.8,175.6c-0.9,0-1.7,0.7-1.7,1.7s0.7,1.7,1.7,1.7c0.9,0,1.7-0.7,1.7-1.7S262.8,175.6,261.8,175.6z"/>
	</g>
	<g>
		<path class="st33" d="M268.5,202c-2.2-4.4-6.3-5.1-8.4-5.1c-2.1,0-6.1,0.7-8.4,5.1c-0.8,1.6-0.2,3.4,1.6,3.4h13.5
			C268.7,205.4,269.4,203.6,268.5,202z"/>
		<circle class="st33" cx="260.2" cy="192.7" r="5.1"/>
	</g>
</g>
<g>
	<path class="st34" d="M240.1,277.5c-0.1-6.7-5-12.2-11.4-13.2c-1-0.2-1.9,0.6-1.9,1.6l-0.2,10.7c0,0.7-0.2,1.3-0.4,1.9l-4.4,9.7
		c-0.4,0.9,0.1,2,1.1,2.3c1.2,0.4,2.5,0.5,3.8,0.5C234.1,291.1,240.2,284.9,240.1,277.5z"/>
	<g>
		<path class="st35" d="M213.7,269.6c-0.3-0.2-0.8-0.1-1,0.2c-1.3,2.1-2.1,4.5-2.1,7.2c0,5.2,2.9,9.7,7.2,11.9c0.4,0.2,0.8,0,1-0.3
			l4.9-10.8c0.2-0.4,0.1-1-0.3-1.2L213.7,269.6z"/>
		<path class="st36" d="M224.2,261.1c0-0.4-0.4-0.8-0.8-0.7c0,0,0,0,0,0c-3.9,0.2-7.3,2.1-9.6,4.9c-0.2,0.2-0.3,0.8,0,1.1
			c2.1,1.5,9.3,6.5,9.3,6.5c0.5,0.3,1.1,0,1.1-0.6C224.2,272.3,224.2,263.7,224.2,261.1C224.2,261.1,224.2,261.1,224.2,261.1z"/>
	</g>
</g>
<g>
	<g>
		<path class="st37" d="M433.5,212.3h-1c-2.4,0-4.3-1.9-4.3-4.3v-15.7c0-0.4,0.3-0.7,0.7-0.7h1c2.4,0,4.3,1.9,4.3,4.3v15.7
			C434.2,212,433.9,212.3,433.5,212.3z"/>
		<path class="st38" d="M425,212.3h-1c-2.4,0-4.3-1.9-4.3-4.3v-9.2c0-0.4,0.3-0.7,0.7-0.7h1c2.4,0,4.3,1.9,4.3,4.3v9.2
			C425.7,212,425.4,212.3,425,212.3z"/>
		<path class="st39" d="M416.5,212.3h-1c-2.4,0-4.3-1.9-4.3-4.3v-3.5c0-0.4,0.3-0.7,0.7-0.7h1c2.4,0,4.3,1.9,4.3,4.3v3.5
			C417.2,212,416.9,212.3,416.5,212.3z"/>
	</g>
	<path class="st40" d="M409.6,196.6c0,0,11.7-4.4,18.3-12.5"/>
	<polyline class="st40" points="425,183.6 428.6,183.4 428.9,187.3 	"/>
</g>
<g>
	<path class="st41" d="M423.2,569.5c-1,1.1,6.3,12.3,8,13.2c7.3,3.9,18.5-6.5,24.2-10c3.4-2.2,6.2-8.1-0.2-7.6
		c-3.5,0.3-15.9,6.2-17.4,4.7c-1.5-1.4-6.5-8.7-6.5-8.7S423.2,569.4,423.2,569.5z"/>
	<path class="st41" d="M389.9,593.2c-1.5,0.3-2.2,17.1-1.4,18.9c3.5,7.5,18.8,5.8,25.4,6.4c4,0.3,9.8-2.8,4.3-6.2
		c-2.9-1.9-16.4-4.5-16.8-6.5c-0.4-2.1-0.1-10.9-0.1-10.9S390,593.2,389.9,593.2z"/>
	<path class="st42" d="M366.9,525c3.5-2.4,31.3-18.2,34.2-19.1c2.9-0.9,10-2.4,13.5,0.5c3.5,2.9-2.3,24.1-2.3,24.1l-22.3,9.8
		l-31,0.2L366.9,525z"/>
	<path class="st42" d="M411.2,507.7c6.2,6.6,31.8,49.2,30.6,52.1c-1.3,3.1-17.3,12.5-20.9,12.2s-25.5-46.8-25.5-46.8
		S407.3,503.7,411.2,507.7z"/>
	<path class="st43" d="M345.9,432.3c-3.3-0.1-6.6,1.1-9.2,3.6c-3.5,3.3-5.3,8-5.2,12.9c0.1,3.6,1.1,7.1,2.5,10.4c0,0,5.8,9.3,1.7,15
		c-4.1,5.7-15.8,9.4-12.4,22.9l61.7-10.4c0,0-2.9-21.3-8.6-35.6c-6.2-15.8-17.1-20.4-24.3-17.9c-0.5,0.2-1,0.2-1.5,0.1
		C349,432.6,347.5,432.3,345.9,432.3z"/>
	<path class="st44" d="M405,463.1c1.7-0.6,6.8-3.2,7.2-4.6c0.4-1.4,1.7-9.8,0.9-10.5s-1.2,0.3-2,1.8s-2.3,3.7-2.3,3.7
		s-2.2,1.2-3.7,6.2C403.6,464.6,405,463.1,405,463.1z"/>
	<path class="st41" d="M418.7,459.4c1.9-1.7,6.1-10.3,5.3-13.5c-0.5-2-1.5-1.4-2.7-0.3c-2,1.9-3.4,4.1-5.2,6.2
		c-1.6,1.7-4.2,1.7-5.9,3.5c-0.6,0.6-4.5,5.3-3.5,6.2c0,0,4.3,3.5,4.3,3.5l4-2.9L418.7,459.4z"/>
	<path class="st45" d="M353.7,477.7c-3.5,0.1-18.1,3.1-19.5,6.3c-1.4,3.3,0.2,45.9,7.6,49.7c7.4,3.8,22.6,1.6,27.1,0.5
		c3.6-0.9,5.5-3.1,6.7-4.6c1.6-2.1,1.4-3.7,1.6-8.2c0.7-16.3,4-41.4,1.3-42.2C373.5,477.5,361,477.5,353.7,477.7z"/>
	<path class="st45" d="M337.4,481.6c-0.1,0-10.5,1.4-14.3,12.7c-2.9,8.8-3.8,17-2.2,29.3c0.9,6.7,2.3,11.1,5.6,12.8
		c4.7,2.4,3.6-1.6,7-5.1c0.5-0.5,1.8-1.7,2-2.3c2.1-4.8,5.1-25.1,5.3-30.4c0.2-4.6,1.1-10-0.5-14.4
		C339.7,482.5,339.2,481.3,337.4,481.6z"/>
	<path class="st45" d="M367.5,477.9c3.3-0.5,15.4,1.7,21.5,3.4c5.5,1.6,11.1,3.9,14.9,8.4c1.5,1.8,3.1,4.7,1.8,7
		c-1.3,2.3-4.5,2.8-6.9,2.9c-5.1,0.3-11.4,0.7-18.3,0.1c-1.2-0.1-2.7,0.3-3,1.8c-0.6,2.1-0.7,6.1-0.7,6.1c-2.7-5.1-5.3-9.2-7.3-14.6
		C368.3,490,362.4,478.6,367.5,477.9z"/>
	<path class="st45" d="M401.9,460.3c0.4-0.9,1.5-1.3,2.5-0.9c3.9,1.7,12.2,5.9,13,8.1c1,2.7-8.8,25.7-11.4,29
		c-2.6,3.3-6.2,3.9-8.2,3.4c-2.5-0.6-6.5-5.7-5.2-14.6C393.6,477.8,399.3,465.7,401.9,460.3z"/>
	<path class="st41" d="M365,520.2c2.9-0.6,11.7-4.1,14.2-2.5c2.5,1.6,8.2,9.1,8.2,11c0,1.9-2,4.1-4.3,2.6s-6.7-4.1-9.4-4.2
		c-2.7-0.1-8.2,1.2-9.1,0.6S365,520.2,365,520.2z"/>
	<path class="st12" d="M334.8,533.6c1.5,1.4,0.6,7.1,0.9,9c0.8,5.5,2.7,11.5,7.8,14.5c8.4,4.9,17.2,3.9,26.4,3.8
		c4.8,0,9.4,0.5,14.1,0.2c3.3-0.2,7,0.1,10.6-0.1c0,0,19-12.7,19-12.7s-4-13.9-18.7-12.9c-14.8,1-42.7-2.1-42.7-2.1
		S334.9,533.6,334.8,533.6z"/>
	<path class="st12" d="M391.5,556.4c0,0-3.7,28.9-3.9,39.2c0,1.3,0.8,2.5,2,3c3,1.2,11.5,2.9,18.3,4.1c1.4,0.2,2.7-0.7,2.8-2.1
		c1.1-8.9,1.3-5.8,2.2-14.7c0.6-5.5,1.1-11,1.6-16.5c0.5-5.9,1.6-12.1,0.6-17.9c-0.7-4.1-3-10.1-7.3-11.7
		C404.9,538.4,391.5,556.4,391.5,556.4z"/>
	<path class="st45" d="M325.8,535.4c1.1,1.4,2.1,4,28.1,1.2c6.7-0.7,12.2-1.2,13.4-2.2c1.2-1,0.8-15.8-1.1-16.1s-31.7,1.2-37.3,2.6
		C323.2,522.1,321.2,529.4,325.8,535.4z"/>
	<path class="st41" d="M343.4,464.8c0,3.2,0.9,11.7-1.1,14.3c-0.9,1.2-2.8,1.3-2.8,2.2s9.5,10.3,18.4,9.7c8.5-0.6,8-8.9,4.1-13.1
		c-0.3-0.3-1.3-0.2-1.6-0.5c-0.9-0.6-0.9-0.9-1.1-1.3c-1.1-2.4-0.9-12.1-0.9-12.1L343.4,464.8z"/>
	<path class="st44" d="M343.5,470.8c0,0.7,0.1,2.7-0.1,4.7c-0.2,1.3,6.1-0.5,8.4-3c2.4-2.5,2.6-5.1,1.4-6.5
		C352.1,464.6,343.5,470.8,343.5,470.8z"/>
	<path class="st41" d="M349.1,435.5c-3.6,0.4-6.8,2.4-8.9,5.3c-2.4,3.4-2.5,7.6-4.7,11c-5.9,9.2,1.5,23.5,14.7,21.3
		c8.2-1.4,13.2-7.9,15.4-13.9C369.1,449.7,359.9,434.2,349.1,435.5z"/>
	<path class="st43" d="M349.1,435.5c-2.7,1.9-3.8,14,6.2,19.7c0.3,0.2,0.7,0,0.8-0.3c0.6-1.5,2.3-5.1,5.1-3.6
		c1.6,0.8,2.2,2.6,2.2,4.3c-0.1,2-1.2,3.6-2.7,4.8c-0.7,0.6-1.4,1.2-2.1,1.8c-0.4,0.3-0.5,0.8-0.5,1.3c0.1,2.1,0.1,4.6,0.6,7.6
		c0-0.6,4.8-2.6,5.4-2.9c11.5-6.1,7.7-22.7-0.5-29.9C360,435.1,353.5,432.3,349.1,435.5z"/>
	<path class="st46" d="M338.8,459.3c0.6,0.3,2,0.9,5.2,0.8c2.6,0,0.5,3.4-0.3,4.3c-1.9,2.1-4.9,1.9-6.3-0.8
		C336.8,462.4,336,457.9,338.8,459.3z"/>
	<path class="st44" d="M357,458c0.2-0.7,1-3.5,2.5-3.4c1.5,0.1,1.7,1.8,0.5,2.8C358.9,458.4,356.7,459.3,357,458z"/>
	<path class="st44" d="M341.2,454.3c0,0,0.1,0.1,0.1,0.1c0.5,0.5-0.4,1.9-0.9,2.1c-1.1,0.5-1-0.9-0.6-1.6
		C340,454.6,340.7,454.1,341.2,454.3z"/>
	<path class="st11" d="M338.4,447.6c0.7,0,1.8,0.2,2.6,1.4c0.2,0.2,0.5,0.1,0.5-0.2c0-0.7-0.2-1.6-1-2c-0.9-0.4-1.7-0.1-2.2,0.2
		C337.9,447.2,338.1,447.6,338.4,447.6z"/>
	<path class="st11" d="M345.9,450.2c1.1-0.3,2.9-0.3,4.9,1.3c0.3,0.2,0.7,0,0.6-0.3c-0.2-0.7-0.9-1.6-1.9-2.1
		c-1.9-0.8-3,0.1-3.8,0.7C345.5,450,345.7,450.3,345.9,450.2z"/>
	<path class="st42" d="M339.7,480.3c0.3-0.1,0.7,0,0.9,0.3c0.5,0.8,0.9,1.8,3.6,3.9c3.2,2.6,7.3,4.8,12,5.4c2.4,0.3,6.2,0,7.3-2.7
		c1.2-3.1-0.4-6.8-2.2-9.6c-0.1-0.2,0-0.4,0.2-0.5c1.1-0.2,2.3,0,2.4,0.2c0.4,0.7,1.1,1.5,1.3,2.2c0.5,1.5,0.8,3,1.1,4.5
		c0.5,3.4-0.7,7-4.1,8.2c-5.5,1.9-12.6-0.7-17.3-3.7c-2.8-1.8-5.4-4.1-7.7-6.6c-0.3-0.3-0.2-0.7,0.2-0.9L339.7,480.3z"/>
	<path class="st47" d="M339.6,504.8c-0.3,0.6-0.4,1.5-0.4,2.4c0,3-1.6,11.8,3.7,11.3c4.7-0.5,13.2-1.3,17.5-1.5c0.8,0,2.6-0.1-0.5-2
		c-1.3-0.8-9.4-0.5-12.2-2.2c-2.7-1.6-4.2-5.3-5.6-7.5c0,0,0,0,0,0C341,503.4,340.1,503.7,339.6,504.8z"/>
	<g>
		<path class="st18" d="M378.9,531.3l30.1-1.6c2,0,4.2-1.6,4.9-3.7l9.8-21.6c1.3-3.3-2-5.3-4-5.3h-31.2c-2,0-4.2,1.6-4.9,3.7
			l-8.2,23.2C374.7,528.1,376,531.3,378.9,531.3z"/>
		<path class="st17" d="M380,532.5l30.1-1.6c2,0,4.2-1.6,4.9-3.7l9.8-21.6c1.3-3.3-2-5.3-4-5.3h-31.2c-2,0-4.2,1.6-4.9,3.7
			l-8.2,23.2C375.9,529.2,377.1,532.5,380,532.5z"/>
		<path class="st7" d="M380.5,532.5h31.2c2,0,4.2-1.6,4.9-3.7l8.2-23.2c0.7-2-0.3-3.7-2.4-3.7h-31.2c-2,0-4.2,1.6-4.9,3.7l-8.2,23.2
			C377.5,530.8,378.5,532.5,380.5,532.5z"/>
		<path class="st7" d="M365.7,535.3h46.6c1.6,0,2.9-1.3,2.9-2.9c0-1.6-1.3-2.9-2.9-2.9h-46.6c-1.6,0-2.9,1.3-2.9,2.9
			C362.8,534,364.1,535.3,365.7,535.3z"/>
		<g>
			<path class="st48" d="M397.1,516.2c-0.2-0.2-0.2-0.6,0.1-0.7c0.7-0.3,1.6-0.7,2.4-0.3c1.1,0.5,3.5,4.6,6,5.4
				c0.2,0.1,0.2,0.3,0.1,0.5c-1.2,0.8-4.6,2.6-6.5-1.9C398.3,517.4,397.6,516.6,397.1,516.2z"/>
			<path class="st48" d="M402.7,516c-0.2,0.1-0.4,0-0.5-0.2c-0.2-0.7-0.7-1.9,0-2.5c0.6-0.5,1.2-1,1.6-1.2c0.2-0.1,0.4,0,0.4,0.2
				c0.1,0.6,0.3,1.7,0.3,2C404.5,514.9,403.4,515.7,402.7,516z"/>
			<path class="st48" d="M403.6,516.7c0.7-0.3,1.4-0.5,2.3-0.3c1.1,0.4,2.9,1.3,4,1.7c0.2,0.1,0.3,0.4,0.1,0.5
				c-0.5,0.3-1.3,0.7-2,0.7c-1.1,0-1.9-0.4-3-1.4c-0.5-0.4-0.9-0.6-1.2-0.7C403,517,403.2,516.9,403.6,516.7z"/>
		</g>
		<polygon class="st7" points="417.9,525.3 415,533.7 410.9,530.9 		"/>
	</g>
	<g>
		<path class="st7" d="M396,617.6c3.9,1,13.6,1.8,16.5,1.9c2.9,0.1,7.1,0.3,8.5-1.1c0,0,0,0,0,0c0.4-1.3,0.5-2.8-0.3-4.5
			c-1.7-3.6-9.2-6.1-13.3-6.4c-4.2-0.3-4.2,1.9-6.1,2.5s-5.8,0.6-7.8-1.1c-1.3-1.1-3.7-3.2-5.2-3.5c-1.3-0.2-1.9,1.6-2,3.4
			c-0.1,1.2,0.1,5.2,0.1,5.2C387.6,615,392.2,616.6,396,617.6z"/>
		<path class="st49" d="M386.3,615.4c0.6,1.9,5.7,3.5,11.5,4.9c5.8,1.4,19.1,2.5,22.1,1c0.8-0.4,1.3-3.2,1.3-3.2
			c-2.1,0.4-5.7,0.9-9.4,0.6c-2.9-0.2-12.5-1.3-16.4-2.2c-3.2-0.8-6.8-2.8-9-3.9c-0.4-0.2-0.4,1.2-0.4,1.7
			C386.1,614.9,386.2,615.1,386.3,615.4z"/>
	</g>
	<path class="st49" d="M410,607.6c-1.1,0.3-2.1,1-3.1,1.7c-0.5,0.4-2,2.7-0.1,2.5c0.3,0,0.6-0.2,0.8-0.4c1.6-1.2,2.5-2,4.5-2.6
		c0.8-0.3,0.4-1-0.3-1.2C411.3,607.5,410.6,607.5,410,607.6z"/>
	<g>
		<path class="st7" d="M439.2,581.7c3.8-1.3,12.4-5.9,14.9-7.3s6.1-3.6,6.5-5.5c0,0,0,0,0,0c-0.3-1.3-1.1-2.7-2.7-3.6
			c-3.4-2.1-11-0.2-14.7,1.9s-2.4,3.9-3.8,5.4c-1.3,1.5-4.6,3.6-7.1,3.3c-1.7-0.2-4.8-0.7-6.3-0.1c-1.3,0.5-0.8,2.4,0.1,4
			c0.6,1,3,4.3,3,4.3C430.7,584.1,435.4,583,439.2,581.7z"/>
		<path class="st49" d="M429.9,585.1c1.5,1.3,6.7-0.2,12.3-2.2c5.7-2,17.4-8.3,19.1-11.2c0.5-0.8-0.7-3.4-0.7-3.4
			c-1.5,1.5-4.3,3.9-7.5,5.6c-2.6,1.4-11.2,5.7-15,7c-3.2,1.1-7.3,1.3-9.7,1.6c-0.5,0,0.3,1.2,0.6,1.6
			C429.5,584.8,429.6,584.9,429.9,585.1z"/>
	</g>
	<path class="st49" d="M445.6,565.7c-0.8,0.8-1.2,2-1.6,3.1c-0.2,0.6-0.2,3.4,1.3,2.1c0.2-0.2,0.4-0.5,0.5-0.8c0.7-1.9,1-3,2.3-4.6
		c0.6-0.7-0.2-1.1-0.8-0.8C446.5,564.9,446,565.3,445.6,565.7z"/>
	
		<ellipse transform="matrix(0.3464 -0.9381 0.9381 0.3464 -198.7631 622.4044)" class="st14" cx="347.3" cy="453.8" rx="1.5" ry="1.3"/>
	
		<ellipse transform="matrix(0.2178 -0.976 0.976 0.2178 -175.9078 684.0767)" class="st14" cx="338.8" cy="451.8" rx="1.6" ry="1.3"/>
</g>
<path class="st50" d="M453.6,638.6h38.8c12.3,0,22.3,10,22.3,22.3v24.9v0c0,12.3-10,22.3-22.3,22.3h-24.9c-12.3,0-22.3-10-22.3-22.3
	V647C445.1,642.4,448.9,638.6,453.6,638.6z"/>
<path class="st50" d="M482.2,330.3v-19c0-6.1,4.9-11,11-11h12.2l0,0c6.1,0,11,4.9,11,11v12.2c0,6.1-4.9,11-11,11h-19
	C484,334.5,482.2,332.6,482.2,330.3z"/>
<path class="st50" d="M471,340.9v6.9c0,2.2-1.8,4-4,4H462l0,0c-2.2,0-4-1.8-4-4v-4.4c0-2.2,1.8-4,4-4h7.6
	C470.4,339.4,471,340.1,471,340.9z"/>
<g>
	<path class="st51" d="M364,403.4h11.5c2,0,3.7-1.6,3.7-3.7V397c0-2-1.6-3.7-3.7-3.7h-8.6c-2,0-3.7,1.6-3.7,3.7v5.6
		C363.3,403.1,363.6,403.4,364,403.4z"/>
	<path class="st52" d="M375,395.3c-1.4,0.1-2.7,0.8-3.7,1.9c-0.6,0.6-1.1,1.3-1.6,2c-0.3-0.5-0.7-0.9-1.1-1.4
		c-0.3-0.3-0.9-0.3-1.3,0c-0.3,0.3-0.4,0.9-0.2,1.2c0.6,0.8,1.2,1.5,1.6,2.4c0.3,0.6,1.2,0.5,1.6,0.1c0.8-1,1.5-2,2.3-2.9
		c0.8-0.9,1.6-1.8,2.6-2.5C375.6,395.9,375.4,395.3,375,395.3z"/>
</g>
<g>
	<path class="st52" d="M359.9,423.3h-33.1c-3.7,0-6.6-3-6.6-6.6v-4.9c0-3.7,3-6.6,6.6-6.6h27.9c3.7,0,6.6,3,6.6,6.6v10.2
		C361.3,422.7,360.7,423.3,359.9,423.3z"/>
	<path class="st53" d="M351.7,412.6h-24.7c-0.9,0-1.6-0.7-1.6-1.6l0,0c0-0.9,0.7-1.6,1.6-1.6h24.7c0.9,0,1.6,0.7,1.6,1.6l0,0
		C353.2,411.9,352.5,412.6,351.7,412.6z"/>
	<path class="st53" d="M336.1,418.7h-9.2c-0.9,0-1.6-0.7-1.6-1.6l0,0c0-0.9,0.7-1.6,1.6-1.6h9.2c0.9,0,1.6,0.7,1.6,1.6l0,0
		C337.6,418,336.9,418.7,336.1,418.7z"/>
</g>
<g>
	<g>
		<circle class="st54" cx="413.3" cy="431.8" r="11.7"/>
		<g>
			<g>
				<path class="st55" d="M419.1,431.1c-0.1-0.1-3.7-3.1-8.3-5c-0.6-0.2-1.2,0.2-1.3,0.8c-0.3,3-0.3,6.6,0,9.8
					c0.1,0.6,0.7,1,1.3,0.8c4.6-1.9,8.1-4.8,8.3-5C419.5,432.1,419.5,431.5,419.1,431.1z"/>
			</g>
		</g>
	</g>
</g>
<path class="st50" d="M86.5,614.9v26.5c0,8.4-6.8,15.3-15.3,15.3h-17h0c-8.4,0-15.3-6.8-15.3-15.3v-17c0-8.4,6.8-15.3,15.3-15.3
	h26.6C83.9,609.1,86.5,611.7,86.5,614.9z"/>
<path class="st50" d="M152.4,559.9v-13.8c0-4.4,3.5-7.9,7.9-7.9h8.8l0,0c4.4,0,7.9,3.5,7.9,7.9v8.8c0,4.4-3.5,7.9-7.9,7.9h-13.8
	C153.8,562.9,152.4,561.6,152.4,559.9z"/>
<path class="st56" d="M151.1,524.2v4.5c0,1.4-1.2,2.6-2.6,2.6h-2.9l0,0c-1.4,0-2.6-1.2-2.6-2.6v-2.9c0-1.4,1.2-2.6,2.6-2.6h4.5
	C150.7,523.3,151.1,523.7,151.1,524.2z"/>
<path class="st50" d="M450,136.2v-14.3c0-4.6,3.7-8.2,8.2-8.2h9.2l0,0c4.6,0,8.2,3.7,8.2,8.2v9.2c0,4.6-3.7,8.2-8.2,8.2h-14.3
	C451.4,139.3,450,137.9,450,136.2z"/>
<path class="st50" d="M105.8,116.1H74.1c-10.1,0-18.3-8.2-18.3-18.3V77.5v0c0-10.1,8.2-18.3,18.3-18.3h20.3
	c10.1,0,18.3,8.2,18.3,18.3v31.7C112.6,113,109.6,116.1,105.8,116.1z"/>
<path class="st50" d="M129.6,122.4v4.9c0,1.6-1.3,2.8-2.8,2.8h-3.1l0,0c-1.6,0-2.8-1.3-2.8-2.8v-3.1c0-1.6,1.3-2.8,2.8-2.8h4.9
	C129.1,121.3,129.6,121.8,129.6,122.4z"/>
</svg>
